<svg width="320" height="640" viewBox="0 0 320 640" fill="none" xmlns="http://www.w3.org/2000/svg">
<g clip-path="url(#clip0_393_974)">
<rect width="320" height="640" fill="url(#paint0_linear_393_974)"/>
<path d="M205.434 435.087C180.852 478.486 235.272 528.667 275.959 477.13L308 498.491L290.029 578L275.986 632.492C254.422 712.377 60.7347 707.745 42.499 632.492L30.2061 578.137L12 498.491L44.041 477.13C84.7281 528.667 139.148 478.486 114.566 435.087L160 409.318L205.434 435.087ZM160.338 514.428C102.85 514.428 56.2461 546.306 56.2461 585.63C56.2461 624.954 102.85 656.832 160.338 656.832C217.826 656.832 264.43 624.954 264.43 585.63C264.43 546.306 217.826 514.428 160.338 514.428Z" fill="#37A94D" fill-opacity="0.1"/>
<path d="M160.172 575.288C117.111 557.317 73.8804 570.371 67.7773 602.921C84.8972 584.482 114.632 581.913 148.305 595.966C203.741 618.348 247.141 606.311 253.414 572.236C234.244 591.89 214.406 593.174 160.172 575.288Z" fill="#37A94D" fill-opacity="0.1"/>
</g>
<defs>
<linearGradient id="paint0_linear_393_974" x1="0" y1="320" x2="320" y2="320" gradientUnits="userSpaceOnUse">
<stop stop-color="#005D2D"/>
<stop offset="0.504808" stop-color="#277536"/>
<stop offset="1" stop-color="#005D2D"/>
</linearGradient>
<clipPath id="clip0_393_974">
<rect width="320" height="640" fill="white"/>
</clipPath>
</defs>
</svg>
