<svg width="128" height="24" viewBox="0 0 128 24" fill="none" xmlns="http://www.w3.org/2000/svg">
<path d="M6.25953 0.0698452C3.90971 0.398354 1.86986 1.87166 0.79994 4.03186C0.0599955 5.55494 0.0699947 5.39566 0.0299977 11.3885L0 16.7441L0.479964 16.6844C1.17991 16.5849 2.12984 16.107 2.5998 15.6292C2.81979 15.4002 3.12977 14.9622 3.27975 14.6536L3.55973 14.0862L3.60973 10.3034C3.66972 6.66988 3.67972 6.50065 3.88971 5.95313C4.20968 5.15675 4.87963 4.45991 5.68957 4.06172L6.35952 3.73321L15.0289 3.70335L23.7082 3.68344V1.8418V0.000160217L15.1389 0.0101166C10.4192 0.020071 6.42952 0.0499344 6.25953 0.0698452Z" fill="#ED1C24"/>
<path d="M32.1064 11.9951V19.9092H34.1563H36.2061V15.2304C36.2061 12.6521 36.2361 10.5517 36.2861 10.5616C36.3261 10.5616 37.2561 11.6566 38.356 13.0005C39.4459 14.3345 40.3758 15.4295 40.4058 15.4196C40.4358 15.4196 41.3558 14.3245 42.4557 12.9806L44.4555 10.5417L44.4855 15.2304L44.5055 19.9092H46.5554H48.6052V11.9951V4.08104H46.5754H44.5355L42.4957 6.76884C41.3758 8.24215 40.4258 9.44668 40.3958 9.45663C40.3658 9.45663 39.4159 8.2521 38.296 6.77879L36.2561 4.09099H34.1863L32.1064 4.08104V11.9951Z" fill="#ED1C24"/>
<path d="M53.3951 11.9951L50.2354 19.9092H52.3052H54.375L54.795 18.8142L55.215 17.7191H58.4547H61.6945L62.1145 18.8142L62.5444 19.9092H64.6243C65.7642 19.9092 66.7041 19.8793 66.7041 19.8295C66.7041 19.7897 65.2942 16.2458 63.5744 11.9453L60.4446 4.13081L58.4947 4.10095L56.5549 4.08104L53.3951 11.9951ZM59.4347 11.8557L60.3746 14.2847L59.4447 14.3146C58.9347 14.3245 58.0748 14.3245 57.5348 14.3146L56.5449 14.2847L57.4948 11.8259C58.0148 10.472 58.4547 9.377 58.4747 9.38695C58.4847 9.40686 58.9247 10.5118 59.4347 11.8557Z" fill="#ED1C24"/>
<path d="M68.4053 11.9951V19.9092H70.4551H72.505V13.787V7.66477H75.4047H78.3045V5.87291V4.08104H73.3549H68.4053V11.9951Z" fill="#ED1C24"/>
<path d="M80.5049 11.9951V19.9092H82.5547H84.6046V16.8232V13.7372H87.7043H90.8041V16.8232V19.9092H92.854H94.9038V11.9951V4.08104H92.854H90.8041V7.01771V9.95438H87.7043H84.6046V7.01771V4.08104H82.5547H80.5049V11.9951Z" fill="#ED1C24"/>
<path d="M98.002 11.9951V19.9092H99.7318H101.462L104.711 15.4295C106.491 12.9707 107.981 10.9598 108.031 10.9499C108.071 10.9499 108.101 12.9607 108.101 15.4295V19.9092H110.151H112.201V11.9951V4.08104L110.381 4.09099H108.551L105.351 8.54079L102.152 12.9906L102.122 8.53084L102.102 4.08104H100.052H98.002V11.9951Z" fill="#ED1C24"/>
<path d="M114.201 5.87291V7.66477H116.601H119.001V13.787V19.9092H121.051H123.101L123.121 13.8168L123.151 7.71454L125.58 7.68468L128 7.66477V5.87291V4.08104H121.101H114.201V5.87291Z" fill="#ED1C24"/>
<path d="M22.5781 7.46556C21.6181 7.7642 20.9582 8.36149 20.4682 9.35697L20.1583 10.004L20.1083 13.7869L20.0583 17.5697L19.7883 18.1371C19.4183 18.9335 18.7384 19.6204 17.9784 19.9688L17.3585 20.2575L8.68911 20.2873L0.00976562 20.3172V22.1588V24.0005L8.8391 23.9706C18.7784 23.9308 18.0484 23.9905 19.7983 23.1344C21.4382 22.3281 22.7181 20.8448 23.378 18.9634L23.658 18.167L23.688 12.7117L23.718 7.26646L23.438 7.27642C23.288 7.27642 22.898 7.35605 22.5781 7.46556Z" fill="#ED1C24"/>
<path d="M6.91016 12.0444V16.7231H8.31005H9.70995L9.72994 14.3738L9.75994 12.0344L10.7899 13.2887C11.3598 13.9756 11.8598 14.5331 11.9098 14.5132C11.9498 14.4933 12.4397 13.9358 12.9997 13.2589L14.0096 12.0344V14.3738V16.7231H15.4595H16.9094V12.0444V7.36563H15.5595H14.2196L13.0897 8.85885C12.4697 9.67514 11.9198 10.3322 11.8698 10.3222C11.8198 10.3023 11.2798 9.64528 10.6699 8.85885L9.55996 7.4154L8.23006 7.38554L6.91016 7.35567V12.0444Z" fill="#ED1C24"/>
</svg>
