<svg width="414" height="304" viewBox="0 0 414 304" fill="none" xmlns="http://www.w3.org/2000/svg">
<path d="M0 0V120.378H18.6583V74.2038H26.2598C32.4792 74.2038 37.6306 73.2824 41.7246 71.4396C45.808 69.5968 49.1272 67.0315 51.661 63.7438C54.1948 60.4561 55.9853 56.5088 57.0218 51.8913C58.0584 47.2844 58.5715 42.1539 58.5715 36.4998C58.5715 23.705 56.0062 14.4177 50.8862 8.65903C45.7557 2.87936 37.6621 0 26.6053 0H0ZM25.5687 17.4646C31.3275 17.4646 35.2748 19.1713 37.4003 22.5951C39.5258 26.0085 40.5938 30.6678 40.5938 36.5731C40.5938 43.18 39.4734 48.1325 37.2223 51.4306C34.9712 54.7288 30.9715 56.3831 25.2127 56.3831H18.6478V17.4646H25.5583H25.5687Z" fill="#1C4A27"/>
<path d="M126.367 120.378L102.003 0H81.2711C77.24 20.1765 73.2089 40.2378 69.1778 60.1839C65.1467 80.13 61.1156 100.191 57.0845 120.368H76.0883C76.7793 116.222 77.5018 112.044 78.2452 107.824C78.9886 103.615 79.7738 99.4374 80.5801 95.2807H102.694L107.363 120.357H126.367V120.378ZM91.9823 27.8408L99.7618 77.8265H83.3442C84.8415 69.2931 86.2236 60.9063 87.4905 52.6661C88.7574 44.4259 89.9615 36.1438 91.1238 27.8513H91.9928L91.9823 27.8408Z" fill="#1C4A27"/>
<path d="M211.136 37.1907C211.136 32.2382 210.257 27.8511 208.487 24.0503C206.718 20.2495 204.383 17.0456 201.482 14.4489C198.582 11.8523 195.305 9.86291 191.661 8.48081C188.017 7.09872 184.311 6.2925 180.552 6.06215L180.384 0.0102539H161.726V6.06215C157.925 6.06215 154.156 6.75319 150.408 8.13529C146.659 9.51738 143.319 11.5382 140.388 14.1872C137.445 16.8362 135.09 20.0716 133.299 23.8723C131.509 27.6731 130.619 32.0602 130.619 37.0127V75.9312C130.619 80.7685 131.163 85.2184 132.263 89.2495C133.351 93.2911 135.142 96.7987 137.623 99.8037C140.094 102.798 143.298 105.248 147.214 107.154C151.13 109.06 155.905 110.295 161.559 110.871H161.726V120.389H180.384V110.871C184.143 110.525 187.85 109.656 191.494 108.274C195.137 106.892 198.415 104.934 201.315 102.39C204.215 99.856 206.581 96.7463 208.403 93.0503C210.225 89.3647 211.136 84.9776 211.136 79.9099V37.1907ZM193.86 81.6375C193.86 83.7107 193.462 85.5639 192.666 87.1764C191.871 88.7888 190.813 90.1709 189.515 91.3227C188.206 92.4744 186.761 93.3958 185.169 94.0868C183.578 94.7779 182.039 95.2386 180.562 95.4689L180.395 21.2756C184.259 21.6212 187.473 23.0033 190.028 25.4219C192.583 27.8406 193.87 31.2435 193.87 35.6306V81.6375H193.86ZM161.716 95.4689C160.103 95.3538 158.491 94.9768 156.878 94.3486C155.266 93.7204 153.821 92.8199 152.554 91.6682C151.287 90.5164 150.251 89.1029 149.444 87.4277C148.638 85.7524 148.24 83.8259 148.24 81.6375V35.6306C148.24 31.2539 149.444 27.9034 151.874 25.5999C154.292 23.2964 157.58 21.8515 161.726 21.2756V95.4689H161.716Z" fill="#1C4A27"/>
<path d="M33.6522 202.414V214.423H41.9238V193.504H37.9241V139.11H9.58076L8.49183 177.578C8.36619 181.525 8.0102 184.688 7.40291 187.085C6.79563 189.483 5.64389 191.588 3.94768 193.409L0.220215 194.226V214.413H8.49183V202.403H33.6627L33.6522 202.414ZM18.0199 148.303H28.1029V193.504H14.4704C15.4965 191.745 16.1981 189.556 16.5645 186.928C16.931 184.3 17.1718 181.169 17.287 177.536L18.0094 148.303H18.0199Z" fill="#1C4A27"/>
<path d="M52.4364 139.11V175.495C52.4364 178.887 52.3317 181.724 52.1223 183.996C51.9129 186.269 51.5045 188.195 50.8973 189.776C50.29 191.357 49.4838 192.687 48.4891 193.776C47.4944 194.865 46.2065 195.87 44.6255 196.781L48.353 204.058C50.9601 202.906 53.0751 201.587 54.7085 200.1C56.3419 198.613 57.6507 196.687 58.614 194.31C59.5772 191.944 60.2473 189.022 60.6138 185.567C60.9803 182.101 61.1583 177.819 61.1583 172.72V148.303H70.6968V202.424H80.5076V139.12H52.4364V139.11Z" fill="#1C4A27"/>
<path d="M95.6057 202.414L98.6002 184.499C99.2075 181.107 100.223 178.74 101.647 177.4C103.071 176.07 104.631 175.4 106.327 175.4H108.872V202.414H118.682V139.11H104.233C99.019 139.11 94.9251 140.712 91.9201 143.926C88.9256 147.141 87.4178 151.863 87.4178 158.103C87.4178 161.558 87.9623 164.511 89.0512 166.961C90.1401 169.411 92.14 171.244 95.0508 172.458C93.4174 173.432 92.14 174.783 91.2395 176.51C90.3286 178.238 89.669 180.164 89.2397 182.29L85.7007 202.414H95.6057ZM108.872 148.303V166.218H104.966C102.663 166.218 100.768 165.631 99.2913 164.448C97.8045 163.265 97.0611 161.129 97.0611 158.04C97.0611 155.13 97.6474 152.784 98.8306 150.994C100.014 149.203 102.087 148.313 105.05 148.313H108.861L108.872 148.303Z" fill="#1C4A27"/>
<path d="M173.023 202.414V174.762H175.39C177.505 174.762 179.264 175.432 180.656 176.761C182.049 178.091 183.075 180.458 183.745 183.86L187.473 202.414H197.189L192.823 181.316C192.153 178.227 191.169 175.725 189.87 173.809C188.572 171.903 186.761 170.521 184.467 169.673L184.562 169.579C186.321 168.856 187.86 167.537 189.2 165.621C190.53 163.715 191.535 161.213 192.195 158.114C192.865 154.962 193.545 151.821 194.236 148.701C194.927 145.581 195.587 142.408 196.194 139.194H187.106C186.98 139.801 186.74 140.953 186.384 142.649C186.017 144.345 185.63 146.177 185.2 148.156C184.771 150.125 184.363 151.957 183.975 153.664C183.578 155.36 183.326 156.512 183.201 157.119C182.478 160.511 181.379 162.815 179.934 164.029C178.478 165.244 176.719 165.851 174.667 165.851H173.034V139.11H163.223V165.851H161.223C160.438 165.851 159.632 165.715 158.815 165.443C157.998 165.171 157.223 164.7 156.501 164.029C155.779 163.359 155.108 162.469 154.501 161.349C153.894 160.229 153.412 158.815 153.046 157.119L149.14 139.204H140.052C140.722 142.419 141.382 145.591 142.052 148.711C142.722 151.831 143.382 154.973 144.052 158.124C144.659 161.213 145.643 163.715 147.004 165.631C148.366 167.537 149.926 168.856 151.685 169.589V169.767C149.381 170.615 147.601 171.976 146.324 173.861C145.057 175.746 144.083 178.227 143.413 181.316L139.047 202.414H148.763C149.434 199.325 150.062 196.226 150.669 193.137C151.276 190.048 151.884 186.949 152.491 183.86C153.161 180.531 154.114 178.175 155.349 176.814C156.595 175.453 158.428 174.772 160.846 174.772H163.213V202.424H173.023V202.414Z" fill="#1C4A27"/>
<path d="M236.673 202.414L223.857 139.11H212.958C210.832 149.716 208.717 160.271 206.602 170.762C204.477 181.253 202.362 191.807 200.247 202.414H210.246C210.612 200.236 210.989 198.037 211.377 195.818C211.775 193.608 212.183 191.41 212.602 189.221H224.234L226.684 202.414H236.684H236.673ZM218.591 153.758L222.674 180.039H214.047C214.832 175.557 215.565 171.139 216.224 166.804C216.895 162.469 217.523 158.114 218.13 153.747H218.58L218.591 153.758Z" fill="#1C4A27"/>
<path d="M241.165 139.11V202.414H250.976V178.133H254.976C258.242 178.133 260.954 177.651 263.111 176.678C265.257 175.704 267.006 174.353 268.336 172.626C269.665 170.898 270.608 168.825 271.152 166.396C271.697 163.967 271.969 161.276 271.969 158.302C271.969 151.57 270.618 146.69 267.927 143.654C265.236 140.618 260.975 139.11 255.164 139.11H241.176H241.165ZM254.609 148.303C257.635 148.303 259.708 149.203 260.828 150.994C261.949 152.795 262.514 155.245 262.514 158.344C262.514 161.82 261.928 164.417 260.745 166.155C259.562 167.893 257.457 168.762 254.431 168.762H250.976V148.303H254.609Z" fill="#1C4A27"/>
<path d="M286.753 202.414V174.762H289.391C291.569 174.762 293.339 175.432 294.71 176.761C296.072 178.091 297.087 180.458 297.757 183.86C298.427 186.949 299.056 190.048 299.663 193.137C300.27 196.226 300.878 199.325 301.485 202.414H311.296C310.51 198.896 309.767 195.399 309.065 191.912C308.364 188.425 307.631 184.897 306.835 181.316C306.165 178.227 305.202 175.735 303.924 173.861C302.657 171.987 300.867 170.615 298.564 169.767V169.589C300.323 168.867 301.883 167.547 303.244 165.631C304.605 163.726 305.621 161.223 306.291 158.124C306.961 154.973 307.62 151.831 308.291 148.711C308.961 145.591 309.62 142.419 310.29 139.204H301.118C300.993 139.749 300.752 140.89 300.396 142.617C300.029 144.345 299.652 146.198 299.265 148.167C298.867 150.135 298.48 151.988 298.082 153.716C297.684 155.444 297.433 156.585 297.307 157.129C296.585 160.407 295.517 162.679 294.124 163.946C292.732 165.223 290.941 165.851 288.763 165.851H286.763V139.11H276.953V202.414H286.763H286.753Z" fill="#1C4A27"/>
<path d="M335.106 186.771C335.106 188.708 334.676 190.363 333.839 191.724C332.991 193.085 331.567 193.765 329.567 193.765C327.567 193.765 326.164 193.116 325.347 191.807C324.531 190.509 324.122 189.033 324.122 187.399V155.569C324.122 154.784 324.196 153.915 324.353 152.973C324.499 152.03 324.771 151.182 325.169 150.428C325.567 149.675 326.122 149.036 326.855 148.523C327.578 148.01 328.52 147.748 329.672 147.748C331.787 147.748 333.232 148.449 333.985 149.842C334.739 151.235 335.116 152.816 335.116 154.575V186.771H335.106ZM344.927 155.308C344.927 152.7 344.665 150.366 344.152 148.303C343.639 146.24 342.791 144.481 341.618 143.026C340.435 141.57 338.865 140.461 336.907 139.707C334.938 138.953 332.509 138.565 329.609 138.565C326.886 138.565 324.552 138.974 322.594 139.79C320.625 140.607 319.044 141.759 317.84 143.246C316.636 144.733 315.746 146.502 315.17 148.565C314.594 150.627 314.312 152.899 314.312 155.381V187.211C314.312 192.3 315.516 196.205 317.934 198.896C320.353 201.597 324.217 202.948 329.525 202.948C334.834 202.948 338.739 201.534 341.21 198.718C343.681 195.901 344.927 191.734 344.927 186.216V155.297V155.308Z" fill="#1C4A27"/>
<path d="M378.903 148.303V139.12H351.555V202.424H361.365V148.303H378.903Z" fill="#1C4A27"/>
<path d="M404.189 186.771C404.189 188.708 403.76 190.363 402.923 191.724C402.074 193.085 400.65 193.765 398.651 193.765C396.651 193.765 395.248 193.116 394.431 191.807C393.614 190.509 393.206 189.033 393.206 187.399V155.569C393.206 154.784 393.279 153.915 393.436 152.973C393.583 152.03 393.855 151.182 394.253 150.428C394.651 149.675 395.206 149.036 395.939 148.523C396.661 148.01 397.604 147.748 398.755 147.748C400.87 147.748 402.315 148.449 403.069 149.842C403.823 151.235 404.2 152.816 404.2 154.575V186.771H404.189ZM414 155.308C414 152.7 413.738 150.366 413.225 148.303C412.712 146.24 411.864 144.481 410.692 143.026C409.508 141.57 407.948 140.461 405.98 139.707C404.011 138.953 401.582 138.565 398.682 138.565C395.96 138.565 393.625 138.974 391.667 139.79C389.698 140.607 388.117 141.759 386.913 143.246C385.709 144.733 384.819 146.502 384.243 148.565C383.667 150.627 383.385 152.899 383.385 155.381V187.211C383.385 192.3 384.589 196.205 387.008 198.896C389.426 201.597 393.29 202.948 398.598 202.948C403.907 202.948 407.812 201.534 410.283 198.718C412.754 195.901 414 191.734 414 186.216V155.297V155.308Z" fill="#1C4A27"/>
<path d="M194.625 220.988V267.142C194.625 271.456 194.489 275.047 194.216 277.926C193.944 280.806 193.431 283.256 192.656 285.256C191.892 287.255 190.866 288.952 189.599 290.334C188.332 291.716 186.699 292.983 184.699 294.145L189.421 303.38C192.719 301.914 195.41 300.239 197.494 298.354C199.567 296.469 201.221 294.019 202.446 291.014C203.671 288.009 204.519 284.313 204.98 279.916C205.441 275.529 205.671 270.094 205.671 263.624V232.652H217.775V301.307H230.224V220.999H194.604L194.625 220.988Z" fill="#1C4A27"/>
<path d="M274.765 301.296V289.643H251.594V266.451H271.77V254.567H251.594V232.642H274.765V220.988H239.145V301.296H274.765Z" fill="#1C4A27"/>
<path d="M316.458 232.642V220.988H278.189V232.642H291.099V301.296H303.548V232.642H316.458Z" fill="#1C4A27"/>
<path d="M359.146 301.296L342.896 220.988H329.065C326.374 234.453 323.683 247.834 320.992 261.142C318.301 274.45 315.61 287.842 312.919 301.296H325.599C326.06 298.522 326.541 295.736 327.044 292.93C327.547 290.124 328.06 287.339 328.604 284.565H343.357L346.467 301.296H359.146ZM336.206 239.563L341.388 272.911H330.436C331.431 267.215 332.353 261.624 333.201 256.127C334.049 250.63 334.855 245.112 335.619 239.573H336.195L336.206 239.563Z" fill="#1C4A27"/>
</svg>
