<svg width="360" height="320" viewBox="0 0 360 320" fill="none" xmlns="http://www.w3.org/2000/svg">
<g clip-path="url(#clip0_277_1345)">
<rect width="360" height="320" fill="#003216"/>
<g opacity="0.23">
<path d="M367.007 284.67C365.964 286.341 366.47 288.539 368.14 289.582C369.81 290.624 372.009 290.118 373.051 288.448C374.094 286.778 373.588 284.579 371.918 283.537C370.248 282.494 368.049 283 367.007 284.67ZM379.996 270.618C381.373 271.477 381.79 273.29 380.931 274.666C380.072 276.043 378.259 276.46 376.882 275.601C375.506 274.741 375.088 272.929 375.947 271.552C376.806 270.175 378.619 269.758 379.996 270.618ZM388.075 257.695C389.158 258.372 389.486 259.798 388.81 260.879C388.134 261.959 386.707 262.29 385.627 261.614C384.547 260.939 384.215 259.511 384.891 258.431C385.567 257.351 386.995 257.02 388.075 257.695ZM396.15 244.773C396.94 245.266 397.179 246.305 396.687 247.094C396.194 247.884 395.156 248.123 394.366 247.63C393.576 247.138 393.337 246.099 393.83 245.309C394.323 244.52 395.361 244.28 396.15 244.773ZM404.229 231.851C404.725 232.161 404.876 232.813 404.566 233.309C404.256 233.806 403.604 233.956 403.108 233.647C402.612 233.337 402.461 232.684 402.771 232.188C403.08 231.692 403.733 231.542 404.229 231.851ZM363.902 296.36C364.958 297.02 365.278 298.411 364.618 299.467C363.958 300.523 362.568 300.843 361.512 300.183C360.455 299.523 360.136 298.133 360.796 297.076C361.456 296.02 362.846 295.7 363.902 296.36ZM355.89 309.178C356.335 309.456 356.471 310.043 356.193 310.489C355.915 310.934 355.328 311.07 354.882 310.792C354.437 310.514 354.301 309.927 354.579 309.481C354.857 309.036 355.444 308.9 355.89 309.178ZM369.19 272.417C370.86 273.46 371.366 275.658 370.324 277.329C369.281 278.998 367.083 279.505 365.412 278.462C363.742 277.42 363.236 275.221 364.279 273.551C365.321 271.881 367.52 271.375 369.19 272.417ZM377.231 259.554C378.575 260.394 378.982 262.164 378.142 263.509C377.301 264.853 375.531 265.26 374.186 264.419C372.842 263.579 372.436 261.809 373.276 260.464C374.116 259.12 375.886 258.714 377.231 259.554ZM385.271 246.688C386.291 247.325 386.6 248.665 385.962 249.683C385.324 250.702 383.985 251.012 382.966 250.374C381.947 249.736 381.638 248.397 382.276 247.378C382.913 246.359 384.253 246.05 385.271 246.688ZM393.315 233.824C394.009 234.257 394.218 235.171 393.786 235.864C393.353 236.558 392.439 236.768 391.746 236.334C391.052 235.902 390.843 234.988 391.275 234.295C391.708 233.601 392.622 233.392 393.315 233.824ZM401.356 220.961C401.724 221.192 401.837 221.677 401.606 222.045C401.376 222.413 400.891 222.525 400.522 222.295C400.154 222.065 400.042 221.579 400.272 221.211C400.503 220.843 400.988 220.73 401.356 220.961ZM361.089 285.374C362.292 286.126 362.659 287.712 361.907 288.917C361.155 290.124 359.569 290.487 358.364 289.736C357.158 288.984 356.794 287.398 357.546 286.192C358.297 284.986 359.883 284.622 361.089 285.374ZM352.991 298.325C353.736 298.79 353.96 299.768 353.496 300.513C353.032 301.257 352.053 301.481 351.308 301.017C350.564 300.553 350.34 299.574 350.804 298.829C351.269 298.085 352.247 297.861 352.991 298.325Z" fill="url(#paint0_linear_277_1345)" fill-opacity="0.3"/>
<path d="M351.219 273.566C350.094 275.179 350.49 277.401 352.104 278.528C353.717 279.656 355.939 279.257 357.066 277.644C358.194 276.03 357.795 273.808 356.181 272.681C354.568 271.556 352.346 271.952 351.219 273.566ZM364.896 260.179C366.226 261.108 366.552 262.939 365.627 264.269C364.701 265.599 362.867 265.925 361.537 265C360.207 264.074 359.881 262.24 360.807 260.91C361.732 259.58 363.566 259.254 364.896 260.179ZM373.611 247.677C374.657 248.406 374.914 249.848 374.185 250.893C373.456 251.939 372.014 252.197 370.969 251.468C369.923 250.739 369.666 249.297 370.394 248.251C371.124 247.206 372.565 246.948 373.611 247.677ZM382.325 235.175C383.087 235.708 383.275 236.757 382.743 237.521C382.21 238.285 381.161 238.471 380.397 237.939C379.632 237.406 379.447 236.357 379.98 235.593C380.513 234.828 381.561 234.643 382.325 235.175ZM391.04 222.676C391.52 223.01 391.637 223.671 391.303 224.149C390.97 224.627 390.309 224.746 389.831 224.412C389.353 224.079 389.234 223.418 389.567 222.94C389.901 222.462 390.562 222.343 391.04 222.676ZM347.533 285.085C348.555 285.795 348.803 287.202 348.093 288.222C347.383 289.241 345.975 289.492 344.956 288.782C343.937 288.071 343.685 286.664 344.396 285.645C345.106 284.626 346.513 284.374 347.533 285.085ZM338.887 297.482C339.32 297.784 339.424 298.378 339.122 298.808C338.82 299.237 338.227 299.345 337.797 299.043C337.367 298.741 337.26 298.147 337.562 297.718C337.864 297.288 338.458 297.18 338.887 297.482ZM354.012 261.435C355.626 262.56 356.025 264.781 354.897 266.398C353.769 268.014 351.55 268.41 349.934 267.282C348.318 266.154 347.922 263.936 349.05 262.319C350.177 260.703 352.396 260.307 354.012 261.435ZM362.686 248.991C363.987 249.898 364.305 251.687 363.399 252.985C362.493 254.283 360.704 254.604 359.406 253.698C358.105 252.791 357.787 251.002 358.693 249.704C359.6 248.403 361.388 248.085 362.686 248.991ZM371.363 236.545C372.348 237.231 372.59 238.588 371.904 239.572C371.219 240.557 369.862 240.798 368.877 240.113C367.892 239.427 367.651 238.071 368.337 237.086C369.022 236.101 370.379 235.86 371.363 236.545ZM380.04 224.1C380.712 224.567 380.876 225.488 380.409 226.16C379.941 226.831 379.02 226.996 378.349 226.528C377.677 226.061 377.513 225.14 377.98 224.468C378.448 223.796 379.369 223.632 380.04 224.1ZM388.714 211.656C389.07 211.905 389.157 212.394 388.911 212.75C388.664 213.105 388.173 213.193 387.817 212.946C387.461 212.7 387.374 212.208 387.621 211.852C387.867 211.497 388.359 211.41 388.714 211.656ZM345.273 273.971C346.438 274.784 346.723 276.387 345.913 277.549C345.1 278.714 343.497 278.999 342.335 278.189C341.172 277.379 340.885 275.773 341.695 274.611C342.505 273.448 344.11 273.161 345.273 273.971ZM336.537 286.499C337.256 287.001 337.432 287.99 336.931 288.709C336.429 289.428 335.44 289.605 334.721 289.103C334.001 288.601 333.825 287.612 334.327 286.893C334.829 286.174 335.818 285.997 336.537 286.499Z" fill="url(#paint1_linear_277_1345)" fill-opacity="0.3"/>
<path d="M336.286 262.586C335.138 264.184 335.499 266.411 337.098 267.56C338.696 268.708 340.923 268.347 342.072 266.748C343.22 265.15 342.858 262.923 341.26 261.774C339.662 260.626 337.435 260.988 336.286 262.586ZM350.161 249.403C351.478 250.35 351.776 252.185 350.829 253.502C349.882 254.82 348.048 255.118 346.73 254.171C345.413 253.224 345.115 251.389 346.062 250.072C347.009 248.755 348.844 248.456 350.161 249.403ZM359.061 237.035C360.097 237.78 360.332 239.226 359.587 240.262C358.842 241.298 357.396 241.533 356.36 240.788C355.324 240.042 355.089 238.597 355.834 237.561C356.579 236.525 358.024 236.29 359.061 237.035ZM367.961 224.664C368.716 225.207 368.888 226.26 368.344 227.016C367.801 227.771 366.748 227.942 365.993 227.399C365.238 226.855 365.066 225.803 365.61 225.047C366.153 224.292 367.206 224.12 367.961 224.664ZM376.861 212.296C377.335 212.637 377.444 213.298 377.102 213.772C376.761 214.246 376.1 214.354 375.626 214.013C375.151 213.671 375.043 213.011 375.385 212.536C375.726 212.062 376.387 211.954 376.861 212.296ZM332.429 274.05C333.438 274.776 333.667 276.185 332.941 277.195C332.215 278.205 330.806 278.434 329.796 277.707C328.786 276.981 328.558 275.572 329.284 274.562C330.01 273.553 331.419 273.324 332.429 274.05ZM323.603 286.318C324.03 286.625 324.125 287.221 323.818 287.647C323.511 288.074 322.915 288.17 322.489 287.863C322.062 287.555 321.966 286.96 322.273 286.533C322.581 286.106 323.176 286.01 323.603 286.318ZM339.261 250.499C340.859 251.647 341.221 253.875 340.072 255.473C338.923 257.071 336.696 257.433 335.098 256.284C333.5 255.135 333.138 252.908 334.287 251.31C335.435 249.712 337.663 249.35 339.261 250.499ZM348.121 238.183C349.406 239.108 349.699 240.901 348.774 242.189C347.848 243.477 346.056 243.768 344.768 242.842C343.48 241.917 343.19 240.125 344.115 238.837C345.04 237.548 346.833 237.258 348.121 238.183ZM356.98 225.871C357.956 226.572 358.177 227.93 357.476 228.905C356.774 229.881 355.416 230.102 354.441 229.401C353.466 228.699 353.244 227.341 353.946 226.366C354.647 225.391 356.005 225.169 356.98 225.871ZM365.84 213.555C366.503 214.033 366.656 214.956 366.178 215.622C365.7 216.287 364.776 216.437 364.111 215.959C363.446 215.481 363.296 214.558 363.774 213.892C364.252 213.227 365.175 213.077 365.84 213.555ZM374.703 201.24C375.056 201.495 375.134 201.983 374.883 202.335C374.631 202.688 374.14 202.767 373.787 202.515C373.434 202.263 373.356 201.772 373.608 201.419C373.859 201.067 374.35 200.988 374.703 201.24ZM330.335 262.904C331.489 263.733 331.75 265.339 330.922 266.493C330.093 267.645 328.487 267.908 327.333 267.078C326.181 266.25 325.918 264.643 326.748 263.491C327.576 262.337 329.183 262.076 330.335 262.904ZM321.414 275.302C322.124 275.814 322.286 276.805 321.774 277.515C321.262 278.225 320.271 278.387 319.561 277.875C318.851 277.363 318.689 276.372 319.201 275.662C319.713 274.951 320.704 274.79 321.414 275.302Z" fill="url(#paint2_linear_277_1345)" fill-opacity="0.3"/>
<path d="M321.441 251.297C320.26 252.87 320.577 255.105 322.153 256.286C323.729 257.467 325.962 257.15 327.142 255.573C328.323 253.997 328.006 251.765 326.43 250.584C324.856 249.404 322.621 249.72 321.441 251.297ZM335.576 238.399C336.875 239.372 337.136 241.212 336.163 242.511C335.189 243.809 333.349 244.071 332.05 243.098C330.751 242.124 330.49 240.284 331.463 238.985C332.437 237.687 334.277 237.425 335.576 238.399ZM344.722 226.21C345.743 226.976 345.95 228.425 345.184 229.446C344.417 230.466 342.968 230.673 341.948 229.907C340.927 229.14 340.72 227.692 341.486 226.671C342.253 225.65 343.701 225.444 344.722 226.21ZM353.869 214.021C354.612 214.58 354.763 215.635 354.204 216.38C353.645 217.126 352.591 217.275 351.845 216.716C351.099 216.156 350.95 215.102 351.51 214.357C352.069 213.611 353.123 213.462 353.869 214.021ZM363.015 201.833C363.483 202.182 363.577 202.847 363.225 203.313C362.873 203.778 362.211 203.874 361.745 203.522C361.28 203.17 361.183 202.508 361.535 202.043C361.887 201.578 362.55 201.481 363.015 201.833ZM317.354 262.683C318.348 263.431 318.552 264.843 317.805 265.837C317.057 266.832 315.645 267.035 314.65 266.287C313.656 265.54 313.452 264.128 314.2 263.134C314.947 262.139 316.36 261.935 317.354 262.683ZM308.282 274.771C308.702 275.086 308.787 275.684 308.472 276.104C308.157 276.525 307.559 276.609 307.139 276.294C306.718 275.979 306.634 275.382 306.949 274.961C307.264 274.541 307.861 274.456 308.282 274.771ZM324.656 239.275C326.229 240.455 326.549 242.691 325.368 244.264C324.188 245.838 321.953 246.157 320.379 244.977C318.805 243.796 318.486 241.561 319.667 239.987C320.847 238.414 323.082 238.094 324.656 239.275ZM333.762 227.139C335.029 228.091 335.285 229.889 334.333 231.156C333.382 232.422 331.583 232.679 330.317 231.727C329.05 230.776 328.794 228.977 329.745 227.711C330.697 226.444 332.495 226.188 333.762 227.139ZM342.868 215.006C343.828 215.726 344.024 217.091 343.301 218.05C342.578 219.01 341.217 219.206 340.257 218.484C339.297 217.761 339.101 216.399 339.824 215.44C340.547 214.48 341.908 214.283 342.868 215.006ZM351.971 202.87C352.624 203.361 352.758 204.289 352.266 204.942C351.775 205.595 350.848 205.728 350.195 205.237C349.541 204.746 349.408 203.818 349.9 203.165C350.391 202.512 351.318 202.379 351.971 202.87ZM361.077 190.737C361.424 190.997 361.494 191.49 361.234 191.837C360.975 192.183 360.481 192.253 360.135 191.994C359.788 191.734 359.718 191.241 359.978 190.894C360.238 190.548 360.731 190.478 361.077 190.737ZM315.482 251.495C316.616 252.347 316.847 253.96 315.995 255.094C315.142 256.229 313.529 256.46 312.395 255.607C311.261 254.754 311.03 253.142 311.882 252.007C312.735 250.873 314.348 250.642 315.482 251.495ZM306.317 263.713C307.018 264.238 307.16 265.233 306.634 265.934C306.109 266.635 305.114 266.777 304.413 266.252C303.712 265.726 303.57 264.731 304.095 264.03C304.621 263.33 305.616 263.187 306.317 263.713Z" fill="url(#paint3_linear_277_1345)" fill-opacity="0.3"/>
<path d="M306.975 240.049C305.786 241.617 306.092 243.854 307.659 245.042C309.226 246.23 311.463 245.925 312.652 244.358C313.84 242.79 313.535 240.553 311.967 239.365C310.4 238.177 308.163 238.482 306.975 240.049ZM321.177 227.223C322.47 228.204 322.723 230.047 321.741 231.339C320.76 232.632 318.917 232.885 317.625 231.904C316.333 230.922 316.08 229.079 317.061 227.787C318.042 226.495 319.885 226.242 321.177 227.223ZM330.387 215.081C331.405 215.852 331.603 217.301 330.832 218.318C330.06 219.336 328.612 219.534 327.594 218.763C326.576 217.991 326.378 216.543 327.15 215.525C327.921 214.507 329.37 214.309 330.387 215.081ZM339.594 202.941C340.334 203.503 340.48 204.56 339.918 205.302C339.356 206.045 338.3 206.189 337.557 205.627C336.814 205.065 336.671 204.008 337.233 203.265C337.795 202.523 338.851 202.379 339.594 202.941ZM348.804 190.799C349.269 191.151 349.36 191.816 349.008 192.281C348.656 192.747 347.991 192.837 347.526 192.486C347.061 192.134 346.97 191.469 347.322 191.003C347.674 190.538 348.339 190.447 348.804 190.799ZM302.829 251.412C303.82 252.165 304.015 253.576 303.262 254.57C302.509 255.564 301.097 255.757 300.103 255.004C299.11 254.25 298.917 252.839 299.67 251.845C300.423 250.851 301.835 250.659 302.829 251.412ZM293.693 263.453C294.113 263.771 294.195 264.369 293.877 264.786C293.56 265.204 292.962 265.288 292.545 264.97C292.127 264.653 292.042 264.055 292.36 263.638C292.678 263.22 293.275 263.136 293.693 263.453ZM310.25 228.043C311.817 229.231 312.125 231.469 310.935 233.036C309.743 234.603 307.509 234.911 305.942 233.72C304.374 232.532 304.066 230.294 305.257 228.727C306.448 227.16 308.683 226.852 310.25 228.043ZM319.42 215.954C320.684 216.911 320.929 218.711 319.972 219.974C319.014 221.238 317.214 221.483 315.951 220.526C314.687 219.569 314.442 217.769 315.399 216.505C316.356 215.242 318.156 214.997 319.42 215.954ZM328.587 203.867C329.543 204.593 329.731 205.956 329.006 206.913C328.281 207.87 326.917 208.058 325.96 207.332C325.003 206.607 324.815 205.243 325.541 204.287C326.266 203.329 327.63 203.142 328.587 203.867ZM337.756 191.781C338.406 192.275 338.534 193.204 338.04 193.854C337.546 194.505 336.617 194.632 335.966 194.138C335.316 193.644 335.189 192.714 335.683 192.065C336.176 191.414 337.106 191.287 337.756 191.781ZM346.926 179.694C347.272 179.957 347.339 180.45 347.077 180.796C346.815 181.142 346.322 181.209 345.975 180.947C345.629 180.685 345.562 180.191 345.824 179.845C346.086 179.499 346.579 179.432 346.926 179.694ZM301.016 240.217C302.146 241.075 302.369 242.687 301.511 243.818C300.653 244.949 299.041 245.172 297.91 244.314C296.779 243.456 296.556 241.844 297.414 240.712C298.272 239.582 299.884 239.359 301.016 240.217ZM291.784 252.385C292.482 252.916 292.618 253.91 292.09 254.608C291.563 255.306 290.565 255.443 289.867 254.915C289.169 254.387 289.033 253.389 289.561 252.691C290.089 251.994 291.086 251.857 291.784 252.385Z" fill="url(#paint4_linear_277_1345)" fill-opacity="0.3"/>
<path d="M292.703 229.046C291.528 230.625 291.853 232.858 293.432 234.034C295.012 235.209 297.245 234.884 298.42 233.304C299.595 231.725 299.27 229.492 297.69 228.317C296.111 227.141 293.878 227.466 292.703 229.046ZM306.792 216.094C308.094 217.062 308.361 218.903 307.393 220.205C306.425 221.506 304.584 221.774 303.282 220.806C301.981 219.838 301.713 217.997 302.681 216.695C303.649 215.393 305.49 215.126 306.792 216.094ZM315.896 203.875C316.92 204.638 317.132 206.085 316.369 207.108C315.605 208.132 314.158 208.345 313.135 207.581C312.111 206.817 311.898 205.371 312.662 204.347C313.426 203.323 314.872 203.111 315.896 203.875ZM324.998 191.652C325.744 192.208 325.898 193.263 325.341 194.009C324.785 194.755 323.73 194.909 322.984 194.353C322.238 193.796 322.084 192.742 322.64 191.996C323.197 191.25 324.252 191.095 324.998 191.652ZM334.102 179.43C334.57 179.779 334.666 180.441 334.317 180.91C333.968 181.378 333.305 181.475 332.837 181.125C332.369 180.776 332.272 180.113 332.621 179.645C332.971 179.177 333.633 179.08 334.102 179.43ZM288.657 240.446C289.655 241.189 289.861 242.601 289.119 243.602C288.376 244.602 286.964 244.805 285.964 244.063C284.964 243.321 284.76 241.908 285.502 240.908C286.245 239.908 287.657 239.704 288.657 240.446ZM279.63 252.566C280.051 252.881 280.138 253.476 279.826 253.899C279.513 254.323 278.916 254.407 278.492 254.095C278.069 253.782 277.984 253.185 278.297 252.761C278.609 252.338 279.207 252.253 279.63 252.566ZM295.875 217.01C297.454 218.185 297.779 220.418 296.604 221.997C295.429 223.577 293.195 223.902 291.616 222.727C290.037 221.552 289.712 219.318 290.887 217.739C292.062 216.16 294.295 215.834 295.875 217.01ZM304.936 204.843C306.206 205.789 306.47 207.588 305.524 208.858C304.578 210.128 302.779 210.392 301.509 209.446C300.239 208.5 299.974 206.701 300.921 205.431C301.867 204.161 303.666 203.896 304.936 204.843ZM313.999 192.676C314.962 193.394 315.161 194.755 314.444 195.718C313.727 196.682 312.365 196.88 311.402 196.163C310.439 195.445 310.24 194.084 310.957 193.121C311.675 192.158 313.037 191.959 313.999 192.676ZM323.061 180.509C323.717 180.998 323.853 181.925 323.364 182.582C322.875 183.238 321.948 183.374 321.292 182.885C320.636 182.396 320.5 181.469 320.988 180.813C321.477 180.157 322.404 180.021 323.061 180.509ZM332.122 168.342C332.471 168.602 332.541 169.093 332.281 169.442C332.021 169.791 331.531 169.861 331.182 169.602C330.833 169.342 330.762 168.851 331.022 168.502C331.282 168.153 331.772 168.083 332.122 168.342ZM286.748 229.267C287.886 230.114 288.122 231.727 287.275 232.864C286.428 234.002 284.815 234.239 283.677 233.391C282.54 232.544 282.303 230.931 283.151 229.793C283.998 228.656 285.61 228.419 286.748 229.267ZM277.625 241.516C278.329 242.038 278.474 243.033 277.951 243.735C277.429 244.436 276.434 244.583 275.732 244.061C275.031 243.538 274.884 242.543 275.406 241.842C275.929 241.141 276.924 240.993 277.625 241.516Z" fill="url(#paint5_linear_277_1345)" fill-opacity="0.3"/>
<path d="M278.453 218.212C277.299 219.807 277.658 222.034 279.253 223.188C280.848 224.342 283.075 223.983 284.229 222.388C285.383 220.794 285.024 218.566 283.429 217.412C281.834 216.258 279.607 216.617 278.453 218.212ZM292.359 205.06C293.673 206.01 293.968 207.847 293.019 209.161C292.069 210.475 290.232 210.771 288.918 209.822C287.603 208.872 287.308 207.035 288.257 205.72C289.207 204.406 291.044 204.111 292.359 205.06ZM301.285 192.71C302.319 193.458 302.551 194.903 301.803 195.937C301.055 196.97 299.61 197.202 298.576 196.457C297.543 195.712 297.311 194.264 298.056 193.231C298.801 192.197 300.249 191.965 301.282 192.71L301.285 192.71ZM310.212 180.361C310.967 180.907 311.135 181.959 310.59 182.712C310.044 183.464 308.991 183.636 308.239 183.09C307.486 182.544 307.315 181.491 307.861 180.739C308.406 179.986 309.459 179.815 310.212 180.361ZM319.141 168.011C319.615 168.353 319.721 169.016 319.379 169.488C319.038 169.959 318.375 170.067 317.903 169.726C317.431 169.384 317.324 168.721 317.665 168.249C318.006 167.778 318.669 167.67 319.141 168.011ZM274.571 229.666C275.58 230.396 275.806 231.804 275.077 232.814C274.348 233.823 272.94 234.049 271.93 233.32C270.921 232.591 270.694 231.182 271.423 230.173C272.153 229.164 273.561 228.937 274.571 229.666ZM265.716 241.915C266.142 242.223 266.238 242.818 265.928 243.245C265.618 243.671 265.025 243.767 264.599 243.457C264.172 243.147 264.076 242.554 264.387 242.128C264.696 241.702 265.289 241.605 265.716 241.915ZM281.455 206.13C283.05 207.284 283.409 209.511 282.255 211.106C281.101 212.701 278.873 213.06 277.279 211.906C275.684 210.752 275.325 208.525 276.479 206.93C277.633 205.335 279.86 204.976 281.455 206.13ZM290.341 193.836C291.626 194.764 291.914 196.559 290.986 197.841C290.058 199.124 288.263 199.414 286.981 198.486C285.698 197.558 285.408 195.763 286.336 194.481C287.263 193.199 289.059 192.908 290.341 193.836ZM299.23 181.542C300.203 182.247 300.421 183.604 299.72 184.579C299.018 185.555 297.658 185.771 296.683 185.069C295.707 184.367 295.491 183.007 296.193 182.032C296.895 181.057 298.255 180.841 299.23 181.542ZM308.117 169.245C308.779 169.723 308.929 170.649 308.449 171.312C307.968 171.974 307.045 172.124 306.383 171.643C305.72 171.163 305.57 170.24 306.051 169.577C306.531 168.915 307.454 168.765 308.117 169.245ZM317.003 156.951C317.355 157.206 317.434 157.697 317.179 158.049C316.925 158.402 316.434 158.48 316.081 158.226C315.729 157.971 315.651 157.481 315.905 157.128C316.159 156.776 316.651 156.697 317.003 156.951ZM272.5 218.517C273.65 219.348 273.91 220.954 273.078 222.107C272.246 223.26 270.641 223.516 269.488 222.685C268.338 221.853 268.079 220.247 268.91 219.094C269.742 217.942 271.348 217.685 272.5 218.517ZM263.555 230.893C264.265 231.405 264.424 232.399 263.912 233.109C263.4 233.819 262.407 233.978 261.696 233.466C260.987 232.954 260.827 231.96 261.339 231.25C261.851 230.54 262.845 230.381 263.555 230.893Z" fill="url(#paint6_linear_277_1345)" fill-opacity="0.3"/>
<path d="M263.931 207.747C262.801 209.357 263.191 211.581 264.802 212.711C266.412 213.841 268.636 213.451 269.766 211.84C270.896 210.23 270.506 208.006 268.895 206.876C267.285 205.746 265.061 206.136 263.931 207.747ZM277.647 194.399C278.977 195.33 279.298 197.164 278.367 198.491C277.436 199.817 275.602 200.141 274.275 199.21C272.948 198.279 272.625 196.445 273.556 195.119C274.486 193.792 276.32 193.468 277.647 194.399ZM286.396 181.923C287.442 182.654 287.694 184.095 286.962 185.141C286.23 186.186 284.789 186.438 283.743 185.706C282.698 184.975 282.446 183.534 283.178 182.488C283.91 181.442 285.351 181.191 286.396 181.923ZM295.148 169.446C295.91 169.981 296.095 171.029 295.56 171.791C295.024 172.552 293.976 172.738 293.215 172.202C292.453 171.667 292.267 170.619 292.803 169.857C293.338 169.096 294.387 168.91 295.148 169.446ZM303.897 156.971C304.374 157.307 304.491 157.966 304.155 158.443C303.819 158.921 303.16 159.037 302.683 158.701C302.205 158.365 302.089 157.707 302.425 157.229C302.761 156.752 303.419 156.635 303.897 156.971ZM260.212 219.254C261.231 219.971 261.477 221.375 260.764 222.394C260.051 223.413 258.644 223.659 257.625 222.946C256.606 222.233 256.36 220.825 257.073 219.806C257.786 218.787 259.193 218.542 260.212 219.254ZM251.532 231.628C251.962 231.93 252.067 232.523 251.765 232.953C251.463 233.383 250.869 233.488 250.44 233.185C250.01 232.883 249.905 232.29 250.207 231.86C250.509 231.43 251.102 231.326 251.532 231.628ZM266.757 195.624C268.368 196.754 268.758 198.978 267.628 200.588C266.498 202.199 264.274 202.589 262.663 201.459C261.053 200.329 260.663 198.105 261.793 196.494C262.923 194.884 265.147 194.494 266.757 195.624ZM275.469 183.203C276.767 184.112 277.079 185.903 276.17 187.198C275.261 188.493 273.47 188.808 272.175 187.9C270.88 186.99 270.564 185.199 271.474 183.904C272.383 182.609 274.174 182.294 275.469 183.203ZM284.18 170.784C285.164 171.475 285.401 172.829 284.712 173.813C284.024 174.798 282.668 175.034 281.683 174.345C280.699 173.654 280.463 172.301 281.151 171.316C281.839 170.332 283.196 170.096 284.18 170.784ZM292.892 158.363C293.56 158.833 293.722 159.754 293.254 160.426C292.787 161.097 291.863 161.256 291.192 160.789C290.52 160.321 290.362 159.397 290.829 158.726C291.296 158.054 292.22 157.896 292.892 158.363ZM301.606 145.942C301.961 146.191 302.046 146.68 301.797 147.036C301.548 147.391 301.059 147.476 300.703 147.226C300.348 146.977 300.263 146.488 300.512 146.133C300.762 145.777 301.25 145.693 301.606 145.942ZM257.984 208.135C259.146 208.951 259.428 210.553 258.612 211.715C257.796 212.877 256.194 213.159 255.032 212.344C253.87 211.528 253.588 209.926 254.404 208.764C255.219 207.601 256.821 207.32 257.984 208.135ZM249.213 220.639C249.929 221.143 250.103 222.132 249.601 222.848C249.1 223.565 248.108 223.738 247.392 223.236C246.675 222.735 246.502 221.743 247.003 221.027C247.505 220.31 248.496 220.137 249.213 220.639Z" fill="url(#paint7_linear_277_1345)" fill-opacity="0.3"/>
<path d="M249.719 198.185C248.669 199.849 249.169 202.05 250.836 203.101C252.503 204.151 254.701 203.651 255.751 201.984C256.802 200.317 256.301 198.119 254.635 197.068C252.971 196.018 250.77 196.518 249.719 198.185ZM262.758 184.177C264.132 185.042 264.543 186.857 263.679 188.228C262.815 189.598 260.999 190.013 259.629 189.148C258.258 188.284 257.844 186.468 258.708 185.098C259.572 183.727 261.388 183.313 262.758 184.177ZM270.88 171.283C271.96 171.965 272.282 173.391 271.604 174.472C270.925 175.552 269.496 175.874 268.416 175.196C267.336 174.517 267.013 173.088 267.691 172.008C268.37 170.928 269.799 170.605 270.88 171.283ZM279.004 158.39C279.79 158.885 280.027 159.926 279.532 160.713C279.036 161.5 277.995 161.736 277.208 161.241C276.422 160.745 276.185 159.704 276.681 158.918C277.176 158.131 278.217 157.895 279.004 158.39ZM287.125 145.496C287.618 145.808 287.768 146.461 287.456 146.954C287.144 147.447 286.492 147.598 285.998 147.286C285.505 146.973 285.355 146.321 285.667 145.828C285.979 145.335 286.631 145.184 287.125 145.496ZM246.574 209.866C247.627 210.528 247.944 211.921 247.278 212.974C246.613 214.028 245.223 214.345 244.17 213.679C243.117 213.014 242.8 211.624 243.465 210.57C244.131 209.517 245.521 209.2 246.574 209.866ZM238.519 222.653C238.964 222.934 239.097 223.521 238.816 223.966C238.536 224.412 237.948 224.544 237.503 224.264C237.058 223.983 236.925 223.396 237.206 222.95C237.486 222.505 238.074 222.372 238.519 222.653ZM251.944 185.94C253.608 186.991 254.108 189.189 253.06 190.856C252.013 192.522 249.812 193.02 248.145 191.972C246.478 190.925 245.98 188.724 247.028 187.057C248.076 185.39 250.277 184.892 251.944 185.94ZM260.03 173.102C261.371 173.948 261.772 175.717 260.929 177.059C260.087 178.401 258.314 178.801 256.973 177.958C255.631 177.113 255.231 175.343 256.073 174.002C256.916 172.66 258.689 172.26 260.03 173.102ZM268.116 160.267C269.132 160.908 269.436 162.249 268.799 163.266C268.161 164.282 266.816 164.585 265.8 163.948C264.784 163.31 264.481 161.966 265.118 160.949C265.756 159.933 267.1 159.63 268.116 160.267ZM276.202 147.432C276.893 147.868 277.102 148.781 276.667 149.475C276.231 150.168 275.318 150.375 274.625 149.939C273.931 149.504 273.725 148.59 274.16 147.897C274.596 147.204 275.509 146.997 276.202 147.432ZM284.289 134.595C284.657 134.825 284.767 135.31 284.536 135.678C284.306 136.046 283.821 136.156 283.453 135.926C283.084 135.695 282.975 135.21 283.205 134.842C283.436 134.474 283.921 134.364 284.289 134.595ZM243.798 198.868C244.998 199.625 245.359 201.214 244.602 202.414C243.845 203.614 242.256 203.975 241.056 203.218C239.856 202.461 239.495 200.872 240.252 199.672C241.009 198.472 242.598 198.111 243.798 198.868ZM235.658 211.792C236.399 212.259 236.62 213.237 236.153 213.978C235.686 214.72 234.708 214.941 233.967 214.474C233.225 214.007 233.004 213.029 233.471 212.287C233.938 211.546 234.916 211.325 235.658 211.792Z" fill="url(#paint8_linear_277_1345)" fill-opacity="0.3"/>
<path d="M234.928 188.993C233.939 190.695 234.519 192.876 236.221 193.865C237.923 194.855 240.105 194.275 241.093 192.572C242.083 190.871 241.502 188.689 239.801 187.7C238.099 186.711 235.917 187.291 234.928 188.993ZM247.452 174.521C248.854 175.334 249.331 177.132 248.517 178.537C247.703 179.943 245.906 180.416 244.5 179.602C243.096 178.789 242.621 176.991 243.435 175.586C244.249 174.181 246.047 173.707 247.452 174.521ZM255.103 161.342C256.205 161.983 256.582 163.397 255.941 164.499C255.3 165.602 253.886 165.978 252.783 165.337C251.681 164.696 251.304 163.282 251.946 162.18C252.587 161.077 254 160.701 255.103 161.342ZM262.754 148.163C263.559 148.628 263.833 149.661 263.364 150.464C262.895 151.266 261.865 151.543 261.063 151.074C260.26 150.605 259.984 149.576 260.453 148.773C260.921 147.97 261.951 147.694 262.754 148.163ZM270.405 134.986C270.911 135.28 271.081 135.926 270.787 136.431C270.494 136.937 269.848 137.107 269.343 136.814C268.837 136.52 268.666 135.875 268.96 135.369C269.253 134.863 269.899 134.693 270.405 134.986ZM232.207 200.777C233.283 201.403 233.651 202.782 233.026 203.858C232.401 204.934 231.021 205.302 229.945 204.677C228.869 204.051 228.501 202.671 229.127 201.596C229.752 200.52 231.132 200.152 232.207 200.777ZM224.62 213.85C225.075 214.115 225.23 214.698 224.966 215.153C224.701 215.608 224.118 215.763 223.663 215.498C223.208 215.234 223.052 214.65 223.317 214.196C223.582 213.74 224.165 213.585 224.62 213.85ZM236.709 176.674C238.411 177.663 238.991 179.845 238.002 181.546C237.013 183.248 234.831 183.828 233.129 182.839C231.427 181.85 230.847 179.669 231.837 177.967C232.825 176.265 235.007 175.685 236.709 176.674ZM244.325 163.553C245.695 164.348 246.161 166.106 245.366 167.476C244.572 168.846 242.814 169.312 241.444 168.517C240.074 167.723 239.608 165.965 240.402 164.595C241.197 163.225 242.955 162.759 244.325 163.553ZM251.944 150.433C252.982 151.037 253.337 152.368 252.734 153.406C252.131 154.444 250.799 154.799 249.761 154.196C248.723 153.593 248.368 152.262 248.971 151.224C249.574 150.185 250.906 149.83 251.944 150.433ZM259.56 137.313C260.266 137.724 260.507 138.629 260.096 139.336C259.684 140.042 258.78 140.282 258.073 139.871C257.367 139.46 257.126 138.555 257.537 137.849C257.949 137.142 258.854 136.902 259.56 137.313ZM267.176 124.195C267.55 124.412 267.68 124.893 267.46 125.268C267.24 125.642 266.762 125.772 266.388 125.552C266.013 125.332 265.884 124.854 266.103 124.48C266.323 124.105 266.801 123.976 267.176 124.195ZM229.035 189.891C230.264 190.602 230.682 192.178 229.967 193.404C229.253 194.629 227.68 195.05 226.455 194.335C225.226 193.624 224.808 192.048 225.523 190.822C226.237 189.597 227.81 189.176 229.035 189.891ZM221.368 203.099C222.126 203.539 222.384 204.509 221.944 205.267C221.504 206.024 220.534 206.282 219.776 205.842C219.019 205.402 218.761 204.432 219.201 203.674C219.641 202.917 220.611 202.659 221.368 203.099Z" fill="url(#paint9_linear_277_1345)" fill-opacity="0.3"/>
<path d="M219.667 180.597C218.739 182.334 219.399 184.494 221.133 185.418C222.868 186.343 225.03 185.686 225.955 183.952C226.879 182.217 226.222 180.055 224.488 179.13C222.754 178.206 220.591 178.863 219.667 180.597ZM231.659 165.682C233.09 166.445 233.633 168.225 232.87 169.656C232.107 171.087 230.327 171.629 228.896 170.866C227.465 170.104 226.923 168.323 227.685 166.893C228.448 165.461 230.228 164.919 231.659 165.682ZM238.828 152.233C239.953 152.834 240.381 154.232 239.78 155.36C239.178 156.488 237.78 156.913 236.653 156.311C235.528 155.711 235.1 154.312 235.701 153.185C236.302 152.057 237.7 151.632 238.828 152.233ZM245.999 138.788C246.821 139.224 247.131 140.245 246.692 141.067C246.252 141.888 245.234 142.199 244.412 141.759C243.591 141.32 243.28 140.302 243.72 139.48C244.159 138.659 245.178 138.348 245.999 138.788ZM253.168 125.342C253.683 125.616 253.879 126.258 253.604 126.774C253.329 127.289 252.688 127.485 252.172 127.21C251.656 126.936 251.46 126.294 251.735 125.778C252.01 125.263 252.652 125.067 253.168 125.342ZM217.372 192.471C218.47 193.056 218.886 194.423 218.301 195.521C217.716 196.619 216.35 197.035 215.252 196.45C214.153 195.865 213.737 194.499 214.322 193.401C214.907 192.302 216.274 191.886 217.372 192.471ZM210.261 205.81C210.726 206.059 210.901 206.635 210.652 207.099C210.404 207.564 209.828 207.739 209.363 207.49C208.899 207.242 208.724 206.665 208.972 206.201C209.221 205.737 209.797 205.561 210.261 205.81ZM221 168.22C222.737 169.148 223.394 171.304 222.467 173.041C221.539 174.779 219.382 175.435 217.646 174.508C215.908 173.581 215.251 171.424 216.179 169.687C217.106 167.95 219.263 167.293 221 168.22ZM228.139 154.834C229.537 155.58 230.066 157.317 229.32 158.716C228.573 160.115 226.836 160.643 225.437 159.897C224.039 159.151 223.51 157.413 224.256 156.015C225.003 154.616 226.74 154.087 228.139 154.834ZM235.275 141.447C236.336 142.012 236.736 143.33 236.171 144.388C235.605 145.446 234.287 145.849 233.229 145.283C232.171 144.718 231.768 143.4 232.334 142.342C232.899 141.284 234.217 140.881 235.275 141.447ZM242.414 128.06C243.137 128.445 243.409 129.341 243.024 130.063C242.639 130.785 241.743 131.057 241.021 130.672C240.299 130.288 240.027 129.392 240.411 128.67C240.796 127.947 241.692 127.675 242.414 128.06ZM249.55 114.673C249.934 114.877 250.078 115.353 249.874 115.734C249.671 116.116 249.194 116.262 248.813 116.058C248.432 115.855 248.286 115.379 248.489 114.997C248.692 114.616 249.169 114.47 249.553 114.673L249.55 114.673ZM213.809 181.707C215.063 182.375 215.535 183.933 214.869 185.184C214.203 186.435 212.643 186.91 211.391 186.244C210.14 185.578 209.665 184.017 210.331 182.766C210.997 181.515 212.558 181.041 213.809 181.707ZM206.625 195.182C207.398 195.595 207.69 196.554 207.277 197.327C206.863 198.1 205.904 198.393 205.131 197.979C204.358 197.566 204.066 196.607 204.479 195.834C204.893 195.061 205.851 194.768 206.625 195.182Z" fill="url(#paint10_linear_277_1345)" fill-opacity="0.3"/>
<path d="M204.936 174.115C204.181 175.935 205.044 178.017 206.864 178.772C208.683 179.527 210.765 178.664 211.521 176.844C212.275 175.025 211.412 172.943 209.593 172.187C207.773 171.433 205.691 172.296 204.936 174.115ZM215.429 158.112C216.926 158.734 217.638 160.452 217.018 161.952C216.398 163.452 214.678 164.16 213.178 163.54C211.678 162.92 210.969 161.2 211.589 159.7C212.209 158.2 213.929 157.492 215.429 158.112ZM221.266 144.033C222.444 144.521 223.003 145.873 222.515 147.053C222.027 148.234 220.676 148.79 219.495 148.303C218.317 147.815 217.758 146.463 218.245 145.283C218.734 144.102 220.085 143.545 221.266 144.033ZM227.102 129.957C227.961 130.313 228.368 131.299 228.013 132.157C227.657 133.016 226.671 133.423 225.812 133.068C224.954 132.713 224.546 131.726 224.902 130.868C225.257 130.009 226.244 129.601 227.102 129.957ZM232.939 115.881C233.477 116.105 233.734 116.723 233.51 117.265C233.286 117.806 232.668 118.06 232.127 117.836C231.585 117.612 231.332 116.994 231.555 116.452C231.779 115.911 232.397 115.658 232.939 115.881ZM203.8 186.158C204.951 186.635 205.496 187.953 205.019 189.103C204.541 190.254 203.224 190.799 202.074 190.322C200.923 189.845 200.377 188.527 200.855 187.377C201.332 186.226 202.649 185.68 203.8 186.158ZM198.011 200.117C198.496 200.318 198.728 200.875 198.526 201.363C198.322 201.85 197.767 202.08 197.28 201.877C196.793 201.674 196.563 201.119 196.766 200.632C196.969 200.145 197.524 199.915 198.011 200.117ZM205.066 161.668C206.886 162.422 207.746 164.508 206.994 166.324C206.242 168.141 204.154 169.004 202.337 168.252C200.521 167.501 199.658 165.412 200.409 163.595C201.161 161.778 203.25 160.916 205.066 161.668ZM210.879 147.654C212.343 148.26 213.038 149.94 212.429 151.405C211.82 152.869 210.143 153.564 208.679 152.955C207.214 152.349 206.519 150.669 207.128 149.204C207.737 147.74 209.414 147.045 210.879 147.654ZM216.688 133.64C217.798 134.101 218.325 135.372 217.864 136.482C217.404 137.592 216.133 138.118 215.023 137.658C213.913 137.198 213.386 135.926 213.847 134.816C214.307 133.706 215.578 133.18 216.688 133.64ZM222.498 119.627C223.253 119.938 223.611 120.807 223.3 121.56C222.988 122.312 222.12 122.673 221.367 122.361C220.614 122.05 220.253 121.181 220.565 120.428C220.877 119.676 221.745 119.315 222.498 119.627ZM228.31 105.613C228.711 105.779 228.901 106.239 228.735 106.64C228.569 107.041 228.109 107.23 227.708 107.064C227.307 106.898 227.118 106.438 227.283 106.037C227.449 105.637 227.91 105.447 228.31 105.613ZM199.213 175.784C200.523 176.329 201.147 177.833 200.602 179.143C200.057 180.454 198.553 181.078 197.243 180.533C195.933 179.988 195.309 178.484 195.854 177.174C196.398 175.863 197.903 175.239 199.213 175.784ZM193.363 189.893C194.173 190.228 194.557 191.157 194.221 191.966C193.886 192.776 192.957 193.16 192.148 192.825C191.338 192.49 190.954 191.56 191.289 190.751C191.624 189.941 192.553 189.557 193.363 189.893Z" fill="url(#paint11_linear_277_1345)" fill-opacity="0.3"/>
<path d="M190.312 168.888C189.784 170.786 190.893 172.75 192.79 173.279C194.687 173.808 196.651 172.699 197.18 170.801C197.709 168.904 196.6 166.94 194.703 166.411C192.805 165.882 190.842 166.992 190.312 168.888ZM198.787 151.73C200.351 152.166 201.264 153.786 200.83 155.347C200.395 156.908 198.774 157.825 197.213 157.39C195.652 156.955 194.736 155.334 195.171 153.773C195.605 152.212 197.226 151.296 198.787 151.73ZM202.874 137.05C204.104 137.394 204.823 138.665 204.479 139.895C204.136 141.125 202.864 141.844 201.634 141.501C200.404 141.157 199.685 139.886 200.029 138.655C200.372 137.425 201.644 136.706 202.874 137.05ZM206.961 122.369C207.858 122.619 208.381 123.547 208.132 124.443C207.882 125.34 206.954 125.864 206.058 125.615C205.161 125.365 204.637 124.437 204.887 123.54C205.136 122.643 206.064 122.12 206.961 122.369ZM211.048 107.689C211.612 107.844 211.94 108.429 211.784 108.992C211.629 109.555 211.044 109.884 210.481 109.728C209.918 109.573 209.589 108.988 209.744 108.425C209.9 107.861 210.485 107.533 211.048 107.689ZM190.646 180.98C191.846 181.313 192.548 182.555 192.212 183.755C191.876 184.955 190.637 185.657 189.437 185.321C188.236 184.988 187.535 183.746 187.871 182.545C188.206 181.346 189.446 180.644 190.646 180.98ZM186.593 195.54C187.099 195.68 187.395 196.207 187.255 196.713C187.115 197.219 186.588 197.515 186.083 197.375C185.577 197.234 185.28 196.708 185.42 196.202C185.561 195.697 186.087 195.4 186.593 195.54ZM188.934 156.518C190.831 157.046 191.94 159.01 191.411 160.908C190.882 162.805 188.918 163.914 187.021 163.385C185.124 162.856 184.015 160.892 184.544 158.995C185.073 157.098 187.037 155.988 188.934 156.518ZM193.002 141.902C194.528 142.326 195.422 143.909 194.998 145.437C194.574 146.966 192.992 147.857 191.463 147.433C189.935 147.009 189.044 145.427 189.468 143.898C189.892 142.37 191.474 141.479 193.002 141.902ZM197.071 127.287C198.227 127.609 198.904 128.808 198.582 129.967C198.261 131.126 197.062 131.8 195.903 131.479C194.747 131.157 194.07 129.958 194.391 128.799C194.713 127.64 195.911 126.966 197.071 127.287ZM201.139 112.673C201.926 112.892 202.388 113.707 202.169 114.496C201.949 115.287 201.135 115.746 200.345 115.526C199.555 115.307 199.095 114.492 199.315 113.703C199.534 112.912 200.349 112.453 201.139 112.673ZM205.207 98.0572C205.625 98.1743 205.87 98.6077 205.753 99.0259C205.636 99.4442 205.203 99.689 204.784 99.5719C204.366 99.4547 204.122 99.0215 204.238 98.6032C204.355 98.1849 204.789 97.9402 205.207 98.0572ZM184.835 171.239C186.202 171.62 187.003 173.037 186.624 174.405C186.245 175.772 184.826 176.572 183.458 176.193C182.092 175.814 181.291 174.395 181.67 173.028C182.049 171.66 183.469 170.86 184.835 171.239ZM180.741 185.953C181.585 186.187 182.079 187.063 181.845 187.908C181.61 188.753 180.735 189.247 179.89 189.012C179.045 188.777 178.551 187.901 178.786 187.057C179.02 186.212 179.896 185.718 180.741 185.953Z" fill="url(#paint12_linear_277_1345)" fill-opacity="0.3"/>
<path d="M174.068 164.567C173.659 166.493 174.891 168.384 176.817 168.79C178.742 169.195 180.634 167.967 181.04 166.041C181.445 164.115 180.217 162.223 178.291 161.818C176.365 161.412 174.473 162.641 174.068 164.567ZM181.444 146.907C183.031 147.244 184.044 148.802 183.711 150.389C183.377 151.977 181.817 152.991 180.228 152.657C178.641 152.321 177.628 150.762 177.961 149.175C178.295 147.587 179.855 146.574 181.444 146.907ZM184.596 132C185.846 132.264 186.643 133.491 186.379 134.738C186.115 135.985 184.888 136.785 183.641 136.521C182.391 136.257 181.594 135.03 181.858 133.783C182.121 132.536 183.349 131.736 184.596 132ZM187.748 117.089C188.658 117.281 189.24 118.174 189.047 119.086C188.855 119.998 187.962 120.577 187.05 120.385C186.138 120.193 185.559 119.3 185.751 118.388C185.943 117.476 186.837 116.897 187.748 117.089ZM190.898 102.181C191.47 102.301 191.836 102.863 191.713 103.434C191.591 104.005 191.031 104.372 190.46 104.249C189.888 104.127 189.522 103.567 189.645 102.996C189.767 102.425 190.327 102.058 190.898 102.181ZM175.163 176.613C176.38 176.869 177.16 178.067 176.901 179.284C176.642 180.501 175.447 181.281 174.23 181.022C173.014 180.766 172.233 179.568 172.492 178.351C172.751 177.134 173.947 176.354 175.163 176.613ZM172.037 191.4C172.55 191.51 172.879 192.014 172.771 192.528C172.664 193.042 172.158 193.37 171.644 193.263C171.13 193.156 170.802 192.649 170.909 192.135C171.016 191.621 171.522 191.293 172.037 191.4ZM171.911 152.309C173.837 152.717 175.068 154.606 174.66 156.532C174.252 158.458 172.363 159.689 170.437 159.281C168.511 158.873 167.28 156.984 167.688 155.058C168.096 153.132 169.985 151.901 171.911 152.309ZM175.047 137.467C176.597 137.795 177.59 139.318 177.262 140.867C176.935 142.417 175.411 143.41 173.862 143.082C172.313 142.754 171.319 141.231 171.647 139.682C171.975 138.133 173.498 137.139 175.047 137.467ZM178.187 122.622C179.363 122.87 180.112 124.024 179.865 125.199C179.617 126.375 178.464 127.125 177.288 126.877C176.112 126.63 175.362 125.476 175.61 124.301C175.858 123.125 177.011 122.375 178.187 122.622ZM181.324 107.78C182.123 107.95 182.635 108.735 182.465 109.534C182.294 110.334 181.51 110.845 180.71 110.675C179.911 110.506 179.399 109.721 179.569 108.921C179.739 108.122 180.524 107.61 181.324 107.78ZM184.463 92.9383C184.889 93.0279 185.16 93.4439 185.07 93.8699C184.98 94.2956 184.564 94.5664 184.138 94.4769C183.713 94.387 183.442 93.9714 183.531 93.5453C183.621 93.1196 184.037 92.8488 184.463 92.9383ZM168.75 167.261C170.14 167.555 171.028 168.919 170.734 170.307C170.44 171.694 169.075 172.584 167.688 172.291C166.298 171.997 165.41 170.632 165.704 169.245C165.998 167.858 167.363 166.967 168.75 167.261ZM165.589 182.202C166.446 182.384 166.996 183.225 166.813 184.082C166.631 184.939 165.79 185.488 164.933 185.306C164.076 185.123 163.527 184.282 163.709 183.426C163.892 182.569 164.733 182.019 165.589 182.202Z" fill="url(#paint13_linear_277_1345)" fill-opacity="0.3"/>
<path d="M158.726 162.406C158.561 164.367 160.017 166.093 161.976 166.259C163.937 166.424 165.663 164.968 165.829 163.009C165.994 161.049 164.539 159.322 162.579 159.156C160.619 158.991 158.892 160.446 158.726 162.406ZM163.863 143.973C165.479 144.11 166.678 145.531 166.54 147.147C166.403 148.763 164.982 149.962 163.366 149.825C161.75 149.687 160.551 148.266 160.688 146.65C160.826 145.034 162.247 143.835 163.863 143.973ZM165.15 128.789C166.422 128.896 167.364 130.016 167.258 131.286C167.151 132.556 166.031 133.5 164.761 133.394C163.491 133.287 162.546 132.167 162.653 130.897C162.759 129.627 163.88 128.682 165.15 128.789ZM166.437 113.603C167.363 113.682 168.051 114.496 167.972 115.422C167.893 116.348 167.079 117.036 166.153 116.957C165.227 116.879 164.539 116.064 164.618 115.138C164.697 114.212 165.511 113.524 166.437 113.603ZM167.724 98.4193C168.306 98.4674 168.737 98.9812 168.689 99.5637C168.641 100.146 168.127 100.577 167.545 100.529C166.962 100.481 166.531 99.9667 166.579 99.3846C166.628 98.8022 167.142 98.371 167.724 98.4193ZM161.3 174.226C162.539 174.33 163.461 175.421 163.356 176.661C163.252 177.9 162.161 178.822 160.922 178.717C159.683 178.613 158.761 177.522 158.866 176.283C158.97 175.043 160.061 174.121 161.3 174.226ZM160.025 189.285C160.549 189.329 160.936 189.789 160.893 190.313C160.849 190.837 160.388 191.225 159.864 191.181C159.34 191.137 158.953 190.677 158.997 190.152C159.04 189.629 159.501 189.241 160.025 189.285ZM155.071 150.508C157.031 150.673 158.486 152.397 158.321 154.36C158.155 156.323 156.431 157.776 154.468 157.61C152.509 157.445 151.053 155.721 151.218 153.758C151.384 151.795 153.108 150.342 155.071 150.508ZM156.353 135.394C157.933 135.529 159.103 136.916 158.969 138.494C158.834 140.071 157.446 141.245 155.868 141.11C154.291 140.975 153.118 139.587 153.252 138.01C153.387 136.432 154.775 135.259 156.353 135.394ZM157.632 120.277C158.829 120.378 159.718 121.43 159.616 122.628C159.515 123.826 158.463 124.714 157.265 124.612C156.067 124.511 155.179 123.459 155.28 122.261C155.382 121.063 156.434 120.175 157.632 120.277ZM158.914 105.16C159.729 105.228 160.332 105.944 160.264 106.759C160.196 107.574 159.48 108.177 158.665 108.109C157.85 108.042 157.247 107.325 157.315 106.51C157.383 105.695 158.099 105.092 158.914 105.16ZM160.193 90.0425C160.626 90.0795 160.947 90.4602 160.91 90.8927C160.872 91.325 160.492 91.6458 160.06 91.6088C159.627 91.5717 159.306 91.191 159.343 90.7586C159.38 90.3262 159.761 90.0054 160.193 90.0425ZM153.78 165.735C155.194 165.855 156.244 167.098 156.124 168.515C156.004 169.931 154.762 170.979 153.345 170.859C151.928 170.738 150.881 169.496 151.001 168.08C151.121 166.663 152.364 165.616 153.78 165.735ZM152.491 180.955C153.364 181.03 154.011 181.797 153.939 182.67C153.867 183.544 153.097 184.19 152.224 184.118C151.35 184.046 150.704 183.277 150.776 182.403C150.848 181.53 151.617 180.883 152.491 180.955Z" fill="url(#paint14_linear_277_1345)" fill-opacity="0.3"/>
<path d="M143.232 161.962C143.308 163.928 144.965 165.461 146.931 165.384C148.898 165.307 150.43 163.65 150.353 161.684C150.277 159.717 148.62 158.185 146.654 158.262C144.687 158.339 143.155 159.995 143.232 161.962ZM146.055 143.033C147.675 142.97 149.042 144.233 149.105 145.852C149.168 147.472 147.905 148.839 146.285 148.902C144.665 148.965 143.299 147.702 143.236 146.082C143.173 144.462 144.436 143.096 146.055 143.033ZM145.46 127.806C146.735 127.757 147.809 128.751 147.858 130.026C147.908 131.302 146.914 132.376 145.639 132.425C144.363 132.474 143.289 131.481 143.24 130.205C143.191 128.929 144.184 127.856 145.46 127.806ZM144.862 112.58C145.79 112.545 146.574 113.269 146.61 114.198C146.645 115.126 145.921 115.91 144.992 115.946C144.064 115.981 143.28 115.257 143.244 114.328C143.209 113.4 143.933 112.616 144.862 112.58ZM144.266 97.3513C144.851 97.3299 145.342 97.7841 145.364 98.3659C145.385 98.948 144.931 99.4416 144.349 99.4635C143.767 99.4853 143.273 99.0306 143.251 98.4489C143.23 97.8673 143.684 97.3731 144.266 97.3513ZM147.243 173.373C148.488 173.325 149.536 174.294 149.585 175.536C149.634 176.778 148.664 177.828 147.422 177.877C146.178 177.925 145.13 176.956 145.081 175.714C145.032 174.473 146.001 173.422 147.243 173.373ZM147.837 188.473C148.363 188.453 148.804 188.862 148.825 189.388C148.845 189.914 148.436 190.355 147.91 190.375C147.385 190.396 146.943 189.987 146.923 189.461C146.902 188.935 147.311 188.493 147.837 188.473ZM138.136 150.605C140.102 150.528 141.759 152.061 141.836 154.027C141.913 155.994 140.38 157.65 138.414 157.727C136.447 157.804 134.791 156.272 134.714 154.305C134.637 152.339 136.169 150.682 138.136 150.605ZM137.541 135.446C139.124 135.383 140.46 136.619 140.52 138.202C140.58 139.785 139.347 141.12 137.764 141.181C136.181 141.241 134.846 140.008 134.785 138.425C134.725 136.841 135.958 135.506 137.541 135.446ZM136.949 120.287C138.149 120.241 139.16 121.174 139.207 122.374C139.253 123.574 138.32 124.585 137.12 124.632C135.92 124.678 134.909 123.745 134.862 122.545C134.816 121.345 135.749 120.333 136.949 120.287ZM136.354 105.128C137.171 105.095 137.858 105.732 137.891 106.549C137.923 107.365 137.287 108.053 136.47 108.085C135.653 108.117 134.966 107.481 134.933 106.665C134.901 105.847 135.537 105.161 136.354 105.128ZM135.762 89.9689C136.195 89.9535 136.561 90.2897 136.577 90.7231C136.593 91.1568 136.257 91.5227 135.823 91.5386C135.389 91.5541 135.024 91.2179 135.008 90.7846C134.992 90.3508 135.328 89.9849 135.762 89.9689ZM138.734 165.876C140.152 165.82 141.349 166.926 141.404 168.344C141.46 169.763 140.354 170.959 138.936 171.015C137.517 171.07 136.321 169.965 136.265 168.546C136.21 167.128 137.315 165.932 138.734 165.876ZM139.332 181.136C140.208 181.102 140.945 181.784 140.979 182.659C141.012 183.534 140.331 184.271 139.455 184.305C138.58 184.339 137.843 183.657 137.809 182.782C137.775 181.906 138.457 181.17 139.332 181.136Z" fill="url(#paint15_linear_277_1345)" fill-opacity="0.3"/>
<path d="M126.461 163.466C126.662 165.425 128.413 166.85 130.372 166.647C132.331 166.444 133.755 164.696 133.552 162.737C133.35 160.778 131.602 159.353 129.642 159.556C127.683 159.759 126.259 161.507 126.461 163.466ZM128.091 144.397C129.704 144.23 131.147 145.406 131.314 147.02C131.48 148.633 130.304 150.076 128.69 150.242C127.077 150.409 125.634 149.233 125.468 147.619C125.301 146.006 126.478 144.563 128.091 144.397ZM126.536 129.237C127.807 129.107 128.941 130.032 129.072 131.3C129.203 132.567 128.277 133.705 127.01 133.835C125.742 133.966 124.605 133.04 124.474 131.773C124.343 130.505 125.269 129.368 126.536 129.237ZM124.982 114.078C125.906 113.984 126.733 114.655 126.83 115.582C126.927 116.51 126.253 117.334 125.326 117.431C124.398 117.527 123.574 116.854 123.477 115.926C123.381 114.999 124.054 114.175 124.982 114.078ZM123.428 98.9183C124.009 98.8576 124.528 99.2805 124.589 99.8624C124.65 100.444 124.227 100.963 123.645 101.024C123.063 101.084 122.545 100.662 122.484 100.08C122.423 99.4978 122.846 98.9793 123.428 98.9183ZM131.186 174.6C132.425 174.473 133.531 175.374 133.658 176.613C133.785 177.853 132.884 178.958 131.645 179.085C130.406 179.212 129.3 178.312 129.172 177.072C129.045 175.833 129.946 174.727 131.186 174.6ZM132.727 189.636C133.25 189.582 133.718 189.962 133.772 190.485C133.826 191.008 133.446 191.476 132.923 191.53C132.401 191.584 131.932 191.204 131.878 190.681C131.824 190.158 132.204 189.69 132.727 189.636ZM120.663 152.454C122.622 152.254 124.37 153.679 124.573 155.635C124.776 157.591 123.349 159.342 121.392 159.545C119.433 159.745 117.685 158.32 117.482 156.364C117.279 154.408 118.707 152.657 120.663 152.454ZM119.115 137.362C120.692 137.201 122.1 138.347 122.261 139.924C122.422 141.5 121.276 142.909 119.699 143.07C118.123 143.231 116.714 142.085 116.553 140.508C116.392 138.932 117.538 137.523 119.115 137.362ZM117.569 122.27C118.764 122.148 119.833 123.019 119.955 124.213C120.077 125.407 119.207 126.476 118.012 126.598C116.818 126.72 115.749 125.85 115.627 124.656C115.505 123.461 116.375 122.392 117.569 122.27ZM116.022 107.178C116.834 107.095 117.56 107.687 117.646 108.499C117.732 109.311 117.138 110.038 116.325 110.124C115.513 110.209 114.786 109.615 114.7 108.803C114.615 107.99 115.209 107.264 116.022 107.178ZM114.473 92.0863C114.906 92.0425 115.29 92.3553 115.334 92.7879C115.378 93.2207 115.065 93.6052 114.633 93.6487C114.2 93.6926 113.815 93.3798 113.771 92.9474C113.728 92.5146 114.04 92.1301 114.473 92.0863ZM122.22 167.655C123.634 167.511 124.894 168.54 125.04 169.951C125.185 171.362 124.158 172.625 122.745 172.77C121.331 172.915 120.07 171.889 119.925 170.475C119.78 169.062 120.809 167.801 122.22 167.655ZM123.777 182.848C124.649 182.759 125.428 183.393 125.518 184.264C125.608 185.136 124.973 185.915 124.102 186.005C123.231 186.095 122.452 185.46 122.362 184.589C122.272 183.718 122.906 182.938 123.777 182.848Z" fill="url(#paint16_linear_277_1345)" fill-opacity="0.3"/>
<path d="M111.338 166.786C111.78 168.704 113.696 169.898 115.611 169.455C117.527 169.012 118.723 167.097 118.28 165.182C117.837 163.266 115.922 162.069 114.006 162.512C112.091 162.956 110.894 164.871 111.338 166.786ZM110.577 147.663C112.158 147.298 113.734 148.284 114.102 149.864C114.469 151.444 113.481 153.021 111.9 153.388C110.32 153.752 108.743 152.767 108.376 151.186C108.009 149.606 108.997 148.03 110.577 147.663ZM107.145 132.815C108.388 132.526 109.628 133.303 109.917 134.546C110.206 135.789 109.429 137.029 108.186 137.318C106.943 137.606 105.703 136.83 105.414 135.587C105.126 134.344 105.902 133.104 107.145 132.815ZM103.713 117.968C104.618 117.757 105.523 118.323 105.733 119.228C105.943 120.133 105.378 121.038 104.472 121.248C103.567 121.458 102.663 120.892 102.453 119.987C102.243 119.082 102.808 118.178 103.713 117.968ZM100.281 103.12C100.851 102.989 101.42 103.343 101.551 103.913C101.682 104.483 101.328 105.052 100.758 105.183C100.188 105.314 99.6196 104.96 99.4883 104.39C99.357 103.82 99.7108 103.252 100.281 103.12ZM117.414 177.244C118.625 176.964 119.836 177.719 120.116 178.931C120.396 180.142 119.641 181.353 118.429 181.633C117.218 181.913 116.007 181.158 115.727 179.946C115.447 178.735 116.202 177.524 117.414 177.244ZM120.818 191.972C121.332 191.853 121.841 192.172 121.96 192.686C122.079 193.199 121.76 193.709 121.246 193.827C120.732 193.946 120.223 193.627 120.104 193.114C119.986 192.6 120.305 192.09 120.818 191.972ZM104.211 156.581C106.129 156.138 108.042 157.332 108.485 159.25C108.927 161.168 107.734 163.081 105.816 163.524C103.898 163.967 101.985 162.773 101.542 160.855C101.099 158.937 102.293 157.024 104.211 156.581ZM100.796 141.799C102.34 141.443 103.882 142.404 104.238 143.947C104.594 145.491 103.633 147.033 102.09 147.389C100.546 147.745 99.0041 146.784 98.6481 145.241C98.2924 143.697 99.2527 142.155 100.796 141.799ZM97.3787 127.02C98.5478 126.748 99.7163 127.478 99.9878 128.65C100.259 129.821 99.5298 130.987 98.3581 131.259C97.1862 131.53 96.0204 130.801 95.749 129.629C95.4775 128.457 96.207 127.291 97.3787 127.02ZM93.9614 112.238C94.7586 112.053 95.5537 112.549 95.7355 113.346C95.9172 114.143 95.4239 114.938 94.6268 115.12C93.8298 115.302 93.0345 114.809 92.85 114.011C92.6656 113.214 93.1616 112.419 93.9587 112.237L93.9614 112.238ZM90.5467 97.4584C90.9693 97.3612 91.3909 97.6233 91.4883 98.0462C91.5859 98.4687 91.3235 98.8903 90.9008 98.9879C90.478 99.0854 90.0565 98.8229 89.959 98.4004C89.8616 97.9776 90.1239 97.5559 90.5467 97.4584ZM107.654 171.471C109.038 171.151 110.418 172.013 110.738 173.398C111.058 174.782 110.196 176.162 108.811 176.482C107.426 176.802 106.047 175.94 105.727 174.555C105.407 173.17 106.269 171.791 107.654 171.471ZM111.092 186.35C111.946 186.153 112.797 186.683 112.994 187.538C113.191 188.392 112.661 189.242 111.806 189.44C110.952 189.637 110.102 189.106 109.904 188.252C109.707 187.398 110.238 186.547 111.092 186.35Z" fill="url(#paint17_linear_277_1345)" fill-opacity="0.3"/>
<path d="M96.4797 171.525C97.1476 173.376 99.1892 174.337 101.04 173.669C102.891 173 103.852 170.959 103.183 169.108C102.515 167.258 100.474 166.297 98.6229 166.965C96.7718 167.633 95.8113 169.675 96.4797 171.525ZM93.4545 152.63C94.9814 152.08 96.6643 152.87 97.214 154.396C97.7637 155.923 96.974 157.606 95.4473 158.156C93.9201 158.706 92.2374 157.916 91.6878 156.389C91.1382 154.862 91.9277 153.179 93.4545 152.63ZM88.2863 138.294C89.4867 137.86 90.8108 138.484 91.2448 139.684C91.6787 140.885 91.0548 142.209 89.8544 142.643C88.654 143.077 87.33 142.453 86.8961 141.253C86.462 140.052 87.0859 138.728 88.2863 138.294ZM83.1183 123.956C83.9921 123.641 84.9576 124.093 85.2731 124.97C85.5884 125.846 85.1359 126.809 84.2593 127.125C83.3828 127.44 82.42 126.987 82.1046 126.111C81.7893 125.234 82.2417 124.271 83.1183 123.956ZM77.9501 109.621C78.5 109.424 79.107 109.705 79.3038 110.258C79.5005 110.811 79.2193 111.415 78.6666 111.612C78.1139 111.809 77.5097 111.527 77.3129 110.974C77.1162 110.422 77.3974 109.817 77.9501 109.621ZM103.754 181.192C104.926 180.77 106.218 181.377 106.64 182.549C107.062 183.721 106.454 185.012 105.283 185.434C104.111 185.856 102.819 185.249 102.397 184.077C101.975 182.905 102.582 181.614 103.754 181.192ZM108.878 195.41C109.374 195.231 109.919 195.485 110.097 195.981C110.276 196.477 110.021 197.021 109.526 197.2C109.03 197.379 108.485 197.124 108.307 196.629C108.128 196.133 108.383 195.588 108.878 195.41ZM88.1923 162.24C90.0431 161.572 92.0872 162.533 92.7525 164.383C93.418 166.233 92.4599 168.278 90.6095 168.944C88.759 169.609 86.7145 168.651 86.0491 166.8C85.3837 164.95 86.3418 162.905 88.1923 162.24ZM83.0474 147.967C84.5372 147.429 86.1823 148.202 86.7204 149.695C87.2586 151.187 86.486 152.829 84.9935 153.368C83.5009 153.906 81.8585 153.133 81.3204 151.641C80.7822 150.148 81.5549 148.506 83.0474 147.967ZM77.9024 133.695C79.0313 133.287 80.2772 133.874 80.6856 135.003C81.0942 136.132 80.5067 137.378 79.3778 137.786C78.249 138.195 77.0031 137.607 76.5947 136.478C76.1861 135.35 76.7736 134.104 77.9024 133.695ZM72.7575 119.423C73.5254 119.144 74.3749 119.544 74.6505 120.314C74.9263 121.085 74.5297 121.932 73.7593 122.207C72.9888 122.483 72.1418 122.087 71.8662 121.316C71.5904 120.546 71.987 119.699 72.7575 119.423ZM67.6124 105.153C68.0191 105.008 68.4697 105.216 68.6183 105.626C68.7669 106.035 68.5557 106.483 68.146 106.632C67.7363 106.78 67.2887 106.569 67.14 106.159C66.9914 105.75 67.2026 105.302 67.6124 105.153ZM93.3771 176.616C94.7121 176.133 96.1875 176.826 96.6674 178.161C97.1475 179.496 96.4566 180.971 95.1216 181.451C93.787 181.931 92.3116 181.241 91.8315 179.906C91.3517 178.571 92.0422 177.095 93.3771 176.616ZM98.5571 190.982C99.3822 190.686 100.291 191.112 100.588 191.937C100.885 192.762 100.458 193.671 99.6335 193.967C98.8084 194.265 97.8994 193.838 97.6027 193.013C97.3061 192.188 97.7319 191.279 98.5571 190.982Z" fill="url(#paint18_linear_277_1345)" fill-opacity="0.3"/>
<path d="M81.8285 177.457C82.6926 179.224 84.8287 179.958 86.5962 179.091C88.3639 178.224 89.0968 176.091 88.2302 174.323C87.3633 172.556 85.2301 171.823 83.4625 172.689C81.6951 173.553 80.9617 175.69 81.8285 177.457ZM76.7658 159.001C78.2237 158.288 79.9817 158.89 80.6954 160.348C81.4091 161.806 80.8065 163.564 79.3486 164.277C77.8907 164.991 76.1327 164.388 75.419 162.931C74.7053 161.473 75.3079 159.715 76.7658 159.001ZM70.0662 145.315C71.2118 144.755 72.5969 145.23 73.1576 146.375C73.7184 147.52 73.2434 148.906 72.0979 149.467C70.9524 150.027 69.5672 149.553 69.0065 148.407C68.4458 147.261 68.9207 145.876 70.0662 145.315ZM63.3696 131.627C64.2055 131.22 65.2152 131.564 65.6228 132.4C66.0304 133.236 65.6861 134.245 64.8502 134.653C64.0143 135.061 63.0046 134.716 62.597 133.88C62.1895 133.044 62.5337 132.035 63.3696 131.627ZM56.6702 117.939C57.1938 117.681 57.8277 117.901 58.0852 118.424C58.3427 118.948 58.1234 119.582 57.5998 119.839C57.0762 120.097 56.4422 119.877 56.1847 119.354C55.9273 118.83 56.1465 118.196 56.6702 117.939ZM90.111 186.274C91.2275 185.728 92.5803 186.189 93.1259 187.308C93.6718 188.428 93.2106 189.777 92.0916 190.323C90.972 190.869 89.6223 190.408 89.0762 189.289C88.5302 188.169 88.9914 186.819 90.111 186.274ZM96.7544 199.849C97.226 199.619 97.7974 199.814 98.0281 200.285C98.2585 200.757 98.0636 201.328 97.5918 201.559C97.1203 201.789 96.5489 201.594 96.3181 201.123C96.0878 200.651 96.2831 200.08 96.7544 199.849ZM72.5789 169.128C74.3463 168.264 76.4826 168.994 77.3466 170.762C78.2106 172.529 77.48 174.666 75.7127 175.529C73.9453 176.393 71.8089 175.663 70.945 173.895C70.081 172.128 70.8115 169.992 72.5789 169.128ZM65.9113 155.5C67.3346 154.804 69.0544 155.392 69.7511 156.815C70.4477 158.239 69.8592 159.959 68.436 160.655C67.0127 161.352 65.2928 160.763 64.5962 159.34C63.8995 157.917 64.4881 156.197 65.9113 155.5ZM59.2435 141.876C60.3224 141.349 61.6259 141.795 62.1526 142.872C62.6794 143.948 62.2325 145.254 61.1565 145.781C60.0803 146.308 58.774 145.861 58.2474 144.784C57.7206 143.709 58.1674 142.402 59.2435 141.876ZM52.576 128.248C53.3107 127.889 54.1977 128.193 54.5569 128.928C54.9161 129.663 54.6115 130.55 53.8768 130.909C53.142 131.268 52.2549 130.964 51.8957 130.229C51.5365 129.494 51.8411 128.607 52.576 128.248ZM45.9084 114.62C46.2988 114.429 46.7696 114.591 46.9587 114.982C47.1478 115.372 46.9878 115.843 46.5975 116.032C46.2071 116.221 45.7362 116.061 45.5471 115.671C45.358 115.28 45.518 114.809 45.9084 114.62ZM79.2979 182.854C80.5736 182.23 82.1137 182.758 82.7375 184.034C83.3613 185.309 82.8332 186.85 81.5576 187.473C80.2819 188.097 78.7417 187.569 78.1179 186.294C77.4942 185.018 78.0222 183.478 79.2979 182.854ZM86.009 196.574C86.7957 196.188 87.7454 196.514 88.1314 197.301C88.5175 198.087 88.1918 199.037 87.4048 199.423C86.6181 199.809 85.6684 199.483 85.2823 198.697C84.8963 197.91 85.222 196.96 86.009 196.574Z" fill="url(#paint19_linear_277_1345)" fill-opacity="0.3"/>
<path d="M66.4061 184.939C67.357 186.663 69.5232 187.289 71.2467 186.338C72.9703 185.387 73.597 183.221 72.6461 181.498C71.6952 179.774 69.529 179.148 67.8055 180.099C66.082 181.049 65.4552 183.216 66.4061 184.939ZM60.4509 166.75C61.8721 165.967 63.6585 166.485 64.4419 167.903C65.2255 169.322 64.7071 171.111 63.2887 171.894C61.8704 172.678 60.0811 172.159 59.2975 170.741C58.5144 169.32 59.0324 167.534 60.4509 166.75ZM53.0932 153.404C54.2122 152.788 55.6162 153.195 56.232 154.311C56.8479 155.427 56.4412 156.834 55.3251 157.45C54.209 158.066 52.8022 157.659 52.1863 156.543C51.5704 155.427 51.9772 154.02 53.0932 153.404ZM45.7384 140.058C46.5522 139.61 47.5766 139.905 48.0277 140.719C48.4787 141.533 48.1808 142.557 47.3669 143.008C46.5529 143.459 45.5287 143.161 45.0776 142.347C44.6266 141.533 44.9245 140.509 45.7384 140.058ZM38.3809 126.712C38.8923 126.431 39.5372 126.615 39.8178 127.127C40.0985 127.638 39.9147 128.283 39.4033 128.564C38.8919 128.844 38.247 128.661 37.9663 128.149C37.6857 127.638 37.8695 126.993 38.3809 126.712ZM75.1065 193.34C76.1965 192.739 77.5679 193.134 78.1689 194.224C78.7699 195.314 78.3741 196.686 77.2843 197.287C76.1943 197.888 74.823 197.492 74.222 196.402C73.6209 195.312 74.0167 193.941 75.1065 193.34ZM82.4024 206.578C82.8615 206.324 83.4406 206.492 83.6946 206.951C83.9483 207.41 83.7805 207.99 83.321 208.246C82.8616 208.503 82.2825 208.332 82.0259 207.873C81.7693 207.413 81.9401 206.834 82.3995 206.578L82.4024 206.578ZM56.7631 177.069C58.4866 176.118 60.6557 176.745 61.6037 178.469C62.5519 180.192 61.9277 182.361 60.2044 183.309C58.4811 184.257 56.3118 183.633 55.3637 181.91C54.4129 180.186 55.0398 178.017 56.7631 177.069ZM49.4403 163.782C50.8295 163.016 52.5722 163.522 53.3385 164.909C54.1048 166.295 53.598 168.04 52.2115 168.807C50.8251 169.573 49.0797 169.066 48.3133 167.68C47.5471 166.293 48.0539 164.548 49.4403 163.782ZM42.1145 150.496C43.1666 149.918 44.4887 150.299 45.0675 151.351C45.6462 152.403 45.2651 153.725 44.2131 154.304C43.1611 154.883 41.8389 154.501 41.2602 153.449C40.6815 152.397 41.0626 151.075 42.1145 150.496ZM34.7917 137.209C35.5067 136.815 36.4081 137.076 36.8022 137.791C37.1963 138.506 36.9353 139.407 36.2204 139.801C35.5054 140.195 34.6038 139.934 34.2099 139.219C33.8157 138.504 34.0768 137.603 34.7917 137.209ZM27.4688 123.924C27.8494 123.715 28.3274 123.853 28.5368 124.233C28.7461 124.614 28.608 125.092 28.2272 125.302C27.8466 125.511 27.3685 125.373 27.1592 124.992C26.9499 124.611 27.088 124.133 27.4688 123.924ZM64.1375 190.452C65.3813 189.768 66.9439 190.22 67.6314 191.463C68.3188 192.708 67.8644 194.27 66.6203 194.957C65.3763 195.645 63.8139 195.191 63.1265 193.946C62.4391 192.702 62.8934 191.14 64.1375 190.452ZM71.5125 203.828C72.2798 203.404 73.2441 203.684 73.6679 204.451C74.0915 205.218 73.812 206.182 73.0446 206.606C72.2773 207.03 71.3131 206.75 70.8893 205.983C70.4655 205.216 70.7451 204.252 71.5125 203.828Z" fill="url(#paint20_linear_277_1345)" fill-opacity="0.3"/>
<path d="M51.6911 193.748C52.7236 195.424 54.9199 195.945 56.5963 194.912C58.2728 193.88 58.793 191.683 57.7606 190.007C56.7281 188.331 54.5319 187.81 52.8554 188.843C51.1789 189.875 50.6588 192.071 51.6911 193.748ZM44.8567 175.871C46.2383 175.021 48.048 175.449 48.8983 176.83C49.7487 178.211 49.3209 180.021 47.9394 180.872C46.558 181.722 44.7482 181.294 43.8979 179.913C43.0476 178.531 43.4753 176.721 44.8567 175.871ZM36.8609 162.9C37.9477 162.229 39.3706 162.567 40.0416 163.653C40.7126 164.74 40.3744 166.163 39.2878 166.834C38.2012 167.505 36.7782 167.167 36.1071 166.081C35.4361 164.994 35.7744 163.571 36.8609 162.9ZM28.8626 149.925C29.6542 149.436 30.6934 149.682 31.1796 150.474C31.6657 151.265 31.4225 152.305 30.631 152.791C29.8396 153.277 28.8002 153.034 28.3141 152.242C27.828 151.451 28.0711 150.412 28.8626 149.925ZM20.8667 136.954C21.3633 136.647 22.016 136.801 22.3227 137.3C22.6293 137.8 22.4758 138.449 21.9765 138.756C21.4771 139.063 20.8272 138.909 20.5206 138.41C20.2139 137.911 20.3673 137.261 20.8667 136.954ZM60.7886 201.715C61.8489 201.061 63.2363 201.391 63.8897 202.451C64.5432 203.512 64.2132 204.899 63.1529 205.553C62.0927 206.206 60.7052 205.876 60.0519 204.815C59.3985 203.755 59.7285 202.368 60.7886 201.715ZM68.7224 214.581C69.1694 214.304 69.7561 214.445 70.0332 214.891C70.3101 215.339 70.1696 215.925 69.7227 216.202C69.2757 216.479 68.689 216.338 68.412 215.892C68.135 215.444 68.2754 214.858 68.7224 214.581ZM41.6758 186.356C43.3523 185.323 45.5458 185.843 46.581 187.52C47.6133 189.197 47.0935 191.39 45.4168 192.425C43.74 193.46 41.5467 192.938 40.5116 191.261C39.4764 189.584 39.9991 187.391 41.6758 186.356ZM33.715 173.44C35.0643 172.609 36.8328 173.029 37.6632 174.378C38.4936 175.727 38.0743 177.496 36.725 178.326C35.3757 179.157 33.6072 178.737 32.7768 177.388C31.9464 176.039 32.3656 174.27 33.715 173.44ZM25.7539 160.527C26.7763 159.896 28.1171 160.214 28.7453 161.236C29.3737 162.258 29.0582 163.599 28.036 164.228C27.0137 164.859 25.6729 164.54 25.0446 163.518C24.4163 162.496 24.7317 161.155 25.7539 160.527ZM17.7928 147.614C18.4881 147.185 19.401 147.402 19.8301 148.097C20.2591 148.792 20.0419 149.705 19.3467 150.135C18.6515 150.563 17.7384 150.346 17.3094 149.651C16.8805 148.956 17.0977 148.043 17.7928 147.614ZM9.83227 134.698C10.2002 134.471 10.6855 134.585 10.9124 134.955C11.1393 135.326 11.0258 135.809 10.655 136.036C10.2843 136.262 9.80128 136.149 9.57482 135.778C9.34796 135.408 9.46142 134.925 9.83227 134.698ZM49.697 199.362C50.9062 198.616 52.4881 198.994 53.234 200.201C53.98 201.407 53.6021 202.992 52.3956 203.738C51.1891 204.484 49.6044 204.106 48.8585 202.899C48.1125 201.693 48.4904 200.108 49.697 199.362ZM57.7099 212.366C58.4547 211.907 59.4337 212.137 59.8924 212.885C60.3511 213.632 60.1208 214.608 59.3732 215.067C58.6256 215.526 57.6495 215.296 57.1908 214.548C56.732 213.801 56.9623 212.824 57.7099 212.366Z" fill="url(#paint21_linear_277_1345)" fill-opacity="0.3"/>
<path d="M38.0872 202.79C39.2578 204.371 41.4901 204.704 43.0736 203.531C44.6571 202.358 44.9873 200.128 43.8142 198.544C42.6436 196.964 40.4113 196.631 38.8279 197.804C37.2443 198.977 36.9141 201.207 38.0872 202.79ZM29.755 185.563C31.0583 184.598 32.8988 184.872 33.8636 186.175C34.8285 187.479 34.5546 189.319 33.2513 190.284C31.948 191.248 30.1075 190.975 29.1426 189.672C28.1778 188.368 28.4516 186.528 29.755 185.563ZM20.6823 173.319C21.7085 172.56 23.1545 172.774 23.9136 173.8C24.6727 174.826 24.4584 176.272 23.4322 177.032C22.4061 177.791 20.9601 177.576 20.201 176.55C19.4418 175.524 19.6563 174.078 20.6823 173.319ZM11.6097 161.075C12.3559 160.521 13.4126 160.68 13.9662 161.426C14.5199 162.172 14.3619 163.228 13.6157 163.782C12.8695 164.336 11.8128 164.178 11.2592 163.432C10.7055 162.686 10.8635 161.629 11.6097 161.075ZM2.53697 148.831C3.00585 148.483 3.66827 148.582 4.01617 149.051C4.36408 149.52 4.26547 150.182 3.7966 150.53C3.32772 150.878 2.6653 150.779 2.31739 150.31C1.96949 149.841 2.0681 149.179 2.53697 148.831ZM47.8318 209.956C48.8315 209.215 50.2444 209.424 50.9831 210.426C51.7215 211.428 51.5126 212.838 50.513 213.577C49.5135 214.316 48.1006 214.107 47.3619 213.107C46.6232 212.108 46.8323 210.695 47.8318 209.956ZM56.8309 222.1C57.2525 221.788 57.8486 221.876 58.1638 222.297C58.4788 222.719 58.3878 223.315 57.9659 223.631C57.5441 223.946 56.9482 223.855 56.6332 223.433C56.3181 223.011 56.409 222.415 56.8309 222.1ZM27.4804 196.278C29.061 195.108 31.2934 195.438 32.4668 197.019C33.6373 198.599 33.307 200.832 31.7262 202.005C30.1457 203.175 27.9131 202.845 26.7398 201.264C25.5666 199.684 25.8997 197.451 27.4804 196.278ZM18.4483 184.09C19.7223 183.146 21.5186 183.413 22.4633 184.687C23.408 185.961 23.1401 187.758 21.8661 188.702C20.5922 189.647 18.7958 189.379 17.8511 188.105C16.9066 186.831 17.1744 185.035 18.4483 184.09ZM9.41624 171.902C10.3807 171.186 11.7438 171.389 12.457 172.356C13.1703 173.323 12.9705 174.683 12.0035 175.397C11.0391 176.113 9.67594 175.91 8.96279 174.943C8.24952 173.976 8.4493 172.615 9.41624 171.902ZM0.384442 159.712C1.04207 159.224 1.96895 159.364 2.45392 160.019C2.93877 160.674 2.80142 161.603 2.14656 162.089C1.49183 162.574 0.562054 162.436 0.0770853 161.781C-0.407766 161.127 -0.270411 160.197 0.384442 159.712ZM-8.64755 147.524C-8.29951 147.265 -7.80854 147.34 -7.54961 147.687C-7.2904 148.036 -7.36538 148.527 -7.71353 148.786C-8.0613 149.045 -8.55266 148.97 -8.81148 148.622C-9.07069 148.274 -8.99571 147.783 -8.64755 147.524ZM36.5783 208.557C37.7196 207.712 39.3283 207.952 40.1738 209.093C41.0194 210.234 40.7793 211.843 39.638 212.689C38.4968 213.534 36.8881 213.294 36.0425 212.153C35.197 211.011 35.4371 209.403 36.5783 208.557ZM45.6714 220.828C46.376 220.307 47.3694 220.455 47.8901 221.157C48.4106 221.859 48.2625 222.855 47.5607 223.376C46.8588 223.896 45.8627 223.748 45.342 223.046C44.8215 222.344 44.9695 221.348 45.6714 220.828Z" fill="url(#paint22_linear_277_1345)" fill-opacity="0.3"/>
<path d="M23.3233 213.454C24.4938 215.034 26.7262 215.367 28.3096 214.195C29.8931 213.021 30.2234 210.791 29.0503 209.208C27.8797 207.627 25.6474 207.294 24.0638 208.468C22.4834 209.638 22.1502 211.87 23.3233 213.454ZM14.9911 196.226C16.2944 195.261 18.1349 195.535 19.0997 196.839C20.0645 198.142 19.7907 199.983 18.4874 200.947C17.1841 201.912 15.3435 201.638 14.3787 200.335C13.4138 199.032 13.6877 197.191 14.9911 196.226ZM5.91837 183.983C6.94455 183.223 8.39056 183.438 9.14965 184.464C9.90877 185.49 9.69446 186.936 8.66831 187.695C7.64213 188.454 6.19616 188.24 5.43703 187.214C4.67791 186.188 4.89234 184.741 5.91837 183.983ZM-3.15416 171.739C-2.40806 171.185 -1.35148 171.343 -0.79769 172.089C-0.2439 172.835 -0.402145 173.892 -1.14825 174.446C-1.89435 174.999 -2.95093 174.841 -3.50472 174.095C-4.05851 173.349 -3.90027 172.292 -3.15416 171.739ZM-12.2269 159.495C-11.758 159.147 -11.0956 159.245 -10.7477 159.714C-10.3998 160.183 -10.4984 160.846 -10.9673 161.193C-11.4361 161.541 -12.0986 161.443 -12.4465 160.974C-12.7944 160.505 -12.6958 159.843 -12.2269 159.495ZM33.0679 220.62C34.0676 219.878 35.4805 220.087 36.219 221.09C36.9576 222.092 36.7487 223.502 35.7491 224.241C34.7496 224.98 33.3367 224.771 32.5979 223.771C31.8592 222.771 32.0684 221.359 33.0679 220.62ZM42.0669 232.763C42.4886 232.451 43.0847 232.539 43.3997 232.961C43.7149 233.383 43.6239 233.979 43.202 234.294C42.7802 234.609 42.1843 234.518 41.8692 234.096C41.5542 233.674 41.6451 233.078 42.0669 232.763ZM12.7165 206.942C14.2971 205.771 16.5295 206.102 17.7028 207.682C18.8733 209.263 18.5431 211.495 16.9622 212.669C15.3815 213.842 13.1492 213.509 11.9759 211.928C10.8054 210.347 11.1357 208.115 12.7165 206.942ZM3.68168 194.753C4.95562 193.809 6.752 194.077 7.69655 195.351C8.64125 196.625 8.37345 198.421 7.09939 199.366C5.82544 200.31 4.02918 200.042 3.08448 198.768C2.13982 197.495 2.40761 195.698 3.68168 194.753ZM-5.35032 182.566C-4.38608 181.85 -3.02284 182.052 -2.30973 183.019C-1.59634 183.986 -1.79608 185.347 -2.76337 186.06C-3.73016 186.773 -5.09085 186.573 -5.80397 185.607C-6.51708 184.64 -6.31761 183.279 -5.35032 182.566ZM-14.3824 170.375C-13.7248 169.888 -12.7978 170.028 -12.3129 170.682C-11.8277 171.337 -11.9654 172.267 -12.6201 172.752C-13.2746 173.237 -14.2048 173.099 -14.6896 172.445C-15.1746 171.79 -15.0371 170.86 -14.3824 170.375ZM-23.4144 158.187C-23.0662 157.928 -22.5753 158.003 -22.3161 158.351C-22.0572 158.699 -22.1322 159.19 -22.48 159.449C-22.828 159.708 -23.3191 159.634 -23.5783 159.285C-23.8375 158.937 -23.7625 158.446 -23.4144 158.187ZM21.8117 219.221C22.9528 218.375 24.5616 218.615 25.4072 219.756C26.2526 220.898 26.0125 222.506 24.8713 223.352C23.73 224.198 22.1213 223.957 21.2759 222.816C20.4303 221.675 20.6704 220.066 21.8117 219.221ZM30.9047 231.491C31.6094 230.971 32.6027 231.118 33.1233 231.82C33.6438 232.522 33.4958 233.519 32.794 234.039C32.0921 234.559 31.0959 234.412 30.5754 233.71C30.0547 233.008 30.2028 232.012 30.9047 231.491Z" fill="url(#paint23_linear_277_1345)" fill-opacity="0.3"/>
<path d="M10.5239 224.02C11.8097 225.512 14.0597 225.679 15.5511 224.393C17.0425 223.107 17.2095 220.857 15.9237 219.365C14.6378 217.874 12.3879 217.707 10.8966 218.993C9.40518 220.279 9.23816 222.529 10.5239 224.02ZM0.944169 207.452C2.17348 206.392 4.0267 206.531 5.08644 207.757C6.14613 208.984 6.00786 210.839 4.78129 211.899C3.55467 212.959 1.69863 212.821 0.638932 211.594C-0.420681 210.367 -0.282407 208.511 0.944169 207.452ZM-9.00543 195.911C-8.03809 195.078 -6.57866 195.184 -5.74555 196.152C-4.91245 197.119 -5.01885 198.579 -5.9862 199.412C-6.95354 200.245 -8.41325 200.138 -9.24635 199.171C-10.0795 198.204 -9.97277 196.744 -9.00543 195.911ZM-18.958 184.37C-18.2526 183.763 -17.1898 183.841 -16.5829 184.543C-15.9756 185.246 -16.0535 186.312 -16.7563 186.918C-17.4586 187.525 -18.5243 187.448 -19.1313 186.745C-19.7381 186.042 -19.6603 184.977 -18.958 184.37ZM-28.9072 172.827C-28.4639 172.446 -27.798 172.495 -27.4145 172.936C-27.0313 173.376 -27.0827 174.045 -27.5235 174.428C-27.9642 174.812 -28.6326 174.76 -29.0162 174.319C-29.3998 173.879 -29.3479 173.21 -28.9072 172.827ZM20.7716 230.447C21.7152 229.635 23.1385 229.739 23.951 230.682C24.7636 231.626 24.6597 233.049 23.7162 233.862C22.7726 234.674 21.3493 234.57 20.5366 233.627C19.7241 232.683 19.828 231.26 20.7716 230.447ZM30.6389 241.893C31.0378 241.548 31.6369 241.595 31.9817 241.991C32.3266 242.387 32.2799 242.989 31.8838 243.334C31.4876 243.679 30.8857 243.632 30.5408 243.236C30.196 242.839 30.2427 242.238 30.6389 241.893ZM-0.534632 218.309C0.956765 217.023 3.20663 217.19 4.49257 218.681C5.77835 220.173 5.61133 222.423 4.11993 223.709C2.62857 224.995 0.378544 224.828 -0.907238 223.336C-2.19302 221.845 -2.02599 219.595 -0.534632 218.309ZM-10.4405 206.819C-9.241 205.785 -7.42925 205.917 -6.39268 207.117C-5.35603 208.317 -5.49109 210.128 -6.6909 211.165C-7.89059 212.202 -9.70229 212.067 -10.7389 210.867C-11.7754 209.667 -11.6405 207.855 -10.4405 206.819ZM-20.3494 195.328C-19.4384 194.544 -18.0649 194.647 -17.2835 195.555C-16.5016 196.463 -16.6022 197.839 -17.5102 198.621C-18.4179 199.403 -19.7942 199.302 -20.5757 198.394C-21.3576 197.486 -21.257 196.11 -20.3494 195.328ZM-30.2549 183.838C-29.6359 183.303 -28.7011 183.374 -28.1685 183.991C-27.6363 184.607 -27.7044 185.545 -28.321 186.077C-28.9372 186.61 -29.8749 186.541 -30.4076 185.925C-30.9397 185.308 -30.8715 184.371 -30.2549 183.838ZM-40.1609 172.348C-39.8334 172.065 -39.3368 172.101 -39.0539 172.429C-38.7711 172.756 -38.8073 173.253 -39.1348 173.536C-39.4623 173.819 -39.959 173.783 -40.2418 173.455C-40.5247 173.128 -40.4885 172.631 -40.1609 172.348ZM9.44348 229.88C10.5183 228.951 12.1411 229.073 13.0697 230.147C13.9982 231.222 13.8769 232.845 12.8021 233.774C11.7274 234.702 10.1044 234.581 9.17591 233.506C8.2474 232.431 8.36876 230.808 9.44348 229.88ZM19.4162 241.447C20.0799 240.877 21.0816 240.95 21.6525 241.611C22.2235 242.272 22.1502 243.276 21.4893 243.847C20.8284 244.418 19.824 244.344 19.253 243.683C18.682 243.023 18.7554 242.018 19.4162 241.447Z" fill="url(#paint24_linear_277_1345)" fill-opacity="0.3"/>
<path d="M-3.4137 235.741C-2.12788 237.232 0.122118 237.399 1.61336 236.114C3.10475 234.828 3.27177 232.578 1.98599 231.086C0.700208 229.595 -1.54982 229.428 -3.04117 230.714C-4.53257 232 -4.6996 234.25 -3.4137 235.741ZM-12.9937 219.173C-11.7643 218.113 -9.91089 218.251 -8.85136 219.478C-7.79162 220.705 -7.92985 222.561 -9.15647 223.62C-10.3858 224.68 -12.239 224.542 -13.2986 223.315C-14.3583 222.089 -14.2202 220.233 -12.9937 219.173ZM-22.9433 207.632C-21.976 206.799 -20.5162 206.905 -19.6831 207.873C-18.85 208.84 -18.9567 210.3 -19.9241 211.133C-20.8914 211.966 -22.3508 211.859 -23.1839 210.892C-24.017 209.925 -23.9106 208.465 -22.9433 207.632ZM-32.8954 196.091C-32.1902 195.484 -31.1273 195.562 -30.5205 196.265C-29.9136 196.967 -29.9914 198.032 -30.6939 198.64C-31.3966 199.246 -32.4619 199.169 -33.0689 198.466C-33.6761 197.763 -33.5983 196.698 -32.8954 196.091ZM-42.8451 184.55C-42.4019 184.17 -41.736 184.219 -41.3524 184.659C-40.9688 185.1 -41.0206 185.768 -41.4614 186.152C-41.9022 186.536 -42.5705 186.484 -42.9541 186.043C-43.3377 185.602 -43.2859 184.934 -42.8451 184.55ZM6.83386 242.168C7.77741 241.356 9.20075 241.46 10.0134 242.403C10.8259 243.347 10.722 244.77 9.77841 245.583C8.83486 246.395 7.41151 246.291 6.59899 245.348C5.78635 244.404 5.89031 242.981 6.83386 242.168ZM16.7011 253.614C17.1001 253.269 17.6992 253.316 18.0441 253.712C18.3889 254.108 18.3422 254.71 17.946 255.055C17.5498 255.4 16.948 255.353 16.6032 254.957C16.2583 254.561 16.3051 253.958 16.7011 253.614ZM-14.4725 230.03C-12.981 228.744 -10.731 228.911 -9.44518 230.403C-8.1594 231.894 -8.32642 234.144 -9.81782 235.43C-11.3091 236.715 -13.5591 236.548 -14.8449 235.057C-16.131 233.566 -15.9635 231.316 -14.4725 230.03ZM-24.378 218.54C-23.1785 217.506 -21.3668 217.638 -20.3302 218.838C-19.2936 220.038 -19.429 221.85 -20.6285 222.886C-21.8285 223.922 -23.6402 223.787 -24.6765 222.588C-25.713 221.388 -25.578 219.576 -24.378 218.54ZM-34.2869 207.049C-33.376 206.265 -32.0029 206.368 -31.221 207.276C-30.4396 208.184 -30.5401 209.56 -31.4478 210.342C-32.3554 211.123 -33.7318 211.023 -34.5136 210.115C-35.2952 209.207 -35.1946 207.831 -34.2869 207.049ZM-44.1929 195.559C-43.5734 195.024 -42.6386 195.095 -42.1065 195.712C-41.5739 196.328 -41.6424 197.266 -42.2586 197.798C-42.8747 198.33 -43.8129 198.262 -44.345 197.646C-44.8776 197.029 -44.8091 196.092 -44.1929 195.559ZM-54.0988 184.072C-53.7713 183.789 -53.2747 183.825 -52.9918 184.153C-52.709 184.48 -52.7452 184.977 -53.0727 185.26C-53.4002 185.542 -53.8969 185.506 -54.1798 185.179C-54.4627 184.852 -54.4265 184.355 -54.0988 184.072ZM-4.49443 241.603C-3.4197 240.675 -1.79676 240.796 -0.86825 241.871C0.0602704 242.946 -0.0609724 244.568 -1.13578 245.497C-2.21046 246.426 -3.83344 246.304 -4.76196 245.23C-5.69048 244.155 -5.56923 242.532 -4.49443 241.603ZM5.47837 253.171C6.14205 252.6 7.14365 252.673 7.71467 253.334C8.28565 253.995 8.21229 255 7.55143 255.57C6.89045 256.142 5.88604 256.068 5.31501 255.407C4.74403 254.747 4.81739 253.742 5.47837 253.171Z" fill="url(#paint25_linear_277_1345)" fill-opacity="0.3"/>
</g>
</g>
<defs>
<linearGradient id="paint0_linear_277_1345" x1="22.8196" y1="232.026" x2="710.075" y2="231.441" gradientUnits="userSpaceOnUse">
<stop stop-color="#BC9632"/>
<stop offset="0.262187" stop-color="#FFEDA9"/>
<stop offset="1" stop-color="#BC9632"/>
</linearGradient>
<linearGradient id="paint1_linear_277_1345" x1="22.8193" y1="232.026" x2="710.075" y2="231.441" gradientUnits="userSpaceOnUse">
<stop stop-color="#BC9632"/>
<stop offset="0.262187" stop-color="#FFEDA9"/>
<stop offset="1" stop-color="#BC9632"/>
</linearGradient>
<linearGradient id="paint2_linear_277_1345" x1="22.8196" y1="232.026" x2="710.075" y2="231.441" gradientUnits="userSpaceOnUse">
<stop stop-color="#BC9632"/>
<stop offset="0.262187" stop-color="#FFEDA9"/>
<stop offset="1" stop-color="#BC9632"/>
</linearGradient>
<linearGradient id="paint3_linear_277_1345" x1="22.8198" y1="232.026" x2="710.075" y2="231.441" gradientUnits="userSpaceOnUse">
<stop stop-color="#BC9632"/>
<stop offset="0.262187" stop-color="#FFEDA9"/>
<stop offset="1" stop-color="#BC9632"/>
</linearGradient>
<linearGradient id="paint4_linear_277_1345" x1="22.8193" y1="232.026" x2="710.075" y2="231.441" gradientUnits="userSpaceOnUse">
<stop stop-color="#BC9632"/>
<stop offset="0.262187" stop-color="#FFEDA9"/>
<stop offset="1" stop-color="#BC9632"/>
</linearGradient>
<linearGradient id="paint5_linear_277_1345" x1="22.8195" y1="232.026" x2="710.075" y2="231.441" gradientUnits="userSpaceOnUse">
<stop stop-color="#BC9632"/>
<stop offset="0.262187" stop-color="#FFEDA9"/>
<stop offset="1" stop-color="#BC9632"/>
</linearGradient>
<linearGradient id="paint6_linear_277_1345" x1="22.8195" y1="232.026" x2="710.075" y2="231.441" gradientUnits="userSpaceOnUse">
<stop stop-color="#BC9632"/>
<stop offset="0.262187" stop-color="#FFEDA9"/>
<stop offset="1" stop-color="#BC9632"/>
</linearGradient>
<linearGradient id="paint7_linear_277_1345" x1="22.8195" y1="232.026" x2="710.075" y2="231.441" gradientUnits="userSpaceOnUse">
<stop stop-color="#BC9632"/>
<stop offset="0.262187" stop-color="#FFEDA9"/>
<stop offset="1" stop-color="#BC9632"/>
</linearGradient>
<linearGradient id="paint8_linear_277_1345" x1="22.8193" y1="232.026" x2="710.075" y2="231.441" gradientUnits="userSpaceOnUse">
<stop stop-color="#BC9632"/>
<stop offset="0.262187" stop-color="#FFEDA9"/>
<stop offset="1" stop-color="#BC9632"/>
</linearGradient>
<linearGradient id="paint9_linear_277_1345" x1="22.8192" y1="232.026" x2="710.075" y2="231.441" gradientUnits="userSpaceOnUse">
<stop stop-color="#BC9632"/>
<stop offset="0.262187" stop-color="#FFEDA9"/>
<stop offset="1" stop-color="#BC9632"/>
</linearGradient>
<linearGradient id="paint10_linear_277_1345" x1="22.8197" y1="232.026" x2="710.075" y2="231.441" gradientUnits="userSpaceOnUse">
<stop stop-color="#BC9632"/>
<stop offset="0.262187" stop-color="#FFEDA9"/>
<stop offset="1" stop-color="#BC9632"/>
</linearGradient>
<linearGradient id="paint11_linear_277_1345" x1="22.8194" y1="232.026" x2="710.075" y2="231.441" gradientUnits="userSpaceOnUse">
<stop stop-color="#BC9632"/>
<stop offset="0.262187" stop-color="#FFEDA9"/>
<stop offset="1" stop-color="#BC9632"/>
</linearGradient>
<linearGradient id="paint12_linear_277_1345" x1="22.8194" y1="232.026" x2="710.075" y2="231.441" gradientUnits="userSpaceOnUse">
<stop stop-color="#BC9632"/>
<stop offset="0.262187" stop-color="#FFEDA9"/>
<stop offset="1" stop-color="#BC9632"/>
</linearGradient>
<linearGradient id="paint13_linear_277_1345" x1="22.8197" y1="232.026" x2="710.075" y2="231.441" gradientUnits="userSpaceOnUse">
<stop stop-color="#BC9632"/>
<stop offset="0.262187" stop-color="#FFEDA9"/>
<stop offset="1" stop-color="#BC9632"/>
</linearGradient>
<linearGradient id="paint14_linear_277_1345" x1="22.8193" y1="232.026" x2="710.075" y2="231.441" gradientUnits="userSpaceOnUse">
<stop stop-color="#BC9632"/>
<stop offset="0.262187" stop-color="#FFEDA9"/>
<stop offset="1" stop-color="#BC9632"/>
</linearGradient>
<linearGradient id="paint15_linear_277_1345" x1="22.8195" y1="232.026" x2="710.075" y2="231.441" gradientUnits="userSpaceOnUse">
<stop stop-color="#BC9632"/>
<stop offset="0.262187" stop-color="#FFEDA9"/>
<stop offset="1" stop-color="#BC9632"/>
</linearGradient>
<linearGradient id="paint16_linear_277_1345" x1="22.8196" y1="232.026" x2="710.075" y2="231.441" gradientUnits="userSpaceOnUse">
<stop stop-color="#BC9632"/>
<stop offset="0.262187" stop-color="#FFEDA9"/>
<stop offset="1" stop-color="#BC9632"/>
</linearGradient>
<linearGradient id="paint17_linear_277_1345" x1="22.8194" y1="232.026" x2="710.075" y2="231.441" gradientUnits="userSpaceOnUse">
<stop stop-color="#BC9632"/>
<stop offset="0.262187" stop-color="#FFEDA9"/>
<stop offset="1" stop-color="#BC9632"/>
</linearGradient>
<linearGradient id="paint18_linear_277_1345" x1="22.8196" y1="232.026" x2="710.075" y2="231.441" gradientUnits="userSpaceOnUse">
<stop stop-color="#BC9632"/>
<stop offset="0.262187" stop-color="#FFEDA9"/>
<stop offset="1" stop-color="#BC9632"/>
</linearGradient>
<linearGradient id="paint19_linear_277_1345" x1="22.8196" y1="232.026" x2="710.075" y2="231.441" gradientUnits="userSpaceOnUse">
<stop stop-color="#BC9632"/>
<stop offset="0.262187" stop-color="#FFEDA9"/>
<stop offset="1" stop-color="#BC9632"/>
</linearGradient>
<linearGradient id="paint20_linear_277_1345" x1="22.8195" y1="232.026" x2="710.075" y2="231.441" gradientUnits="userSpaceOnUse">
<stop stop-color="#BC9632"/>
<stop offset="0.262187" stop-color="#FFEDA9"/>
<stop offset="1" stop-color="#BC9632"/>
</linearGradient>
<linearGradient id="paint21_linear_277_1345" x1="22.8193" y1="232.026" x2="710.075" y2="231.441" gradientUnits="userSpaceOnUse">
<stop stop-color="#BC9632"/>
<stop offset="0.262187" stop-color="#FFEDA9"/>
<stop offset="1" stop-color="#BC9632"/>
</linearGradient>
<linearGradient id="paint22_linear_277_1345" x1="22.8194" y1="232.026" x2="710.075" y2="231.441" gradientUnits="userSpaceOnUse">
<stop stop-color="#BC9632"/>
<stop offset="0.262187" stop-color="#FFEDA9"/>
<stop offset="1" stop-color="#BC9632"/>
</linearGradient>
<linearGradient id="paint23_linear_277_1345" x1="22.8192" y1="232.026" x2="710.075" y2="231.441" gradientUnits="userSpaceOnUse">
<stop stop-color="#BC9632"/>
<stop offset="0.262187" stop-color="#FFEDA9"/>
<stop offset="1" stop-color="#BC9632"/>
</linearGradient>
<linearGradient id="paint24_linear_277_1345" x1="22.8195" y1="232.026" x2="710.075" y2="231.441" gradientUnits="userSpaceOnUse">
<stop stop-color="#BC9632"/>
<stop offset="0.262187" stop-color="#FFEDA9"/>
<stop offset="1" stop-color="#BC9632"/>
</linearGradient>
<linearGradient id="paint25_linear_277_1345" x1="22.8195" y1="232.026" x2="710.075" y2="231.441" gradientUnits="userSpaceOnUse">
<stop stop-color="#BC9632"/>
<stop offset="0.262187" stop-color="#FFEDA9"/>
<stop offset="1" stop-color="#BC9632"/>
</linearGradient>
<clipPath id="clip0_277_1345">
<rect width="360" height="320" fill="white"/>
</clipPath>
</defs>
</svg>
