<svg width="360" height="320" viewBox="0 0 360 320" fill="none" xmlns="http://www.w3.org/2000/svg">
<g clip-path="url(#clip0_277_1515)">
<rect width="360" height="320" fill="#003216"/>
<g opacity="0.23">
<path d="M367.007 271.67C365.964 273.341 366.47 275.539 368.14 276.582C369.81 277.624 372.009 277.118 373.051 275.448C374.094 273.778 373.588 271.579 371.918 270.537C370.248 269.494 368.049 270 367.007 271.67ZM379.996 257.618C381.373 258.477 381.79 260.29 380.931 261.666C380.072 263.043 378.259 263.46 376.882 262.601C375.506 261.741 375.088 259.929 375.947 258.552C376.806 257.175 378.619 256.758 379.996 257.618ZM388.075 244.695C389.158 245.372 389.486 246.798 388.81 247.879C388.134 248.959 386.707 249.29 385.627 248.614C384.547 247.939 384.215 246.511 384.891 245.431C385.567 244.351 386.995 244.02 388.075 244.695ZM396.15 231.773C396.94 232.266 397.179 233.305 396.687 234.094C396.194 234.884 395.156 235.123 394.366 234.63C393.576 234.138 393.337 233.099 393.83 232.309C394.323 231.52 395.361 231.28 396.15 231.773ZM404.229 218.851C404.725 219.161 404.876 219.813 404.566 220.309C404.256 220.806 403.604 220.956 403.108 220.647C402.612 220.337 402.461 219.684 402.771 219.188C403.08 218.692 403.733 218.542 404.229 218.851ZM363.902 283.36C364.958 284.02 365.278 285.411 364.618 286.467C363.958 287.523 362.568 287.843 361.512 287.183C360.455 286.523 360.136 285.133 360.796 284.076C361.456 283.02 362.846 282.7 363.902 283.36ZM355.89 296.178C356.335 296.456 356.471 297.043 356.193 297.489C355.915 297.934 355.328 298.07 354.882 297.792C354.437 297.514 354.301 296.927 354.579 296.481C354.857 296.036 355.444 295.9 355.89 296.178ZM369.19 259.417C370.86 260.46 371.366 262.658 370.324 264.329C369.281 265.998 367.083 266.505 365.412 265.462C363.742 264.42 363.236 262.221 364.279 260.551C365.321 258.881 367.52 258.375 369.19 259.417ZM377.231 246.554C378.575 247.394 378.982 249.164 378.142 250.509C377.301 251.853 375.531 252.26 374.186 251.419C372.842 250.579 372.436 248.809 373.276 247.464C374.116 246.12 375.886 245.714 377.231 246.554ZM385.271 233.688C386.291 234.325 386.6 235.665 385.962 236.683C385.324 237.702 383.985 238.012 382.966 237.374C381.947 236.736 381.638 235.397 382.276 234.378C382.913 233.359 384.253 233.05 385.271 233.688ZM393.315 220.824C394.009 221.257 394.218 222.171 393.786 222.864C393.353 223.558 392.439 223.768 391.746 223.334C391.052 222.902 390.843 221.988 391.275 221.295C391.708 220.601 392.622 220.392 393.315 220.824ZM401.356 207.961C401.724 208.192 401.837 208.677 401.606 209.045C401.376 209.413 400.891 209.525 400.522 209.295C400.154 209.065 400.042 208.579 400.272 208.211C400.503 207.843 400.988 207.73 401.356 207.961ZM361.089 272.374C362.292 273.126 362.659 274.712 361.907 275.917C361.155 277.124 359.569 277.487 358.364 276.736C357.158 275.984 356.794 274.398 357.546 273.192C358.297 271.986 359.883 271.622 361.089 272.374ZM352.991 285.325C353.736 285.79 353.96 286.768 353.496 287.513C353.032 288.257 352.053 288.481 351.308 288.017C350.564 287.553 350.34 286.574 350.804 285.829C351.269 285.085 352.247 284.861 352.991 285.325Z" fill="url(#paint0_linear_277_1515)" fill-opacity="0.3"/>
<path d="M351.219 260.566C350.094 262.179 350.49 264.401 352.104 265.528C353.717 266.656 355.939 266.257 357.066 264.644C358.194 263.03 357.795 260.808 356.181 259.681C354.568 258.556 352.346 258.952 351.219 260.566ZM364.896 247.179C366.226 248.108 366.552 249.939 365.627 251.269C364.701 252.599 362.867 252.925 361.537 252C360.207 251.074 359.881 249.24 360.807 247.91C361.732 246.58 363.566 246.254 364.896 247.179ZM373.611 234.677C374.657 235.406 374.914 236.848 374.185 237.893C373.456 238.939 372.014 239.197 370.969 238.468C369.923 237.739 369.666 236.297 370.394 235.251C371.124 234.206 372.565 233.948 373.611 234.677ZM382.325 222.175C383.087 222.708 383.275 223.757 382.743 224.521C382.21 225.285 381.161 225.471 380.397 224.939C379.632 224.406 379.447 223.357 379.98 222.593C380.513 221.828 381.561 221.643 382.325 222.175ZM391.04 209.676C391.52 210.01 391.637 210.671 391.303 211.149C390.97 211.627 390.309 211.746 389.831 211.412C389.353 211.079 389.234 210.418 389.567 209.94C389.901 209.462 390.562 209.343 391.04 209.676ZM347.533 272.085C348.555 272.795 348.803 274.202 348.093 275.222C347.383 276.241 345.975 276.492 344.956 275.782C343.937 275.071 343.685 273.664 344.396 272.645C345.106 271.626 346.513 271.374 347.533 272.085ZM338.887 284.482C339.32 284.784 339.424 285.378 339.122 285.808C338.82 286.237 338.227 286.345 337.797 286.043C337.367 285.741 337.26 285.147 337.562 284.718C337.864 284.288 338.458 284.18 338.887 284.482ZM354.012 248.435C355.626 249.56 356.025 251.781 354.897 253.398C353.769 255.014 351.55 255.41 349.934 254.282C348.318 253.154 347.922 250.936 349.05 249.319C350.177 247.703 352.396 247.307 354.012 248.435ZM362.686 235.991C363.987 236.898 364.305 238.687 363.399 239.985C362.493 241.283 360.704 241.604 359.406 240.698C358.105 239.791 357.787 238.002 358.693 236.704C359.6 235.403 361.388 235.085 362.686 235.991ZM371.363 223.545C372.348 224.231 372.59 225.588 371.904 226.572C371.219 227.557 369.862 227.798 368.877 227.113C367.892 226.427 367.651 225.071 368.337 224.086C369.022 223.101 370.379 222.86 371.363 223.545ZM380.04 211.1C380.712 211.567 380.876 212.488 380.409 213.16C379.941 213.831 379.02 213.996 378.349 213.528C377.677 213.061 377.513 212.14 377.98 211.468C378.448 210.796 379.369 210.632 380.04 211.1ZM388.714 198.656C389.07 198.905 389.157 199.394 388.911 199.75C388.664 200.105 388.173 200.193 387.817 199.946C387.461 199.7 387.374 199.208 387.621 198.852C387.867 198.497 388.359 198.41 388.714 198.656ZM345.273 260.971C346.438 261.784 346.723 263.387 345.913 264.549C345.1 265.714 343.497 265.999 342.335 265.189C341.172 264.379 340.885 262.773 341.695 261.611C342.505 260.448 344.11 260.161 345.273 260.971ZM336.537 273.499C337.256 274.001 337.432 274.99 336.931 275.709C336.429 276.428 335.44 276.605 334.721 276.103C334.001 275.601 333.825 274.612 334.327 273.893C334.829 273.174 335.818 272.997 336.537 273.499Z" fill="url(#paint1_linear_277_1515)" fill-opacity="0.3"/>
<path d="M336.286 249.586C335.138 251.184 335.499 253.411 337.098 254.56C338.696 255.708 340.923 255.347 342.072 253.748C343.22 252.15 342.858 249.923 341.26 248.774C339.662 247.626 337.435 247.988 336.286 249.586ZM350.161 236.403C351.478 237.35 351.776 239.185 350.829 240.502C349.882 241.82 348.048 242.118 346.73 241.171C345.413 240.224 345.115 238.389 346.062 237.072C347.009 235.755 348.844 235.456 350.161 236.403ZM359.061 224.035C360.097 224.78 360.332 226.226 359.587 227.262C358.842 228.298 357.396 228.533 356.36 227.788C355.324 227.042 355.089 225.597 355.834 224.561C356.579 223.525 358.024 223.29 359.061 224.035ZM367.961 211.664C368.716 212.207 368.888 213.26 368.344 214.016C367.801 214.771 366.748 214.942 365.993 214.399C365.238 213.855 365.066 212.803 365.61 212.047C366.153 211.292 367.206 211.12 367.961 211.664ZM376.861 199.296C377.335 199.637 377.444 200.298 377.102 200.772C376.761 201.246 376.1 201.354 375.626 201.013C375.151 200.671 375.043 200.011 375.385 199.536C375.726 199.062 376.387 198.954 376.861 199.296ZM332.429 261.05C333.438 261.776 333.667 263.185 332.941 264.195C332.215 265.205 330.806 265.434 329.796 264.707C328.786 263.981 328.558 262.572 329.284 261.562C330.01 260.553 331.419 260.324 332.429 261.05ZM323.603 273.318C324.03 273.625 324.125 274.221 323.818 274.647C323.511 275.074 322.915 275.17 322.489 274.863C322.062 274.555 321.966 273.96 322.273 273.533C322.581 273.106 323.176 273.01 323.603 273.318ZM339.261 237.499C340.859 238.647 341.221 240.875 340.072 242.473C338.923 244.071 336.696 244.433 335.098 243.284C333.5 242.135 333.138 239.908 334.287 238.31C335.435 236.712 337.663 236.35 339.261 237.499ZM348.121 225.183C349.406 226.108 349.699 227.901 348.774 229.189C347.848 230.477 346.056 230.768 344.768 229.842C343.48 228.917 343.19 227.125 344.115 225.837C345.04 224.548 346.833 224.258 348.121 225.183ZM356.98 212.871C357.956 213.572 358.177 214.93 357.476 215.905C356.774 216.881 355.416 217.102 354.441 216.401C353.466 215.699 353.244 214.341 353.946 213.366C354.647 212.391 356.005 212.169 356.98 212.871ZM365.84 200.555C366.503 201.033 366.656 201.956 366.178 202.622C365.7 203.287 364.776 203.437 364.111 202.959C363.446 202.481 363.296 201.558 363.774 200.892C364.252 200.227 365.175 200.077 365.84 200.555ZM374.703 188.24C375.056 188.495 375.134 188.983 374.883 189.335C374.631 189.688 374.14 189.767 373.787 189.515C373.434 189.263 373.356 188.772 373.608 188.419C373.859 188.067 374.35 187.988 374.703 188.24ZM330.335 249.904C331.489 250.733 331.75 252.339 330.922 253.493C330.093 254.645 328.487 254.908 327.333 254.078C326.181 253.25 325.918 251.643 326.748 250.491C327.576 249.337 329.183 249.076 330.335 249.904ZM321.414 262.302C322.124 262.814 322.286 263.805 321.774 264.515C321.262 265.225 320.271 265.387 319.561 264.875C318.851 264.363 318.689 263.372 319.201 262.662C319.713 261.951 320.704 261.79 321.414 262.302Z" fill="url(#paint2_linear_277_1515)" fill-opacity="0.3"/>
<path d="M321.441 238.297C320.26 239.87 320.577 242.105 322.153 243.286C323.729 244.467 325.962 244.15 327.142 242.573C328.323 240.997 328.006 238.765 326.43 237.584C324.856 236.404 322.621 236.72 321.441 238.297ZM335.576 225.399C336.875 226.372 337.136 228.212 336.163 229.511C335.189 230.809 333.349 231.071 332.05 230.098C330.751 229.124 330.49 227.284 331.463 225.985C332.437 224.687 334.277 224.425 335.576 225.399ZM344.722 213.21C345.743 213.976 345.95 215.425 345.184 216.446C344.417 217.466 342.968 217.673 341.948 216.907C340.927 216.14 340.72 214.692 341.486 213.671C342.253 212.65 343.701 212.444 344.722 213.21ZM353.869 201.021C354.612 201.58 354.763 202.635 354.204 203.38C353.645 204.126 352.591 204.275 351.845 203.716C351.099 203.156 350.95 202.102 351.51 201.357C352.069 200.611 353.123 200.462 353.869 201.021ZM363.015 188.833C363.483 189.182 363.577 189.847 363.225 190.313C362.873 190.778 362.211 190.874 361.745 190.522C361.28 190.17 361.183 189.508 361.535 189.043C361.887 188.578 362.55 188.481 363.015 188.833ZM317.354 249.683C318.348 250.431 318.552 251.843 317.805 252.837C317.057 253.832 315.645 254.035 314.65 253.287C313.656 252.54 313.452 251.128 314.2 250.134C314.947 249.139 316.36 248.935 317.354 249.683ZM308.282 261.771C308.702 262.086 308.787 262.684 308.472 263.104C308.157 263.525 307.559 263.609 307.139 263.294C306.718 262.979 306.634 262.382 306.949 261.961C307.264 261.541 307.861 261.456 308.282 261.771ZM324.656 226.275C326.229 227.455 326.549 229.691 325.368 231.264C324.188 232.838 321.953 233.157 320.379 231.977C318.805 230.796 318.486 228.561 319.667 226.987C320.847 225.414 323.082 225.094 324.656 226.275ZM333.762 214.139C335.029 215.091 335.285 216.889 334.333 218.156C333.382 219.422 331.583 219.679 330.317 218.727C329.05 217.776 328.794 215.977 329.745 214.711C330.697 213.444 332.495 213.188 333.762 214.139ZM342.868 202.006C343.828 202.726 344.024 204.091 343.301 205.05C342.578 206.01 341.217 206.206 340.257 205.484C339.297 204.761 339.101 203.399 339.824 202.44C340.547 201.48 341.908 201.283 342.868 202.006ZM351.971 189.87C352.624 190.361 352.758 191.289 352.266 191.942C351.775 192.595 350.848 192.728 350.195 192.237C349.541 191.746 349.408 190.818 349.9 190.165C350.391 189.512 351.318 189.379 351.971 189.87ZM361.077 177.737C361.424 177.997 361.494 178.49 361.234 178.837C360.975 179.183 360.481 179.253 360.135 178.994C359.788 178.734 359.718 178.241 359.978 177.894C360.238 177.548 360.731 177.478 361.077 177.737ZM315.482 238.495C316.616 239.347 316.847 240.96 315.995 242.094C315.142 243.229 313.529 243.46 312.395 242.607C311.261 241.754 311.03 240.142 311.882 239.007C312.735 237.873 314.348 237.642 315.482 238.495ZM306.317 250.713C307.018 251.238 307.16 252.233 306.634 252.934C306.109 253.635 305.114 253.777 304.413 253.252C303.712 252.726 303.57 251.731 304.095 251.03C304.621 250.33 305.616 250.187 306.317 250.713Z" fill="url(#paint3_linear_277_1515)" fill-opacity="0.3"/>
<path d="M306.975 227.049C305.786 228.617 306.092 230.854 307.659 232.042C309.226 233.23 311.463 232.925 312.652 231.358C313.84 229.79 313.535 227.553 311.967 226.365C310.4 225.177 308.163 225.482 306.975 227.049ZM321.177 214.223C322.47 215.204 322.723 217.047 321.741 218.339C320.76 219.632 318.917 219.885 317.625 218.904C316.333 217.922 316.08 216.079 317.061 214.787C318.042 213.495 319.885 213.242 321.177 214.223ZM330.387 202.081C331.405 202.852 331.603 204.301 330.832 205.318C330.06 206.336 328.612 206.534 327.594 205.763C326.576 204.991 326.378 203.543 327.15 202.525C327.921 201.507 329.37 201.309 330.387 202.081ZM339.594 189.941C340.334 190.503 340.48 191.56 339.918 192.302C339.356 193.045 338.3 193.189 337.557 192.627C336.814 192.065 336.671 191.008 337.233 190.265C337.795 189.523 338.851 189.379 339.594 189.941ZM348.804 177.799C349.269 178.151 349.36 178.816 349.008 179.281C348.656 179.747 347.991 179.837 347.526 179.486C347.061 179.134 346.97 178.469 347.322 178.003C347.674 177.538 348.339 177.447 348.804 177.799ZM302.829 238.412C303.82 239.165 304.015 240.576 303.262 241.57C302.509 242.564 301.097 242.757 300.103 242.004C299.11 241.25 298.917 239.839 299.67 238.845C300.423 237.851 301.835 237.659 302.829 238.412ZM293.693 250.453C294.113 250.771 294.195 251.369 293.877 251.786C293.56 252.204 292.962 252.288 292.545 251.97C292.127 251.653 292.042 251.055 292.36 250.638C292.678 250.22 293.275 250.136 293.693 250.453ZM310.25 215.043C311.817 216.231 312.125 218.469 310.935 220.036C309.743 221.603 307.509 221.911 305.942 220.72C304.374 219.532 304.066 217.294 305.257 215.727C306.448 214.16 308.683 213.852 310.25 215.043ZM319.42 202.954C320.684 203.911 320.929 205.711 319.972 206.974C319.014 208.238 317.214 208.483 315.951 207.526C314.687 206.569 314.442 204.769 315.399 203.505C316.356 202.242 318.156 201.997 319.42 202.954ZM328.587 190.867C329.543 191.593 329.731 192.956 329.006 193.913C328.281 194.87 326.917 195.058 325.96 194.332C325.003 193.607 324.815 192.243 325.541 191.287C326.266 190.329 327.63 190.142 328.587 190.867ZM337.756 178.781C338.406 179.275 338.534 180.204 338.04 180.854C337.546 181.505 336.617 181.632 335.966 181.138C335.316 180.644 335.189 179.714 335.683 179.065C336.176 178.414 337.106 178.287 337.756 178.781ZM346.926 166.694C347.272 166.957 347.339 167.45 347.077 167.796C346.815 168.142 346.322 168.209 345.975 167.947C345.629 167.685 345.562 167.191 345.824 166.845C346.086 166.499 346.579 166.432 346.926 166.694ZM301.016 227.217C302.146 228.075 302.369 229.687 301.511 230.818C300.653 231.949 299.041 232.172 297.91 231.314C296.779 230.456 296.556 228.844 297.414 227.712C298.272 226.582 299.884 226.359 301.016 227.217ZM291.784 239.385C292.482 239.916 292.618 240.91 292.09 241.608C291.563 242.306 290.565 242.443 289.867 241.915C289.169 241.387 289.033 240.389 289.561 239.691C290.089 238.994 291.086 238.857 291.784 239.385Z" fill="url(#paint4_linear_277_1515)" fill-opacity="0.3"/>
<path d="M292.703 216.046C291.528 217.625 291.853 219.858 293.432 221.034C295.012 222.209 297.245 221.884 298.42 220.304C299.595 218.725 299.27 216.492 297.69 215.317C296.111 214.141 293.878 214.466 292.703 216.046ZM306.792 203.094C308.094 204.062 308.361 205.903 307.393 207.205C306.425 208.506 304.584 208.774 303.282 207.806C301.981 206.838 301.713 204.997 302.681 203.695C303.649 202.393 305.49 202.126 306.792 203.094ZM315.896 190.875C316.92 191.638 317.132 193.085 316.369 194.108C315.605 195.132 314.158 195.345 313.135 194.581C312.111 193.817 311.898 192.371 312.662 191.347C313.426 190.323 314.872 190.111 315.896 190.875ZM324.998 178.652C325.744 179.208 325.898 180.263 325.341 181.009C324.785 181.755 323.73 181.909 322.984 181.353C322.238 180.796 322.084 179.742 322.64 178.996C323.197 178.25 324.252 178.095 324.998 178.652ZM334.102 166.43C334.57 166.779 334.666 167.441 334.317 167.91C333.968 168.378 333.305 168.475 332.837 168.125C332.369 167.776 332.272 167.113 332.621 166.645C332.971 166.177 333.633 166.08 334.102 166.43ZM288.657 227.446C289.655 228.189 289.861 229.601 289.119 230.602C288.376 231.602 286.964 231.805 285.964 231.063C284.964 230.321 284.76 228.908 285.502 227.908C286.245 226.908 287.657 226.704 288.657 227.446ZM279.63 239.566C280.051 239.881 280.138 240.476 279.826 240.899C279.513 241.323 278.916 241.407 278.492 241.095C278.069 240.782 277.984 240.185 278.297 239.761C278.609 239.338 279.207 239.253 279.63 239.566ZM295.875 204.01C297.454 205.185 297.779 207.418 296.604 208.997C295.429 210.577 293.195 210.902 291.616 209.727C290.037 208.552 289.712 206.318 290.887 204.739C292.062 203.16 294.295 202.834 295.875 204.01ZM304.936 191.843C306.206 192.789 306.47 194.588 305.524 195.858C304.578 197.128 302.779 197.392 301.509 196.446C300.239 195.5 299.974 193.701 300.921 192.431C301.867 191.161 303.666 190.896 304.936 191.843ZM313.999 179.676C314.962 180.394 315.161 181.755 314.444 182.718C313.727 183.682 312.365 183.88 311.402 183.163C310.439 182.445 310.24 181.084 310.957 180.121C311.675 179.158 313.037 178.959 313.999 179.676ZM323.061 167.509C323.717 167.998 323.853 168.925 323.364 169.582C322.875 170.238 321.948 170.374 321.292 169.885C320.636 169.396 320.5 168.469 320.988 167.813C321.477 167.157 322.404 167.021 323.061 167.509ZM332.122 155.342C332.471 155.602 332.541 156.093 332.281 156.442C332.021 156.791 331.531 156.861 331.182 156.602C330.833 156.342 330.762 155.851 331.022 155.502C331.282 155.153 331.772 155.083 332.122 155.342ZM286.748 216.267C287.886 217.114 288.122 218.727 287.275 219.864C286.428 221.002 284.815 221.239 283.677 220.391C282.54 219.544 282.303 217.931 283.151 216.793C283.998 215.656 285.61 215.419 286.748 216.267ZM277.625 228.516C278.329 229.038 278.474 230.033 277.951 230.735C277.429 231.436 276.434 231.583 275.732 231.061C275.031 230.538 274.884 229.543 275.406 228.842C275.929 228.141 276.924 227.993 277.625 228.516Z" fill="url(#paint5_linear_277_1515)" fill-opacity="0.3"/>
<path d="M278.453 205.212C277.299 206.807 277.658 209.034 279.253 210.188C280.848 211.342 283.075 210.983 284.229 209.388C285.383 207.794 285.024 205.566 283.429 204.412C281.834 203.258 279.607 203.617 278.453 205.212ZM292.359 192.06C293.673 193.01 293.968 194.847 293.019 196.161C292.069 197.475 290.232 197.771 288.918 196.822C287.603 195.872 287.308 194.035 288.257 192.72C289.207 191.406 291.044 191.111 292.359 192.06ZM301.285 179.71C302.319 180.458 302.551 181.903 301.803 182.937C301.055 183.97 299.61 184.202 298.576 183.457C297.543 182.712 297.311 181.264 298.056 180.231C298.801 179.197 300.249 178.965 301.282 179.71L301.285 179.71ZM310.212 167.361C310.967 167.907 311.135 168.959 310.59 169.712C310.044 170.464 308.991 170.636 308.239 170.09C307.486 169.544 307.315 168.491 307.861 167.739C308.406 166.986 309.459 166.815 310.212 167.361ZM319.141 155.011C319.615 155.353 319.721 156.016 319.379 156.488C319.038 156.959 318.375 157.067 317.903 156.726C317.431 156.384 317.324 155.721 317.665 155.249C318.006 154.778 318.669 154.67 319.141 155.011ZM274.571 216.666C275.58 217.396 275.806 218.804 275.077 219.814C274.348 220.823 272.94 221.049 271.93 220.32C270.921 219.591 270.694 218.182 271.423 217.173C272.153 216.164 273.561 215.937 274.571 216.666ZM265.716 228.915C266.142 229.223 266.238 229.818 265.928 230.245C265.618 230.671 265.025 230.767 264.599 230.457C264.172 230.147 264.076 229.554 264.387 229.128C264.696 228.702 265.289 228.605 265.716 228.915ZM281.455 193.13C283.05 194.284 283.409 196.511 282.255 198.106C281.101 199.701 278.873 200.06 277.279 198.906C275.684 197.752 275.325 195.525 276.479 193.93C277.633 192.335 279.86 191.976 281.455 193.13ZM290.341 180.836C291.626 181.764 291.914 183.559 290.986 184.841C290.058 186.124 288.263 186.414 286.981 185.486C285.698 184.558 285.408 182.763 286.336 181.481C287.263 180.199 289.059 179.908 290.341 180.836ZM299.23 168.542C300.203 169.247 300.421 170.604 299.72 171.579C299.018 172.555 297.658 172.771 296.683 172.069C295.707 171.367 295.491 170.007 296.193 169.032C296.895 168.057 298.255 167.841 299.23 168.542ZM308.117 156.245C308.779 156.723 308.929 157.649 308.449 158.312C307.968 158.974 307.045 159.124 306.383 158.643C305.72 158.163 305.57 157.24 306.051 156.577C306.531 155.915 307.454 155.765 308.117 156.245ZM317.003 143.951C317.355 144.206 317.434 144.697 317.179 145.049C316.925 145.402 316.434 145.48 316.081 145.226C315.729 144.971 315.651 144.481 315.905 144.128C316.159 143.776 316.651 143.697 317.003 143.951ZM272.5 205.517C273.65 206.348 273.91 207.954 273.078 209.107C272.246 210.26 270.641 210.516 269.488 209.685C268.338 208.853 268.079 207.247 268.91 206.094C269.742 204.942 271.348 204.685 272.5 205.517ZM263.555 217.893C264.265 218.405 264.424 219.399 263.912 220.109C263.4 220.819 262.407 220.978 261.696 220.466C260.987 219.954 260.827 218.96 261.339 218.25C261.851 217.54 262.845 217.381 263.555 217.893Z" fill="url(#paint6_linear_277_1515)" fill-opacity="0.3"/>
<path d="M263.931 194.747C262.801 196.357 263.191 198.581 264.802 199.711C266.412 200.841 268.636 200.451 269.766 198.84C270.896 197.23 270.506 195.006 268.895 193.876C267.285 192.746 265.061 193.136 263.931 194.747ZM277.647 181.399C278.977 182.33 279.298 184.164 278.367 185.491C277.436 186.817 275.602 187.141 274.275 186.21C272.948 185.279 272.625 183.445 273.556 182.119C274.486 180.792 276.32 180.468 277.647 181.399ZM286.396 168.923C287.442 169.654 287.694 171.095 286.962 172.141C286.23 173.186 284.789 173.438 283.743 172.706C282.698 171.975 282.446 170.534 283.178 169.488C283.91 168.442 285.351 168.191 286.396 168.923ZM295.148 156.446C295.91 156.981 296.095 158.029 295.56 158.791C295.024 159.552 293.976 159.738 293.215 159.202C292.453 158.667 292.267 157.619 292.803 156.857C293.338 156.096 294.387 155.91 295.148 156.446ZM303.897 143.971C304.374 144.307 304.491 144.966 304.155 145.443C303.819 145.921 303.16 146.037 302.683 145.701C302.205 145.365 302.089 144.707 302.425 144.229C302.761 143.752 303.419 143.635 303.897 143.971ZM260.212 206.254C261.231 206.971 261.477 208.375 260.764 209.394C260.051 210.413 258.644 210.659 257.625 209.946C256.606 209.233 256.36 207.825 257.073 206.806C257.786 205.787 259.193 205.542 260.212 206.254ZM251.532 218.628C251.962 218.93 252.067 219.523 251.765 219.953C251.463 220.383 250.869 220.488 250.44 220.185C250.01 219.883 249.905 219.29 250.207 218.86C250.509 218.43 251.102 218.326 251.532 218.628ZM266.757 182.624C268.368 183.754 268.758 185.978 267.628 187.588C266.498 189.199 264.274 189.589 262.663 188.459C261.053 187.329 260.663 185.105 261.793 183.494C262.923 181.884 265.147 181.494 266.757 182.624ZM275.469 170.203C276.767 171.112 277.079 172.903 276.17 174.198C275.261 175.493 273.47 175.808 272.175 174.9C270.88 173.99 270.564 172.199 271.474 170.904C272.383 169.609 274.174 169.294 275.469 170.203ZM284.18 157.784C285.164 158.475 285.401 159.829 284.712 160.813C284.024 161.798 282.668 162.034 281.683 161.345C280.699 160.654 280.463 159.301 281.151 158.316C281.839 157.332 283.196 157.096 284.18 157.784ZM292.892 145.363C293.56 145.833 293.722 146.754 293.254 147.426C292.787 148.097 291.863 148.256 291.192 147.789C290.52 147.321 290.362 146.397 290.829 145.726C291.296 145.054 292.22 144.896 292.892 145.363ZM301.606 132.942C301.961 133.191 302.046 133.68 301.797 134.036C301.548 134.391 301.059 134.476 300.703 134.226C300.348 133.977 300.263 133.488 300.512 133.133C300.762 132.777 301.25 132.693 301.606 132.942ZM257.984 195.135C259.146 195.951 259.428 197.553 258.612 198.715C257.796 199.877 256.194 200.159 255.032 199.344C253.87 198.528 253.588 196.926 254.404 195.764C255.219 194.601 256.821 194.32 257.984 195.135ZM249.213 207.639C249.929 208.143 250.103 209.132 249.601 209.848C249.1 210.565 248.108 210.738 247.392 210.236C246.675 209.735 246.502 208.743 247.003 208.027C247.505 207.31 248.496 207.137 249.213 207.639Z" fill="url(#paint7_linear_277_1515)" fill-opacity="0.3"/>
<path d="M249.719 185.185C248.669 186.849 249.169 189.05 250.836 190.101C252.503 191.151 254.701 190.651 255.751 188.984C256.802 187.317 256.301 185.119 254.635 184.068C252.971 183.018 250.77 183.518 249.719 185.185ZM262.758 171.177C264.132 172.042 264.543 173.857 263.679 175.228C262.815 176.598 260.999 177.013 259.629 176.148C258.258 175.284 257.844 173.468 258.708 172.098C259.572 170.727 261.388 170.313 262.758 171.177ZM270.88 158.283C271.96 158.965 272.282 160.391 271.604 161.472C270.925 162.552 269.496 162.874 268.416 162.196C267.336 161.517 267.013 160.088 267.691 159.008C268.37 157.928 269.799 157.605 270.88 158.283ZM279.004 145.39C279.79 145.885 280.027 146.926 279.532 147.713C279.036 148.5 277.995 148.736 277.208 148.241C276.422 147.745 276.185 146.704 276.681 145.918C277.176 145.131 278.217 144.895 279.004 145.39ZM287.125 132.496C287.618 132.808 287.768 133.461 287.456 133.954C287.144 134.447 286.492 134.598 285.998 134.286C285.505 133.973 285.355 133.321 285.667 132.828C285.979 132.335 286.631 132.184 287.125 132.496ZM246.574 196.866C247.627 197.528 247.944 198.921 247.278 199.974C246.613 201.028 245.223 201.345 244.17 200.679C243.117 200.014 242.8 198.624 243.465 197.57C244.131 196.517 245.521 196.2 246.574 196.866ZM238.519 209.653C238.964 209.934 239.097 210.521 238.816 210.966C238.536 211.412 237.948 211.544 237.503 211.264C237.058 210.983 236.925 210.396 237.206 209.95C237.486 209.505 238.074 209.372 238.519 209.653ZM251.944 172.94C253.608 173.991 254.108 176.189 253.06 177.856C252.013 179.522 249.812 180.02 248.145 178.972C246.478 177.925 245.98 175.724 247.028 174.057C248.076 172.39 250.277 171.892 251.944 172.94ZM260.03 160.102C261.371 160.948 261.772 162.717 260.929 164.059C260.087 165.401 258.314 165.801 256.973 164.958C255.631 164.113 255.231 162.343 256.073 161.002C256.916 159.66 258.689 159.26 260.03 160.102ZM268.116 147.267C269.132 147.908 269.436 149.249 268.799 150.266C268.161 151.282 266.816 151.585 265.8 150.948C264.784 150.31 264.481 148.966 265.118 147.949C265.756 146.933 267.1 146.63 268.116 147.267ZM276.202 134.432C276.893 134.868 277.102 135.781 276.667 136.475C276.231 137.168 275.318 137.375 274.625 136.939C273.931 136.504 273.725 135.59 274.16 134.897C274.596 134.204 275.509 133.997 276.202 134.432ZM284.289 121.595C284.657 121.825 284.767 122.31 284.536 122.678C284.306 123.046 283.821 123.156 283.453 122.926C283.084 122.695 282.975 122.21 283.205 121.842C283.436 121.474 283.921 121.364 284.289 121.595ZM243.798 185.868C244.998 186.625 245.359 188.214 244.602 189.414C243.845 190.614 242.256 190.975 241.056 190.218C239.856 189.461 239.495 187.872 240.252 186.672C241.009 185.472 242.598 185.111 243.798 185.868ZM235.658 198.792C236.399 199.259 236.62 200.237 236.153 200.978C235.686 201.72 234.708 201.941 233.967 201.474C233.225 201.007 233.004 200.029 233.471 199.287C233.938 198.546 234.916 198.325 235.658 198.792Z" fill="url(#paint8_linear_277_1515)" fill-opacity="0.3"/>
<path d="M234.928 175.993C233.939 177.695 234.519 179.876 236.221 180.865C237.923 181.855 240.105 181.275 241.093 179.572C242.083 177.871 241.502 175.689 239.801 174.7C238.099 173.711 235.917 174.291 234.928 175.993ZM247.452 161.521C248.854 162.334 249.331 164.132 248.517 165.537C247.703 166.943 245.906 167.416 244.5 166.602C243.096 165.789 242.621 163.991 243.435 162.586C244.249 161.181 246.047 160.707 247.452 161.521ZM255.103 148.342C256.205 148.983 256.582 150.397 255.941 151.499C255.3 152.602 253.886 152.978 252.783 152.337C251.681 151.696 251.304 150.282 251.946 149.18C252.587 148.077 254 147.701 255.103 148.342ZM262.754 135.163C263.559 135.628 263.833 136.661 263.364 137.464C262.895 138.266 261.865 138.543 261.063 138.074C260.26 137.605 259.984 136.576 260.453 135.773C260.921 134.97 261.951 134.694 262.754 135.163ZM270.405 121.986C270.911 122.28 271.081 122.926 270.787 123.431C270.494 123.937 269.848 124.107 269.343 123.814C268.837 123.52 268.666 122.875 268.96 122.369C269.253 121.863 269.899 121.693 270.405 121.986ZM232.207 187.777C233.283 188.403 233.651 189.782 233.026 190.858C232.401 191.934 231.021 192.302 229.945 191.677C228.869 191.051 228.501 189.671 229.127 188.596C229.752 187.52 231.132 187.152 232.207 187.777ZM224.62 200.85C225.075 201.115 225.23 201.698 224.966 202.153C224.701 202.608 224.118 202.763 223.663 202.498C223.208 202.234 223.052 201.65 223.317 201.196C223.582 200.74 224.165 200.585 224.62 200.85ZM236.709 163.674C238.411 164.663 238.991 166.845 238.002 168.546C237.013 170.248 234.831 170.828 233.129 169.839C231.427 168.85 230.847 166.669 231.837 164.967C232.825 163.265 235.007 162.685 236.709 163.674ZM244.325 150.553C245.695 151.348 246.161 153.106 245.366 154.476C244.572 155.846 242.814 156.312 241.444 155.517C240.074 154.723 239.608 152.965 240.402 151.595C241.197 150.225 242.955 149.759 244.325 150.553ZM251.944 137.433C252.982 138.037 253.337 139.368 252.734 140.406C252.131 141.444 250.799 141.799 249.761 141.196C248.723 140.593 248.368 139.262 248.971 138.224C249.574 137.185 250.906 136.83 251.944 137.433ZM259.56 124.313C260.266 124.724 260.507 125.629 260.096 126.336C259.684 127.042 258.78 127.282 258.073 126.871C257.367 126.46 257.126 125.555 257.537 124.849C257.949 124.142 258.854 123.902 259.56 124.313ZM267.176 111.195C267.55 111.412 267.68 111.893 267.46 112.268C267.24 112.642 266.762 112.772 266.388 112.552C266.013 112.332 265.884 111.854 266.103 111.48C266.323 111.105 266.801 110.976 267.176 111.195ZM229.035 176.891C230.264 177.602 230.682 179.178 229.967 180.404C229.253 181.629 227.68 182.05 226.455 181.335C225.226 180.624 224.808 179.048 225.523 177.822C226.237 176.597 227.81 176.176 229.035 176.891ZM221.368 190.099C222.126 190.539 222.384 191.509 221.944 192.267C221.504 193.024 220.534 193.282 219.776 192.842C219.019 192.402 218.761 191.432 219.201 190.674C219.641 189.917 220.611 189.659 221.368 190.099Z" fill="url(#paint9_linear_277_1515)" fill-opacity="0.3"/>
<path d="M219.667 167.597C218.739 169.334 219.399 171.494 221.133 172.418C222.868 173.343 225.03 172.686 225.955 170.952C226.879 169.217 226.222 167.055 224.488 166.13C222.754 165.206 220.591 165.863 219.667 167.597ZM231.659 152.682C233.09 153.445 233.633 155.225 232.87 156.656C232.107 158.087 230.327 158.629 228.896 157.866C227.465 157.104 226.923 155.323 227.685 153.893C228.448 152.461 230.228 151.919 231.659 152.682ZM238.828 139.233C239.953 139.834 240.381 141.232 239.78 142.36C239.178 143.488 237.78 143.913 236.653 143.311C235.528 142.711 235.1 141.312 235.701 140.185C236.302 139.057 237.7 138.632 238.828 139.233ZM245.999 125.788C246.821 126.224 247.131 127.245 246.692 128.067C246.252 128.888 245.234 129.199 244.412 128.759C243.591 128.32 243.28 127.302 243.72 126.48C244.159 125.659 245.178 125.348 245.999 125.788ZM253.168 112.342C253.683 112.616 253.879 113.258 253.604 113.774C253.329 114.289 252.688 114.485 252.172 114.21C251.656 113.936 251.46 113.294 251.735 112.778C252.01 112.263 252.652 112.067 253.168 112.342ZM217.372 179.471C218.47 180.056 218.886 181.423 218.301 182.521C217.716 183.619 216.35 184.035 215.252 183.45C214.153 182.865 213.737 181.499 214.322 180.401C214.907 179.302 216.274 178.886 217.372 179.471ZM210.261 192.81C210.726 193.059 210.901 193.635 210.652 194.099C210.404 194.564 209.828 194.739 209.363 194.49C208.899 194.242 208.724 193.665 208.972 193.201C209.221 192.737 209.797 192.561 210.261 192.81ZM221 155.22C222.737 156.148 223.394 158.304 222.467 160.041C221.539 161.779 219.382 162.435 217.646 161.508C215.908 160.581 215.251 158.424 216.179 156.687C217.106 154.95 219.263 154.293 221 155.22ZM228.139 141.834C229.537 142.58 230.066 144.317 229.32 145.716C228.573 147.115 226.836 147.643 225.437 146.897C224.039 146.151 223.51 144.413 224.256 143.015C225.003 141.616 226.74 141.087 228.139 141.834ZM235.275 128.447C236.336 129.012 236.736 130.33 236.171 131.388C235.605 132.446 234.287 132.849 233.229 132.283C232.171 131.718 231.768 130.4 232.334 129.342C232.899 128.284 234.217 127.881 235.275 128.447ZM242.414 115.06C243.137 115.445 243.409 116.341 243.024 117.063C242.639 117.785 241.743 118.057 241.021 117.672C240.299 117.288 240.027 116.392 240.411 115.67C240.796 114.947 241.692 114.675 242.414 115.06ZM249.55 101.673C249.934 101.877 250.078 102.353 249.874 102.734C249.671 103.116 249.194 103.262 248.813 103.058C248.432 102.855 248.286 102.379 248.489 101.997C248.692 101.616 249.169 101.47 249.553 101.673L249.55 101.673ZM213.809 168.707C215.063 169.375 215.535 170.933 214.869 172.184C214.203 173.435 212.643 173.91 211.391 173.244C210.14 172.578 209.665 171.017 210.331 169.766C210.997 168.515 212.558 168.041 213.809 168.707ZM206.625 182.182C207.398 182.595 207.69 183.554 207.277 184.327C206.863 185.1 205.904 185.393 205.131 184.979C204.358 184.566 204.066 183.607 204.479 182.834C204.893 182.061 205.851 181.768 206.625 182.182Z" fill="url(#paint10_linear_277_1515)" fill-opacity="0.3"/>
<path d="M204.936 161.115C204.181 162.935 205.045 165.017 206.864 165.772C208.683 166.527 210.766 165.664 211.521 163.844C212.276 162.025 211.413 159.943 209.593 159.187C207.774 158.433 205.691 159.296 204.936 161.115ZM215.43 145.112C216.927 145.734 217.638 147.452 217.018 148.952C216.398 150.452 214.678 151.16 213.179 150.54C211.678 149.92 210.97 148.2 211.59 146.7C212.21 145.2 213.93 144.492 215.43 145.112ZM221.266 131.033C222.444 131.521 223.004 132.873 222.516 134.053C222.028 135.234 220.676 135.79 219.496 135.303C218.318 134.815 217.758 133.463 218.246 132.283C218.734 131.102 220.086 130.545 221.266 131.033ZM227.103 116.957C227.961 117.313 228.369 118.299 228.013 119.157C227.658 120.016 226.671 120.423 225.813 120.068C224.955 119.713 224.547 118.726 224.902 117.868C225.258 117.009 226.244 116.601 227.103 116.957ZM232.939 102.881C233.478 103.105 233.734 103.723 233.51 104.265C233.287 104.806 232.669 105.06 232.127 104.836C231.586 104.612 231.332 103.994 231.556 103.452C231.78 102.911 232.397 102.658 232.939 102.881ZM203.801 173.158C204.951 173.635 205.497 174.953 205.019 176.103C204.542 177.254 203.225 177.799 202.074 177.322C200.923 176.845 200.378 175.527 200.855 174.377C201.333 173.226 202.65 172.68 203.801 173.158ZM198.012 187.117C198.496 187.318 198.729 187.875 198.526 188.363C198.323 188.85 197.768 189.08 197.281 188.877C196.794 188.674 196.564 188.119 196.767 187.632C196.969 187.145 197.525 186.915 198.012 187.117ZM205.067 148.668C206.886 149.422 207.747 151.508 206.995 153.324C206.243 155.141 204.155 156.004 202.338 155.252C200.521 154.501 199.658 152.412 200.41 150.595C201.162 148.778 203.25 147.916 205.067 148.668ZM210.879 134.654C212.344 135.26 213.039 136.94 212.43 138.405C211.82 139.869 210.144 140.564 208.679 139.955C207.214 139.349 206.52 137.669 207.129 136.204C207.738 134.74 209.415 134.045 210.879 134.654ZM216.689 120.64C217.799 121.101 218.325 122.372 217.865 123.482C217.405 124.592 216.133 125.118 215.023 124.658C213.913 124.198 213.387 122.926 213.847 121.816C214.307 120.706 215.579 120.18 216.689 120.64ZM222.499 106.627C223.254 106.938 223.612 107.807 223.3 108.56C222.989 109.312 222.12 109.673 221.367 109.361C220.615 109.05 220.254 108.181 220.565 107.428C220.877 106.676 221.746 106.315 222.499 106.627ZM228.311 92.6131C228.711 92.7791 228.901 93.2389 228.735 93.6396C228.569 94.0408 228.109 94.2302 227.709 94.0643C227.308 93.8983 227.118 93.438 227.284 93.0373C227.45 92.6366 227.91 92.4472 228.311 92.6131ZM199.213 162.784C200.524 163.329 201.148 164.833 200.603 166.143C200.058 167.454 198.554 168.078 197.243 167.533C195.933 166.988 195.309 165.484 195.854 164.174C196.399 162.863 197.903 162.239 199.213 162.784ZM193.363 176.893C194.173 177.228 194.557 178.157 194.222 178.966C193.887 179.776 192.957 180.16 192.148 179.825C191.338 179.49 190.954 178.56 191.29 177.751C191.625 176.941 192.554 176.557 193.363 176.893Z" fill="url(#paint11_linear_277_1515)" fill-opacity="0.3"/>
<path d="M190.313 155.888C189.784 157.786 190.893 159.75 192.79 160.278C194.688 160.808 196.652 159.699 197.18 157.801C197.709 155.904 196.6 153.94 194.703 153.411C192.806 152.882 190.842 153.991 190.313 155.888ZM198.788 138.73C200.351 139.166 201.265 140.786 200.83 142.347C200.396 143.908 198.775 144.824 197.214 144.389C195.653 143.955 194.736 142.334 195.171 140.773C195.606 139.212 197.227 138.296 198.788 138.73ZM202.874 124.05C204.105 124.393 204.823 125.665 204.48 126.895C204.136 128.125 202.865 128.844 201.634 128.5C200.405 128.157 199.686 126.885 200.029 125.655C200.373 124.425 201.644 123.706 202.874 124.05ZM206.961 109.369C207.858 109.619 208.382 110.547 208.132 111.443C207.883 112.34 206.954 112.864 206.058 112.614C205.161 112.365 204.638 111.437 204.887 110.54C205.137 109.643 206.065 109.12 206.961 109.369ZM211.048 94.6885C211.612 94.844 211.94 95.4288 211.785 95.992C211.629 96.5552 211.044 96.8837 210.481 96.7279C209.918 96.5725 209.59 95.9879 209.745 95.4248C209.901 94.8613 210.485 94.5331 211.048 94.6885ZM190.647 167.98C191.847 168.313 192.548 169.555 192.212 170.755C191.877 171.955 190.637 172.657 189.437 172.321C188.237 171.988 187.535 170.746 187.871 169.545C188.207 168.346 189.446 167.644 190.647 167.98ZM186.593 182.54C187.099 182.68 187.396 183.207 187.255 183.712C187.115 184.218 186.589 184.515 186.083 184.375C185.577 184.234 185.281 183.708 185.421 183.202C185.561 182.696 186.088 182.4 186.593 182.54ZM188.934 143.517C190.832 144.046 191.941 146.01 191.412 147.908C190.883 149.805 188.919 150.914 187.022 150.385C185.125 149.856 184.015 147.892 184.545 145.995C185.073 144.097 187.037 142.988 188.934 143.517ZM193.003 128.902C194.528 129.326 195.423 130.909 194.998 132.437C194.575 133.965 192.992 134.857 191.464 134.433C189.936 134.009 189.044 132.427 189.468 130.898C189.892 129.37 191.475 128.478 193.003 128.902ZM197.071 114.287C198.228 114.609 198.904 115.808 198.583 116.967C198.261 118.126 197.062 118.8 195.903 118.478C194.747 118.157 194.07 116.958 194.392 115.799C194.713 114.639 195.912 113.965 197.071 114.287ZM201.139 99.6724C201.927 99.8915 202.389 100.706 202.169 101.496C201.95 102.287 201.135 102.746 200.345 102.526C199.555 102.307 199.096 101.492 199.315 100.702C199.535 99.9122 200.349 99.453 201.139 99.6724ZM205.208 85.0571C205.626 85.1742 205.871 85.6075 205.754 86.0258C205.636 86.4441 205.203 86.6889 204.785 86.5718C204.367 86.4546 204.122 86.0214 204.239 85.603C204.356 85.1848 204.79 84.9401 205.208 85.0571ZM184.836 158.239C186.203 158.62 187.003 160.037 186.625 161.404C186.246 162.772 184.826 163.572 183.459 163.193C182.092 162.814 181.292 161.395 181.671 160.028C182.049 158.66 183.469 157.86 184.836 158.239ZM180.741 172.953C181.586 173.187 182.08 174.063 181.845 174.908C181.611 175.752 180.735 176.247 179.89 176.012C179.045 175.777 178.551 174.901 178.786 174.057C179.021 173.212 179.896 172.718 180.741 172.953Z" fill="url(#paint12_linear_277_1515)" fill-opacity="0.3"/>
<path d="M174.067 151.567C173.659 153.493 174.89 155.384 176.816 155.79C178.742 156.195 180.633 154.967 181.039 153.041C181.445 151.115 180.216 149.223 178.29 148.818C176.364 148.412 174.473 149.641 174.067 151.567ZM181.443 133.907C183.03 134.244 184.044 135.802 183.71 137.389C183.377 138.977 181.816 139.991 180.228 139.657C178.641 139.321 177.627 137.762 177.961 136.175C178.294 134.587 179.855 133.574 181.443 133.907ZM184.595 119C185.845 119.264 186.642 120.491 186.379 121.738C186.115 122.985 184.888 123.785 183.64 123.521C182.39 123.257 181.593 122.03 181.857 120.783C182.121 119.536 183.348 118.736 184.595 119ZM187.748 104.089C188.657 104.281 189.239 105.174 189.047 106.086C188.855 106.998 187.962 107.577 187.05 107.385C186.138 107.193 185.559 106.3 185.751 105.388C185.943 104.476 186.836 103.897 187.748 104.089ZM190.897 89.1809C191.469 89.3006 191.835 89.863 191.713 90.4344C191.59 91.0053 191.031 91.3716 190.459 91.2492C189.888 91.1267 189.522 90.5671 189.644 89.9958C189.767 89.4245 190.327 89.0582 190.897 89.1809ZM175.163 163.613C176.38 163.869 177.16 165.067 176.901 166.284C176.642 167.501 175.447 168.281 174.23 168.022C173.013 167.766 172.233 166.568 172.492 165.351C172.751 164.134 173.946 163.354 175.163 163.613ZM172.036 178.4C172.549 178.51 172.878 179.014 172.771 179.528C172.663 180.042 172.157 180.37 171.643 180.263C171.13 180.156 170.801 179.649 170.908 179.135C171.015 178.621 171.522 178.293 172.036 178.4ZM171.91 139.309C173.836 139.717 175.068 141.606 174.659 143.532C174.251 145.458 172.362 146.689 170.436 146.281C168.511 145.873 167.279 143.984 167.687 142.058C168.096 140.132 169.985 138.901 171.91 139.309ZM175.047 124.467C176.596 124.795 177.59 126.318 177.262 127.867C176.934 129.417 175.411 130.41 173.861 130.082C172.312 129.754 171.319 128.231 171.647 126.682C171.975 125.133 173.498 124.139 175.047 124.467ZM178.186 109.622C179.362 109.87 180.112 111.024 179.864 112.199C179.617 113.375 178.463 114.125 177.288 113.877C176.112 113.63 175.362 112.476 175.609 111.301C175.857 110.125 177.011 109.375 178.186 109.622ZM181.323 94.7802C182.122 94.95 182.634 95.7351 182.464 96.5343C182.294 97.3338 181.509 97.8454 180.71 97.6754C179.911 97.5056 179.399 96.7205 179.569 95.9215C179.739 95.1223 180.523 94.6103 181.323 94.7802ZM184.462 79.9383C184.888 80.0279 185.159 80.4439 185.069 80.8699C184.98 81.2956 184.564 81.5664 184.138 81.4769C183.712 81.387 183.441 80.9714 183.531 80.5453C183.62 80.1196 184.036 79.8488 184.462 79.9383ZM168.749 154.261C170.139 154.555 171.027 155.919 170.733 157.307C170.44 158.694 169.075 159.584 167.688 159.291C166.298 158.997 165.41 157.632 165.703 156.245C165.997 154.858 167.362 153.967 168.749 154.261ZM165.589 169.202C166.446 169.384 166.995 170.225 166.813 171.082C166.63 171.939 165.79 172.488 164.933 172.306C164.076 172.123 163.526 171.282 163.709 170.426C163.891 169.569 164.732 169.019 165.589 169.202Z" fill="url(#paint13_linear_277_1515)" fill-opacity="0.3"/>
<path d="M158.726 149.406C158.561 151.367 160.017 153.093 161.976 153.259C163.937 153.424 165.663 151.968 165.829 150.009C165.994 148.049 164.539 146.322 162.579 146.156C160.619 145.991 158.892 147.446 158.726 149.406ZM163.863 130.973C165.479 131.11 166.678 132.531 166.54 134.147C166.403 135.763 164.982 136.962 163.366 136.825C161.75 136.687 160.551 135.266 160.688 133.65C160.826 132.034 162.247 130.835 163.863 130.973ZM165.15 115.789C166.422 115.896 167.364 117.016 167.258 118.286C167.151 119.556 166.031 120.5 164.761 120.394C163.491 120.287 162.546 119.167 162.653 117.897C162.759 116.627 163.88 115.682 165.15 115.789ZM166.437 100.603C167.363 100.682 168.051 101.496 167.972 102.422C167.893 103.348 167.079 104.036 166.153 103.957C165.227 103.879 164.539 103.064 164.618 102.138C164.697 101.212 165.511 100.524 166.437 100.603ZM167.724 85.4193C168.306 85.4674 168.737 85.9812 168.689 86.5637C168.641 87.1459 168.127 87.577 167.545 87.5288C166.962 87.4809 166.531 86.9667 166.579 86.3846C166.628 85.8022 167.142 85.371 167.724 85.4193ZM161.3 161.226C162.539 161.33 163.461 162.421 163.356 163.661C163.252 164.9 162.161 165.822 160.922 165.717C159.683 165.613 158.761 164.522 158.866 163.283C158.97 162.043 160.061 161.121 161.3 161.226ZM160.025 176.285C160.549 176.329 160.936 176.789 160.893 177.313C160.849 177.837 160.388 178.225 159.864 178.181C159.34 178.137 158.953 177.677 158.997 177.152C159.04 176.629 159.501 176.241 160.025 176.285ZM155.071 137.508C157.031 137.673 158.486 139.397 158.321 141.36C158.155 143.323 156.431 144.776 154.468 144.61C152.509 144.445 151.053 142.721 151.218 140.758C151.384 138.795 153.108 137.342 155.071 137.508ZM156.353 122.394C157.933 122.529 159.103 123.916 158.969 125.494C158.834 127.071 157.446 128.245 155.868 128.11C154.291 127.975 153.118 126.587 153.252 125.01C153.387 123.432 154.775 122.259 156.353 122.394ZM157.632 107.277C158.829 107.378 159.718 108.43 159.616 109.628C159.515 110.826 158.463 111.714 157.265 111.612C156.067 111.511 155.179 110.459 155.28 109.261C155.382 108.063 156.434 107.175 157.632 107.277ZM158.914 92.1596C159.729 92.2276 160.332 92.9437 160.264 93.759C160.196 94.5742 159.48 95.1774 158.665 95.1093C157.85 95.0416 157.247 94.3252 157.315 93.5099C157.383 92.6952 158.099 92.0919 158.914 92.1596ZM160.193 77.0425C160.626 77.0795 160.947 77.4602 160.91 77.8927C160.872 78.325 160.492 78.6458 160.06 78.6088C159.627 78.5717 159.306 78.191 159.343 77.7586C159.38 77.3262 159.761 77.0054 160.193 77.0425ZM153.78 152.735C155.194 152.855 156.244 154.098 156.124 155.515C156.004 156.931 154.762 157.979 153.345 157.859C151.928 157.738 150.881 156.496 151.001 155.08C151.121 153.663 152.364 152.616 153.78 152.735ZM152.491 167.955C153.364 168.03 154.011 168.797 153.939 169.67C153.867 170.544 153.097 171.19 152.224 171.118C151.35 171.046 150.704 170.277 150.776 169.403C150.848 168.53 151.617 167.883 152.491 167.955Z" fill="url(#paint14_linear_277_1515)" fill-opacity="0.3"/>
<path d="M143.232 148.962C143.308 150.928 144.965 152.461 146.931 152.384C148.898 152.307 150.43 150.65 150.353 148.684C150.277 146.717 148.62 145.185 146.654 145.262C144.687 145.339 143.155 146.995 143.232 148.962ZM146.055 130.033C147.675 129.97 149.042 131.233 149.105 132.852C149.168 134.472 147.905 135.839 146.285 135.902C144.665 135.965 143.299 134.702 143.236 133.082C143.173 131.462 144.436 130.096 146.055 130.033ZM145.46 114.806C146.735 114.757 147.809 115.751 147.858 117.026C147.908 118.302 146.914 119.376 145.639 119.425C144.363 119.474 143.289 118.481 143.24 117.205C143.191 115.929 144.184 114.856 145.46 114.806ZM144.862 99.5801C145.79 99.545 146.574 100.269 146.61 101.198C146.645 102.126 145.921 102.91 144.992 102.946C144.064 102.981 143.28 102.257 143.244 101.328C143.209 100.4 143.933 99.6156 144.862 99.5801ZM144.266 84.3513C144.851 84.3299 145.342 84.7841 145.364 85.3659C145.385 85.948 144.931 86.4416 144.349 86.4635C143.767 86.4853 143.273 86.0306 143.251 85.4489C143.23 84.8673 143.684 84.3731 144.266 84.3513ZM147.243 160.373C148.488 160.325 149.536 161.294 149.585 162.536C149.634 163.778 148.664 164.828 147.422 164.877C146.178 164.925 145.13 163.956 145.081 162.714C145.032 161.473 146.001 160.422 147.243 160.373ZM147.837 175.473C148.363 175.453 148.804 175.862 148.825 176.388C148.845 176.914 148.436 177.355 147.91 177.375C147.385 177.396 146.943 176.987 146.923 176.461C146.902 175.935 147.311 175.493 147.837 175.473ZM138.136 137.605C140.102 137.528 141.759 139.061 141.836 141.027C141.913 142.994 140.38 144.65 138.414 144.727C136.447 144.804 134.791 143.272 134.714 141.305C134.637 139.339 136.169 137.682 138.136 137.605ZM137.541 122.446C139.124 122.383 140.46 123.619 140.52 125.202C140.58 126.785 139.347 128.12 137.764 128.181C136.181 128.241 134.846 127.008 134.785 125.425C134.725 123.841 135.958 122.506 137.541 122.446ZM136.949 107.287C138.149 107.241 139.16 108.174 139.207 109.374C139.253 110.574 138.32 111.585 137.12 111.632C135.92 111.678 134.909 110.745 134.862 109.545C134.816 108.345 135.749 107.333 136.949 107.287ZM136.354 92.1281C137.171 92.0954 137.858 92.7315 137.891 93.5486C137.923 94.3653 137.287 95.0526 136.47 95.0849C135.653 95.1174 134.966 94.4813 134.933 93.6646C134.901 92.8475 135.537 92.1606 136.354 92.1281ZM135.762 76.9689C136.195 76.9535 136.561 77.2897 136.577 77.7231C136.593 78.1568 136.257 78.5227 135.823 78.5386C135.389 78.5541 135.024 78.2179 135.008 77.7846C134.992 77.3508 135.328 76.9849 135.762 76.9689ZM138.734 152.876C140.152 152.82 141.349 153.926 141.404 155.344C141.46 156.763 140.354 157.959 138.936 158.015C137.517 158.07 136.321 156.965 136.265 155.546C136.21 154.128 137.315 152.932 138.734 152.876ZM139.332 168.136C140.208 168.102 140.945 168.784 140.979 169.659C141.012 170.534 140.331 171.271 139.455 171.305C138.58 171.339 137.843 170.657 137.809 169.782C137.775 168.906 138.457 168.17 139.332 168.136Z" fill="url(#paint15_linear_277_1515)" fill-opacity="0.3"/>
<path d="M126.461 150.466C126.662 152.425 128.413 153.85 130.372 153.647C132.331 153.444 133.755 151.696 133.552 149.737C133.35 147.778 131.602 146.353 129.642 146.556C127.683 146.759 126.259 148.507 126.461 150.466ZM128.091 131.397C129.704 131.23 131.147 132.406 131.314 134.02C131.48 135.633 130.304 137.076 128.69 137.242C127.077 137.409 125.634 136.233 125.468 134.619C125.301 133.006 126.478 131.563 128.091 131.397ZM126.536 116.237C127.807 116.107 128.941 117.032 129.072 118.3C129.203 119.567 128.277 120.705 127.01 120.835C125.742 120.966 124.605 120.04 124.474 118.773C124.343 117.505 125.269 116.368 126.536 116.237ZM124.982 101.078C125.906 100.984 126.733 101.655 126.83 102.582C126.927 103.51 126.253 104.334 125.326 104.431C124.398 104.527 123.574 103.854 123.477 102.926C123.381 101.999 124.054 101.175 124.982 101.078ZM123.428 85.9183C124.009 85.8576 124.528 86.2805 124.589 86.8624C124.65 87.4443 124.227 87.9628 123.645 88.0238C123.063 88.0844 122.545 87.6616 122.484 87.0796C122.423 86.4978 122.846 85.9793 123.428 85.9183ZM131.186 161.6C132.425 161.473 133.531 162.374 133.658 163.613C133.785 164.853 132.884 165.958 131.645 166.085C130.406 166.212 129.3 165.312 129.172 164.072C129.045 162.833 129.946 161.727 131.186 161.6ZM132.727 176.636C133.25 176.582 133.718 176.962 133.772 177.485C133.826 178.008 133.446 178.476 132.923 178.53C132.401 178.584 131.932 178.204 131.878 177.681C131.824 177.158 132.204 176.69 132.727 176.636ZM120.663 139.454C122.622 139.254 124.37 140.679 124.573 142.635C124.776 144.591 123.349 146.342 121.392 146.545C119.433 146.745 117.685 145.32 117.482 143.364C117.279 141.408 118.707 139.657 120.663 139.454ZM119.115 124.362C120.692 124.201 122.1 125.347 122.261 126.924C122.422 128.5 121.276 129.909 119.699 130.07C118.123 130.231 116.714 129.085 116.553 127.508C116.392 125.932 117.538 124.523 119.115 124.362ZM117.569 109.27C118.764 109.148 119.833 110.019 119.955 111.213C120.077 112.407 119.207 113.476 118.012 113.598C116.818 113.72 115.749 112.85 115.627 111.656C115.505 110.461 116.375 109.392 117.569 109.27ZM116.022 94.1782C116.834 94.0954 117.56 94.6866 117.646 95.4992C117.732 96.3114 117.138 97.0381 116.325 97.1237C115.513 97.2095 114.786 96.6153 114.7 95.8027C114.615 94.9905 115.209 94.2638 116.022 94.1782ZM114.473 79.0863C114.906 79.0425 115.29 79.3553 115.334 79.7879C115.378 80.2207 115.065 80.6052 114.633 80.6487C114.2 80.6926 113.815 80.3798 113.771 79.9474C113.728 79.5146 114.04 79.1301 114.473 79.0863ZM122.22 154.655C123.634 154.511 124.894 155.54 125.04 156.951C125.185 158.362 124.158 159.625 122.745 159.77C121.331 159.915 120.07 158.889 119.925 157.475C119.78 156.062 120.809 154.801 122.22 154.655ZM123.777 169.848C124.649 169.759 125.428 170.393 125.518 171.264C125.608 172.136 124.973 172.915 124.102 173.005C123.231 173.095 122.452 172.46 122.362 171.589C122.272 170.718 122.906 169.938 123.777 169.848Z" fill="url(#paint16_linear_277_1515)" fill-opacity="0.3"/>
<path d="M111.338 153.786C111.781 155.704 113.696 156.898 115.612 156.455C117.527 156.012 118.724 154.097 118.281 152.182C117.838 150.266 115.922 149.069 114.007 149.512C112.092 149.956 110.895 151.871 111.338 153.786ZM110.578 134.663C112.158 134.298 113.735 135.284 114.102 136.864C114.469 138.444 113.481 140.021 111.9 140.388C110.32 140.752 108.744 139.767 108.376 138.186C108.009 136.606 108.998 135.03 110.578 134.663ZM107.146 119.815C108.388 119.526 109.629 120.303 109.918 121.546C110.206 122.789 109.429 124.029 108.187 124.318C106.944 124.606 105.703 123.83 105.415 122.587C105.126 121.344 105.903 120.104 107.146 119.815ZM103.714 104.968C104.619 104.757 105.523 105.323 105.733 106.228C105.943 107.133 105.378 108.038 104.473 108.248C103.568 108.458 102.663 107.892 102.453 106.987C102.243 106.082 102.809 105.178 103.714 104.968ZM100.282 90.1203C100.852 89.989 101.42 90.3428 101.551 90.913C101.683 91.4832 101.329 92.0517 100.759 92.183C100.188 92.3144 99.6201 91.9602 99.4888 91.39C99.3575 90.8198 99.7113 90.2517 100.282 90.1203ZM117.414 164.244C118.626 163.964 119.837 164.719 120.117 165.931C120.397 167.142 119.642 168.353 118.43 168.633C117.218 168.913 116.007 168.158 115.727 166.946C115.448 165.735 116.203 164.524 117.414 164.244ZM120.819 178.972C121.332 178.853 121.842 179.172 121.96 179.686C122.079 180.199 121.76 180.709 121.247 180.827C120.733 180.946 120.223 180.627 120.105 180.114C119.986 179.6 120.305 179.09 120.819 178.972ZM104.211 143.581C106.129 143.138 108.042 144.332 108.485 146.25C108.928 148.168 107.734 150.081 105.816 150.524C103.898 150.967 101.985 149.773 101.542 147.855C101.1 145.937 102.293 144.024 104.211 143.581ZM100.797 128.799C102.34 128.443 103.882 129.404 104.238 130.947C104.594 132.491 103.634 134.033 102.09 134.389C100.547 134.745 99.0046 133.784 98.6485 132.241C98.2929 130.697 99.2532 129.155 100.797 128.799ZM97.3792 114.02C98.5483 113.748 99.7168 114.478 99.9883 115.65C100.26 116.821 99.5303 117.987 98.3585 118.259C97.1866 118.53 96.0209 117.801 95.7495 116.629C95.478 115.457 96.2074 114.291 97.3792 114.02ZM93.9619 99.2377C94.7591 99.0533 95.5542 99.5491 95.7359 100.346C95.9176 101.143 95.4244 101.938 94.6273 102.12C93.8303 102.302 93.0349 101.809 92.8505 101.011C92.6661 100.214 93.162 99.4192 93.9592 99.2373L93.9619 99.2377ZM90.5471 84.4584C90.9698 84.3612 91.3914 84.6233 91.4888 85.0462C91.5863 85.4687 91.324 85.8903 90.9013 85.9879C90.4785 86.0854 90.057 85.8229 89.9595 85.4004C89.8621 84.9776 90.1244 84.5559 90.5471 84.4584ZM107.654 158.471C109.039 158.151 110.418 159.013 110.738 160.398C111.058 161.782 110.196 163.162 108.812 163.482C107.427 163.802 106.048 162.94 105.728 161.555C105.408 160.17 106.27 158.791 107.654 158.471ZM111.092 173.35C111.947 173.153 112.797 173.683 112.995 174.538C113.192 175.392 112.661 176.242 111.807 176.44C110.953 176.637 110.102 176.106 109.905 175.252C109.708 174.398 110.238 173.547 111.092 173.35Z" fill="url(#paint17_linear_277_1515)" fill-opacity="0.3"/>
<path d="M96.4797 158.525C97.1476 160.376 99.1892 161.337 101.04 160.669C102.891 160 103.852 157.959 103.183 156.108C102.515 154.258 100.474 153.297 98.6229 153.965C96.7718 154.633 95.8113 156.675 96.4797 158.525ZM93.4545 139.63C94.9814 139.08 96.6643 139.87 97.214 141.396C97.7637 142.923 96.974 144.606 95.4473 145.156C93.9201 145.706 92.2374 144.916 91.6878 143.389C91.1382 141.862 91.9277 140.179 93.4545 139.63ZM88.2863 125.294C89.4867 124.86 90.8108 125.484 91.2448 126.684C91.6787 127.885 91.0548 129.209 89.8544 129.643C88.654 130.077 87.33 129.453 86.8961 128.253C86.462 127.052 87.0859 125.728 88.2863 125.294ZM83.1183 110.956C83.9921 110.641 84.9576 111.093 85.2731 111.97C85.5884 112.846 85.1359 113.809 84.2593 114.125C83.3828 114.44 82.42 113.987 82.1046 113.111C81.7893 112.234 82.2417 111.271 83.1183 110.956ZM77.9501 96.6206C78.5 96.424 79.107 96.7054 79.3038 97.2581C79.5005 97.8108 79.2193 98.4152 78.6666 98.6119C78.1139 98.8086 77.5097 98.5271 77.3129 97.9744C77.1162 97.4217 77.3974 96.8173 77.9501 96.6206ZM103.754 168.192C104.926 167.77 106.218 168.377 106.64 169.549C107.062 170.721 106.454 172.012 105.283 172.434C104.111 172.856 102.819 172.249 102.397 171.077C101.975 169.905 102.582 168.614 103.754 168.192ZM108.878 182.41C109.374 182.231 109.919 182.485 110.097 182.981C110.276 183.477 110.021 184.021 109.526 184.2C109.03 184.379 108.485 184.124 108.307 183.629C108.128 183.133 108.383 182.588 108.878 182.41ZM88.1923 149.24C90.0431 148.572 92.0872 149.533 92.7525 151.383C93.418 153.233 92.4599 155.278 90.6095 155.944C88.759 156.609 86.7145 155.651 86.0491 153.8C85.3837 151.95 86.3418 149.905 88.1923 149.24ZM83.0474 134.967C84.5372 134.429 86.1823 135.202 86.7204 136.695C87.2586 138.187 86.486 139.829 84.9935 140.368C83.5009 140.906 81.8585 140.133 81.3204 138.641C80.7822 137.148 81.5549 135.506 83.0474 134.967ZM77.9024 120.695C79.0313 120.287 80.2772 120.874 80.6856 122.003C81.0942 123.132 80.5067 124.378 79.3778 124.786C78.249 125.195 77.0031 124.607 76.5947 123.478C76.1861 122.35 76.7736 121.104 77.9024 120.695ZM72.7575 106.423C73.5254 106.144 74.3749 106.544 74.6505 107.314C74.9263 108.085 74.5297 108.932 73.7593 109.207C72.9888 109.483 72.1418 109.087 71.8662 108.316C71.5904 107.546 71.987 106.699 72.7575 106.423ZM67.6124 92.1534C68.0191 92.0076 68.4697 92.2162 68.6183 92.6258C68.7669 93.0355 68.5557 93.4831 68.146 93.6318C67.7363 93.7802 67.2887 93.5691 67.14 93.1594C66.9914 92.7498 67.2026 92.3021 67.6124 92.1534ZM93.3771 163.616C94.7121 163.133 96.1875 163.826 96.6674 165.161C97.1475 166.496 96.4566 167.971 95.1216 168.451C93.787 168.931 92.3116 168.241 91.8315 166.906C91.3517 165.571 92.0422 164.095 93.3771 163.616ZM98.5571 177.982C99.3822 177.686 100.291 178.112 100.588 178.937C100.885 179.762 100.458 180.671 99.6335 180.967C98.8084 181.265 97.8994 180.838 97.6027 180.013C97.3061 179.188 97.7319 178.279 98.5571 177.982Z" fill="url(#paint18_linear_277_1515)" fill-opacity="0.3"/>
<path d="M81.8281 164.457C82.6921 166.224 84.8282 166.958 86.5957 166.091C88.3634 165.224 89.0963 163.091 88.2297 161.323C87.3629 159.556 85.2296 158.823 83.462 159.689C81.6946 160.553 80.9612 162.69 81.8281 164.457ZM76.7653 146.001C78.2233 145.288 79.9812 145.89 80.6949 147.348C81.4086 148.806 80.806 150.564 79.3481 151.277C77.8902 151.991 76.1322 151.388 75.4185 149.931C74.7048 148.473 75.3074 146.715 76.7653 146.001ZM70.0657 132.315C71.2113 131.755 72.5964 132.23 73.1571 133.375C73.7179 134.52 73.2429 135.906 72.0974 136.467C70.9519 137.027 69.5667 136.553 69.006 135.407C68.4454 134.261 68.9202 132.876 70.0657 132.315ZM63.3691 118.627C64.205 118.22 65.2147 118.564 65.6223 119.4C66.0299 120.236 65.6856 121.245 64.8497 121.653C64.0138 122.061 63.0041 121.716 62.5965 120.88C62.189 120.044 62.5332 119.035 63.3691 118.627ZM56.6697 104.939C57.1933 104.681 57.8273 104.901 58.0847 105.424C58.3422 105.948 58.123 106.582 57.5993 106.839C57.0757 107.097 56.4417 106.877 56.1843 106.354C55.9268 105.83 56.146 105.196 56.6697 104.939ZM90.1105 173.274C91.2271 172.728 92.5798 173.189 93.1254 174.308C93.6713 175.428 93.2101 176.777 92.0911 177.323C90.9715 177.869 89.6218 177.408 89.0757 176.289C88.5297 175.169 88.9909 173.819 90.1105 173.274ZM96.7539 186.849C97.2255 186.619 97.7969 186.814 98.0276 187.285C98.258 187.757 98.0631 188.328 97.5914 188.559C97.1198 188.789 96.5484 188.594 96.3176 188.123C96.0873 187.651 96.2826 187.08 96.7539 186.849ZM72.5784 156.128C74.3458 155.264 76.4821 155.994 77.3461 157.762C78.2101 159.529 77.4795 161.666 75.7122 162.529C73.9448 163.393 71.8085 162.663 70.9445 160.895C70.0805 159.128 70.811 156.992 72.5784 156.128ZM65.9108 142.5C67.3341 141.804 69.054 142.392 69.7506 143.815C70.4472 145.239 69.8587 146.959 68.4355 147.655C67.0122 148.352 65.2923 147.763 64.5957 146.34C63.899 144.917 64.4876 143.197 65.9108 142.5ZM59.243 128.876C60.3219 128.349 61.6254 128.795 62.1521 129.872C62.6789 130.948 62.2321 132.254 61.156 132.781C60.0798 133.308 58.7736 132.861 58.2469 131.784C57.7201 130.709 58.1669 129.402 59.243 128.876ZM52.5755 115.248C53.3102 114.889 54.1972 115.193 54.5564 115.928C54.9156 116.663 54.611 117.55 53.8763 117.909C53.1415 118.268 52.2544 117.964 51.8953 117.229C51.536 116.494 51.8406 115.607 52.5755 115.248ZM45.9079 101.62C46.2983 101.429 46.7691 101.591 46.9582 101.982C47.1473 102.372 46.9873 102.843 46.597 103.032C46.2066 103.221 45.7357 103.061 45.5467 102.671C45.3576 102.28 45.5175 101.809 45.9079 101.62ZM79.2974 169.854C80.5731 169.23 82.1132 169.758 82.737 171.034C83.3608 172.309 82.8327 173.85 81.5571 174.473C80.2814 175.097 78.7412 174.569 78.1174 173.294C77.4937 172.018 78.0217 170.478 79.2974 169.854ZM86.0085 183.574C86.7952 183.188 87.7449 183.514 88.1309 184.301C88.517 185.087 88.1913 186.037 87.4043 186.423C86.6176 186.809 85.6679 186.483 85.2818 185.697C84.8958 184.91 85.2215 183.96 86.0085 183.574Z" fill="url(#paint19_linear_277_1515)" fill-opacity="0.3"/>
<path d="M66.4056 171.939C67.3565 173.663 69.5227 174.289 71.2463 173.338C72.9698 172.387 73.5965 170.221 72.6456 168.498C71.6948 166.774 69.5285 166.148 67.805 167.099C66.0815 168.049 65.4548 170.216 66.4056 171.939ZM60.4504 153.75C61.8716 152.967 63.658 153.485 64.4414 154.903C65.225 156.322 64.7066 158.111 63.2882 158.894C61.8699 159.678 60.0806 159.159 59.297 157.741C58.5139 156.32 59.0319 154.534 60.4504 153.75ZM53.0927 140.404C54.2117 139.788 55.6157 140.195 56.2315 141.311C56.8474 142.427 56.4407 143.834 55.3246 144.45C54.2085 145.066 52.8017 144.659 52.1858 143.543C51.5699 142.427 51.9767 141.02 53.0927 140.404ZM45.7379 127.058C46.5517 126.61 47.5761 126.905 48.0272 127.719C48.4782 128.533 48.1803 129.557 47.3664 130.008C46.5524 130.459 45.5282 130.161 45.0771 129.347C44.6262 128.533 44.924 127.509 45.7379 127.058ZM38.3804 113.712C38.8918 113.431 39.5367 113.615 39.8174 114.127C40.098 114.638 39.9142 115.283 39.4028 115.564C38.8914 115.844 38.2465 115.661 37.9659 115.149C37.6852 114.638 37.869 113.993 38.3804 113.712ZM75.106 180.34C76.196 179.739 77.5674 180.134 78.1684 181.224C78.7694 182.314 78.3736 183.686 77.2838 184.287C76.1938 184.888 74.8225 184.492 74.2215 183.402C73.6204 182.312 74.0162 180.941 75.106 180.34ZM82.4019 193.578C82.861 193.324 83.4401 193.492 83.6941 193.951C83.9478 194.41 83.78 194.99 83.3205 195.246C82.8611 195.503 82.282 195.332 82.0254 194.873C81.7688 194.413 81.9396 193.834 82.399 193.578L82.4019 193.578ZM56.7626 164.069C58.4861 163.118 60.6552 163.745 61.6032 165.469C62.5514 167.192 61.9272 169.361 60.2039 170.309C58.4806 171.257 56.3113 170.633 55.3632 168.91C54.4124 167.186 55.0393 165.017 56.7626 164.069ZM49.4398 150.782C50.829 150.016 52.5717 150.522 53.338 151.909C54.1043 153.295 53.5975 155.04 52.211 155.807C50.8246 156.573 49.0792 156.066 48.3128 154.68C47.5466 153.293 48.0534 151.548 49.4398 150.782ZM42.114 137.496C43.1661 136.918 44.4882 137.299 45.067 138.351C45.6457 139.403 45.2646 140.725 44.2126 141.304C43.1606 141.883 41.8384 141.501 41.2597 140.449C40.681 139.397 41.0621 138.075 42.114 137.496ZM34.7912 124.209C35.5062 123.815 36.4076 124.076 36.8017 124.791C37.1958 125.506 36.9348 126.407 36.2199 126.801C35.5049 127.195 34.6034 126.934 34.2094 126.219C33.8152 125.504 34.0763 124.603 34.7912 124.209ZM27.4683 110.924C27.8489 110.715 28.327 110.853 28.5363 111.233C28.7456 111.614 28.6075 112.092 28.2267 112.302C27.8461 112.511 27.3681 112.373 27.1587 111.992C26.9495 111.611 27.0875 111.133 27.4683 110.924ZM64.1371 177.452C65.3808 176.768 66.9434 177.22 67.6309 178.463C68.3183 179.708 67.8639 181.27 66.6198 181.957C65.3759 182.645 63.8134 182.191 63.126 180.946C62.4387 179.702 62.893 178.14 64.1371 177.452ZM71.512 190.828C72.2793 190.404 73.2436 190.684 73.6674 191.451C74.091 192.218 73.8115 193.182 73.0442 193.606C72.2768 194.03 71.3126 193.75 70.8888 192.983C70.465 192.216 70.7447 191.252 71.512 190.828Z" fill="url(#paint20_linear_277_1515)" fill-opacity="0.3"/>
<path d="M51.6911 180.748C52.7236 182.424 54.9199 182.945 56.5963 181.912C58.2728 180.88 58.793 178.683 57.7606 177.007C56.7281 175.331 54.5319 174.81 52.8554 175.843C51.1789 176.875 50.6588 179.071 51.6911 180.748ZM44.8567 162.871C46.2383 162.021 48.048 162.449 48.8983 163.83C49.7487 165.211 49.3209 167.021 47.9394 167.872C46.558 168.722 44.7482 168.294 43.8979 166.913C43.0476 165.531 43.4753 163.721 44.8567 162.871ZM36.8609 149.9C37.9477 149.229 39.3706 149.567 40.0416 150.653C40.7126 151.74 40.3744 153.163 39.2878 153.834C38.2012 154.505 36.7782 154.167 36.1071 153.081C35.4361 151.994 35.7744 150.571 36.8609 149.9ZM28.8626 136.925C29.6542 136.436 30.6934 136.682 31.1796 137.474C31.6657 138.265 31.4225 139.305 30.631 139.791C29.8396 140.277 28.8002 140.034 28.3141 139.242C27.828 138.451 28.0711 137.412 28.8626 136.925ZM20.8667 123.954C21.3633 123.647 22.016 123.801 22.3227 124.3C22.6293 124.8 22.4758 125.449 21.9765 125.756C21.4771 126.063 20.8272 125.909 20.5206 125.41C20.2139 124.911 20.3673 124.261 20.8667 123.954ZM60.7886 188.715C61.8489 188.061 63.2363 188.391 63.8897 189.451C64.5432 190.512 64.2132 191.899 63.1529 192.553C62.0927 193.206 60.7052 192.876 60.0519 191.815C59.3985 190.755 59.7285 189.368 60.7886 188.715ZM68.7224 201.581C69.1694 201.304 69.7561 201.445 70.0332 201.891C70.3101 202.339 70.1696 202.925 69.7227 203.202C69.2757 203.479 68.689 203.338 68.412 202.892C68.135 202.444 68.2754 201.858 68.7224 201.581ZM41.6758 173.356C43.3523 172.323 45.5458 172.843 46.581 174.52C47.6133 176.197 47.0935 178.39 45.4168 179.425C43.74 180.46 41.5467 179.938 40.5116 178.261C39.4764 176.584 39.9991 174.391 41.6758 173.356ZM33.715 160.44C35.0643 159.609 36.8328 160.029 37.6632 161.378C38.4936 162.727 38.0743 164.496 36.725 165.326C35.3757 166.157 33.6072 165.737 32.7768 164.388C31.9464 163.039 32.3656 161.27 33.715 160.44ZM25.7539 147.527C26.7763 146.896 28.1171 147.214 28.7453 148.236C29.3737 149.258 29.0582 150.599 28.036 151.228C27.0137 151.859 25.6729 151.54 25.0446 150.518C24.4163 149.496 24.7317 148.155 25.7539 147.527ZM17.7928 134.614C18.4881 134.185 19.401 134.402 19.8301 135.097C20.2591 135.792 20.0419 136.705 19.3467 137.135C18.6515 137.563 17.7384 137.346 17.3094 136.651C16.8805 135.956 17.0977 135.043 17.7928 134.614ZM9.83227 121.698C10.2002 121.471 10.6855 121.585 10.9124 121.955C11.1393 122.326 11.0258 122.809 10.655 123.036C10.2843 123.262 9.80128 123.149 9.57482 122.778C9.34796 122.408 9.46142 121.925 9.83227 121.698ZM49.697 186.362C50.9062 185.616 52.4881 185.994 53.234 187.201C53.98 188.407 53.6021 189.992 52.3956 190.738C51.1891 191.484 49.6044 191.106 48.8585 189.899C48.1125 188.693 48.4904 187.108 49.697 186.362ZM57.7099 199.366C58.4547 198.907 59.4337 199.137 59.8924 199.885C60.3511 200.632 60.1208 201.608 59.3732 202.067C58.6256 202.526 57.6495 202.296 57.1908 201.548C56.732 200.801 56.9623 199.824 57.7099 199.366Z" fill="url(#paint21_linear_277_1515)" fill-opacity="0.3"/>
<path d="M38.0872 189.79C39.2578 191.371 41.4901 191.704 43.0736 190.531C44.6571 189.358 44.9873 187.128 43.8142 185.544C42.6436 183.964 40.4113 183.631 38.8279 184.804C37.2443 185.977 36.9141 188.207 38.0872 189.79ZM29.755 172.563C31.0583 171.598 32.8988 171.872 33.8636 173.175C34.8285 174.479 34.5546 176.319 33.2513 177.284C31.948 178.248 30.1075 177.975 29.1426 176.672C28.1778 175.368 28.4516 173.528 29.755 172.563ZM20.6823 160.319C21.7085 159.56 23.1545 159.774 23.9136 160.8C24.6727 161.826 24.4584 163.272 23.4322 164.032C22.4061 164.791 20.9601 164.576 20.201 163.55C19.4418 162.524 19.6563 161.078 20.6823 160.319ZM11.6097 148.075C12.3559 147.521 13.4126 147.68 13.9662 148.426C14.5199 149.172 14.3619 150.228 13.6157 150.782C12.8695 151.336 11.8128 151.178 11.2592 150.432C10.7055 149.686 10.8635 148.629 11.6097 148.075ZM2.53697 135.831C3.00585 135.483 3.66827 135.582 4.01617 136.051C4.36408 136.52 4.26547 137.182 3.7966 137.53C3.32772 137.878 2.6653 137.779 2.31739 137.31C1.96949 136.841 2.0681 136.179 2.53697 135.831ZM47.8318 196.956C48.8315 196.215 50.2444 196.424 50.9831 197.426C51.7215 198.428 51.5126 199.838 50.513 200.577C49.5135 201.316 48.1006 201.107 47.3619 200.107C46.6232 199.108 46.8323 197.695 47.8318 196.956ZM56.8309 209.1C57.2525 208.788 57.8486 208.876 58.1638 209.297C58.4788 209.719 58.3878 210.315 57.9659 210.631C57.5441 210.946 56.9482 210.855 56.6332 210.433C56.3181 210.011 56.409 209.415 56.8309 209.1ZM27.4804 183.278C29.061 182.108 31.2934 182.438 32.4668 184.019C33.6373 185.599 33.307 187.832 31.7262 189.005C30.1457 190.175 27.9131 189.845 26.7398 188.264C25.5666 186.684 25.8997 184.451 27.4804 183.278ZM18.4483 171.09C19.7223 170.146 21.5186 170.413 22.4633 171.687C23.408 172.961 23.1401 174.758 21.8661 175.702C20.5922 176.647 18.7958 176.379 17.8511 175.105C16.9066 173.831 17.1744 172.035 18.4483 171.09ZM9.41624 158.902C10.3807 158.186 11.7438 158.389 12.457 159.356C13.1703 160.323 12.9705 161.683 12.0035 162.397C11.0391 163.113 9.67594 162.91 8.96279 161.943C8.24952 160.976 8.4493 159.615 9.41624 158.902ZM0.384442 146.712C1.04207 146.224 1.96895 146.364 2.45392 147.019C2.93877 147.674 2.80142 148.603 2.14656 149.089C1.49183 149.574 0.562054 149.436 0.0770853 148.781C-0.407766 148.127 -0.270411 147.197 0.384442 146.712ZM-8.64755 134.524C-8.29951 134.265 -7.80854 134.34 -7.54961 134.687C-7.2904 135.036 -7.36538 135.527 -7.71353 135.786C-8.0613 136.045 -8.55266 135.97 -8.81148 135.622C-9.07069 135.274 -8.99571 134.783 -8.64755 134.524ZM36.5783 195.557C37.7196 194.712 39.3283 194.952 40.1738 196.093C41.0194 197.234 40.7793 198.843 39.638 199.689C38.4968 200.534 36.8881 200.294 36.0425 199.153C35.197 198.011 35.4371 196.403 36.5783 195.557ZM45.6714 207.828C46.376 207.307 47.3694 207.455 47.8901 208.157C48.4106 208.859 48.2625 209.855 47.5607 210.376C46.8588 210.896 45.8627 210.748 45.342 210.046C44.8215 209.344 44.9695 208.348 45.6714 207.828Z" fill="url(#paint22_linear_277_1515)" fill-opacity="0.3"/>
<path d="M23.3233 200.454C24.4938 202.034 26.7262 202.367 28.3096 201.195C29.8931 200.021 30.2234 197.791 29.0503 196.208C27.8797 194.627 25.6474 194.294 24.0638 195.468C22.4834 196.638 22.1502 198.87 23.3233 200.454ZM14.9911 183.226C16.2944 182.261 18.1349 182.535 19.0997 183.839C20.0645 185.142 19.7907 186.983 18.4874 187.947C17.1841 188.912 15.3435 188.638 14.3787 187.335C13.4138 186.032 13.6877 184.191 14.9911 183.226ZM5.91837 170.983C6.94455 170.223 8.39056 170.438 9.14965 171.464C9.90877 172.49 9.69446 173.936 8.66831 174.695C7.64213 175.454 6.19616 175.24 5.43703 174.214C4.67791 173.188 4.89234 171.741 5.91837 170.983ZM-3.15416 158.739C-2.40806 158.185 -1.35148 158.343 -0.79769 159.089C-0.2439 159.835 -0.402145 160.892 -1.14825 161.446C-1.89435 161.999 -2.95093 161.841 -3.50472 161.095C-4.05851 160.349 -3.90027 159.292 -3.15416 158.739ZM-12.2269 146.495C-11.758 146.147 -11.0956 146.245 -10.7477 146.714C-10.3998 147.183 -10.4984 147.846 -10.9673 148.193C-11.4361 148.541 -12.0986 148.443 -12.4465 147.974C-12.7944 147.505 -12.6958 146.843 -12.2269 146.495ZM33.0679 207.62C34.0676 206.878 35.4805 207.087 36.219 208.09C36.9576 209.092 36.7487 210.502 35.7491 211.241C34.7496 211.98 33.3367 211.771 32.5979 210.771C31.8592 209.771 32.0684 208.359 33.0679 207.62ZM42.0669 219.763C42.4886 219.451 43.0847 219.539 43.3997 219.961C43.7149 220.383 43.6239 220.979 43.202 221.294C42.7802 221.609 42.1843 221.518 41.8692 221.096C41.5542 220.674 41.6451 220.078 42.0669 219.763ZM12.7165 193.942C14.2971 192.771 16.5295 193.102 17.7028 194.682C18.8733 196.263 18.5431 198.495 16.9622 199.669C15.3815 200.842 13.1492 200.509 11.9759 198.928C10.8054 197.347 11.1357 195.115 12.7165 193.942ZM3.68168 181.753C4.95562 180.809 6.752 181.077 7.69655 182.351C8.64125 183.625 8.37345 185.421 7.09939 186.366C5.82544 187.31 4.02918 187.042 3.08448 185.768C2.13982 184.495 2.40761 182.698 3.68168 181.753ZM-5.35032 169.566C-4.38608 168.85 -3.02284 169.052 -2.30973 170.019C-1.59634 170.986 -1.79608 172.347 -2.76337 173.06C-3.73016 173.773 -5.09085 173.573 -5.80397 172.607C-6.51708 171.64 -6.31761 170.279 -5.35032 169.566ZM-14.3824 157.375C-13.7248 156.888 -12.7978 157.028 -12.3129 157.682C-11.8277 158.337 -11.9654 159.267 -12.6201 159.752C-13.2746 160.237 -14.2048 160.099 -14.6896 159.445C-15.1746 158.79 -15.0371 157.86 -14.3824 157.375ZM-23.4144 145.187C-23.0662 144.928 -22.5753 145.003 -22.3161 145.351C-22.0572 145.699 -22.1322 146.19 -22.48 146.449C-22.828 146.708 -23.3191 146.634 -23.5783 146.285C-23.8375 145.937 -23.7625 145.446 -23.4144 145.187ZM21.8117 206.221C22.9528 205.375 24.5616 205.615 25.4072 206.756C26.2526 207.898 26.0125 209.506 24.8713 210.352C23.73 211.198 22.1213 210.957 21.2759 209.816C20.4303 208.675 20.6704 207.066 21.8117 206.221ZM30.9047 218.491C31.6094 217.971 32.6027 218.118 33.1233 218.82C33.6438 219.522 33.4958 220.519 32.794 221.039C32.0921 221.559 31.0959 221.412 30.5754 220.71C30.0547 220.008 30.2028 219.012 30.9047 218.491Z" fill="url(#paint23_linear_277_1515)" fill-opacity="0.3"/>
<path d="M10.5235 211.02C11.8092 212.512 14.0593 212.679 15.5506 211.393C17.042 210.107 17.209 207.857 15.9233 206.365C14.6374 204.874 12.3875 204.707 10.8961 205.993C9.4047 207.279 9.23767 209.529 10.5235 211.02ZM0.943681 194.452C2.17299 193.392 4.02622 193.531 5.08595 194.757C6.14564 195.984 6.00737 197.839 4.7808 198.899C3.55418 199.959 1.69814 199.821 0.638443 198.594C-0.42117 197.367 -0.282895 195.511 0.943681 194.452ZM-9.00592 182.911C-8.03858 182.078 -6.57914 182.184 -5.74604 183.152C-4.91294 184.119 -5.01934 185.579 -5.98668 186.412C-6.95403 187.245 -8.41374 187.138 -9.24684 186.171C-10.0799 185.204 -9.97326 183.744 -9.00592 182.911ZM-18.9584 171.37C-18.2531 170.763 -17.1902 170.841 -16.5834 171.543C-15.9761 172.246 -16.054 173.312 -16.7567 173.918C-17.4591 174.525 -18.5248 174.448 -19.1318 173.745C-19.7386 173.042 -19.6608 171.977 -18.9584 171.37ZM-28.9077 159.827C-28.4644 159.446 -27.7985 159.495 -27.415 159.936C-27.0318 160.376 -27.0832 161.045 -27.524 161.428C-27.9647 161.812 -28.6331 161.76 -29.0167 161.319C-29.4003 160.879 -29.3484 160.21 -28.9077 159.827ZM20.7711 217.447C21.7147 216.635 23.138 216.739 23.9505 217.682C24.7631 218.626 24.6592 220.049 23.7157 220.862C22.7721 221.674 21.3488 221.57 20.5361 220.627C19.7237 219.683 19.8275 218.26 20.7711 217.447ZM30.6384 228.893C31.0373 228.548 31.6364 228.595 31.9813 228.991C32.3262 229.387 32.2794 229.989 31.8833 230.334C31.4871 230.679 30.8852 230.632 30.5403 230.236C30.1955 229.839 30.2422 229.238 30.6384 228.893ZM-0.535121 205.309C0.956277 204.023 3.20614 204.19 4.49208 205.681C5.77786 207.173 5.61084 209.423 4.11945 210.709C2.62809 211.995 0.378056 211.828 -0.907726 210.336C-2.1935 208.845 -2.02648 206.595 -0.535121 205.309ZM-10.441 193.819C-9.24149 192.785 -7.42974 192.917 -6.39317 194.117C-5.35652 195.317 -5.49158 197.128 -6.69139 198.165C-7.89107 199.202 -9.70278 199.067 -10.7393 197.867C-11.7759 196.667 -11.641 194.855 -10.441 193.819ZM-20.3499 182.328C-19.4389 181.544 -18.0654 181.647 -17.284 182.555C-16.5021 183.463 -16.6027 184.839 -17.5107 185.621C-18.4184 186.403 -19.7947 186.302 -20.5761 185.394C-21.3581 184.486 -21.2575 183.11 -20.3499 182.328ZM-30.2554 170.838C-29.6364 170.303 -28.7016 170.374 -28.169 170.991C-27.6368 171.607 -27.7049 172.545 -28.3215 173.077C-28.9377 173.61 -29.8754 173.541 -30.408 172.925C-30.9401 172.308 -30.872 171.371 -30.2554 170.838ZM-40.1614 159.348C-39.8339 159.065 -39.3373 159.101 -39.0544 159.429C-38.7716 159.756 -38.8077 160.253 -39.1353 160.536C-39.4628 160.819 -39.9594 160.783 -40.2423 160.455C-40.5251 160.128 -40.4889 159.631 -40.1614 159.348ZM9.44299 216.88C10.5178 215.951 12.1407 216.073 13.0692 217.147C13.9977 218.222 13.8765 219.845 12.8016 220.774C11.7269 221.702 10.1039 221.581 9.17542 220.506C8.24691 219.431 8.36827 217.808 9.44299 216.88ZM19.4157 228.447C20.0794 227.877 21.0811 227.95 21.6521 228.611C22.223 229.272 22.1497 230.276 21.4889 230.847C20.8279 231.418 19.8235 231.344 19.2526 230.683C18.6815 230.023 18.7549 229.018 19.4157 228.447Z" fill="url(#paint24_linear_277_1515)" fill-opacity="0.3"/>
<path d="M-3.4137 222.741C-2.12788 224.232 0.122118 224.399 1.61336 223.114C3.10475 221.828 3.27177 219.578 1.98599 218.086C0.700208 216.595 -1.54982 216.428 -3.04117 217.714C-4.53257 219 -4.6996 221.25 -3.4137 222.741ZM-12.9937 206.173C-11.7643 205.113 -9.91089 205.251 -8.85136 206.478C-7.79162 207.705 -7.92985 209.561 -9.15647 210.62C-10.3858 211.68 -12.239 211.542 -13.2986 210.315C-14.3583 209.089 -14.2202 207.233 -12.9937 206.173ZM-22.9433 194.632C-21.976 193.799 -20.5162 193.905 -19.6831 194.873C-18.85 195.84 -18.9567 197.3 -19.9241 198.133C-20.8914 198.966 -22.3508 198.859 -23.1839 197.892C-24.017 196.925 -23.9106 195.465 -22.9433 194.632ZM-32.8954 183.091C-32.1902 182.484 -31.1273 182.562 -30.5205 183.265C-29.9136 183.967 -29.9914 185.032 -30.6939 185.64C-31.3966 186.246 -32.4619 186.169 -33.0689 185.466C-33.6761 184.763 -33.5983 183.698 -32.8954 183.091ZM-42.8451 171.55C-42.4019 171.17 -41.736 171.219 -41.3524 171.659C-40.9688 172.1 -41.0206 172.768 -41.4614 173.152C-41.9022 173.536 -42.5705 173.484 -42.9541 173.043C-43.3377 172.602 -43.2859 171.934 -42.8451 171.55ZM6.83386 229.168C7.77741 228.356 9.20075 228.46 10.0134 229.403C10.8259 230.347 10.722 231.77 9.77841 232.583C8.83486 233.395 7.41151 233.291 6.59899 232.348C5.78635 231.404 5.89031 229.981 6.83386 229.168ZM16.7011 240.614C17.1001 240.269 17.6992 240.316 18.0441 240.712C18.3889 241.108 18.3422 241.71 17.946 242.055C17.5498 242.4 16.948 242.353 16.6032 241.957C16.2583 241.561 16.3051 240.958 16.7011 240.614ZM-14.4725 217.03C-12.981 215.744 -10.731 215.911 -9.44518 217.403C-8.1594 218.894 -8.32642 221.144 -9.81782 222.43C-11.3091 223.715 -13.5591 223.548 -14.8449 222.057C-16.131 220.566 -15.9635 218.316 -14.4725 217.03ZM-24.378 205.54C-23.1785 204.506 -21.3668 204.638 -20.3302 205.838C-19.2936 207.038 -19.429 208.85 -20.6285 209.886C-21.8285 210.922 -23.6402 210.787 -24.6765 209.588C-25.713 208.388 -25.578 206.576 -24.378 205.54ZM-34.2869 194.049C-33.376 193.265 -32.0029 193.368 -31.221 194.276C-30.4396 195.184 -30.5401 196.56 -31.4478 197.342C-32.3554 198.123 -33.7318 198.023 -34.5136 197.115C-35.2952 196.207 -35.1946 194.831 -34.2869 194.049ZM-44.1929 182.559C-43.5734 182.024 -42.6386 182.095 -42.1065 182.712C-41.5739 183.328 -41.6424 184.266 -42.2586 184.798C-42.8747 185.33 -43.8129 185.262 -44.345 184.646C-44.8776 184.029 -44.8091 183.092 -44.1929 182.559ZM-54.0988 171.072C-53.7713 170.789 -53.2747 170.825 -52.9918 171.153C-52.709 171.48 -52.7452 171.977 -53.0727 172.26C-53.4002 172.542 -53.8969 172.506 -54.1798 172.179C-54.4627 171.852 -54.4265 171.355 -54.0988 171.072ZM-4.49443 228.603C-3.4197 227.675 -1.79676 227.796 -0.86825 228.871C0.0602704 229.946 -0.0609724 231.568 -1.13578 232.497C-2.21046 233.426 -3.83344 233.304 -4.76196 232.23C-5.69048 231.155 -5.56923 229.532 -4.49443 228.603ZM5.47837 240.171C6.14205 239.6 7.14365 239.673 7.71467 240.334C8.28565 240.995 8.21229 242 7.55143 242.57C6.89045 243.142 5.88604 243.068 5.31501 242.407C4.74403 241.747 4.81739 240.742 5.47837 240.171Z" fill="url(#paint25_linear_277_1515)" fill-opacity="0.3"/>
</g>
</g>
<defs>
<linearGradient id="paint0_linear_277_1515" x1="22.8196" y1="219.026" x2="710.075" y2="218.441" gradientUnits="userSpaceOnUse">
<stop stop-color="#BC9632"/>
<stop offset="0.262187" stop-color="#FFEDA9"/>
<stop offset="1" stop-color="#BC9632"/>
</linearGradient>
<linearGradient id="paint1_linear_277_1515" x1="22.8193" y1="219.026" x2="710.075" y2="218.441" gradientUnits="userSpaceOnUse">
<stop stop-color="#BC9632"/>
<stop offset="0.262187" stop-color="#FFEDA9"/>
<stop offset="1" stop-color="#BC9632"/>
</linearGradient>
<linearGradient id="paint2_linear_277_1515" x1="22.8196" y1="219.026" x2="710.075" y2="218.441" gradientUnits="userSpaceOnUse">
<stop stop-color="#BC9632"/>
<stop offset="0.262187" stop-color="#FFEDA9"/>
<stop offset="1" stop-color="#BC9632"/>
</linearGradient>
<linearGradient id="paint3_linear_277_1515" x1="22.8198" y1="219.026" x2="710.075" y2="218.441" gradientUnits="userSpaceOnUse">
<stop stop-color="#BC9632"/>
<stop offset="0.262187" stop-color="#FFEDA9"/>
<stop offset="1" stop-color="#BC9632"/>
</linearGradient>
<linearGradient id="paint4_linear_277_1515" x1="22.8193" y1="219.026" x2="710.075" y2="218.441" gradientUnits="userSpaceOnUse">
<stop stop-color="#BC9632"/>
<stop offset="0.262187" stop-color="#FFEDA9"/>
<stop offset="1" stop-color="#BC9632"/>
</linearGradient>
<linearGradient id="paint5_linear_277_1515" x1="22.8195" y1="219.026" x2="710.075" y2="218.441" gradientUnits="userSpaceOnUse">
<stop stop-color="#BC9632"/>
<stop offset="0.262187" stop-color="#FFEDA9"/>
<stop offset="1" stop-color="#BC9632"/>
</linearGradient>
<linearGradient id="paint6_linear_277_1515" x1="22.8195" y1="219.026" x2="710.075" y2="218.441" gradientUnits="userSpaceOnUse">
<stop stop-color="#BC9632"/>
<stop offset="0.262187" stop-color="#FFEDA9"/>
<stop offset="1" stop-color="#BC9632"/>
</linearGradient>
<linearGradient id="paint7_linear_277_1515" x1="22.8195" y1="219.026" x2="710.075" y2="218.441" gradientUnits="userSpaceOnUse">
<stop stop-color="#BC9632"/>
<stop offset="0.262187" stop-color="#FFEDA9"/>
<stop offset="1" stop-color="#BC9632"/>
</linearGradient>
<linearGradient id="paint8_linear_277_1515" x1="22.8193" y1="219.026" x2="710.075" y2="218.441" gradientUnits="userSpaceOnUse">
<stop stop-color="#BC9632"/>
<stop offset="0.262187" stop-color="#FFEDA9"/>
<stop offset="1" stop-color="#BC9632"/>
</linearGradient>
<linearGradient id="paint9_linear_277_1515" x1="22.8192" y1="219.026" x2="710.075" y2="218.441" gradientUnits="userSpaceOnUse">
<stop stop-color="#BC9632"/>
<stop offset="0.262187" stop-color="#FFEDA9"/>
<stop offset="1" stop-color="#BC9632"/>
</linearGradient>
<linearGradient id="paint10_linear_277_1515" x1="22.8197" y1="219.026" x2="710.075" y2="218.441" gradientUnits="userSpaceOnUse">
<stop stop-color="#BC9632"/>
<stop offset="0.262187" stop-color="#FFEDA9"/>
<stop offset="1" stop-color="#BC9632"/>
</linearGradient>
<linearGradient id="paint11_linear_277_1515" x1="22.8199" y1="219.026" x2="710.075" y2="218.441" gradientUnits="userSpaceOnUse">
<stop stop-color="#BC9632"/>
<stop offset="0.262187" stop-color="#FFEDA9"/>
<stop offset="1" stop-color="#BC9632"/>
</linearGradient>
<linearGradient id="paint12_linear_277_1515" x1="22.8199" y1="219.026" x2="710.075" y2="218.441" gradientUnits="userSpaceOnUse">
<stop stop-color="#BC9632"/>
<stop offset="0.262187" stop-color="#FFEDA9"/>
<stop offset="1" stop-color="#BC9632"/>
</linearGradient>
<linearGradient id="paint13_linear_277_1515" x1="22.8192" y1="219.026" x2="710.075" y2="218.441" gradientUnits="userSpaceOnUse">
<stop stop-color="#BC9632"/>
<stop offset="0.262187" stop-color="#FFEDA9"/>
<stop offset="1" stop-color="#BC9632"/>
</linearGradient>
<linearGradient id="paint14_linear_277_1515" x1="22.8193" y1="219.026" x2="710.075" y2="218.441" gradientUnits="userSpaceOnUse">
<stop stop-color="#BC9632"/>
<stop offset="0.262187" stop-color="#FFEDA9"/>
<stop offset="1" stop-color="#BC9632"/>
</linearGradient>
<linearGradient id="paint15_linear_277_1515" x1="22.8195" y1="219.026" x2="710.075" y2="218.441" gradientUnits="userSpaceOnUse">
<stop stop-color="#BC9632"/>
<stop offset="0.262187" stop-color="#FFEDA9"/>
<stop offset="1" stop-color="#BC9632"/>
</linearGradient>
<linearGradient id="paint16_linear_277_1515" x1="22.8196" y1="219.026" x2="710.075" y2="218.441" gradientUnits="userSpaceOnUse">
<stop stop-color="#BC9632"/>
<stop offset="0.262187" stop-color="#FFEDA9"/>
<stop offset="1" stop-color="#BC9632"/>
</linearGradient>
<linearGradient id="paint17_linear_277_1515" x1="22.8199" y1="219.026" x2="710.075" y2="218.441" gradientUnits="userSpaceOnUse">
<stop stop-color="#BC9632"/>
<stop offset="0.262187" stop-color="#FFEDA9"/>
<stop offset="1" stop-color="#BC9632"/>
</linearGradient>
<linearGradient id="paint18_linear_277_1515" x1="22.8196" y1="219.026" x2="710.075" y2="218.441" gradientUnits="userSpaceOnUse">
<stop stop-color="#BC9632"/>
<stop offset="0.262187" stop-color="#FFEDA9"/>
<stop offset="1" stop-color="#BC9632"/>
</linearGradient>
<linearGradient id="paint19_linear_277_1515" x1="22.8192" y1="219.026" x2="710.075" y2="218.441" gradientUnits="userSpaceOnUse">
<stop stop-color="#BC9632"/>
<stop offset="0.262187" stop-color="#FFEDA9"/>
<stop offset="1" stop-color="#BC9632"/>
</linearGradient>
<linearGradient id="paint20_linear_277_1515" x1="22.8191" y1="219.026" x2="710.075" y2="218.441" gradientUnits="userSpaceOnUse">
<stop stop-color="#BC9632"/>
<stop offset="0.262187" stop-color="#FFEDA9"/>
<stop offset="1" stop-color="#BC9632"/>
</linearGradient>
<linearGradient id="paint21_linear_277_1515" x1="22.8193" y1="219.026" x2="710.075" y2="218.441" gradientUnits="userSpaceOnUse">
<stop stop-color="#BC9632"/>
<stop offset="0.262187" stop-color="#FFEDA9"/>
<stop offset="1" stop-color="#BC9632"/>
</linearGradient>
<linearGradient id="paint22_linear_277_1515" x1="22.8194" y1="219.026" x2="710.075" y2="218.441" gradientUnits="userSpaceOnUse">
<stop stop-color="#BC9632"/>
<stop offset="0.262187" stop-color="#FFEDA9"/>
<stop offset="1" stop-color="#BC9632"/>
</linearGradient>
<linearGradient id="paint23_linear_277_1515" x1="22.8192" y1="219.026" x2="710.075" y2="218.441" gradientUnits="userSpaceOnUse">
<stop stop-color="#BC9632"/>
<stop offset="0.262187" stop-color="#FFEDA9"/>
<stop offset="1" stop-color="#BC9632"/>
</linearGradient>
<linearGradient id="paint24_linear_277_1515" x1="22.819" y1="219.026" x2="710.075" y2="218.441" gradientUnits="userSpaceOnUse">
<stop stop-color="#BC9632"/>
<stop offset="0.262187" stop-color="#FFEDA9"/>
<stop offset="1" stop-color="#BC9632"/>
</linearGradient>
<linearGradient id="paint25_linear_277_1515" x1="22.8195" y1="219.026" x2="710.075" y2="218.441" gradientUnits="userSpaceOnUse">
<stop stop-color="#BC9632"/>
<stop offset="0.262187" stop-color="#FFEDA9"/>
<stop offset="1" stop-color="#BC9632"/>
</linearGradient>
<clipPath id="clip0_277_1515">
<rect width="360" height="320" fill="white"/>
</clipPath>
</defs>
</svg>
