<svg width="296" height="231" viewBox="0 0 296 231" fill="none" xmlns="http://www.w3.org/2000/svg">
<path d="M193.434 25.7686C168.852 69.168 223.272 119.348 263.959 67.8115L296 89.1729L278.029 168.682L263.986 223.174C242.422 303.059 48.7347 298.427 30.499 223.174L18.2061 168.818L0 89.1729L32.041 67.8115C72.7281 119.348 127.148 69.168 102.566 25.7686L148 0L193.434 25.7686ZM148.338 105.109C90.8496 105.109 44.2461 136.988 44.2461 176.312C44.2461 215.636 90.8496 247.514 148.338 247.514C205.826 247.514 252.43 215.636 252.43 176.312C252.43 136.988 205.826 105.109 148.338 105.109Z" fill="#37A94D" fill-opacity="0.1"/>
<path d="M148.172 165.969C105.111 147.999 61.8804 161.053 55.7773 193.602C72.8972 175.164 102.632 172.595 136.305 186.648C191.741 209.03 235.141 196.993 241.414 162.917C222.244 182.572 202.406 183.856 148.172 165.969Z" fill="#37A94D" fill-opacity="0.1"/>
</svg>
