<svg width="360" height="320" viewBox="0 0 360 320" fill="none" xmlns="http://www.w3.org/2000/svg">
<g clip-path="url(#clip0_277_1404)">
<rect width="360" height="320" fill="#003216"/>
<g opacity="0.23">
<path d="M276.875 211.457C278.227 212.889 280.483 212.954 281.915 211.602C283.346 210.25 283.408 207.995 282.06 206.564C280.707 205.132 278.452 205.067 277.02 206.419C275.589 207.771 275.523 210.025 276.875 211.457ZM287.4 217.419C288.303 216.564 289.731 216.605 290.588 217.513C291.442 218.42 291.398 219.845 290.495 220.7C289.587 221.553 288.159 221.514 287.306 220.606C286.453 219.699 286.492 218.273 287.4 217.419ZM297.773 228.41C298.158 228.051 298.758 228.067 299.12 228.45C299.483 228.834 299.465 229.435 299.083 229.798C298.698 230.16 298.099 230.142 297.736 229.758C297.374 229.375 297.392 228.774 297.773 228.41ZM265.571 206.25C267.003 204.898 269.258 204.965 270.611 206.395C271.96 207.823 271.893 210.081 270.466 211.433C269.03 212.783 266.779 212.717 265.426 211.288C264.074 209.856 264.14 207.601 265.571 206.25ZM255.159 195.217C256.311 194.129 258.124 194.18 259.214 195.334C260.3 196.487 260.247 198.301 259.095 199.389C257.943 200.477 256.126 200.425 255.04 199.272C253.954 198.119 254.003 196.303 255.159 195.217ZM276.058 217.361C277.091 216.387 278.717 216.434 279.694 217.468C280.672 218.502 280.62 220.126 279.586 221.102C278.553 222.079 276.931 222.031 275.954 220.997C274.977 219.963 275.024 218.337 276.058 217.361ZM286.541 228.469C287.181 227.869 288.182 227.898 288.784 228.535C289.39 229.174 289.358 230.176 288.721 230.78C288.081 231.382 287.08 231.351 286.475 230.713C285.873 230.075 285.905 229.073 286.541 228.469Z" fill="url(#paint0_linear_277_1404)" fill-opacity="0.3"/>
<path d="M263.479 223.796C264.831 225.228 267.083 225.292 268.515 223.94C269.946 222.589 270.012 220.334 268.66 218.902C267.307 217.47 265.055 217.406 263.624 218.758C262.193 220.11 262.127 222.364 263.479 223.796ZM253.163 207.674C254.344 206.56 256.203 206.615 257.316 207.792C258.429 208.97 258.374 210.832 257.197 211.946C256.016 213.059 254.158 213.004 253.045 211.827C251.932 210.649 251.986 208.787 253.163 207.674ZM242.706 196.592C243.633 195.717 245.094 195.759 245.972 196.685C246.853 197.612 246.807 199.076 245.879 199.953C244.952 200.831 243.491 200.786 242.614 199.861C241.732 198.933 241.778 197.47 242.706 196.592ZM274.004 229.756C274.908 228.901 276.336 228.941 277.189 229.848C278.042 230.755 277.999 232.18 277.096 233.035C276.192 233.89 274.764 233.85 273.911 232.943C273.054 232.034 273.097 230.61 274.004 229.756ZM284.378 240.747C284.758 240.387 285.363 240.404 285.725 240.787C286.088 241.17 286.069 241.771 285.684 242.134C285.303 242.497 284.699 242.477 284.337 242.094C283.974 241.711 283.992 241.109 284.378 240.747ZM252.172 218.585C253.607 217.235 255.858 217.301 257.211 218.73C258.564 220.162 258.498 222.417 257.067 223.768C255.635 225.12 253.38 225.053 252.027 223.623C250.678 222.195 250.744 219.937 252.172 218.585ZM241.76 207.552C242.912 206.464 244.728 206.517 245.815 207.669C246.901 208.822 246.852 210.638 245.7 211.726C244.544 212.812 242.731 212.761 241.645 211.608C240.554 210.454 240.607 208.64 241.76 207.552ZM231.347 196.519C232.22 195.695 233.597 195.735 234.419 196.606C235.244 197.478 235.203 198.856 234.334 199.68C233.461 200.503 232.084 200.464 231.258 199.591C230.437 198.72 230.475 197.342 231.347 196.519ZM262.662 229.7C263.695 228.726 265.321 228.773 266.298 229.807C267.272 230.839 267.224 232.465 266.19 233.441C265.157 234.417 263.531 234.369 262.554 233.334C261.58 232.302 261.628 230.676 262.662 229.7ZM273.146 240.806C273.782 240.204 274.787 240.234 275.389 240.872C275.99 241.509 275.963 242.512 275.322 243.115C274.686 243.716 273.681 243.686 273.079 243.049C272.478 242.411 272.505 241.408 273.146 240.806Z" fill="url(#paint1_linear_277_1404)" fill-opacity="0.3"/>
<path d="M248.595 236.239C249.866 237.743 252.115 237.929 253.621 236.659C255.122 235.387 255.309 233.139 254.038 231.634C252.767 230.13 250.518 229.943 249.017 231.215C247.512 232.486 247.324 234.734 248.595 236.239ZM239.177 219.579C240.415 218.531 242.269 218.687 243.317 219.926C244.365 221.166 244.207 223.017 242.968 224.065C241.73 225.113 239.876 224.958 238.829 223.718C237.781 222.478 237.935 220.626 239.177 219.579ZM229.333 207.943C230.309 207.119 231.767 207.242 232.592 208.214C233.417 209.187 233.291 210.647 232.32 211.472C231.345 212.296 229.886 212.172 229.061 211.2C228.24 210.229 228.362 208.767 229.333 207.943ZM219.493 196.309C220.205 195.709 221.265 195.797 221.866 196.508C222.467 197.218 222.379 198.281 221.667 198.881C220.959 199.482 219.895 199.393 219.298 198.683C218.697 197.973 218.784 196.911 219.493 196.309ZM258.781 242.762C259.733 241.959 261.155 242.076 261.957 243.027C262.763 243.979 262.644 245.401 261.692 246.204C260.74 247.008 259.318 246.89 258.516 245.939C257.71 244.987 257.829 243.565 258.781 242.762ZM268.539 254.302C268.942 253.964 269.545 254.014 269.881 254.414C270.221 254.816 270.173 255.418 269.769 255.756C269.369 256.096 268.767 256.046 268.427 255.644C268.091 255.244 268.139 254.642 268.539 254.302ZM237.593 230.42C239.098 229.15 241.347 229.339 242.615 230.839C243.886 232.343 243.698 234.592 242.197 235.864C240.696 237.135 238.443 236.945 237.172 235.443C235.9 233.942 236.092 231.691 237.593 230.42ZM227.797 218.838C229.007 217.813 230.815 217.964 231.842 219.175C232.865 220.384 232.714 222.195 231.504 223.22C230.294 224.244 228.482 224.092 227.46 222.883C226.433 221.672 226.587 219.862 227.797 218.838ZM217.997 207.254C218.915 206.48 220.287 206.594 221.06 207.511C221.837 208.431 221.722 209.8 220.803 210.575C219.885 211.351 218.518 211.237 217.74 210.318C216.966 209.403 217.079 208.03 217.997 207.254ZM208.202 195.669C208.825 195.14 209.759 195.22 210.288 195.844C210.813 196.468 210.738 197.403 210.112 197.929C209.49 198.455 208.554 198.378 208.029 197.755C207.5 197.13 207.58 196.196 208.202 195.669ZM247.462 242.089C248.546 241.172 250.167 241.307 251.082 242.392C252.001 243.478 251.865 245.099 250.781 246.016C249.697 246.933 248.072 246.797 247.157 245.712C246.241 244.628 246.374 243.005 247.462 242.089ZM257.323 253.752C257.991 253.186 258.993 253.268 259.556 253.937C260.122 254.606 260.04 255.606 259.372 256.172C258.705 256.737 257.702 256.655 257.136 255.986C256.573 255.318 256.655 254.317 257.323 253.752Z" fill="url(#paint2_linear_277_1404)" fill-opacity="0.3"/>
<path d="M233.94 248.148C235.165 249.691 237.407 249.946 238.949 248.723C240.487 247.499 240.745 245.255 239.523 243.716C238.298 242.173 236.057 241.918 234.515 243.141C232.976 244.365 232.718 246.608 233.94 248.148ZM225.041 231.206C226.311 230.196 228.16 230.409 229.169 231.68C230.177 232.95 229.965 234.798 228.696 235.807C227.422 236.815 225.577 236.603 224.568 235.333C223.56 234.063 223.772 232.215 225.041 231.206ZM215.567 219.273C216.568 218.478 218.022 218.646 218.813 219.646C219.608 220.647 219.442 222.099 218.441 222.894C217.441 223.689 215.987 223.521 215.192 222.52C214.4 221.52 214.567 220.067 215.567 219.273ZM206.09 207.337C206.817 206.759 207.876 206.878 208.455 207.607C209.033 208.336 208.912 209.395 208.186 209.972C207.455 210.549 206.395 210.43 205.821 209.702C205.242 208.974 205.363 207.914 206.094 207.337L206.09 207.337ZM196.616 195.404C197.074 195.041 197.737 195.118 198.099 195.573C198.461 196.029 198.385 196.696 197.931 197.059C197.474 197.422 196.806 197.345 196.444 196.889C196.082 196.433 196.158 195.766 196.616 195.404ZM243.921 254.985C244.894 254.211 246.316 254.374 247.089 255.348C247.863 256.322 247.702 257.741 246.725 258.515C245.747 259.289 244.33 259.127 243.557 258.15C242.784 257.176 242.945 255.756 243.922 254.983L243.921 254.985ZM253.322 266.821C253.731 266.494 254.332 266.563 254.661 266.975C254.985 267.385 254.916 267.986 254.507 268.313C254.094 268.64 253.493 268.571 253.168 268.16C252.84 267.748 252.909 267.148 253.322 266.821ZM223.124 241.994C224.666 240.771 226.907 241.029 228.133 242.569C229.355 244.109 229.096 246.352 227.558 247.576C226.016 248.799 223.771 248.541 222.549 247.001C221.328 245.459 221.586 243.219 223.124 241.994ZM213.69 230.112C214.931 229.126 216.74 229.333 217.723 230.574C218.703 231.814 218.498 233.62 217.258 234.604C216.018 235.587 214.213 235.383 213.229 234.142C212.246 232.902 212.45 231.095 213.69 230.112ZM204.256 218.232C205.199 217.487 206.563 217.641 207.312 218.583C208.061 219.525 207.903 220.892 206.963 221.641C206.019 222.389 204.652 222.23 203.907 221.289C203.158 220.347 203.316 218.981 204.256 218.232ZM194.822 206.35C195.464 205.842 196.395 205.948 196.902 206.588C197.41 207.227 197.305 208.16 196.663 208.668C196.025 209.177 195.094 209.07 194.583 208.429C194.076 207.79 194.184 206.858 194.822 206.35ZM185.393 194.468C185.734 194.197 186.223 194.254 186.496 194.596C186.765 194.936 186.707 195.428 186.366 195.699C186.025 195.969 185.535 195.912 185.263 195.571C184.994 195.231 185.052 194.738 185.393 194.468ZM232.625 253.962C233.742 253.079 235.356 253.267 236.238 254.377C237.124 255.488 236.938 257.106 235.825 257.99C234.713 258.873 233.099 258.687 232.213 257.576C231.327 256.464 231.517 254.847 232.625 253.962ZM242.121 265.922C242.808 265.378 243.809 265.493 244.35 266.177C244.895 266.861 244.782 267.863 244.096 268.407C243.413 268.951 242.412 268.836 241.867 268.152C241.322 267.467 241.438 266.467 242.121 265.922Z" fill="url(#paint3_linear_277_1404)" fill-opacity="0.3"/>
<path d="M218.68 259.271C219.852 260.848 222.089 261.177 223.664 260C225.243 258.824 225.571 256.591 224.394 255.013C223.218 253.435 220.985 253.107 219.406 254.283C217.831 255.46 217.503 257.693 218.68 259.271ZM210.304 242.062C211.607 241.095 213.449 241.364 214.414 242.664C215.384 243.965 215.114 245.805 213.814 246.774C212.511 247.741 210.67 247.472 209.704 246.172C208.734 244.871 209.004 243.03 210.304 242.062ZM201.202 229.839C202.227 229.077 203.676 229.289 204.439 230.313C205.198 231.335 204.986 232.784 203.965 233.547C202.94 234.309 201.491 234.097 200.728 233.073C199.969 232.05 200.178 230.6 201.202 229.839ZM192.104 217.618C192.85 217.062 193.903 217.217 194.459 217.963C195.016 218.709 194.862 219.764 194.116 220.32C193.37 220.877 192.313 220.721 191.757 219.974C191.2 219.228 191.358 218.175 192.104 217.618ZM183.003 205.395C183.469 205.046 184.135 205.143 184.48 205.611C184.83 206.081 184.734 206.743 184.263 207.09C183.797 207.439 183.131 207.342 182.786 206.874C182.436 206.404 182.532 205.742 183.003 205.395ZM228.442 266.413C229.436 265.668 230.852 265.875 231.597 266.875C232.341 267.875 232.133 269.284 231.134 270.029C230.136 270.774 228.723 270.567 227.979 269.567C227.234 268.57 227.439 267.157 228.442 266.413ZM237.467 278.536C237.889 278.221 238.485 278.309 238.797 278.731C239.114 279.153 239.025 279.748 238.603 280.063C238.184 280.38 237.585 280.29 237.272 279.869C236.955 279.447 237.044 278.851 237.467 278.536ZM208.056 252.786C209.632 251.608 211.864 251.936 213.041 253.514C214.217 255.092 213.889 257.325 212.314 258.502C210.735 259.678 208.502 259.351 207.326 257.772C206.15 256.194 206.477 253.961 208.056 252.786ZM198.994 240.618C200.266 239.67 202.061 239.935 203.01 241.206C203.959 242.478 203.693 244.275 202.421 245.222C201.149 246.17 199.354 245.905 198.405 244.633C197.456 243.361 197.722 241.565 198.994 240.618ZM189.931 228.45C190.895 227.733 192.259 227.931 192.976 228.895C193.697 229.86 193.494 231.22 192.529 231.939C191.568 232.659 190.205 232.458 189.488 231.495C188.771 230.53 188.966 229.168 189.931 228.45ZM180.872 216.283C181.526 215.794 182.452 215.929 182.942 216.584C183.428 217.239 183.295 218.166 182.638 218.654C181.985 219.142 181.058 219.007 180.568 218.352C180.082 217.698 180.215 216.77 180.872 216.283ZM171.814 204.115C172.16 203.855 172.65 203.927 172.912 204.276C173.17 204.624 173.099 205.115 172.749 205.374C172.403 205.634 171.909 205.561 171.651 205.213C171.393 204.865 171.464 204.373 171.814 204.115ZM217.182 265.041C218.322 264.193 219.934 264.431 220.778 265.569C221.626 266.708 221.39 268.319 220.251 269.165C219.111 270.013 217.499 269.775 216.655 268.638C215.807 267.499 216.043 265.887 217.182 265.041ZM226.306 277.289C227.008 276.766 228 276.911 228.523 277.612C229.046 278.314 228.902 279.308 228.2 279.831C227.498 280.355 226.505 280.21 225.983 279.508C225.456 278.805 225.604 277.813 226.306 277.289Z" fill="url(#paint4_linear_277_1404)" fill-opacity="0.3"/>
<path d="M202.985 269.925C204.106 271.544 206.324 271.948 207.942 270.828C209.564 269.708 209.968 267.489 208.847 265.87C207.725 264.251 205.507 263.847 203.889 264.967C202.271 266.088 201.867 268.307 202.985 269.925ZM195.222 252.432C196.555 251.508 198.385 251.843 199.311 253.177C200.233 254.51 199.898 256.341 198.564 257.265C197.231 258.188 195.401 257.854 194.48 256.521C193.554 255.186 193.889 253.356 195.222 252.432ZM186.555 239.897C187.603 239.17 189.045 239.435 189.771 240.483C190.496 241.532 190.236 242.972 189.183 243.698C188.135 244.425 186.697 244.161 185.971 243.113C185.242 242.063 185.506 240.624 186.555 239.897ZM177.891 227.366C178.654 226.835 179.705 227.026 180.23 227.792C180.759 228.559 180.572 229.609 179.805 230.136C179.038 230.662 177.987 230.474 177.462 229.708C176.933 228.941 177.124 227.892 177.891 227.366ZM169.219 214.83C169.702 214.497 170.361 214.618 170.694 215.1C171.027 215.581 170.906 216.239 170.423 216.572C169.94 216.905 169.282 216.784 168.949 216.302C168.616 215.82 168.74 215.164 169.219 214.83ZM212.493 277.403C213.515 276.693 214.92 276.95 215.628 277.975C216.339 279.001 216.082 280.401 215.056 281.11C214.03 281.819 212.632 281.564 211.92 280.538C211.213 279.513 211.467 278.112 212.493 277.403ZM221.089 289.835C221.519 289.534 222.117 289.646 222.414 290.077C222.711 290.508 222.601 291.102 222.171 291.401C221.741 291.699 221.146 291.591 220.846 291.158C220.549 290.727 220.658 290.133 221.089 289.835ZM192.596 263.069C194.214 261.948 196.436 262.353 197.553 263.972C198.675 265.591 198.27 267.812 196.653 268.93C195.032 270.047 192.813 269.646 191.695 268.027C190.578 266.409 190.979 264.186 192.596 263.069ZM183.967 250.589C185.272 249.689 187.058 250.015 187.959 251.319C188.859 252.623 188.533 254.41 187.228 255.31C185.927 256.211 184.137 255.885 183.237 254.581C182.336 253.276 182.662 251.49 183.967 250.589ZM175.342 238.113C176.33 237.43 177.684 237.677 178.368 238.666C179.051 239.656 178.804 241.008 177.815 241.692C176.827 242.375 175.473 242.129 174.79 241.139C174.106 240.149 174.353 238.797 175.342 238.113ZM166.713 225.634C167.385 225.17 168.306 225.337 168.773 226.011C169.237 226.683 169.067 227.605 168.396 228.069C167.724 228.534 166.803 228.367 166.336 227.693C165.872 227.02 166.042 226.099 166.713 225.634ZM158.084 213.158C158.439 212.91 158.928 212.999 159.178 213.358C159.425 213.716 159.335 214.203 158.979 214.451C158.62 214.698 158.131 214.609 157.884 214.251C157.638 213.893 157.724 213.405 158.084 213.158ZM201.288 275.636C202.458 274.829 204.058 275.122 204.863 276.288C205.673 277.455 205.381 279.057 204.214 279.864C203.048 280.672 201.444 280.379 200.639 279.213C199.83 278.043 200.121 276.444 201.288 275.636ZM209.976 288.201C210.696 287.702 211.682 287.882 212.181 288.604C212.681 289.327 212.501 290.313 211.78 290.813C211.056 291.311 210.07 291.131 209.571 290.408C209.071 289.685 209.251 288.7 209.976 288.201Z" fill="url(#paint5_linear_277_1404)" fill-opacity="0.3"/>
<path d="M186.905 279.999C187.965 281.655 190.171 282.14 191.828 281.075C193.484 280.013 193.969 277.809 192.905 276.153C191.838 274.495 189.639 274.012 187.983 275.076C186.323 276.137 185.842 278.342 186.905 279.999ZM179.761 262.247C181.127 261.371 182.943 261.768 183.816 263.134C184.694 264.501 184.295 266.315 182.929 267.192C181.563 268.069 179.748 267.671 178.871 266.305C177.997 264.939 178.391 263.123 179.761 262.247ZM171.541 249.416C172.612 248.727 174.043 249.041 174.732 250.114C175.42 251.188 175.107 252.619 174.032 253.307C172.96 253.996 171.529 253.682 170.84 252.609C170.152 251.535 170.465 250.104 171.541 249.416ZM163.315 236.586C164.1 236.086 165.14 236.313 165.642 237.096C166.148 237.882 165.918 238.922 165.133 239.425C164.347 239.928 163.308 239.699 162.806 238.915C162.303 238.131 162.53 237.089 163.314 236.589L163.315 236.586ZM155.095 223.755C155.585 223.439 156.241 223.582 156.554 224.073C156.871 224.565 156.727 225.218 156.236 225.534C155.745 225.85 155.09 225.707 154.776 225.216C154.459 224.724 154.604 224.071 155.095 223.755ZM196.144 287.809C197.188 287.137 198.584 287.443 199.254 288.49C199.925 289.537 199.622 290.933 198.574 291.604C197.525 292.274 196.129 291.969 195.459 290.921C194.788 289.874 195.095 288.479 196.144 287.809ZM204.298 300.534C204.74 300.252 205.329 300.378 205.613 300.823C205.898 301.268 205.769 301.855 205.326 302.139C204.879 302.421 204.291 302.294 204.011 301.85C203.726 301.405 203.855 300.818 204.298 300.534ZM176.764 272.784C178.42 271.722 180.624 272.203 181.687 273.861C182.751 275.517 182.27 277.722 180.61 278.783C178.954 279.845 176.751 279.363 175.687 277.707C174.628 276.051 175.109 273.846 176.764 272.784ZM168.578 260.01C169.911 259.157 171.687 259.543 172.545 260.878C173.402 262.213 173.012 263.986 171.677 264.843C170.343 265.699 168.568 265.31 167.71 263.975C166.857 262.641 167.243 260.867 168.578 260.01ZM160.395 247.238C161.407 246.59 162.746 246.885 163.398 247.895C164.046 248.905 163.749 250.25 162.737 250.898C161.729 251.547 160.386 251.251 159.734 250.241C159.086 249.232 159.383 247.886 160.395 247.238ZM152.207 234.468C152.893 234.026 153.813 234.228 154.25 234.914C154.692 235.603 154.49 236.519 153.804 236.961C153.118 237.402 152.198 237.2 151.761 236.513C151.319 235.825 151.517 234.907 152.207 234.468ZM144.02 221.694C144.388 221.462 144.872 221.567 145.104 221.932C145.339 222.298 145.232 222.784 144.868 223.017C144.5 223.249 144.016 223.145 143.781 222.778C143.549 222.413 143.656 221.927 144.02 221.694ZM185.009 285.651C186.205 284.885 187.793 285.232 188.559 286.429C189.326 287.626 188.978 289.215 187.781 289.981C186.585 290.748 184.997 290.401 184.231 289.204C183.464 288.007 183.812 286.417 185.009 285.651ZM193.251 298.51C193.985 298.035 194.968 298.252 195.442 298.991C195.912 299.727 195.698 300.711 194.961 301.181C194.223 301.652 193.24 301.437 192.77 300.7C192.296 299.962 192.514 298.98 193.251 298.51Z" fill="url(#paint6_linear_277_1404)" fill-opacity="0.3"/>
<path d="M169.302 289.342C170.227 291.078 172.387 291.732 174.122 290.804C175.857 289.876 176.512 287.718 175.583 285.981C174.658 284.246 172.498 283.592 170.763 284.52C169.028 285.448 168.373 287.606 169.302 289.342ZM163.58 271.081C165.011 270.315 166.788 270.854 167.557 272.286C168.322 273.717 167.78 275.496 166.35 276.262C164.919 277.028 163.142 276.488 162.373 275.057C161.608 273.626 162.149 271.847 163.58 271.081ZM156.393 257.644C157.519 257.043 158.918 257.465 159.522 258.593C160.122 259.718 159.699 261.118 158.573 261.72C157.447 262.321 156.044 261.897 155.444 260.771C154.844 259.645 155.267 258.245 156.393 257.644ZM149.207 244.205C150.028 243.765 151.047 244.076 151.484 244.895C151.921 245.713 151.614 246.737 150.793 247.173C149.976 247.611 148.953 247.302 148.516 246.483C148.079 245.665 148.39 244.642 149.207 244.205ZM142.02 230.765C142.533 230.49 143.177 230.685 143.454 231.199C143.73 231.713 143.534 232.354 143.021 232.632C142.507 232.91 141.863 232.711 141.587 232.198C141.31 231.684 141.507 231.043 142.02 230.765ZM177.895 297.855C178.991 297.268 180.358 297.683 180.946 298.781C181.533 299.878 181.116 301.244 180.02 301.832C178.924 302.418 177.557 302.003 176.969 300.906C176.382 299.808 176.799 298.442 177.895 297.855ZM185.021 311.184C185.487 310.937 186.061 311.112 186.31 311.574C186.56 312.036 186.382 312.614 185.921 312.862C185.459 313.11 184.881 312.934 184.631 312.472C184.386 312.011 184.559 311.432 185.021 311.184ZM159.76 281.352C161.495 280.424 163.651 281.077 164.58 282.813C165.509 284.549 164.854 286.708 163.119 287.636C161.384 288.564 159.224 287.909 158.295 286.173C157.37 284.438 158.021 282.278 159.76 281.352ZM152.606 267.973C154.002 267.226 155.744 267.753 156.489 269.149C157.235 270.545 156.709 272.286 155.314 273.032C153.919 273.779 152.176 273.252 151.431 271.856C150.686 270.461 151.211 268.719 152.606 267.973ZM145.453 254.595C146.513 254.027 147.829 254.427 148.394 255.487C148.963 256.547 148.56 257.864 147.5 258.428C146.441 258.993 145.124 258.595 144.559 257.536C143.995 256.476 144.393 255.158 145.453 254.595ZM138.299 241.216C139.019 240.831 139.914 241.102 140.299 241.822C140.688 242.543 140.415 243.44 139.695 243.825C138.975 244.211 138.076 243.938 137.691 243.219C137.306 242.499 137.579 241.601 138.299 241.216ZM131.145 227.837C131.53 227.634 132.003 227.777 132.212 228.161C132.417 228.544 132.27 229.018 131.889 229.225C131.503 229.431 131.031 229.285 130.823 228.901C130.618 228.519 130.764 228.044 131.145 227.837ZM166.965 294.829C168.214 294.158 169.772 294.631 170.442 295.882C171.115 297.134 170.64 298.692 169.387 299.362C168.138 300.032 166.58 299.559 165.911 298.308C165.241 297.057 165.712 295.498 166.965 294.829ZM174.168 308.297C174.939 307.885 175.901 308.175 176.317 308.948C176.729 309.719 176.437 310.68 175.665 311.095C174.894 311.51 173.933 311.217 173.517 310.445C173.101 309.672 173.396 308.712 174.168 308.297Z" fill="url(#paint7_linear_277_1404)" fill-opacity="0.3"/>
<path d="M151.045 297.77C151.815 299.58 153.911 300.422 155.723 299.648C157.535 298.874 158.375 296.782 157.601 294.971C156.826 293.16 154.735 292.318 152.922 293.092C151.114 293.867 150.27 295.958 151.045 297.77ZM146.944 279.077C148.437 278.441 150.164 279.134 150.8 280.625C151.436 282.117 150.744 283.843 149.251 284.478C147.76 285.115 146.033 284.422 145.398 282.931C144.762 281.439 145.454 279.713 146.944 279.077ZM140.965 265.062C142.141 264.562 143.495 265.107 143.995 266.281C144.496 267.456 143.953 268.815 142.776 269.314C141.604 269.815 140.246 269.269 139.746 268.095C139.245 266.92 139.788 265.562 140.965 265.062ZM134.983 251.043C135.837 250.679 136.827 251.075 137.196 251.933C137.561 252.791 137.164 253.778 136.304 254.144C135.448 254.512 134.46 254.113 134.095 253.255C133.729 252.397 134.127 251.411 134.983 251.043ZM129.004 237.028C129.545 236.801 130.165 237.049 130.392 237.587C130.622 238.126 130.373 238.746 129.835 238.975C129.294 239.203 128.674 238.954 128.448 238.416C128.217 237.877 128.467 237.257 129.004 237.028ZM158.86 307.004C160.007 306.516 161.326 307.047 161.814 308.193C162.302 309.338 161.774 310.662 160.626 311.15C159.479 311.637 158.16 311.107 157.672 309.961C157.18 308.814 157.712 307.492 158.86 307.004ZM164.792 320.904C165.276 320.697 165.835 320.922 166.043 321.406C166.248 321.889 166.025 322.448 165.542 322.655C165.058 322.862 164.499 322.637 164.29 322.153C164.085 321.67 164.308 321.111 164.792 320.904ZM142.242 288.973C144.054 288.202 146.145 289.044 146.92 290.852C147.696 292.661 146.851 294.755 145.043 295.53C143.231 296.301 141.14 295.46 140.365 293.651C139.59 291.843 140.434 289.748 142.242 288.973ZM136.288 275.019C137.744 274.397 139.428 275.075 140.053 276.532C140.674 277.989 139.994 279.674 138.539 280.296C137.083 280.918 135.398 280.24 134.773 278.783C134.153 277.326 134.832 275.641 136.288 275.019ZM130.338 261.065C131.442 260.593 132.72 261.107 133.19 262.21C133.661 263.315 133.146 264.591 132.042 265.063C130.942 265.535 129.661 265.02 129.19 263.918C128.72 262.812 129.234 261.536 130.338 261.065ZM124.383 247.113C125.131 246.79 126.002 247.141 126.322 247.892C126.647 248.644 126.297 249.515 125.544 249.836C124.792 250.157 123.921 249.806 123.601 249.056C123.28 248.304 123.63 247.434 124.383 247.113ZM118.425 233.157C118.824 232.988 119.289 233.173 119.455 233.572C119.625 233.973 119.44 234.433 119.04 234.602C118.64 234.771 118.18 234.587 118.01 234.187C117.844 233.788 118.024 233.326 118.425 233.157ZM148.239 303.029C149.543 302.471 151.053 303.078 151.612 304.386C152.167 305.692 151.561 307.202 150.253 307.759C148.948 308.317 147.438 307.71 146.879 306.403C146.325 305.096 146.93 303.586 148.239 303.029ZM154.233 317.077C155.039 316.734 155.971 317.108 156.314 317.912C156.657 318.715 156.284 319.65 155.478 319.993C154.676 320.336 153.741 319.961 153.398 319.157C153.054 318.354 153.428 317.419 154.233 317.077Z" fill="url(#paint8_linear_277_1404)" fill-opacity="0.3"/>
<path d="M133.071 304.636C133.754 306.482 135.807 307.421 137.652 306.739C139.493 306.055 140.435 304.002 139.752 302.158C139.072 300.315 137.015 299.372 135.174 300.056C133.33 300.738 132.387 302.792 133.071 304.636ZM129.87 285.766C131.39 285.202 133.083 285.978 133.647 287.498C134.21 289.017 133.435 290.71 131.915 291.274C130.396 291.838 128.702 291.061 128.139 289.542C127.576 288.023 128.351 286.33 129.87 285.766ZM124.569 271.48C125.767 271.037 127.097 271.645 127.54 272.843C127.986 274.041 127.376 275.369 126.177 275.814C124.979 276.26 123.653 275.65 123.207 274.451C122.76 273.252 123.371 271.925 124.569 271.48ZM119.268 257.193C120.141 256.869 121.111 257.314 121.434 258.185C121.761 259.058 121.313 260.026 120.441 260.349C119.572 260.674 118.602 260.23 118.279 259.358C117.952 258.486 118.4 257.518 119.268 257.193ZM113.967 242.906C114.513 242.704 115.124 242.983 115.327 243.53C115.529 244.078 115.253 244.689 114.702 244.89C114.156 245.093 113.545 244.814 113.343 244.267C113.14 243.719 113.42 243.11 113.967 242.906ZM140.432 314.233C141.597 313.799 142.897 314.396 143.327 315.563C143.758 316.729 143.164 318.028 141.996 318.459C140.831 318.892 139.531 318.295 139.1 317.129C138.67 315.962 139.263 314.663 140.432 314.233ZM145.691 328.402C146.18 328.22 146.732 328.47 146.912 328.963C147.093 329.455 146.844 330.004 146.35 330.185C145.857 330.367 145.31 330.117 145.129 329.624C144.949 329.132 145.198 328.584 145.691 328.402ZM124.695 295.424C126.545 294.74 128.593 295.681 129.276 297.527C129.959 299.374 129.021 301.425 127.172 302.107C125.328 302.79 123.278 301.852 122.595 300.005C121.908 298.158 122.85 296.107 124.695 295.424ZM119.422 281.202C120.904 280.648 122.556 281.408 123.108 282.893C123.66 284.378 122.902 286.03 121.415 286.582C119.933 287.136 118.282 286.376 117.729 284.891C117.177 283.406 117.935 281.754 119.422 281.202ZM114.144 266.979C115.27 266.561 116.518 267.134 116.939 268.262C117.36 269.389 116.781 270.638 115.654 271.057C114.527 271.477 113.281 270.902 112.86 269.774C112.439 268.647 113.017 267.398 114.144 266.979ZM108.867 252.755C109.63 252.469 110.484 252.862 110.77 253.628C111.053 254.392 110.661 255.245 109.898 255.531C109.131 255.814 108.277 255.423 107.995 254.658C107.709 253.892 108.1 253.039 108.867 252.755ZM103.59 238.531C103.997 238.38 104.446 238.588 104.597 238.995C104.752 239.403 104.54 239.853 104.133 240.004C103.725 240.156 103.276 239.948 103.126 239.541C102.975 239.134 103.182 238.683 103.59 238.531ZM130.013 309.754C131.345 309.26 132.821 309.939 133.317 311.27C133.809 312.6 133.132 314.08 131.8 314.573C130.471 315.068 128.992 314.388 128.496 313.057C128.003 311.727 128.685 310.249 130.013 309.754ZM135.326 324.072C136.146 323.766 137.06 324.187 137.364 325.007C137.672 325.828 137.253 326.743 136.429 327.048C135.605 327.353 134.695 326.935 134.391 326.113C134.084 325.29 134.502 324.377 135.326 324.072Z" fill="url(#paint9_linear_277_1404)" fill-opacity="0.3"/>
<path d="M113.546 310.437C114.041 312.341 115.989 313.479 117.897 312.983C119.801 312.486 120.938 310.538 120.443 308.634C119.944 306.728 117.997 305.59 116.092 306.087C114.188 306.584 113.047 308.531 113.546 310.437ZM112.232 291.344C113.803 290.935 115.41 291.873 115.818 293.442C116.229 295.012 115.289 296.617 113.722 297.027C112.151 297.436 110.548 296.5 110.136 294.929C109.728 293.36 110.664 291.755 112.232 291.344ZM108.376 276.6C109.61 276.278 110.871 277.017 111.196 278.252C111.517 279.485 110.777 280.747 109.543 281.07C108.309 281.393 107.047 280.654 106.726 279.42C106.401 278.186 107.141 276.923 108.376 276.6ZM104.519 261.859C105.416 261.623 106.337 262.161 106.571 263.06C106.805 263.959 106.268 264.882 105.368 265.114C104.467 265.348 103.546 264.811 103.313 263.91C103.08 263.008 103.615 262.088 104.516 261.855L104.519 261.859ZM100.662 247.117C101.227 246.968 101.807 247.307 101.953 247.872C102.103 248.438 101.764 249.016 101.2 249.165C100.631 249.313 100.055 248.975 99.9048 248.409C99.7587 247.844 100.094 247.265 100.662 247.117ZM119.919 320.717C121.12 320.403 122.353 321.124 122.671 322.327C122.984 323.53 122.261 324.763 121.059 325.077C119.857 325.391 118.624 324.671 118.311 323.468C117.994 322.264 118.717 321.032 119.919 320.717ZM123.743 335.339C124.252 335.207 124.773 335.513 124.903 336.018C125.037 336.525 124.732 337.047 124.227 337.18C123.719 337.313 123.197 337.007 123.063 336.5C122.933 335.995 123.239 335.473 123.743 335.339ZM106.125 300.441C108.034 299.945 109.981 301.083 110.476 302.988C110.975 304.893 109.834 306.84 107.93 307.337C106.025 307.835 104.078 306.696 103.579 304.791C103.084 302.886 104.221 300.938 106.125 300.441ZM102.287 285.766C103.818 285.364 105.388 286.282 105.79 287.815C106.191 289.348 105.271 290.914 103.74 291.316C102.205 291.717 100.639 290.8 100.238 289.267C99.8359 287.734 100.753 286.166 102.287 285.766ZM98.4451 271.089C99.6094 270.786 100.795 271.48 101.099 272.641C101.404 273.801 100.707 274.992 99.5465 275.294C98.3862 275.598 97.1967 274.903 96.8923 273.742C96.5918 272.583 97.285 271.392 98.4451 271.089ZM94.6072 256.412C95.3978 256.205 96.2057 256.68 96.4124 257.47C96.6188 258.26 96.1467 259.069 95.356 259.277C94.5655 259.483 93.7574 259.009 93.5509 258.218C93.3444 257.428 93.8165 256.62 94.6072 256.412ZM90.7658 241.733C91.19 241.626 91.6144 241.873 91.7267 242.295C91.8351 242.716 91.5836 243.143 91.1632 243.252C90.743 243.36 90.3147 243.112 90.2063 242.691C90.0979 242.27 90.3455 241.842 90.7658 241.733ZM109.995 315.226C111.368 314.866 112.775 315.689 113.135 317.062C113.495 318.435 112.674 319.84 111.297 320.199C109.924 320.559 108.521 319.737 108.161 318.364C107.801 316.991 108.622 315.586 109.995 315.226ZM113.859 330.001C114.709 329.78 115.575 330.289 115.798 331.136C116.022 331.984 115.511 332.851 114.664 333.073C113.814 333.295 112.948 332.786 112.725 331.938C112.501 331.091 113.012 330.224 113.859 330.001Z" fill="url(#paint10_linear_277_1404)" fill-opacity="0.3"/>
<path d="M94.5796 314.198C94.9828 316.125 96.8659 317.364 98.7963 316.964C100.723 316.563 101.96 314.679 101.558 312.749C101.159 310.824 99.2757 309.585 97.3452 309.985C95.4188 310.385 94.1812 312.27 94.5796 314.198ZM94.2533 295.065C95.8434 294.735 97.3959 295.754 97.7255 297.343C98.0591 298.933 97.0358 300.486 95.4497 300.817C93.8596 301.147 92.3072 300.128 91.9736 298.538C91.6439 296.949 92.6634 295.394 94.2533 295.065ZM91.1574 280.144C92.4069 279.884 93.6281 280.687 93.8887 281.937C94.1455 283.185 93.3443 284.41 92.0955 284.668C90.846 284.928 89.6208 284.124 89.3641 282.875C89.1073 281.626 89.9086 280.402 91.1574 280.144ZM88.0615 265.224C88.9746 265.034 89.8643 265.62 90.0523 266.529C90.2402 267.439 89.6571 268.334 88.7448 268.52C87.8366 268.708 86.9419 268.124 86.754 267.214C86.5699 266.306 87.1531 265.411 88.0615 265.224ZM84.9663 250.301C85.5391 250.181 86.0973 250.55 86.2159 251.122C86.3383 251.695 85.9667 252.253 85.394 252.373C84.8251 252.494 84.263 252.123 84.1444 251.552C84.0259 250.98 84.3936 250.42 84.9663 250.301ZM100.419 324.795C101.637 324.541 102.829 325.325 103.082 326.543C103.336 327.761 102.553 328.953 101.335 329.208C100.117 329.462 98.9241 328.677 98.6708 327.46C98.4136 326.241 99.2007 325.049 100.419 324.795ZM103.487 339.593C104.005 339.487 104.506 339.819 104.613 340.331C104.723 340.844 104.389 341.35 103.875 341.457C103.366 341.566 102.856 341.232 102.75 340.719C102.643 340.207 102.974 339.701 103.487 339.593ZM87.6899 303.838C89.6163 303.438 91.5034 304.677 91.9026 306.603C92.3018 308.528 91.0636 310.416 89.1371 310.817C87.2107 311.217 85.3236 309.977 84.9244 308.052C84.5212 306.125 85.7634 304.239 87.6899 303.838ZM84.6044 288.982C86.1578 288.661 87.6742 289.658 87.9986 291.208C88.318 292.759 87.3225 294.277 85.7733 294.599C84.2199 294.921 82.7034 293.923 82.3792 292.373C82.0596 290.822 83.0551 289.304 84.6044 288.982ZM81.527 274.128C82.6994 273.884 83.8534 274.64 84.098 275.816C84.3385 276.99 83.5842 278.144 82.4079 278.387C81.2316 278.63 80.0817 277.874 79.8371 276.699C79.5926 275.523 80.3507 274.371 81.527 274.128ZM78.441 259.274C79.2442 259.11 80.0282 259.622 80.1931 260.424C80.3578 261.225 79.8427 262.007 79.0433 262.172C78.2401 262.336 77.4599 261.825 77.2951 261.024C77.1302 260.222 77.6415 259.439 78.441 259.274ZM75.3635 244.42C75.7865 244.33 76.2032 244.604 76.2932 245.029C76.3792 245.453 76.1059 245.868 75.6829 245.958C75.256 246.046 74.8432 245.774 74.7531 245.349C74.6632 244.923 74.9365 244.508 75.3635 244.42ZM90.7904 318.8C92.1807 318.511 93.5406 319.405 93.8314 320.797C94.1182 322.187 93.2253 323.547 91.8349 323.836C90.4446 324.125 89.0847 323.231 88.7939 321.84C88.5071 320.45 89.4 319.09 90.7904 318.8ZM93.8932 333.755C94.7516 333.577 95.5925 334.127 95.7703 334.985C95.952 335.844 95.3986 336.682 94.5396 336.862C93.6843 337.043 92.8443 336.49 92.6665 335.632C92.4847 334.773 93.038 333.936 93.8932 333.755Z" fill="url(#paint11_linear_277_1404)" fill-opacity="0.3"/>
<path d="M74.1385 316.172C74.3319 318.13 76.0719 319.562 78.0337 319.371C79.9914 319.179 81.4247 317.437 81.2321 315.476C81.0435 313.516 79.2988 312.085 77.3409 312.278C75.3792 312.468 73.9499 314.211 74.1385 316.172ZM75.8533 297.108C77.4725 296.951 78.9085 298.132 79.0641 299.747C79.2237 301.363 78.0436 302.8 76.4282 302.959C74.8129 303.117 73.3731 301.934 73.2175 300.319C73.0578 298.704 74.238 297.267 75.8533 297.108ZM74.3727 281.944C75.6416 281.819 76.7733 282.749 76.8959 284.019C77.0145 285.288 76.0877 286.42 74.8197 286.542C73.5477 286.664 72.4191 285.737 72.2966 284.467C72.174 283.197 73.1008 282.065 74.3727 281.944ZM72.8883 266.779C73.8147 266.687 74.639 267.364 74.7278 268.291C74.8128 269.217 74.14 270.041 73.2144 270.13C72.2887 270.219 71.4637 269.545 71.3748 268.617C71.2859 267.69 71.9587 266.866 72.8883 266.779ZM71.4048 251.61C71.9886 251.552 72.5047 251.977 72.5607 252.559C72.6167 253.14 72.193 253.659 71.61 253.714C71.0309 253.77 70.51 253.346 70.458 252.766C70.4021 252.184 70.8256 251.666 71.4048 251.61ZM78.8131 327.328C80.0511 327.206 81.1519 328.111 81.2751 329.351C81.3983 330.59 80.489 331.692 79.2511 331.814C78.013 331.936 76.9083 331.029 76.789 329.791C76.6659 328.551 77.5751 327.45 78.8131 327.328ZM80.2835 342.369C80.8059 342.318 81.2709 342.7 81.3231 343.223C81.3754 343.746 80.993 344.212 80.4667 344.262C79.9443 344.313 79.4794 343.931 79.4272 343.408C79.3789 342.886 79.7611 342.42 80.2835 342.369ZM68.3901 305.13C70.3478 304.938 72.0958 306.372 72.2853 308.329C72.4786 310.288 71.0446 312.032 69.0868 312.224C67.1291 312.416 65.385 310.983 65.1917 309.025C64.9983 307.066 66.4324 305.322 68.3901 305.13ZM66.9111 290.031C68.4872 289.876 69.8928 291.03 70.0465 292.609C70.2 294.189 69.0473 295.591 67.4679 295.743C65.8924 295.896 64.4861 294.744 64.3364 293.167C64.1829 291.587 65.3356 290.185 66.9111 290.031ZM65.4361 274.934C66.63 274.817 67.6979 275.691 67.8127 276.887C67.9314 278.084 67.0591 279.148 65.8613 279.264C64.6674 279.38 63.5996 278.507 63.4848 277.31C63.3692 276.117 64.2422 275.051 65.4361 274.934ZM63.9619 259.834C64.7742 259.753 65.4988 260.35 65.5794 261.163C65.6601 261.975 65.0635 262.701 64.2512 262.781C63.4391 262.861 62.7104 262.264 62.6298 261.451C62.553 260.641 63.1496 259.914 63.9619 259.834ZM62.4828 244.736C62.9129 244.694 63.2997 245.01 63.3414 245.44C63.3792 245.869 63.0671 246.257 62.6371 246.298C62.2073 246.339 61.8204 246.023 61.7786 245.594C61.7369 245.164 62.0529 244.777 62.4828 244.736ZM69.8822 320.341C71.292 320.2 72.5501 321.235 72.6893 322.649C72.8245 324.062 71.7918 325.319 70.3789 325.456C68.966 325.593 67.7071 324.561 67.5718 323.148C67.4366 321.736 68.4653 320.477 69.8822 320.341ZM71.3694 335.54C72.2384 335.456 73.0149 336.092 73.1034 336.964C73.188 337.834 72.5506 338.611 71.6769 338.697C70.8071 338.785 70.0314 338.145 69.9429 337.274C69.8583 336.403 70.4956 335.627 71.3694 335.54Z" fill="url(#paint12_linear_277_1404)" fill-opacity="0.3"/>
<path d="M53.5828 316.038C53.5644 318.006 55.1395 319.619 57.1101 319.64C59.0767 319.661 60.6909 318.083 60.7093 316.114C60.7316 314.147 59.1524 312.534 57.1859 312.513C55.2193 312.493 53.6051 314.07 53.5828 316.038ZM57.3423 297.274C58.9646 297.292 60.2669 298.621 60.25 300.242C60.237 301.866 58.9061 303.166 57.2832 303.151C55.6602 303.135 54.3586 301.804 54.3756 300.182C54.3924 298.56 55.7233 297.26 57.3423 297.274ZM57.5029 282.036C58.7815 282.049 59.8023 283.094 59.7907 284.371C59.7792 285.648 58.7357 286.671 57.4571 286.658C56.1824 286.646 55.1577 285.6 55.1693 284.324C55.1848 283.048 56.2282 282.025 57.5029 282.036ZM57.6673 266.8C58.5977 266.809 59.3409 267.571 59.3307 268.502C59.3244 269.434 58.5604 270.178 57.6301 270.169C56.6998 270.16 55.9526 269.396 55.9628 268.466C55.973 267.535 56.7331 266.789 57.6673 266.8ZM57.8246 251.559C58.4106 251.565 58.877 252.042 58.872 252.628C58.8632 253.213 58.3866 253.68 57.8007 253.674C57.2147 253.667 56.7482 253.19 56.7572 252.605C56.7621 252.019 57.2386 251.552 57.8246 251.559ZM57.0223 327.633C58.2709 327.646 59.2649 328.667 59.2547 329.911C59.2405 331.153 58.2212 332.153 56.9767 332.14C55.7322 332.127 54.734 331.106 54.7482 329.864C54.7583 328.62 55.7817 327.621 57.0223 327.633ZM56.8652 342.746C57.392 342.75 57.8122 343.183 57.8086 343.707C57.8049 344.232 57.3717 344.654 56.8489 344.65C56.3223 344.644 55.9019 344.213 55.9055 343.688C55.909 343.164 56.3424 342.741 56.8652 342.746ZM49.0604 304.444C51.027 304.465 52.6062 306.078 52.5839 308.045C52.5654 310.014 50.9512 311.592 48.9846 311.571C47.0142 311.55 45.4389 309.937 45.4573 307.969C45.4796 306.002 47.0939 304.424 49.0604 304.444ZM49.2181 289.273C50.806 289.292 52.075 290.589 52.061 292.173C52.0432 293.755 50.7421 295.027 49.1615 295.012C47.5769 294.997 46.3047 293.696 46.3185 292.113C46.3374 290.527 47.6374 289.258 49.2181 289.273ZM49.3797 274.103C50.5778 274.114 51.5437 275.1 51.5302 276.298C51.5166 277.496 50.5328 278.463 49.335 278.45C48.137 278.439 47.1708 277.453 47.1805 276.254C47.1942 275.055 48.1818 274.09 49.3797 274.103ZM49.5366 258.934C50.3559 258.944 51.0118 259.613 51.0017 260.43C50.9916 261.246 50.322 261.903 49.5067 261.894C48.6875 261.884 48.0316 261.214 48.0416 260.398C48.0517 259.582 48.7212 258.925 49.5366 258.934ZM49.6982 243.764C50.1318 243.767 50.4806 244.124 50.4708 244.556C50.4651 244.988 50.1128 245.339 49.6802 245.332C49.2475 245.326 48.8977 244.971 48.9036 244.539C48.9094 244.107 49.2656 243.757 49.6982 243.764ZM48.9001 319.724C50.3188 319.739 51.4578 320.901 51.4415 322.322C51.429 323.744 50.2663 324.881 48.8434 324.866C47.4206 324.851 46.2857 323.689 46.2982 322.267C46.3145 320.846 47.4772 319.709 48.9001 319.724ZM48.7381 334.995C49.6134 335.003 50.3147 335.721 50.3075 336.599C50.3001 337.477 49.5832 338.178 48.7039 338.169C47.8245 338.161 47.1233 337.443 47.1346 336.566C47.1419 335.687 47.8588 334.986 48.7381 334.995Z" fill="url(#paint13_linear_277_1404)" fill-opacity="0.3"/>
<path d="M32.7894 313.362C32.5209 315.312 33.8829 317.11 35.8342 317.381C37.7815 317.651 39.5827 316.288 39.8513 314.338C40.1238 312.389 38.7578 310.59 36.8104 310.32C34.8593 310.049 33.0619 311.413 32.7894 313.362ZM38.9006 295.226C40.5043 295.448 41.6284 296.931 41.4031 298.538C41.1816 300.145 39.6996 301.268 38.092 301.044C36.4845 300.821 35.3644 299.339 35.5857 297.731C35.811 296.125 37.2931 295.003 38.9006 295.226ZM40.9868 280.131C42.2547 280.308 43.137 281.474 42.9588 282.738C42.7845 284.003 41.6171 284.886 40.3531 284.71C39.0893 284.534 38.207 283.368 38.3813 282.103C38.5556 280.837 39.723 279.955 40.9868 280.131ZM43.0771 265.037C44.0013 265.166 44.6418 266.015 44.5154 266.936C44.3852 267.855 43.5354 268.501 42.6154 268.373C41.695 268.244 41.0506 267.394 41.1808 266.475C41.3072 265.555 42.157 264.908 43.0771 265.037ZM45.168 249.94C45.7486 250.022 46.1479 250.553 46.072 251.134C45.9923 251.713 45.4585 252.115 44.8772 252.036C44.2958 251.957 43.8974 251.424 43.9732 250.843C44.0531 250.263 44.5866 249.861 45.168 249.94ZM34.7371 325.301C35.9686 325.472 36.8297 326.608 36.6603 327.843C36.487 329.077 35.3517 329.937 34.1163 329.766C32.8847 329.596 32.0237 328.458 32.1931 327.224C32.3664 325.99 33.5017 325.13 34.7371 325.301ZM32.6662 340.274C33.19 340.346 33.5531 340.827 33.4779 341.348C33.4027 341.87 32.9271 342.235 32.4041 342.16C31.8811 342.085 31.5173 341.607 31.5925 341.085C31.6677 340.564 32.1472 340.2 32.6662 340.274ZM29.7746 301.288C31.7218 301.558 33.0837 303.356 32.8153 305.306C32.5467 307.256 30.7462 308.616 28.7982 308.349C26.8469 308.078 25.4851 306.28 25.7535 304.33C26.0259 302.381 27.8225 301.019 29.7746 301.288ZM31.8535 286.26C33.4203 286.477 34.5167 287.924 34.3019 289.495C34.0838 291.064 32.6389 292.161 31.0673 291.946C29.4966 291.727 28.4001 290.281 28.615 288.709C28.8298 287.137 30.2817 286.045 31.8535 286.26ZM33.9317 271.234C35.1221 271.399 35.9483 272.497 35.7877 273.688C35.6272 274.879 34.5229 275.706 33.3356 275.545C32.1451 275.38 31.315 274.282 31.4756 273.091C31.64 271.901 32.7404 271.072 33.9317 271.234ZM36.0107 256.206C36.8208 256.318 37.3895 257.065 37.2752 257.874C37.1649 258.684 36.4157 259.251 35.6097 259.139C34.7996 259.027 34.2309 258.28 34.3452 257.471C34.4555 256.661 35.2047 256.094 36.0107 256.206ZM38.0897 241.178C38.5233 241.238 38.8226 241.633 38.7618 242.064C38.7051 242.495 38.3085 242.795 37.8788 242.736C37.4451 242.676 37.1459 242.281 37.2066 241.85C37.2634 241.419 37.66 241.118 38.0897 241.178ZM27.6756 316.425C29.0829 316.62 30.0658 317.92 29.875 319.326C29.6801 320.731 28.3806 321.713 26.9725 321.521C25.5684 321.329 24.5862 320.027 24.7771 318.621C24.968 317.215 26.2715 316.234 27.6756 316.425ZM25.5839 331.553C26.4514 331.672 27.059 332.475 26.9398 333.343C26.8167 334.209 26.0168 334.818 25.15 334.696C24.2832 334.574 23.6749 333.774 23.798 332.907C23.9172 332.039 24.7172 331.431 25.5839 331.553Z" fill="url(#paint14_linear_277_1404)" fill-opacity="0.3"/>
<path d="M12.1164 308.852C11.5833 310.746 12.6854 312.715 14.5792 313.249C16.4728 313.784 18.4434 312.681 18.9764 310.786C19.5094 308.892 18.4073 306.924 16.5136 306.389C14.6199 305.855 12.6494 306.957 12.1164 308.852ZM20.6495 291.72C22.2092 292.16 23.1208 293.784 22.6832 295.345C22.2417 296.905 20.6184 297.816 19.0585 297.376C17.4988 296.936 16.5872 295.313 17.0248 293.751C17.4664 292.191 19.0897 291.28 20.6495 291.72ZM24.7851 277.052C26.011 277.398 26.7278 278.675 26.3818 279.902C26.0356 281.13 24.7565 281.844 23.5306 281.499C22.3048 281.153 21.5879 279.876 21.9339 278.649C22.2801 277.421 23.5555 276.705 24.7851 277.052ZM28.9161 262.385C29.8121 262.638 30.3344 263.568 30.0837 264.463C29.8291 265.356 28.901 265.88 28.0011 265.627C27.1051 265.375 26.5869 264.444 26.8383 263.548C27.0896 262.651 28.0209 262.131 28.9169 262.383L28.9161 262.385ZM33.0518 247.717C33.6138 247.875 33.9375 248.459 33.7815 249.023C33.6216 249.585 33.0383 249.911 32.4764 249.753C31.9143 249.595 31.5867 249.01 31.7466 248.448C31.9026 247.884 32.4859 247.558 33.0518 247.717ZM12.4122 320.943C13.6103 321.282 14.3111 322.527 13.9701 323.723C13.6328 324.921 12.3883 325.62 11.1902 325.281C9.99219 324.942 9.29518 323.698 9.63244 322.5C9.9735 321.304 11.218 320.605 12.4122 320.943ZM8.31297 335.489C8.81583 335.631 9.11388 336.159 8.97104 336.664C8.82819 337.17 8.3008 337.466 7.79403 337.323C7.29118 337.18 6.99301 336.654 7.13585 336.148C7.27869 335.642 7.80621 335.346 8.31297 335.489ZM10.781 296.476C12.6747 297.01 13.7768 298.979 13.2437 300.873C12.7069 302.766 10.7403 303.87 8.84649 303.336C6.95285 302.802 5.84679 300.832 6.38379 298.939C6.91675 297.044 8.88728 295.942 10.781 296.476ZM14.8963 281.876C16.421 282.305 17.3098 283.89 16.879 285.415C16.4481 286.939 14.8653 287.829 13.3407 287.399C11.816 286.97 10.9272 285.385 11.3541 283.859C11.785 282.335 13.3677 281.445 14.8963 281.876ZM19.0086 267.271C20.1673 267.6 20.839 268.8 20.5141 269.957C20.1852 271.112 18.9823 271.785 17.8274 271.459C16.6726 271.132 15.9971 269.93 16.3259 268.775C16.6509 267.618 17.8537 266.945 19.0086 267.271ZM23.1239 252.671C23.9097 252.893 24.3678 253.711 24.1491 254.498C23.9304 255.286 23.1082 255.741 22.3216 255.522C21.5351 255.303 21.0775 254.483 21.2962 253.695C21.5189 252.909 22.3373 252.452 23.1239 252.671ZM27.2402 238.068C27.6609 238.185 27.9019 238.618 27.7852 239.037C27.6684 239.455 27.234 239.697 26.8173 239.58C26.3966 239.462 26.1556 239.029 26.2723 238.611C26.3891 238.192 26.8234 237.951 27.2402 238.068ZM6.63294 311.186C8.00062 311.57 8.79348 312.992 8.40991 314.358C8.02622 315.725 6.60404 316.519 5.23636 316.135C3.8688 315.75 3.07578 314.329 3.45946 312.962C3.84303 311.595 5.26538 310.801 6.63294 311.186ZM2.49234 325.885C3.33726 326.122 3.82526 326.997 3.58531 327.841C3.34523 328.686 2.47378 329.177 1.62956 328.937C0.785344 328.697 0.292555 327.824 0.532629 326.98C0.772703 326.135 1.64813 325.645 2.49234 325.885Z" fill="url(#paint15_linear_277_1404)" fill-opacity="0.3"/>
<path d="M-6.4891 303.086C-7.13144 304.947 -6.14969 306.976 -4.28871 307.62C-2.42773 308.264 -0.394884 307.28 0.247571 305.419C0.889905 303.558 -0.0918137 301.528 -1.9528 300.885C-3.81378 300.241 -5.84665 301.225 -6.4891 303.086ZM3.03172 286.484C4.56431 287.015 5.37546 288.689 4.84851 290.221C4.31752 291.753 2.64289 292.565 1.11018 292.034C-0.422526 291.504 -1.23368 289.83 -0.702808 288.298C-0.171825 286.767 1.50293 285.954 3.03172 286.484ZM8.02004 272.084C9.22459 272.501 9.86587 273.817 9.44886 275.025C9.03174 276.234 7.71612 276.871 6.50743 276.454C5.29885 276.036 4.66162 274.72 5.07863 273.512C5.49576 272.304 6.81147 271.667 8.02004 272.084ZM13.0077 257.687C13.8841 257.99 14.3507 258.951 14.0452 259.829C13.7434 260.709 12.7819 261.174 11.9055 260.87C11.0253 260.566 10.5587 259.605 10.8642 258.727C11.1698 257.849 12.1274 257.383 13.0077 257.687ZM17.9921 243.286C18.5442 243.477 18.8411 244.079 18.6461 244.631C18.4511 245.183 17.852 245.477 17.3005 245.283C16.7492 245.09 16.4555 244.491 16.6505 243.939C16.8416 243.386 17.4408 243.093 17.9921 243.286ZM-6.90339 315.173C-5.72586 315.58 -5.10461 316.864 -5.51178 318.039C-5.91896 319.214 -7.20075 319.838 -8.37828 319.43C-9.55201 319.024 -10.1733 317.741 -9.77 316.564C-9.36283 315.389 -8.07712 314.767 -6.90339 315.173ZM-11.8487 329.457C-11.3508 329.63 -11.0907 330.17 -11.2611 330.668C-11.4315 331.166 -11.9743 331.428 -12.4729 331.257C-12.9715 331.087 -13.2308 330.544 -13.0604 330.046C-12.89 329.548 -12.3472 329.286 -11.8487 329.457ZM-7.10024 290.654C-5.23914 291.297 -4.25351 293.327 -4.89596 295.189C-5.53841 297.05 -7.57126 298.034 -9.43224 297.39C-11.2932 296.746 -12.2765 294.717 -11.6329 292.856C-10.9893 290.995 -8.96123 290.01 -7.10024 290.654ZM-2.13562 276.319C-0.637991 276.839 0.155391 278.472 -0.364823 279.968C-0.881244 281.465 -2.51676 282.26 -4.01439 281.741C-5.50811 281.222 -6.3046 279.588 -5.78516 278.092C-5.26483 276.596 -3.63325 275.8 -2.13562 276.319ZM2.82914 261.984C3.96424 262.377 4.56442 263.617 4.17345 264.752C3.78259 265.887 2.54166 266.488 1.40656 266.095C0.271458 265.703 -0.3287 264.463 0.0622733 263.327C0.45313 262.193 1.69404 261.591 2.82914 261.984ZM7.7939 247.649C8.56967 247.918 8.97827 248.759 8.70871 249.532C8.44307 250.305 7.60033 250.715 6.82847 250.447C6.05269 250.178 5.64419 249.336 5.91374 248.564C6.17927 247.791 7.02203 247.381 7.7939 247.649ZM12.7595 233.311C13.1727 233.454 13.388 233.902 13.2478 234.313C13.1037 234.723 12.6557 234.939 12.2463 234.798C11.8331 234.655 11.6178 234.207 11.7619 233.797C11.902 233.386 12.35 233.17 12.7595 233.311ZM-12.101 305.095C-10.7572 305.559 -10.0497 307.024 -10.511 308.366C-10.9764 309.707 -12.4417 310.417 -13.7816 309.954C-15.1215 309.491 -15.8336 308.024 -15.3704 306.683C-14.907 305.342 -13.4409 304.632 -12.101 305.095ZM-17.0986 319.525C-16.2724 319.811 -15.8359 320.716 -16.122 321.543C-16.4079 322.37 -17.3107 322.81 -18.1407 322.522C-18.9669 322.236 -19.405 321.331 -19.1186 320.504C-18.8322 319.677 -17.9287 319.238 -17.0986 319.525Z" fill="url(#paint16_linear_277_1404)" fill-opacity="0.3"/>
<path d="M-24.4442 295.493C-25.196 297.313 -24.33 299.396 -22.5134 300.148C-20.6963 300.899 -18.6109 300.033 -17.8591 298.217C-17.1073 296.4 -17.9704 294.315 -19.7899 293.562C-21.6096 292.811 -23.692 293.677 -24.4442 295.493ZM-13.9639 279.48C-12.464 280.1 -11.7527 281.817 -12.3726 283.317C-12.9926 284.818 -14.7096 285.529 -16.21 284.909C-17.7099 284.289 -18.4212 282.572 -17.8013 281.072C-17.1813 279.572 -15.4642 278.86 -13.9639 279.48ZM-8.14084 265.398C-6.96057 265.886 -6.40099 267.237 -6.88866 268.415C-7.37637 269.596 -8.72835 270.155 -9.90616 269.668C-11.084 269.18 -11.6464 267.828 -11.1587 266.65C-10.671 265.472 -9.31865 264.91 -8.14084 265.398ZM-2.31818 251.315C-1.45994 251.671 -1.04899 252.655 -1.40478 253.516C-1.76057 254.377 -2.74414 254.785 -3.60524 254.429C-4.46645 254.074 -4.87443 253.09 -4.51864 252.228C-4.16297 251.368 -3.17928 250.96 -2.31818 251.315ZM3.50784 237.233C4.04639 237.457 4.30517 238.075 4.08213 238.614C3.85857 239.153 3.23998 239.412 2.70103 239.188C2.16247 238.965 1.90331 238.346 2.12675 237.807C2.3503 237.268 2.96889 237.01 3.50784 237.233ZM-25.5658 307.537C-24.4151 308.011 -23.87 309.331 -24.3441 310.48C-24.8186 311.628 -26.139 312.176 -27.2867 311.701C-28.4349 311.227 -28.9829 309.907 -28.5088 308.759C-28.0339 307.608 -26.7139 307.063 -25.5658 307.537ZM-31.3416 321.506C-30.857 321.706 -30.6244 322.264 -30.824 322.748C-31.0242 323.233 -31.5825 323.466 -32.0671 323.266C-32.5518 323.066 -32.7844 322.508 -32.5844 322.023C-32.3842 321.538 -31.8262 321.306 -31.3416 321.506ZM-24.322 283.048C-22.5025 283.8 -21.6394 285.885 -22.3912 287.702C-23.1429 289.519 -25.2288 290.385 -27.0454 289.633C-28.8621 288.881 -29.7281 286.795 -28.9763 284.978C-28.2245 283.162 -26.139 282.296 -24.322 283.048ZM-18.526 269.03C-17.0612 269.636 -16.3664 271.314 -16.9699 272.778C-17.5733 274.243 -19.253 274.938 -20.7182 274.335C-22.183 273.731 -22.8779 272.051 -22.2743 270.586C-21.6709 269.121 -19.9912 268.427 -18.526 269.03ZM-12.7271 255.01C-11.617 255.468 -11.0909 256.742 -11.5482 257.852C-12.0058 258.962 -13.2801 259.489 -14.3902 259.031C-15.5007 258.573 -16.0268 257.299 -15.5692 256.189C-15.1116 255.079 -13.8376 254.552 -12.7271 255.01ZM-6.93118 240.99C-6.17579 241.302 -5.81757 242.167 -6.12936 242.923C-6.44115 243.678 -7.3068 244.036 -8.0622 243.725C-8.81798 243.413 -9.17581 242.547 -8.86403 241.792C-8.55212 241.036 -7.68658 240.678 -6.93118 240.99ZM-1.13222 226.972C-0.731548 227.138 -0.542107 227.598 -0.708074 227.999C-0.874042 228.4 -1.33386 228.589 -1.73504 228.424C-2.13571 228.258 -2.32515 227.798 -2.15918 227.397C-1.99322 226.996 -1.53301 226.807 -1.13222 226.972ZM-30.162 297.171C-28.8487 297.713 -28.225 299.217 -28.7698 300.528C-29.3117 301.841 -30.8162 302.465 -32.1265 301.92C-33.4369 301.375 -34.0635 299.873 -33.5187 298.563C-32.9739 297.253 -31.4723 296.626 -30.162 297.171ZM-35.9982 311.283C-35.1889 311.618 -34.8045 312.544 -35.1398 313.354C-35.475 314.163 -36.4013 314.548 -37.2106 314.213C-38.0203 313.877 -38.4047 312.951 -38.0694 312.141C-37.7342 311.332 -36.8079 310.948 -35.9982 311.283Z" fill="url(#paint17_linear_277_1404)" fill-opacity="0.3"/>
</g>
</g>
<defs>
<linearGradient id="paint0_linear_277_1404" x1="-419.18" y1="214.026" x2="268.075" y2="213.441" gradientUnits="userSpaceOnUse">
<stop stop-color="#BC9632"/>
<stop offset="0.262187" stop-color="#FFEDA9"/>
<stop offset="1" stop-color="#BC9632"/>
</linearGradient>
<linearGradient id="paint1_linear_277_1404" x1="-419.181" y1="214.026" x2="268.075" y2="213.441" gradientUnits="userSpaceOnUse">
<stop stop-color="#BC9632"/>
<stop offset="0.262187" stop-color="#FFEDA9"/>
<stop offset="1" stop-color="#BC9632"/>
</linearGradient>
<linearGradient id="paint2_linear_277_1404" x1="-419.181" y1="214.026" x2="268.075" y2="213.441" gradientUnits="userSpaceOnUse">
<stop stop-color="#BC9632"/>
<stop offset="0.262187" stop-color="#FFEDA9"/>
<stop offset="1" stop-color="#BC9632"/>
</linearGradient>
<linearGradient id="paint3_linear_277_1404" x1="-419.18" y1="214.026" x2="268.075" y2="213.441" gradientUnits="userSpaceOnUse">
<stop stop-color="#BC9632"/>
<stop offset="0.262187" stop-color="#FFEDA9"/>
<stop offset="1" stop-color="#BC9632"/>
</linearGradient>
<linearGradient id="paint4_linear_277_1404" x1="-419.18" y1="214.026" x2="268.075" y2="213.441" gradientUnits="userSpaceOnUse">
<stop stop-color="#BC9632"/>
<stop offset="0.262187" stop-color="#FFEDA9"/>
<stop offset="1" stop-color="#BC9632"/>
</linearGradient>
<linearGradient id="paint5_linear_277_1404" x1="-419.181" y1="214.026" x2="268.075" y2="213.441" gradientUnits="userSpaceOnUse">
<stop stop-color="#BC9632"/>
<stop offset="0.262187" stop-color="#FFEDA9"/>
<stop offset="1" stop-color="#BC9632"/>
</linearGradient>
<linearGradient id="paint6_linear_277_1404" x1="-419.181" y1="214.026" x2="268.075" y2="213.441" gradientUnits="userSpaceOnUse">
<stop stop-color="#BC9632"/>
<stop offset="0.262187" stop-color="#FFEDA9"/>
<stop offset="1" stop-color="#BC9632"/>
</linearGradient>
<linearGradient id="paint7_linear_277_1404" x1="-419.181" y1="214.026" x2="268.075" y2="213.441" gradientUnits="userSpaceOnUse">
<stop stop-color="#BC9632"/>
<stop offset="0.262187" stop-color="#FFEDA9"/>
<stop offset="1" stop-color="#BC9632"/>
</linearGradient>
<linearGradient id="paint8_linear_277_1404" x1="-419.18" y1="214.026" x2="268.075" y2="213.441" gradientUnits="userSpaceOnUse">
<stop stop-color="#BC9632"/>
<stop offset="0.262187" stop-color="#FFEDA9"/>
<stop offset="1" stop-color="#BC9632"/>
</linearGradient>
<linearGradient id="paint9_linear_277_1404" x1="-419.181" y1="214.026" x2="268.075" y2="213.441" gradientUnits="userSpaceOnUse">
<stop stop-color="#BC9632"/>
<stop offset="0.262187" stop-color="#FFEDA9"/>
<stop offset="1" stop-color="#BC9632"/>
</linearGradient>
<linearGradient id="paint10_linear_277_1404" x1="-419.18" y1="214.026" x2="268.075" y2="213.441" gradientUnits="userSpaceOnUse">
<stop stop-color="#BC9632"/>
<stop offset="0.262187" stop-color="#FFEDA9"/>
<stop offset="1" stop-color="#BC9632"/>
</linearGradient>
<linearGradient id="paint11_linear_277_1404" x1="-419.181" y1="214.026" x2="268.075" y2="213.441" gradientUnits="userSpaceOnUse">
<stop stop-color="#BC9632"/>
<stop offset="0.262187" stop-color="#FFEDA9"/>
<stop offset="1" stop-color="#BC9632"/>
</linearGradient>
<linearGradient id="paint12_linear_277_1404" x1="-419.18" y1="214.026" x2="268.075" y2="213.441" gradientUnits="userSpaceOnUse">
<stop stop-color="#BC9632"/>
<stop offset="0.262187" stop-color="#FFEDA9"/>
<stop offset="1" stop-color="#BC9632"/>
</linearGradient>
<linearGradient id="paint13_linear_277_1404" x1="-419.18" y1="214.026" x2="268.075" y2="213.441" gradientUnits="userSpaceOnUse">
<stop stop-color="#BC9632"/>
<stop offset="0.262187" stop-color="#FFEDA9"/>
<stop offset="1" stop-color="#BC9632"/>
</linearGradient>
<linearGradient id="paint14_linear_277_1404" x1="-419.181" y1="214.026" x2="268.075" y2="213.441" gradientUnits="userSpaceOnUse">
<stop stop-color="#BC9632"/>
<stop offset="0.262187" stop-color="#FFEDA9"/>
<stop offset="1" stop-color="#BC9632"/>
</linearGradient>
<linearGradient id="paint15_linear_277_1404" x1="-419.181" y1="214.026" x2="268.075" y2="213.441" gradientUnits="userSpaceOnUse">
<stop stop-color="#BC9632"/>
<stop offset="0.262187" stop-color="#FFEDA9"/>
<stop offset="1" stop-color="#BC9632"/>
</linearGradient>
<linearGradient id="paint16_linear_277_1404" x1="-419.18" y1="214.026" x2="268.075" y2="213.441" gradientUnits="userSpaceOnUse">
<stop stop-color="#BC9632"/>
<stop offset="0.262187" stop-color="#FFEDA9"/>
<stop offset="1" stop-color="#BC9632"/>
</linearGradient>
<linearGradient id="paint17_linear_277_1404" x1="-419.18" y1="214.026" x2="268.075" y2="213.441" gradientUnits="userSpaceOnUse">
<stop stop-color="#BC9632"/>
<stop offset="0.262187" stop-color="#FFEDA9"/>
<stop offset="1" stop-color="#BC9632"/>
</linearGradient>
<clipPath id="clip0_277_1404">
<rect width="360" height="320" fill="white"/>
</clipPath>
</defs>
</svg>
