<svg width="296" height="264" viewBox="0 0 296 264" fill="none" xmlns="http://www.w3.org/2000/svg">
<g clip-path="url(#clip0_280_2418)">
<rect width="296" height="264" fill="#003216"/>
<g opacity="0.23">
<path d="M309.664 247.224C308.851 248.633 309.335 250.434 310.746 251.247C312.158 252.06 313.956 251.576 314.769 250.165C315.583 248.754 315.098 246.955 313.689 246.142C312.28 245.329 310.479 245.813 309.666 247.222L309.664 247.224ZM319.974 235.23C321.136 235.9 321.534 237.384 320.867 238.545C320.198 239.707 318.713 240.105 317.551 239.437C316.39 238.769 315.991 237.283 316.659 236.122C317.329 234.96 318.813 234.562 319.974 235.23ZM326.261 224.32C327.175 224.845 327.489 226.014 326.963 226.927C326.438 227.841 325.269 228.155 324.356 227.629C323.442 227.104 323.129 225.935 323.654 225.022C324.18 224.108 325.348 223.795 326.261 224.32ZM332.549 213.408C333.215 213.791 333.443 214.642 333.06 215.308C332.677 215.973 331.826 216.202 331.161 215.819C330.495 215.436 330.266 214.585 330.649 213.919C331.032 213.253 331.883 213.025 332.549 213.408ZM338.836 202.496C339.255 202.736 339.397 203.272 339.157 203.69C338.917 204.108 338.381 204.251 337.963 204.011C337.545 203.771 337.402 203.235 337.642 202.816C337.882 202.398 338.418 202.256 338.836 202.496ZM307.447 256.97C308.339 257.485 308.645 258.622 308.13 259.514C307.616 260.405 306.478 260.712 305.587 260.197C304.695 259.683 304.389 258.545 304.903 257.653C305.418 256.762 306.556 256.455 307.447 256.97ZM301.21 267.791C301.586 268.008 301.717 268.49 301.499 268.865C301.28 269.241 300.8 269.373 300.424 269.154C300.048 268.935 299.917 268.455 300.136 268.079C300.355 267.703 300.834 267.572 301.21 267.791ZM311.101 237.039C312.51 237.852 312.994 239.653 312.182 241.062C311.369 242.471 309.567 242.955 308.158 242.144C306.749 241.332 306.265 239.531 307.076 238.122C307.889 236.713 309.69 236.228 311.099 237.041L311.101 237.039ZM317.362 226.176C318.497 226.83 318.887 228.279 318.232 229.414C317.578 230.548 316.129 230.938 314.995 230.284C313.86 229.629 313.47 228.181 314.124 227.046C314.779 225.911 316.227 225.521 317.362 226.176ZM323.621 215.312C324.481 215.808 324.777 216.907 324.28 217.767C323.784 218.628 322.686 218.923 321.826 218.427C320.965 217.931 320.67 216.833 321.166 215.972C321.662 215.112 322.76 214.816 323.621 215.312ZM329.881 204.451C330.467 204.789 330.666 205.537 330.331 206.121C329.996 206.705 329.245 206.908 328.662 206.571C328.077 206.233 327.874 205.485 328.212 204.901C328.549 204.317 329.297 204.116 329.881 204.451ZM336.14 193.588C336.449 193.767 336.556 194.165 336.377 194.474C336.197 194.784 335.8 194.891 335.491 194.711C335.181 194.532 335.074 194.135 335.253 193.825C335.433 193.515 335.83 193.408 336.14 193.588ZM304.798 247.98C305.816 248.566 306.163 249.864 305.577 250.882C304.991 251.899 303.694 252.247 302.676 251.661C301.659 251.075 301.31 249.777 301.896 248.76C302.482 247.742 303.781 247.394 304.798 247.98ZM298.495 258.917C299.123 259.278 299.337 260.08 298.977 260.708C298.618 261.337 297.814 261.552 297.186 261.19C296.558 260.829 296.342 260.027 296.703 259.399C297.065 258.771 297.867 258.555 298.495 258.917Z" fill="url(#paint0_linear_280_2418)" fill-opacity="0.3"/>
<path d="M296.437 238.769C295.576 240.149 295.994 241.966 297.374 242.827C298.754 243.689 300.571 243.271 301.433 241.89C302.294 240.51 301.876 238.693 300.496 237.832C299.116 236.97 297.299 237.388 296.437 238.769ZM307.172 227.156C308.309 227.865 308.654 229.364 307.944 230.501C307.234 231.639 305.736 231.984 304.598 231.274C303.461 230.564 303.116 229.066 303.826 227.928C304.536 226.79 306.034 226.446 307.172 227.156ZM313.848 216.477C314.743 217.036 315.014 218.215 314.456 219.108C313.897 220 312.718 220.274 311.825 219.715C310.932 219.157 310.658 217.978 311.217 217.085C311.775 216.192 312.955 215.918 313.848 216.477ZM320.521 205.798C321.174 206.205 321.372 207.064 320.965 207.716C320.557 208.369 319.699 208.567 319.047 208.159C318.394 207.752 318.196 206.894 318.604 206.241C319.011 205.589 319.869 205.391 320.521 205.798ZM327.197 195.119C327.607 195.375 327.732 195.915 327.476 196.325C327.22 196.735 326.681 196.859 326.271 196.603C325.861 196.347 325.737 195.808 325.992 195.398C326.248 194.988 326.787 194.864 327.197 195.119ZM293.872 248.429C294.745 248.975 295.009 250.123 294.463 250.996C293.918 251.869 292.769 252.133 291.896 251.588C291.023 251.042 290.759 249.894 291.305 249.021C291.85 248.148 292.999 247.884 293.872 248.429ZM287.25 259.022C287.619 259.251 287.731 259.737 287.501 260.105C287.271 260.473 286.786 260.585 286.418 260.355C286.05 260.126 285.937 259.64 286.167 259.272C286.397 258.904 286.882 258.792 287.25 259.022ZM298.242 228.643C299.622 229.504 300.04 231.321 299.179 232.701C298.317 234.081 296.5 234.5 295.12 233.638C293.74 232.777 293.322 230.96 294.183 229.58C295.044 228.199 296.861 227.781 298.242 228.643ZM304.886 218.013C305.997 218.707 306.333 220.17 305.639 221.281C304.945 222.392 303.482 222.728 302.371 222.034C301.259 221.339 300.924 219.876 301.618 218.765C302.312 217.654 303.775 217.318 304.886 218.013ZM311.531 207.38C312.373 207.907 312.629 209.014 312.102 209.856C311.575 210.698 310.468 210.954 309.626 210.427C308.784 209.899 308.528 208.793 309.055 207.951C309.583 207.109 310.689 206.853 311.531 207.38ZM318.179 196.75C318.752 197.108 318.925 197.863 318.567 198.436C318.209 199.009 317.455 199.182 316.882 198.824C316.308 198.467 316.135 197.712 316.493 197.139C316.85 196.566 317.605 196.393 318.179 196.75ZM324.823 186.12C325.127 186.311 325.22 186.712 325.03 187.016C324.839 187.32 324.439 187.413 324.134 187.222C323.83 187.032 323.737 186.631 323.928 186.327C324.118 186.022 324.519 185.929 324.823 186.12ZM291.547 239.35C292.541 239.971 292.844 241.282 292.223 242.278C291.602 243.275 290.291 243.576 289.295 242.954C288.298 242.333 287.998 241.022 288.619 240.026C289.24 239.029 290.551 238.729 291.547 239.35ZM284.855 250.053C285.471 250.437 285.656 251.245 285.272 251.86C284.888 252.476 284.08 252.661 283.464 252.277C282.849 251.893 282.664 251.085 283.048 250.469C283.432 249.854 284.24 249.669 284.855 250.053Z" fill="url(#paint1_linear_280_2418)" fill-opacity="0.3"/>
<path d="M283.389 229.592C282.46 230.926 282.787 232.761 284.12 233.693C285.454 234.625 287.29 234.296 288.222 232.962C289.153 231.629 288.824 229.793 287.49 228.861C286.157 227.932 284.321 228.258 283.389 229.592ZM294.692 218.529C295.791 219.297 296.061 220.81 295.296 221.909C294.531 223.008 293.015 223.278 291.916 222.513C290.817 221.748 290.548 220.233 291.313 219.134C292.077 218.034 293.593 217.765 294.692 218.529ZM301.894 208.198C302.758 208.801 302.971 209.992 302.368 210.856C301.766 211.72 300.574 211.933 299.71 211.331C298.846 210.728 298.633 209.537 299.236 208.673C299.838 207.809 301.03 207.596 301.894 208.198ZM309.095 197.867C309.725 198.307 309.88 199.173 309.44 199.805C309 200.437 308.133 200.591 307.502 200.15C306.87 199.71 306.717 198.844 307.157 198.212C307.597 197.58 308.464 197.427 309.095 197.867ZM316.297 187.538C316.694 187.813 316.79 188.36 316.515 188.755C316.239 189.15 315.693 189.248 315.298 188.972C314.903 188.697 314.804 188.15 315.08 187.756C315.355 187.361 315.902 187.263 316.297 187.538ZM280.343 239.111C281.188 239.698 281.393 240.861 280.806 241.704C280.219 242.546 279.056 242.753 278.214 242.166C277.372 241.579 277.164 240.416 277.751 239.574C278.338 238.732 279.501 238.524 280.343 239.111ZM273.199 249.357C273.556 249.606 273.642 250.096 273.393 250.452C273.143 250.807 272.653 250.896 272.297 250.646C271.942 250.397 271.854 249.906 272.103 249.551C272.353 249.196 272.844 249.107 273.199 249.357ZM285.698 219.567C287.031 220.497 287.361 222.333 286.429 223.668C285.497 225.004 283.663 225.331 282.328 224.399C280.992 223.467 280.665 221.634 281.597 220.298C282.529 218.963 284.362 218.635 285.698 219.567ZM292.866 209.284C293.941 210.033 294.204 211.512 293.455 212.584C292.706 213.657 291.227 213.922 290.155 213.173C289.08 212.424 288.817 210.946 289.566 209.873C290.315 208.798 291.793 208.535 292.866 209.284ZM300.037 198.999C300.85 199.565 301.05 200.687 300.483 201.501C299.917 202.314 298.796 202.514 297.982 201.947C297.168 201.38 296.969 200.26 297.535 199.446C298.102 198.632 299.223 198.432 300.037 198.999ZM307.207 188.714C307.762 189.1 307.898 189.862 307.512 190.416C307.125 190.971 306.364 191.107 305.809 190.721C305.254 190.335 305.118 189.573 305.505 189.018C305.891 188.463 306.652 188.327 307.207 188.714ZM314.375 178.431C314.669 178.637 314.741 179.041 314.538 179.335C314.334 179.629 313.927 179.701 313.634 179.497C313.34 179.293 313.268 178.887 313.471 178.593C313.675 178.299 314.081 178.227 314.375 178.431ZM278.476 229.927C279.439 230.599 279.674 231.923 279.004 232.884C278.332 233.847 277.008 234.082 276.048 233.413C275.087 232.743 274.849 231.417 275.519 230.456C276.188 229.495 277.515 229.258 278.476 229.927ZM271.256 240.28C271.851 240.695 271.996 241.512 271.582 242.107C271.167 242.701 270.35 242.847 269.755 242.432C269.161 242.017 269.015 241.2 269.43 240.605C269.845 240.011 270.662 239.866 271.256 240.28Z" fill="url(#paint2_linear_280_2418)" fill-opacity="0.3"/>
<path d="M271.049 220.518C270.099 221.839 270.398 223.679 271.719 224.629C273.04 225.578 274.88 225.279 275.829 223.958C276.779 222.637 276.48 220.797 275.159 219.848C273.838 218.899 271.998 219.197 271.049 220.518ZM282.514 209.624C283.603 210.407 283.849 211.923 283.067 213.012C282.284 214.1 280.768 214.347 279.679 213.564C278.591 212.782 278.344 211.265 279.127 210.177C279.909 209.089 281.426 208.842 282.514 209.624ZM289.869 199.403C290.726 200.019 290.919 201.214 290.304 202.07C289.688 202.926 288.494 203.12 287.637 202.505C286.781 201.889 286.587 200.694 287.203 199.838C287.818 198.982 289.013 198.788 289.869 199.403ZM297.224 189.18C297.848 189.629 297.99 190.499 297.541 191.124C297.092 191.748 296.222 191.889 295.598 191.44C294.974 190.991 294.832 190.121 295.281 189.497C295.73 188.873 296.6 188.731 297.224 189.18ZM304.579 178.959C304.971 179.241 305.06 179.787 304.778 180.179C304.496 180.571 303.95 180.66 303.558 180.378C303.166 180.096 303.077 179.55 303.359 179.158C303.641 178.766 304.187 178.677 304.579 178.959ZM267.861 229.992C268.695 230.592 268.884 231.757 268.284 232.591C267.684 233.425 266.52 233.615 265.685 233.014C264.851 232.414 264.662 231.25 265.262 230.416C265.862 229.581 267.026 229.392 267.861 229.992ZM260.567 240.13C260.92 240.384 260.999 240.876 260.745 241.229C260.491 241.581 259.999 241.661 259.646 241.407C259.294 241.153 259.214 240.661 259.468 240.308C259.722 239.955 260.214 239.876 260.567 240.13ZM273.507 210.53C274.827 211.479 275.126 213.319 274.177 214.64C273.228 215.961 271.387 216.26 270.066 215.311C268.746 214.361 268.447 212.521 269.396 211.2C270.345 209.879 272.186 209.581 273.507 210.53ZM280.828 200.352C281.89 201.117 282.133 202.598 281.368 203.663C280.603 204.727 279.122 204.967 278.058 204.202C276.993 203.438 276.753 201.957 277.518 200.892C278.283 199.828 279.764 199.588 280.828 200.352ZM288.15 190.177C288.956 190.757 289.139 191.879 288.559 192.685C287.979 193.491 286.857 193.674 286.051 193.095C285.245 192.515 285.062 191.393 285.642 190.586C286.222 189.781 287.344 189.598 288.15 190.177ZM295.472 180C296.019 180.395 296.145 181.158 295.75 181.708C295.355 182.257 294.592 182.382 294.043 181.986C293.493 181.591 293.369 180.828 293.764 180.279C294.159 179.729 294.922 179.605 295.472 180ZM302.796 169.823C303.087 170.033 303.152 170.437 302.944 170.728C302.736 171.019 302.33 171.084 302.039 170.876C301.747 170.668 301.683 170.262 301.89 169.971C302.099 169.68 302.504 169.615 302.796 169.823ZM266.131 220.781C267.084 221.467 267.3 222.794 266.615 223.747C265.93 224.699 264.603 224.916 263.65 224.231C262.697 223.546 262.481 222.218 263.166 221.266C263.851 220.313 265.178 220.097 266.131 220.781ZM258.758 231.027C259.345 231.45 259.479 232.269 259.056 232.855C258.632 233.442 257.814 233.576 257.227 233.153C256.64 232.73 256.506 231.911 256.929 231.324C257.352 230.737 258.171 230.603 258.758 231.027Z" fill="url(#paint3_linear_280_2418)" fill-opacity="0.3"/>
<path d="M258.781 211.189C257.805 212.49 258.067 214.337 259.37 215.312C260.672 216.288 262.517 216.026 263.493 214.723C264.468 213.421 264.206 211.576 262.904 210.6C261.604 209.625 259.756 209.887 258.781 211.189ZM270.462 200.531C271.535 201.335 271.751 202.856 270.947 203.929C270.143 205.002 268.622 205.218 267.548 204.414C266.475 203.609 266.259 202.088 267.064 201.015C267.868 199.942 269.389 199.726 270.462 200.531ZM278.021 190.458C278.864 191.091 279.035 192.289 278.402 193.132C277.768 193.976 276.571 194.146 275.728 193.513C274.884 192.88 274.713 191.682 275.347 190.839C275.98 189.995 277.177 189.825 278.021 190.458ZM285.579 180.386C286.193 180.848 286.318 181.719 285.856 182.335C285.394 182.951 284.523 183.075 283.907 182.612C283.29 182.15 283.167 181.279 283.629 180.663C284.091 180.046 284.963 179.923 285.579 180.386ZM293.138 170.313C293.524 170.602 293.602 171.151 293.311 171.536C293.02 171.92 292.473 172 292.088 171.709C291.704 171.418 291.624 170.871 291.915 170.487C292.205 170.102 292.753 170.022 293.138 170.313ZM255.404 220.599C256.225 221.217 256.394 222.384 255.776 223.205C255.158 224.027 253.991 224.195 253.169 223.578C252.348 222.96 252.179 221.793 252.797 220.971C253.415 220.149 254.582 219.981 255.404 220.599ZM247.907 230.588C248.254 230.849 248.324 231.343 248.064 231.69C247.803 232.038 247.31 232.107 246.962 231.847C246.614 231.587 246.545 231.093 246.805 230.745C247.065 230.398 247.559 230.328 247.907 230.588ZM261.438 201.255C262.738 202.23 263.002 204.077 262.027 205.378C261.051 206.678 259.204 206.942 257.904 205.967C256.603 204.991 256.339 203.144 257.315 201.843C258.29 200.543 260.137 200.279 261.438 201.255ZM268.963 191.226C270.01 192.012 270.222 193.498 269.435 194.545C268.649 195.592 267.163 195.804 266.116 195.017C265.069 194.231 264.857 192.745 265.644 191.698C266.43 190.651 267.916 190.439 268.963 191.226ZM276.488 181.199C277.281 181.794 277.443 182.922 276.846 183.715C276.249 184.508 275.124 184.67 274.331 184.073C273.537 183.476 273.375 182.35 273.972 181.557C274.57 180.764 275.695 180.602 276.488 181.199ZM284.011 171.17C284.551 171.576 284.661 172.343 284.255 172.882C283.849 173.422 283.083 173.532 282.543 173.126C282.003 172.72 281.893 171.954 282.299 171.414C282.705 170.874 283.471 170.764 284.011 171.17ZM291.536 161.144C291.823 161.359 291.881 161.766 291.666 162.053C291.451 162.339 291.044 162.396 290.758 162.182C290.471 161.967 290.413 161.56 290.628 161.273C290.842 160.987 291.25 160.929 291.536 161.144ZM253.857 211.353C254.794 212.058 254.985 213.39 254.28 214.328C253.576 215.265 252.243 215.456 251.306 214.751C250.368 214.047 250.177 212.714 250.882 211.777C251.587 210.839 252.919 210.649 253.857 211.353ZM246.283 221.45C246.862 221.884 246.979 222.706 246.545 223.285C246.111 223.865 245.289 223.982 244.709 223.548C244.13 223.114 244.013 222.292 244.447 221.712C244.881 221.133 245.704 221.016 246.283 221.45Z" fill="url(#paint4_linear_280_2418)" fill-opacity="0.3"/>
<path d="M246.827 201.894C245.845 203.19 246.098 205.039 247.393 206.021C248.688 207.002 250.537 206.75 251.519 205.455C252.501 204.16 252.248 202.311 250.953 201.329C249.658 200.347 247.809 200.599 246.827 201.894ZM258.564 191.295C259.632 192.106 259.842 193.629 259.03 194.697C258.219 195.765 256.697 195.974 255.629 195.163C254.561 194.352 254.352 192.829 255.162 191.761C255.973 190.693 257.496 190.484 258.564 191.295ZM266.175 181.261C267.016 181.899 267.18 183.095 266.542 183.936C265.904 184.777 264.708 184.941 263.867 184.303C263.026 183.666 262.862 182.469 263.5 181.628C264.137 180.787 265.334 180.623 266.175 181.261ZM273.784 171.229C274.395 171.693 274.516 172.566 274.052 173.18C273.587 173.794 272.714 173.912 272.1 173.448C271.486 172.984 271.368 172.111 271.832 171.497C272.297 170.883 273.17 170.765 273.784 171.229ZM281.395 161.195C281.779 161.486 281.854 162.035 281.563 162.42C281.272 162.804 280.723 162.879 280.339 162.588C279.954 162.298 279.879 161.748 280.17 161.364C280.461 160.979 281.01 160.904 281.395 161.195ZM243.401 211.285C244.22 211.906 244.382 213.073 243.759 213.894C243.137 214.716 241.97 214.875 241.149 214.253C240.328 213.63 240.168 212.464 240.791 211.642C241.413 210.821 242.58 210.662 243.401 211.285ZM235.851 221.235C236.199 221.498 236.266 221.992 236.004 222.337C235.741 222.682 235.247 222.752 234.902 222.489C234.557 222.227 234.487 221.733 234.75 221.388C235.013 221.043 235.506 220.973 235.851 221.235ZM249.534 191.973C250.829 192.955 251.084 194.804 250.1 196.099C249.115 197.394 247.269 197.649 245.974 196.664C244.678 195.682 244.424 193.833 245.408 192.538C246.392 191.243 248.239 190.988 249.534 191.973ZM257.112 181.982C258.156 182.773 258.359 184.261 257.568 185.305C256.777 186.349 255.289 186.552 254.245 185.761C253.201 184.97 252.998 183.482 253.789 182.438C254.58 181.394 256.068 181.192 257.112 181.982ZM264.687 171.994C265.478 172.594 265.633 173.721 265.034 174.511C264.434 175.302 263.307 175.457 262.517 174.858C261.726 174.258 261.57 173.131 262.17 172.341C262.77 171.55 263.896 171.394 264.687 171.994ZM272.265 162.006C272.802 162.414 272.907 163.182 272.499 163.72C272.091 164.257 271.323 164.362 270.786 163.954C270.248 163.546 270.143 162.778 270.551 162.241C270.959 161.703 271.728 161.598 272.265 162.006ZM279.842 152.018C280.128 152.235 280.184 152.642 279.967 152.928C279.751 153.215 279.343 153.27 279.057 153.053C278.771 152.836 278.715 152.429 278.932 152.143C279.149 151.857 279.556 151.801 279.842 152.018ZM241.903 202.033C242.837 202.742 243.021 204.074 242.312 205.009C241.603 205.944 240.271 206.128 239.337 205.419C238.402 204.709 238.218 203.377 238.927 202.443C239.636 201.508 240.968 201.324 241.903 202.033ZM234.274 212.089C234.851 212.527 234.963 213.349 234.527 213.926C234.091 214.503 233.267 214.616 232.69 214.179C232.113 213.743 232.001 212.919 232.437 212.342C232.873 211.765 233.697 211.653 234.274 212.089Z" fill="url(#paint5_linear_280_2418)" fill-opacity="0.3"/>
<path d="M235.033 192.801C234.062 194.107 234.331 195.952 235.636 196.923C236.942 197.894 238.787 197.626 239.758 196.32C240.729 195.015 240.461 193.17 239.155 192.199C237.85 191.227 236.005 191.496 235.033 192.801ZM246.677 182.098C247.752 182.898 247.973 184.42 247.173 185.495C246.373 186.571 244.852 186.792 243.776 185.992C242.7 185.192 242.48 183.67 243.279 182.595C244.08 181.519 245.601 181.298 246.677 182.098ZM254.2 172C255.046 172.631 255.222 173.827 254.591 174.673C253.96 175.519 252.764 175.694 251.918 175.063C251.072 174.432 250.896 173.236 251.527 172.391C252.159 171.545 253.354 171.369 254.2 172ZM261.721 161.9C262.338 162.359 262.465 163.231 262.005 163.848C261.546 164.464 260.674 164.592 260.058 164.132C259.441 163.672 259.313 162.8 259.773 162.184C260.234 161.568 261.105 161.44 261.721 161.9ZM269.245 151.799C269.632 152.088 269.712 152.635 269.423 153.022C269.134 153.409 268.587 153.489 268.2 153.201C267.813 152.912 267.733 152.364 268.022 151.977C268.31 151.591 268.858 151.51 269.245 151.799ZM231.69 202.223C232.515 202.836 232.685 204.003 232.072 204.83C231.458 205.657 230.291 205.825 229.464 205.211C228.638 204.598 228.469 203.431 229.083 202.604C229.697 201.778 230.864 201.609 231.69 202.223ZM224.231 212.238C224.578 212.498 224.65 212.99 224.392 213.34C224.134 213.69 223.64 213.76 223.29 213.501C222.94 213.243 222.87 212.749 223.128 212.4C223.387 212.049 223.881 211.979 224.231 212.238ZM237.655 182.855C238.96 183.826 239.229 185.671 238.257 186.977C237.286 188.282 235.441 188.551 234.136 187.579C232.83 186.608 232.562 184.763 233.533 183.458C234.504 182.152 236.349 181.884 237.655 182.855ZM245.143 172.8C246.192 173.582 246.411 175.069 245.629 176.118C244.847 177.168 243.36 177.386 242.311 176.605C241.261 175.823 241.043 174.336 241.825 173.287C242.606 172.237 244.093 172.018 245.143 172.8ZM252.633 162.746C253.429 163.339 253.593 164.464 253 165.26C252.407 166.056 251.282 166.22 250.486 165.627C249.69 165.034 249.526 163.909 250.119 163.113C250.712 162.317 251.837 162.153 252.633 162.746ZM260.121 152.691C260.663 153.095 260.775 153.862 260.372 154.404C259.968 154.946 259.201 155.059 258.659 154.655C258.117 154.251 258.004 153.484 258.408 152.942C258.812 152.4 259.578 152.288 260.121 152.691ZM267.609 142.637C267.897 142.852 267.955 143.257 267.74 143.546C267.526 143.834 267.121 143.892 266.832 143.677C266.543 143.463 266.485 143.057 266.7 142.769C266.915 142.48 267.32 142.422 267.609 142.637ZM230.113 192.984C231.053 193.684 231.248 195.017 230.548 195.957C229.848 196.897 228.515 197.093 227.575 196.392C226.635 195.692 226.439 194.359 227.14 193.419C227.84 192.479 229.172 192.284 230.113 192.984ZM222.574 203.106C223.155 203.538 223.275 204.361 222.843 204.94C222.411 205.519 221.589 205.641 221.009 205.209C220.43 204.778 220.308 203.955 220.74 203.376C221.172 202.797 221.994 202.674 222.574 203.106Z" fill="url(#paint6_linear_280_2418)" fill-opacity="0.3"/>
<path d="M223.257 183.849C222.303 185.166 222.599 187.007 223.918 187.961C225.236 188.914 227.076 188.618 228.03 187.3C228.984 185.982 228.687 184.141 227.369 183.187C226.051 182.234 224.21 182.531 223.257 183.849ZM234.748 172.98C235.834 173.764 236.078 175.283 235.294 176.369C234.509 177.455 232.99 177.699 231.904 176.915C230.818 176.13 230.574 174.611 231.359 173.525C232.144 172.439 233.662 172.195 234.748 172.98ZM242.125 162.774C242.979 163.392 243.171 164.586 242.553 165.44C241.935 166.294 240.74 166.486 239.886 165.87C239.032 165.255 238.841 164.058 239.456 163.204C240.072 162.35 241.268 162.158 242.122 162.774L242.125 162.774ZM249.502 152.569C250.126 153.02 250.265 153.89 249.814 154.511C249.363 155.133 248.493 155.275 247.871 154.824C247.249 154.373 247.107 153.503 247.559 152.881C248.01 152.259 248.88 152.117 249.502 152.569ZM256.881 142.363C257.273 142.645 257.36 143.193 257.078 143.583C256.795 143.973 256.247 144.062 255.858 143.78C255.468 143.498 255.379 142.95 255.661 142.56C255.943 142.17 256.491 142.081 256.881 142.363ZM220.048 193.314C220.882 193.917 221.07 195.081 220.467 195.915C219.864 196.749 218.7 196.936 217.866 196.334C217.032 195.731 216.845 194.567 217.447 193.733C218.05 192.899 219.214 192.712 220.048 193.314ZM212.731 203.436C213.083 203.69 213.162 204.182 212.906 204.535C212.65 204.887 212.16 204.967 211.808 204.711C211.455 204.454 211.376 203.965 211.632 203.612C211.888 203.26 212.378 203.18 212.731 203.436ZM225.737 173.864C227.055 174.818 227.352 176.658 226.398 177.976C225.445 179.294 223.604 179.591 222.286 178.637C220.968 177.684 220.671 175.843 221.625 174.525C222.579 173.207 224.419 172.91 225.737 173.864ZM233.081 163.704C234.143 164.471 234.38 165.954 233.614 167.014C232.847 168.074 231.363 168.314 230.304 167.547C229.244 166.78 229.004 165.297 229.771 164.237C230.537 163.178 232.021 162.938 233.081 163.704ZM240.427 153.545C241.23 154.127 241.411 155.249 240.831 156.055C240.252 156.861 239.127 157.039 238.321 156.459C237.515 155.88 237.337 154.755 237.917 153.95C238.497 153.144 239.621 152.965 240.427 153.545ZM247.77 143.383C248.318 143.778 248.442 144.543 248.045 145.09C247.647 145.638 246.884 145.762 246.337 145.364C245.79 144.967 245.666 144.205 246.063 143.657C246.46 143.11 247.223 142.986 247.77 143.383ZM255.114 133.223C255.405 133.434 255.47 133.84 255.26 134.131C255.049 134.422 254.644 134.487 254.352 134.277C254.061 134.066 253.996 133.661 254.206 133.369C254.417 133.078 254.823 133.013 255.114 133.223ZM218.337 184.1C219.288 184.787 219.502 186.115 218.815 187.067C218.127 188.02 216.8 188.232 215.848 187.544C214.898 186.857 214.683 185.53 215.371 184.577C216.058 183.625 217.385 183.413 218.337 184.1ZM210.945 194.328C211.532 194.751 211.664 195.572 211.24 196.159C210.817 196.746 209.996 196.877 209.409 196.454C208.823 196.031 208.691 195.21 209.114 194.623C209.537 194.036 210.358 193.905 210.945 194.328Z" fill="url(#paint7_linear_280_2418)" fill-opacity="0.3"/>
<path d="M211.257 175.2C210.323 176.531 210.645 178.369 211.977 179.303C213.307 180.237 215.145 179.914 216.079 178.583C217.013 177.252 216.691 175.415 215.36 174.481C214.029 173.547 212.191 173.869 211.257 175.2ZM222.592 164.17C223.691 164.94 223.956 166.455 223.187 167.551C222.417 168.648 220.902 168.915 219.805 168.146C218.709 167.377 218.442 165.861 219.211 164.765C219.98 163.668 221.496 163.401 222.592 164.17ZM229.822 153.859C230.686 154.464 230.894 155.655 230.289 156.519C229.685 157.383 228.494 157.591 227.63 156.986C226.766 156.382 226.558 155.191 227.162 154.327C227.767 153.463 228.958 153.255 229.822 153.859ZM237.055 143.549C237.684 143.991 237.837 144.858 237.395 145.487C236.952 146.116 236.086 146.27 235.457 145.827C234.827 145.385 234.674 144.518 235.117 143.889C235.559 143.26 236.425 143.106 237.055 143.549ZM244.284 133.24C244.679 133.518 244.775 134.062 244.498 134.457C244.22 134.851 243.676 134.947 243.281 134.67C242.886 134.392 242.79 133.848 243.068 133.453C243.346 133.059 243.89 132.962 244.284 133.24ZM208.184 184.71C209.026 185.302 209.229 186.462 208.64 187.305C208.051 188.147 206.888 188.35 206.046 187.761C205.204 187.171 205 186.008 205.59 185.166C206.179 184.324 207.342 184.121 208.184 184.71ZM201.011 194.935C201.366 195.185 201.452 195.675 201.203 196.03C200.953 196.386 200.463 196.472 200.108 196.223C199.753 195.973 199.666 195.483 199.916 195.127C200.165 194.772 200.656 194.686 201.011 194.935ZM213.593 165.182C214.924 166.116 215.246 167.954 214.312 169.284C213.378 170.616 211.54 170.938 210.21 170.004C208.879 169.07 208.556 167.232 209.49 165.902C210.424 164.57 212.262 164.248 213.593 165.182ZM220.792 154.917C221.864 155.669 222.123 157.149 221.372 158.219C220.62 159.289 219.14 159.55 218.07 158.799C216.999 158.048 216.739 156.567 217.49 155.497C218.242 154.427 219.722 154.166 220.792 154.917ZM227.991 144.655C228.804 145.226 228.999 146.344 228.43 147.158C227.862 147.972 226.741 148.167 225.927 147.598C225.114 147.027 224.919 145.908 225.488 145.095C226.056 144.281 227.177 144.086 227.991 144.655ZM235.19 134.39C235.742 134.779 235.876 135.54 235.489 136.095C235.103 136.65 234.34 136.781 233.785 136.395C233.23 136.008 233.099 135.245 233.485 134.69C233.871 134.135 234.635 134.004 235.19 134.39ZM242.391 124.126C242.685 124.332 242.755 124.735 242.549 125.029C242.343 125.323 241.939 125.393 241.645 125.187C241.351 124.981 241.282 124.577 241.487 124.284C241.693 123.99 242.097 123.92 242.391 124.126ZM206.342 175.521C207.302 176.195 207.536 177.519 206.862 178.48C206.187 179.44 204.863 179.673 203.903 178.999C202.943 178.325 202.71 177.001 203.384 176.041C204.058 175.08 205.382 174.847 206.342 175.521ZM199.095 185.854C199.686 186.271 199.83 187.088 199.415 187.68C199.001 188.272 198.181 188.415 197.589 188.001C196.997 187.586 196.854 186.767 197.268 186.175C197.683 185.583 198.502 185.44 199.095 185.854Z" fill="url(#paint8_linear_280_2418)" fill-opacity="0.3"/>
<path d="M199.512 167.298C198.644 168.674 199.058 170.492 200.435 171.361C201.812 172.229 203.629 171.815 204.497 170.438C205.365 169.06 204.952 167.244 203.574 166.376C202.199 165.508 200.38 165.921 199.512 167.298ZM210.287 155.723C211.422 156.437 211.762 157.937 211.048 159.07C210.334 160.203 208.834 160.545 207.701 159.831C206.568 159.116 206.226 157.616 206.94 156.484C207.655 155.351 209.155 155.008 210.287 155.723ZM216.999 145.067C217.891 145.63 218.158 146.809 217.597 147.702C217.036 148.595 215.855 148.861 214.963 148.3C214.07 147.74 213.804 146.559 214.364 145.666C214.925 144.773 216.106 144.507 216.999 145.067ZM223.713 134.412C224.362 134.822 224.558 135.682 224.149 136.332C223.739 136.982 222.879 137.178 222.229 136.768C221.579 136.359 221.383 135.499 221.793 134.848C222.202 134.198 223.062 134.003 223.713 134.412ZM230.423 123.757C230.831 124.015 230.956 124.554 230.698 124.962C230.44 125.37 229.9 125.494 229.493 125.236C229.085 124.978 228.961 124.439 229.219 124.031C229.477 123.624 230.016 123.499 230.423 123.757ZM196.913 176.951C197.783 177.499 198.045 178.65 197.495 179.52C196.945 180.391 195.797 180.653 194.926 180.103C194.056 179.553 193.794 178.404 194.344 177.534C194.894 176.663 196.042 176.401 196.913 176.951ZM190.256 187.518C190.625 187.75 190.734 188.236 190.502 188.604C190.27 188.972 189.785 189.081 189.417 188.849C189.049 188.617 188.939 188.132 189.171 187.764C189.403 187.396 189.888 187.286 190.256 187.518ZM201.35 157.18C202.726 158.048 203.139 159.864 202.273 161.242C201.407 162.619 199.588 163.03 198.211 162.165C196.834 161.299 196.422 159.48 197.288 158.102C198.154 156.725 199.973 156.314 201.35 157.18ZM208.033 146.57C209.141 147.269 209.472 148.732 208.776 149.84C208.08 150.949 206.615 151.28 205.506 150.584C204.398 149.885 204.067 148.422 204.763 147.314C205.459 146.205 206.924 145.874 208.033 146.57ZM214.715 135.964C215.555 136.493 215.806 137.602 215.279 138.441C214.752 139.281 213.641 139.532 212.801 139.005C211.961 138.478 211.711 137.367 212.238 136.528C212.765 135.688 213.875 135.437 214.715 135.964ZM221.398 125.357C221.968 125.717 222.141 126.472 221.781 127.045C221.421 127.618 220.667 127.789 220.094 127.429C219.521 127.069 219.35 126.314 219.71 125.741C220.07 125.168 220.824 124.997 221.398 125.357ZM228.08 114.748C228.384 114.939 228.475 115.339 228.284 115.644C228.094 115.948 227.693 116.038 227.389 115.848C227.085 115.658 226.994 115.257 227.185 114.952C227.375 114.648 227.776 114.558 228.08 114.748ZM194.619 167.863C195.61 168.489 195.909 169.801 195.283 170.793C194.657 171.785 193.345 172.083 192.353 171.458C191.362 170.832 191.063 169.519 191.689 168.527C192.314 167.536 193.627 167.238 194.619 167.863ZM187.892 178.543C188.504 178.929 188.687 179.737 188.301 180.35C187.916 180.963 187.107 181.145 186.494 180.76C185.882 180.374 185.699 179.565 186.085 178.953C186.471 178.34 187.279 178.157 187.892 178.543Z" fill="url(#paint9_linear_280_2418)" fill-opacity="0.3"/>
<path d="M187.289 159.702C186.471 161.109 186.951 162.912 188.357 163.729C189.764 164.546 191.567 164.067 192.384 162.66C193.201 161.254 192.722 159.451 191.315 158.634C189.909 157.817 188.106 158.296 187.289 159.702ZM197.638 147.743C198.797 148.415 199.191 149.901 198.518 151.062C197.846 152.223 196.361 152.615 195.199 151.942C194.038 151.27 193.646 149.784 194.319 148.623C194.992 147.462 196.477 147.07 197.638 147.743ZM203.961 136.852C204.872 137.382 205.183 138.55 204.653 139.461C204.124 140.372 202.955 140.683 202.044 140.153C201.133 139.624 200.822 138.455 201.352 137.544C201.882 136.633 203.05 136.322 203.961 136.852ZM210.284 125.961C210.949 126.346 211.175 127.199 210.788 127.862C210.401 128.526 209.549 128.754 208.886 128.367C208.223 127.979 207.995 127.128 208.382 126.465C208.769 125.802 209.62 125.573 210.284 125.961ZM216.606 115.072C217.024 115.314 217.165 115.848 216.922 116.266C216.68 116.684 216.146 116.825 215.729 116.582C215.31 116.34 215.17 115.806 215.412 115.388C215.655 114.97 216.188 114.829 216.606 115.072ZM185.04 169.441C185.929 169.958 186.233 171.098 185.717 171.987C185.2 172.876 184.06 173.18 183.171 172.663C182.282 172.146 181.978 171.006 182.495 170.117C183.011 169.228 184.151 168.924 185.04 169.441ZM178.77 180.244C179.146 180.462 179.275 180.944 179.056 181.32C178.837 181.696 178.355 181.825 177.979 181.606C177.603 181.387 177.475 180.905 177.694 180.529C177.912 180.153 178.394 180.025 178.77 180.244ZM188.76 149.522C190.167 150.339 190.646 152.142 189.829 153.549C189.012 154.955 187.209 155.434 185.802 154.617C184.396 153.8 183.916 151.997 184.734 150.59C185.551 149.184 187.354 148.705 188.76 149.522ZM195.054 138.679C196.187 139.336 196.571 140.789 195.915 141.921C195.258 143.053 193.805 143.438 192.673 142.782C191.541 142.125 191.156 140.672 191.813 139.54C192.469 138.408 193.922 138.023 195.054 138.679ZM201.35 127.837C202.208 128.336 202.502 129.436 202.003 130.294C201.505 131.152 200.405 131.445 199.547 130.946C198.689 130.448 198.396 129.348 198.894 128.49C199.392 127.632 200.492 127.339 201.35 127.837ZM207.644 116.995C208.228 117.335 208.427 118.082 208.087 118.666C207.747 119.25 207 119.449 206.416 119.109C205.832 118.769 205.633 118.021 205.973 117.437C206.313 116.854 207.061 116.655 207.644 116.995ZM213.938 106.154C214.248 106.334 214.355 106.731 214.173 107.041C213.991 107.35 213.596 107.457 213.287 107.276C212.977 107.094 212.87 106.699 213.052 106.389C213.233 106.08 213.628 105.973 213.938 106.154ZM182.419 160.444C183.435 161.032 183.78 162.334 183.189 163.347C182.599 164.36 181.299 164.708 180.286 164.117C179.271 163.529 178.926 162.227 179.516 161.214C180.107 160.201 181.407 159.854 182.419 160.444ZM176.083 171.359C176.709 171.723 176.923 172.525 176.559 173.151C176.195 173.777 175.394 173.99 174.768 173.626C174.142 173.262 173.928 172.461 174.292 171.835C174.656 171.209 175.458 170.996 176.083 171.359Z" fill="url(#paint10_linear_280_2418)" fill-opacity="0.3"/>
<path d="M174.676 152.764C173.909 154.199 174.455 155.984 175.888 156.748C177.321 157.512 179.108 156.969 179.872 155.536C180.636 154.103 180.093 152.316 178.66 151.552C177.227 150.788 175.44 151.331 174.676 152.764ZM184.586 140.438C185.769 141.069 186.217 142.54 185.586 143.722C184.956 144.905 183.485 145.353 182.303 144.723C181.12 144.092 180.672 142.621 181.302 141.439C181.932 140.256 183.403 139.808 184.586 140.438ZM190.51 129.324C191.44 129.821 191.793 130.976 191.297 131.908C190.8 132.84 189.645 133.192 188.713 132.695C187.783 132.198 187.43 131.043 187.927 130.111C188.423 129.179 189.578 128.827 190.51 129.324ZM196.437 118.213C197.116 118.574 197.372 119.418 197.009 120.097C196.646 120.775 195.804 121.032 195.125 120.669C194.447 120.306 194.19 119.464 194.553 118.785C194.916 118.106 195.758 117.85 196.437 118.213ZM202.361 107.101C202.787 107.329 202.948 107.859 202.721 108.285C202.494 108.711 201.964 108.873 201.538 108.646C201.112 108.419 200.95 107.888 201.177 107.462C201.404 107.036 201.934 106.875 202.361 107.101ZM172.779 162.577C173.687 163.06 174.031 164.189 173.547 165.097C173.064 166.004 171.934 166.348 171.027 165.865C170.119 165.381 169.775 164.252 170.259 163.345C170.742 162.437 171.872 162.093 172.779 162.577ZM166.903 173.6C167.287 173.805 167.432 174.281 167.226 174.665C167.021 175.049 166.545 175.194 166.161 174.988C165.777 174.783 165.632 174.306 165.838 173.923C166.043 173.539 166.519 173.394 166.903 173.6ZM175.777 142.536C177.213 143.302 177.756 145.085 176.99 146.52C176.223 147.956 174.441 148.498 173.005 147.732C171.57 146.966 171.027 145.183 171.793 143.748C172.56 142.312 174.342 141.77 175.777 142.536ZM181.677 131.473C182.833 132.09 183.27 133.526 182.653 134.682C182.036 135.838 180.601 136.275 179.444 135.658C178.289 135.041 177.852 133.605 178.468 132.449C179.085 131.293 180.521 130.857 181.677 131.473ZM187.574 120.411C188.451 120.878 188.782 121.967 188.314 122.841C187.847 123.715 186.758 124.048 185.884 123.581C185.009 123.114 184.676 122.025 185.144 121.15C185.611 120.277 186.7 119.943 187.574 120.411ZM193.474 109.348C194.071 109.666 194.296 110.406 193.978 111.003C193.66 111.6 192.92 111.825 192.323 111.507C191.726 111.189 191.501 110.449 191.819 109.852C192.137 109.255 192.877 109.03 193.474 109.348ZM199.371 98.2854C199.688 98.4536 199.807 98.8472 199.639 99.1623C199.471 99.4774 199.077 99.5983 198.762 99.43C198.447 99.2621 198.326 98.8682 198.494 98.5531C198.662 98.2379 199.056 98.1171 199.373 98.2853L199.371 98.2854ZM169.835 153.681C170.871 154.234 171.261 155.52 170.711 156.555C170.161 157.588 168.871 157.981 167.837 157.43C166.803 156.88 166.411 155.59 166.961 154.557C167.511 153.523 168.801 153.13 169.835 153.681ZM163.898 164.817C164.537 165.158 164.778 165.95 164.437 166.589C164.095 167.228 163.303 167.47 162.664 167.129C162.025 166.787 161.783 165.995 162.125 165.356C162.467 164.717 163.259 164.475 163.898 164.817Z" fill="url(#paint11_linear_280_2418)" fill-opacity="0.3"/>
<path d="M162.503 147.408C161.88 148.911 162.593 150.632 164.097 151.256C165.6 151.88 167.321 151.166 167.945 149.663C168.569 148.159 167.855 146.439 166.352 145.814C164.848 145.191 163.127 145.904 162.503 147.408ZM171.175 134.182C172.412 134.697 173 136.116 172.488 137.356C171.975 138.595 170.554 139.181 169.315 138.668C168.075 138.156 167.489 136.735 168.002 135.495C168.514 134.256 169.935 133.67 171.175 134.182ZM175.998 122.548C176.972 122.951 177.434 124.068 177.031 125.044C176.628 126.019 175.511 126.479 174.535 126.076C173.562 125.673 173.099 124.556 173.502 123.581C173.906 122.605 175.023 122.145 175.998 122.548ZM180.821 110.916C181.531 111.21 181.868 112.025 181.574 112.734C181.28 113.443 180.465 113.78 179.755 113.487C179.046 113.193 178.709 112.378 179.003 111.668C179.297 110.959 180.112 110.622 180.821 110.916ZM185.645 99.2837C186.09 99.4684 186.302 99.9793 186.116 100.427C185.932 100.875 185.421 101.084 184.973 100.899C184.526 100.714 184.317 100.203 184.501 99.7558C184.686 99.3084 185.197 99.0989 185.645 99.2837ZM161.565 157.359C162.516 157.754 162.966 158.843 162.572 159.794C162.177 160.745 161.089 161.195 160.138 160.801C159.187 160.406 158.736 159.318 159.131 158.367C159.525 157.416 160.614 156.965 161.565 157.359ZM156.781 168.896C157.181 169.061 157.374 169.522 157.206 169.925C157.038 170.327 156.579 170.518 156.177 170.35C155.774 170.182 155.584 169.723 155.752 169.321C155.919 168.918 156.378 168.728 156.781 168.896ZM162.611 137.121C164.115 137.745 164.826 139.468 164.204 140.969C163.583 142.471 161.857 143.184 160.356 142.563C158.855 141.941 158.142 140.216 158.763 138.714C159.384 137.213 161.11 136.5 162.611 137.121ZM167.414 125.54C168.625 126.042 169.199 127.43 168.696 128.64C168.192 129.85 166.807 130.425 165.596 129.921C164.386 129.42 163.812 128.032 164.315 126.822C164.819 125.611 166.204 125.037 167.414 125.54ZM172.215 113.96C173.133 114.34 173.568 115.391 173.187 116.308C172.807 117.225 171.756 117.66 170.839 117.28C169.922 116.899 169.487 115.849 169.867 114.931C170.247 114.014 171.298 113.579 172.215 113.96ZM177.017 102.379C177.641 102.637 177.936 103.354 177.679 103.976C177.421 104.598 176.704 104.896 176.082 104.639C175.46 104.381 175.162 103.663 175.419 103.042C175.677 102.419 176.394 102.121 177.017 102.379ZM181.82 90.7984C182.151 90.9355 182.307 91.3155 182.17 91.6466C182.033 91.9781 181.653 92.1347 181.322 91.9975C180.991 91.8604 180.834 91.48 180.971 91.1489C181.108 90.8178 181.489 90.6612 181.82 90.7984ZM157.774 148.787C158.857 149.237 159.372 150.48 158.922 151.563C158.472 152.646 157.229 153.161 156.146 152.711C155.063 152.261 154.548 151.018 154.998 149.935C155.448 148.852 156.691 148.337 157.774 148.787ZM152.94 160.446C153.609 160.723 153.926 161.49 153.649 162.16C153.372 162.829 152.604 163.146 151.935 162.869C151.266 162.592 150.949 161.824 151.226 161.155C151.503 160.486 152.271 160.169 152.94 160.446Z" fill="url(#paint12_linear_280_2418)" fill-opacity="0.3"/>
<path d="M150.419 143.088C149.982 144.656 150.899 146.279 152.467 146.716C154.035 147.153 155.658 146.237 156.095 144.669C156.532 143.101 155.615 141.478 154.047 141.041C152.48 140.604 150.857 141.52 150.419 143.088ZM157.423 128.909C158.715 129.269 159.47 130.608 159.111 131.898C158.752 133.188 157.412 133.945 156.122 133.586C154.832 133.226 154.075 131.887 154.434 130.597C154.793 129.307 156.133 128.55 157.423 128.909ZM160.8 116.777C161.817 117.061 162.411 118.112 162.127 119.128C161.843 120.145 160.792 120.739 159.775 120.455C158.759 120.171 158.165 119.12 158.449 118.104C158.733 117.087 159.783 116.493 160.8 116.777ZM164.178 104.645C164.919 104.851 165.351 105.618 165.145 106.359C164.939 107.1 164.172 107.533 163.431 107.327C162.69 107.121 162.257 106.354 162.463 105.613C162.67 104.872 163.436 104.439 164.178 104.645ZM167.555 92.5133C168.021 92.6418 168.292 93.1251 168.163 93.5905C168.035 94.0559 167.552 94.3274 167.086 94.1986C166.621 94.0702 166.349 93.5872 166.478 93.1217C166.607 92.6561 167.09 92.3849 167.555 92.5133ZM150.695 153.08C151.687 153.356 152.267 154.382 151.989 155.374C151.712 156.365 150.687 156.945 149.696 156.668C148.704 156.393 148.124 155.366 148.402 154.374C148.679 153.383 149.703 152.803 150.695 153.08ZM147.346 165.113C147.764 165.228 148.009 165.664 147.893 166.082C147.777 166.5 147.342 166.744 146.924 166.629C146.506 166.513 146.261 166.078 146.377 165.66C146.493 165.242 146.928 164.997 147.346 165.113ZM149.28 132.865C150.848 133.302 151.765 134.925 151.327 136.493C150.89 138.061 149.267 138.977 147.7 138.54C146.132 138.103 145.215 136.48 145.653 134.912C146.09 133.344 147.713 132.428 149.28 132.865ZM152.642 120.787C153.903 121.137 154.642 122.445 154.291 123.708C153.941 124.971 152.634 125.708 151.371 125.358C150.108 125.007 149.371 123.7 149.721 122.436C150.072 121.173 151.379 120.437 152.642 120.787ZM156.004 108.71C156.96 108.975 157.519 109.966 157.253 110.924C156.988 111.882 155.997 112.439 155.039 112.173C154.084 111.907 153.524 110.917 153.79 109.959C154.056 109.001 155.046 108.444 156.004 108.71ZM159.366 96.632C160.017 96.813 160.399 97.4865 160.217 98.1392C160.036 98.7923 159.363 99.1717 158.71 98.9904C158.057 98.809 157.678 98.1359 157.859 97.4832C158.04 96.8301 158.713 96.4506 159.366 96.632ZM162.728 84.554C163.074 84.6508 163.276 85.0089 163.179 85.3546C163.083 85.7002 162.724 85.9025 162.379 85.8057C162.033 85.7089 161.831 85.351 161.928 85.0052C162.024 84.6595 162.383 84.4573 162.728 84.554ZM145.893 145.031C147.023 145.346 147.684 146.517 147.371 147.647C147.058 148.776 145.885 149.437 144.755 149.125C143.626 148.811 142.964 147.638 143.278 146.509C143.591 145.379 144.764 144.718 145.893 145.031ZM142.509 157.19C143.207 157.384 143.616 158.107 143.422 158.805C143.228 159.504 142.504 159.912 141.806 159.718C141.108 159.524 140.7 158.8 140.894 158.102C141.088 157.404 141.811 156.996 142.509 157.19Z" fill="url(#paint13_linear_280_2418)" fill-opacity="0.3"/>
<path d="M136.994 139.517C136.657 141.108 137.674 142.672 139.266 143.007C140.858 143.342 142.421 142.326 142.756 140.735C143.091 139.144 142.076 137.58 140.484 137.245C138.893 136.91 137.33 137.926 136.994 139.517ZM143.09 124.923C144.401 125.201 145.239 126.489 144.963 127.801C144.688 129.113 143.398 129.95 142.086 129.675C140.774 129.397 139.936 128.109 140.212 126.797C140.487 125.485 141.777 124.648 143.09 124.923ZM145.695 112.604C146.728 112.822 147.386 113.836 147.168 114.867C146.95 115.897 145.936 116.558 144.905 116.34C143.873 116.122 143.214 115.108 143.432 114.077C143.65 113.047 144.664 112.386 145.695 112.604ZM148.3 100.282C149.051 100.44 149.532 101.178 149.373 101.932C149.215 102.686 148.477 103.164 147.723 103.006C146.969 102.847 146.491 102.109 146.649 101.355C146.808 100.602 147.546 100.123 148.3 100.282ZM150.903 87.9619C151.375 88.0608 151.678 88.5256 151.576 88.9977C151.475 89.4696 151.013 89.7723 150.541 89.6711C150.068 89.5699 149.766 89.1074 149.867 88.6353C149.968 88.1632 150.431 87.8605 150.903 87.9619ZM137.9 149.472C138.905 149.684 139.55 150.673 139.336 151.679C139.122 152.685 138.134 153.329 137.129 153.115C136.123 152.904 135.478 151.914 135.692 150.908C135.907 149.903 136.894 149.258 137.9 149.472ZM135.316 161.692C135.74 161.783 136.012 162.199 135.923 162.623C135.834 163.048 135.416 163.319 134.991 163.231C134.567 163.142 134.295 162.724 134.384 162.299C134.472 161.874 134.891 161.603 135.316 161.692ZM135.212 129.387C136.803 129.725 137.821 131.286 137.484 132.877C137.146 134.468 135.585 135.486 133.994 135.148C132.403 134.811 131.385 133.25 131.722 131.659C132.06 130.067 133.621 129.05 135.212 129.387ZM137.804 117.122C139.084 117.393 139.905 118.651 139.634 119.932C139.364 121.212 138.105 122.033 136.824 121.762C135.544 121.491 134.723 120.232 134.994 118.952C135.265 117.672 136.524 116.851 137.804 117.122ZM140.398 104.855C141.37 105.059 141.99 106.013 141.785 106.984C141.58 107.956 140.627 108.575 139.656 108.371C138.684 108.166 138.064 107.213 138.269 106.241C138.474 105.269 139.427 104.65 140.398 104.855ZM142.99 92.5891C143.651 92.7294 144.074 93.3782 143.934 94.0387C143.793 94.6993 143.144 95.1221 142.484 94.9817C141.823 94.8414 141.4 94.1926 141.541 93.5322C141.681 92.8718 142.33 92.4487 142.99 92.5891ZM145.585 80.3239C145.937 80.398 146.161 80.7418 146.086 81.0938C146.012 81.4456 145.668 81.6694 145.317 81.5954C144.965 81.5211 144.741 81.1777 144.815 80.8256C144.889 80.4738 145.233 80.25 145.585 80.3239ZM132.6 141.743C133.749 141.986 134.482 143.114 134.239 144.26C133.997 145.407 132.869 146.142 131.722 145.9C130.574 145.657 129.84 144.529 130.083 143.383C130.325 142.237 131.454 141.5 132.6 141.743ZM129.988 154.09C130.696 154.241 131.15 154.935 130.999 155.644C130.849 156.352 130.154 156.806 129.446 156.655C128.738 156.504 128.283 155.81 128.434 155.102C128.585 154.393 129.28 153.939 129.988 154.09Z" fill="url(#paint14_linear_280_2418)" fill-opacity="0.3"/>
<path d="M124.316 137.731C124.179 139.351 125.382 140.778 127.002 140.915C128.622 141.052 130.049 139.849 130.186 138.229C130.322 136.609 129.12 135.182 127.5 135.045C125.88 134.909 124.453 136.112 124.316 137.731ZM128.561 122.498C129.896 122.612 130.888 123.786 130.774 125.121C130.66 126.457 129.486 127.448 128.15 127.334C126.815 127.221 125.824 126.046 125.938 124.71C126.051 123.375 127.226 122.384 128.561 122.498ZM129.624 109.95C130.676 110.039 131.454 110.965 131.366 112.014C131.278 113.063 130.352 113.844 129.303 113.756C128.254 113.668 127.473 112.742 127.561 111.692C127.649 110.643 128.575 109.862 129.624 109.95ZM130.688 97.4006C131.453 97.4659 132.022 98.139 131.957 98.9039C131.892 99.6693 131.219 100.238 130.453 100.173C129.688 100.108 129.12 99.4345 129.185 98.6695C129.25 97.9041 129.923 97.3356 130.688 97.4006ZM131.752 84.8533C132.233 84.893 132.589 85.3177 132.549 85.799C132.51 86.2801 132.085 86.6364 131.604 86.5966C131.122 86.557 130.766 86.1321 130.806 85.651C130.846 85.1697 131.27 84.8134 131.752 84.8533ZM126.443 147.499C127.467 147.585 128.229 148.487 128.143 149.511C128.056 150.535 127.155 151.297 126.131 151.21C125.107 151.124 124.345 150.223 124.431 149.198C124.517 148.174 125.419 147.413 126.443 147.499ZM125.389 159.943C125.823 159.98 126.143 160.36 126.106 160.793C126.07 161.226 125.69 161.547 125.257 161.51C124.824 161.474 124.503 161.094 124.54 160.66C124.576 160.228 124.957 159.907 125.389 159.943ZM121.295 127.899C122.915 128.035 124.118 129.46 123.981 131.082C123.844 132.704 122.42 133.905 120.798 133.768C119.178 133.631 117.975 132.207 118.112 130.585C118.249 128.962 119.673 127.762 121.295 127.899ZM122.355 115.409C123.66 115.52 124.628 116.667 124.516 117.97C124.405 119.274 123.258 120.244 121.955 120.132C120.651 120.021 119.681 118.874 119.792 117.57C119.904 116.267 121.051 115.297 122.355 115.409ZM123.412 102.916C124.401 103 125.136 103.869 125.052 104.859C124.968 105.849 124.098 106.583 123.109 106.499C122.119 106.415 121.385 105.546 121.469 104.556C121.553 103.566 122.422 102.832 123.412 102.916ZM124.471 90.4234C125.145 90.4796 125.643 91.0714 125.587 91.7451C125.531 92.4187 124.939 92.9172 124.266 92.861C123.592 92.8051 123.094 92.213 123.15 91.5393C123.206 90.866 123.798 90.3675 124.471 90.4234ZM125.528 77.9308C125.886 77.9614 126.151 78.276 126.12 78.6334C126.09 78.9906 125.775 79.2557 125.418 79.2251C125.061 79.1946 124.795 78.8799 124.826 78.5225C124.857 78.1653 125.171 77.9002 125.528 77.9308ZM120.229 140.483C121.397 140.582 122.265 141.609 122.166 142.779C122.067 143.95 121.04 144.816 119.869 144.716C118.699 144.617 117.833 143.59 117.933 142.42C118.032 141.249 119.058 140.383 120.229 140.483ZM119.163 153.06C119.885 153.122 120.42 153.756 120.36 154.477C120.3 155.199 119.664 155.733 118.942 155.674C118.221 155.614 117.686 154.978 117.746 154.257C117.805 153.535 118.442 153 119.163 153.06Z" fill="url(#paint15_linear_280_2418)" fill-opacity="0.3"/>
<path d="M111.513 137.364C111.576 138.989 112.945 140.256 114.57 140.192C116.195 140.129 117.462 138.76 117.398 137.135C117.335 135.509 115.966 134.243 114.341 134.307C112.715 134.37 111.449 135.739 111.513 137.364ZM113.846 121.721C115.185 121.669 116.314 122.713 116.366 124.051C116.418 125.39 115.374 126.519 114.036 126.571C112.698 126.624 111.568 125.58 111.516 124.241C111.464 122.903 112.508 121.774 113.846 121.721ZM113.354 109.139C114.408 109.098 115.296 109.919 115.336 110.973C115.377 112.027 114.556 112.915 113.502 112.955C112.448 112.996 111.56 112.175 111.52 111.121C111.479 110.067 112.3 109.179 113.354 109.139ZM112.86 96.5558C113.627 96.5268 114.275 97.1249 114.304 97.8924C114.334 98.6597 113.735 99.3076 112.968 99.337C112.2 99.3661 111.552 98.7679 111.523 98.0004C111.494 97.2332 112.092 96.5852 112.86 96.5558ZM112.368 83.9709C112.851 83.9532 113.257 84.3286 113.275 84.8093C113.293 85.2904 112.917 85.6983 112.436 85.7164C111.955 85.7344 111.547 85.3587 111.529 84.8779C111.511 84.3973 111.887 83.9889 112.368 83.9709ZM114.828 146.794C115.857 146.754 116.723 147.555 116.763 148.581C116.803 149.608 116.002 150.476 114.976 150.516C113.947 150.556 113.081 149.756 113.041 148.729C113.001 147.703 113.802 146.835 114.828 146.794ZM115.318 159.273C115.753 159.257 116.118 159.594 116.135 160.029C116.151 160.463 115.814 160.828 115.379 160.845C114.945 160.862 114.58 160.524 114.563 160.089C114.546 159.655 114.884 159.29 115.318 159.273ZM107.302 127.979C108.927 127.916 110.296 129.182 110.359 130.807C110.423 132.432 109.156 133.801 107.531 133.865C105.906 133.928 104.537 132.662 104.474 131.037C104.41 129.412 105.676 128.043 107.302 127.979ZM106.81 115.452C108.119 115.4 109.222 116.421 109.271 117.729C109.321 119.038 108.303 120.141 106.994 120.191C105.686 120.24 104.583 119.222 104.533 117.913C104.483 116.605 105.502 115.502 106.81 115.452ZM106.321 102.925C107.312 102.886 108.148 103.658 108.186 104.649C108.225 105.641 107.454 106.477 106.462 106.515C105.47 106.553 104.635 105.782 104.596 104.79C104.558 103.799 105.329 102.963 106.321 102.925ZM105.829 90.3976C106.504 90.3706 107.072 90.8962 107.099 91.5714C107.126 92.2463 106.6 92.8143 105.925 92.841C105.25 92.8678 104.682 92.3422 104.655 91.6673C104.628 90.992 105.154 90.4244 105.829 90.3976ZM105.34 77.8702C105.698 77.8574 106 78.1353 106.014 78.4934C106.026 78.8518 105.749 79.1542 105.39 79.1674C105.032 79.1802 104.73 78.9023 104.717 78.5443C104.704 78.1858 104.981 77.8834 105.34 77.8702ZM107.796 140.599C108.968 140.553 109.957 141.467 110.003 142.639C110.048 143.811 109.135 144.8 107.963 144.845C106.791 144.891 105.802 143.978 105.756 142.806C105.71 141.634 106.624 140.645 107.796 140.599ZM108.29 153.209C109.014 153.181 109.623 153.745 109.651 154.468C109.679 155.192 109.115 155.8 108.392 155.829C107.668 155.856 107.06 155.293 107.032 154.57C107.004 153.846 107.567 153.237 108.29 153.209Z" fill="url(#paint16_linear_280_2418)" fill-opacity="0.3"/>
<path d="M97.653 138.607C97.8184 140.226 99.2654 141.403 100.884 141.236C102.503 141.068 103.681 139.623 103.513 138.004C103.345 136.386 101.901 135.208 100.282 135.376C98.6627 135.544 97.4853 136.988 97.653 138.607ZM98.9994 122.848C100.333 122.71 101.525 123.683 101.663 125.016C101.801 126.349 100.828 127.541 99.495 127.679C98.1619 127.817 96.9696 126.845 96.8317 125.512C96.6939 124.178 97.6663 122.986 98.9994 122.848ZM97.7148 110.321C98.7647 110.213 99.7022 110.978 99.8101 112.025C99.9183 113.073 99.1535 114.013 98.1061 114.121C97.0587 114.228 96.1187 113.464 96.0105 112.416C95.9026 111.369 96.6674 110.429 97.7148 110.321ZM96.4302 97.7933C97.1943 97.7154 97.8776 98.27 97.9579 99.0366C98.038 99.8031 97.481 100.484 96.7145 100.564C95.9479 100.644 95.2671 100.087 95.187 99.3207C95.107 98.5542 95.6637 97.8733 96.4302 97.7933ZM95.146 85.2656C95.6265 85.2155 96.0553 85.565 96.1054 86.0458C96.1558 86.5267 95.8064 86.9552 95.3254 87.0056C94.8446 87.0556 94.4161 86.7062 94.3658 86.2253C94.3157 85.7445 94.6651 85.316 95.146 85.2656ZM101.557 147.808C102.581 147.703 103.495 148.448 103.6 149.472C103.705 150.496 102.961 151.41 101.936 151.515C100.912 151.62 99.9986 150.875 99.8933 149.851C99.7883 148.827 100.533 147.913 101.557 147.808ZM102.831 160.233C103.263 160.189 103.65 160.503 103.695 160.935C103.739 161.367 103.425 161.754 102.993 161.799C102.561 161.843 102.174 161.529 102.129 161.097C102.084 160.665 102.399 160.278 102.831 160.233ZM92.8611 129.507C94.4799 129.341 95.9245 130.519 96.0923 132.135C96.2601 133.752 95.0805 135.199 93.4638 135.367C91.845 135.532 90.4003 134.355 90.2325 132.738C90.0648 131.121 91.2447 129.675 92.8611 129.507ZM91.5819 117.035C92.8848 116.902 94.0488 117.849 94.1819 119.152C94.3151 120.455 93.368 121.619 92.0648 121.752C90.7621 121.885 89.5981 120.938 89.4649 119.635C89.3317 118.332 90.2788 117.168 91.5819 117.035ZM90.3046 104.563C91.2918 104.462 92.175 105.182 92.276 106.169C92.3766 107.156 91.6576 108.039 90.6707 108.14C89.6836 108.241 88.8003 107.522 88.6994 106.535C88.5987 105.548 89.3178 104.664 90.3046 104.563ZM89.0255 92.0915C89.6967 92.023 90.2972 92.5116 90.368 93.1831C90.4389 93.8543 89.9479 94.4548 89.2764 94.5256C88.6052 94.5965 88.0047 94.1055 87.9339 93.4339C87.863 92.7628 88.354 92.1622 89.0255 92.0915ZM87.7461 79.6197C88.1037 79.5835 88.4214 79.842 88.4573 80.1996C88.4935 80.5572 88.2351 80.8749 87.8778 80.9109C87.5202 80.9471 87.2025 80.6887 87.1662 80.3313C87.1299 79.9736 87.3884 79.656 87.7461 79.6197ZM94.148 142.069C95.3161 141.949 96.358 142.8 96.4782 143.966C96.5982 145.132 95.7496 146.176 94.5814 146.296C93.4132 146.416 92.371 145.568 92.2511 144.399C92.1315 143.231 92.9817 142.189 94.148 142.069ZM95.4348 154.624C96.1549 154.55 96.7989 155.075 96.8732 155.794C96.9474 156.514 96.4233 157.159 95.7032 157.233C94.9831 157.307 94.3393 156.783 94.2651 156.063C94.1909 155.343 94.7151 154.699 95.4348 154.624Z" fill="url(#paint17_linear_280_2418)" fill-opacity="0.3"/>
<path d="M85.155 141.351C85.521 142.935 87.104 143.922 88.6867 143.556C90.2696 143.19 91.2586 141.607 90.8923 140.025C90.5264 138.442 88.9434 137.453 87.3606 137.819C85.778 138.185 84.7887 139.768 85.155 141.351ZM84.5268 125.547C85.8328 125.246 87.1358 126.06 87.4392 127.366C87.7425 128.673 86.9261 129.975 85.6198 130.279C84.3138 130.58 83.0112 129.765 82.7076 128.459C82.4042 127.153 83.2209 125.851 84.5268 125.547ZM81.6905 113.277C82.7175 113.039 83.7425 113.681 83.9812 114.708C84.2198 115.735 83.5778 116.76 82.5507 116.999C81.5238 117.237 80.4987 116.595 80.26 115.568C80.0217 114.541 80.6635 113.516 81.6905 113.277ZM78.8544 101.008C79.6024 100.834 80.3497 101.301 80.5232 102.049C80.6968 102.797 80.2298 103.545 79.4817 103.718C78.7337 103.892 77.9864 103.425 77.8128 102.677C77.6392 101.929 78.1064 101.181 78.8544 101.008ZM76.0181 88.738C76.4893 88.6295 76.959 88.9219 77.0675 89.3931C77.1761 89.8643 76.8835 90.3341 76.4123 90.4426C75.941 90.5512 75.4715 90.2585 75.3629 89.7873C75.2544 89.3161 75.5468 88.8466 76.0181 88.738ZM90.1763 149.993C91.1775 149.761 92.1784 150.385 92.4096 151.387C92.6408 152.388 92.0169 153.389 91.0157 153.62C90.0145 153.851 89.0136 153.227 88.7824 152.226C88.5512 151.225 89.1751 150.224 90.1763 149.993ZM92.9898 162.164C93.4142 162.066 93.8353 162.329 93.9332 162.754C94.0315 163.178 93.7677 163.599 93.3434 163.697C92.9189 163.795 92.4979 163.532 92.3999 163.107C92.302 162.683 92.5654 162.262 92.9898 162.164ZM79.2656 132.917C80.8505 132.551 82.4314 133.538 82.7973 135.123C83.1633 136.708 82.1768 138.289 80.5918 138.655C79.0069 139.021 77.426 138.034 77.0601 136.449C76.6941 134.864 77.6806 133.284 79.2656 132.917ZM76.444 120.702C77.7193 120.408 78.9936 121.201 79.2878 122.477C79.582 123.752 78.7882 125.027 77.5128 125.321C76.2374 125.615 74.9628 124.821 74.6686 123.546C74.3747 122.27 75.1683 120.996 76.444 120.702ZM73.6197 108.488C74.5857 108.264 75.5514 108.867 75.7757 109.835C76.0001 110.803 75.3973 111.767 74.4289 111.991C73.4605 112.216 72.4972 111.613 72.2729 110.644C72.0485 109.676 72.6513 108.712 73.6197 108.488ZM70.7956 96.2725C71.4544 96.1201 72.1115 96.5298 72.2617 97.1885C72.4118 97.8472 72.0042 98.5043 71.3455 98.6546C70.6868 98.8046 70.0296 98.3973 69.8772 97.7383C69.7248 97.0793 70.1346 96.4225 70.7934 96.2722L70.7956 96.2725ZM67.9737 84.0591C68.323 83.9788 68.6714 84.1954 68.7519 84.5448C68.8325 84.894 68.6157 85.2424 68.2664 85.323C67.917 85.4037 67.5687 85.1867 67.4881 84.8376C67.4076 84.4881 67.6243 84.1397 67.9737 84.0591ZM82.1108 145.222C83.2551 144.958 84.3948 145.67 84.6594 146.814C84.9238 147.959 84.2115 149.098 83.0672 149.363C81.9229 149.627 80.7831 148.915 80.5186 147.771C80.2542 146.626 80.9669 145.487 82.1108 145.222ZM84.9521 157.518C85.6579 157.355 86.3611 157.794 86.524 158.499C86.687 159.205 86.2484 159.908 85.5425 160.071C84.8368 160.234 84.1337 159.795 83.9706 159.09C83.8079 158.384 84.2464 157.68 84.9521 157.518Z" fill="url(#paint18_linear_280_2418)" fill-opacity="0.3"/>
<path d="M72.8766 145.267C73.4286 146.797 75.1157 147.591 76.6451 147.038C78.1745 146.486 78.9686 144.799 78.4163 143.27C77.864 141.74 76.1771 140.946 74.6477 141.499C73.118 142.051 72.3243 143.738 72.8766 145.267ZM70.3767 129.652C71.6385 129.198 73.0291 129.85 73.4834 131.112C73.9377 132.374 73.2851 133.765 72.0234 134.219C70.7614 134.673 69.3708 134.021 68.9166 132.759C68.4625 131.497 69.1149 130.106 70.3767 129.652ZM66.1057 117.806C67.0977 117.447 68.1919 117.963 68.5505 118.954C68.9092 119.947 68.3936 121.041 67.4016 121.399C66.4096 121.758 65.3154 121.242 64.9568 120.25C64.5981 119.258 65.1137 118.164 66.1057 117.806ZM61.8349 105.957C62.557 105.696 63.3549 106.07 63.6156 106.794C63.8762 107.519 63.5022 108.314 62.7778 108.575C62.0535 108.836 61.2579 108.462 60.9972 107.737C60.7366 107.013 61.1105 106.217 61.8349 105.957ZM57.564 94.11C58.0184 93.9475 58.5201 94.18 58.6826 94.6368C58.8452 95.0936 58.6128 95.593 58.1561 95.7555C57.6993 95.9181 57.2 95.6855 57.0374 95.2287C56.8748 94.772 57.1072 94.2725 57.564 94.11ZM78.8883 153.256C79.8565 152.907 80.9241 153.409 81.273 154.377C81.6217 155.345 81.1195 156.413 80.1513 156.761C79.1832 157.11 78.1156 156.608 77.7667 155.64C77.4179 154.672 77.9198 153.604 78.8883 153.256ZM83.1224 165.005C83.5321 164.857 83.9824 165.068 84.1298 165.477C84.2777 165.887 84.0672 166.337 83.6576 166.484C83.2482 166.632 82.7978 166.422 82.6503 166.012C82.5025 165.603 82.7131 165.152 83.1224 165.005ZM66.028 137.594C67.5575 137.042 69.2467 137.836 69.7965 139.365C70.3465 140.894 69.5547 142.584 68.0255 143.134C66.4963 143.684 64.8068 142.892 64.2569 141.363C63.707 139.833 64.4988 138.144 66.028 137.594ZM61.7764 125.799C63.0075 125.354 64.367 125.993 64.8117 127.227C65.2564 128.46 64.618 129.817 63.3845 130.262C62.1511 130.707 60.7939 130.068 60.3491 128.835C59.9044 127.601 60.5429 126.244 61.7764 125.799ZM57.5246 114.005C58.4575 113.667 59.487 114.153 59.8246 115.086C60.1622 116.018 59.6767 117.048 58.7439 117.386C57.811 117.723 56.7814 117.238 56.4439 116.305C56.1063 115.372 56.5918 114.343 57.5246 114.005ZM53.2729 102.211C53.9075 101.98 54.6095 102.31 54.8373 102.947C55.0651 103.584 54.7374 104.284 54.1007 104.512C53.4641 104.739 52.7641 104.412 52.5363 103.775C52.3084 103.138 52.6362 102.438 53.2729 102.211ZM49.021 90.4183C49.3571 90.2978 49.7295 90.4702 49.8523 90.8087C49.9751 91.1473 49.8006 91.5172 49.462 91.6401C49.1235 91.7627 48.7535 91.5882 48.6307 91.2497C48.5079 90.9112 48.6824 90.5412 49.021 90.4183ZM70.3127 149.474C71.4159 149.075 72.6351 149.648 73.0317 150.751C73.4285 151.854 72.8575 153.073 71.7543 153.47C70.6514 153.867 69.4322 153.296 69.0354 152.193C68.6389 151.09 69.2095 149.87 70.3127 149.474ZM74.5933 161.346C75.2752 161.101 76.026 161.453 76.2716 162.135C76.5168 162.817 76.1644 163.568 75.4829 163.813C74.801 164.059 74.0498 163.706 73.8047 163.024C73.5595 162.343 73.9114 161.592 74.5933 161.346Z" fill="url(#paint19_linear_280_2418)" fill-opacity="0.3"/>
<path d="M60.7682 150.169C61.4822 151.63 63.2475 152.236 64.7082 151.519C66.169 150.803 66.7746 149.04 66.0584 147.579C65.3421 146.119 63.5792 145.513 62.1185 146.229C60.6579 146.943 60.0519 148.709 60.7682 150.169ZM56.5845 134.917C57.7893 134.328 59.242 134.826 59.8318 136.03C60.4216 137.235 59.9236 138.688 58.7188 139.278C57.514 139.867 56.0613 139.369 55.4714 138.165C54.8817 136.96 55.3797 135.507 56.5845 134.917ZM51.048 123.608C51.9946 123.144 53.1393 123.537 53.6027 124.484C54.0661 125.43 53.6736 126.575 52.7269 127.038C51.7803 127.502 50.6356 127.109 50.1722 126.162C49.7089 125.216 50.1013 124.071 51.048 123.608ZM45.5139 112.296C46.2047 111.959 47.0392 112.244 47.376 112.935C47.7128 113.625 47.4283 114.46 46.7375 114.796C46.0468 115.133 45.2124 114.849 44.8755 114.158C44.5387 113.467 44.8232 112.633 45.5139 112.296ZM39.9777 100.984C40.4104 100.771 40.9343 100.952 41.147 101.385C41.3598 101.818 41.1786 102.342 40.7459 102.554C40.3132 102.767 39.7893 102.586 39.5765 102.153C39.3638 101.721 39.5449 101.197 39.9777 100.984ZM67.6127 157.455C68.5354 157.004 69.6533 157.385 70.1042 158.31C70.5553 159.235 70.1742 160.351 69.2495 160.802C68.3243 161.253 67.2088 160.872 66.7576 159.947C66.3064 159.022 66.6875 157.906 67.6127 157.455ZM73.1028 168.674C73.4925 168.483 73.9647 168.644 74.1553 169.034C74.3457 169.424 74.1846 169.896 73.7948 170.087C73.4051 170.277 72.9329 170.116 72.7422 169.726C72.5519 169.336 72.7133 168.864 73.1028 168.674ZM53.1244 143.286C54.5849 142.572 56.3504 143.176 57.0644 144.636C57.7784 146.097 57.1746 147.862 55.7141 148.576C54.2536 149.29 52.4881 148.686 51.7742 147.226C51.0602 145.765 51.6639 144 53.1244 143.286ZM47.6144 132.024C48.7906 131.449 50.2119 131.935 50.7876 133.111C51.3633 134.287 50.8769 135.709 49.7007 136.284C48.5246 136.86 47.1033 136.374 46.5276 135.197C45.9519 134.021 46.4383 132.6 47.6144 132.024ZM42.1042 120.765C42.9958 120.33 44.073 120.699 44.5083 121.588C44.9436 122.477 44.5743 123.557 43.6851 123.992C42.7958 124.428 41.7163 124.058 41.281 123.169C40.8457 122.28 41.2149 121.2 42.1042 120.765ZM36.5943 109.503C37.2014 109.206 37.9344 109.458 38.2313 110.065C38.5281 110.673 38.2764 111.406 37.6693 111.702C37.062 111.999 36.3289 111.748 36.0321 111.14C35.7353 110.533 35.987 109.8 36.5943 109.503ZM31.0842 98.2416C31.4069 98.0833 31.7959 98.2177 31.9522 98.5402C32.1085 98.8627 31.9763 99.252 31.6537 99.4082C31.3311 99.5644 30.9419 99.4324 30.7857 99.1096C30.6295 98.7872 30.7616 98.3979 31.0842 98.2416ZM58.6769 154.629C59.7311 154.113 61.0039 154.55 61.5194 155.604C62.0348 156.658 61.5984 157.931 60.5443 158.446C59.49 158.962 58.2173 158.526 57.7018 157.472C57.1863 156.417 57.6227 155.144 58.6769 154.629ZM64.2229 165.967C64.873 165.648 65.6578 165.917 65.9768 166.568C66.2959 167.218 66.0267 168.003 65.3763 168.322C64.7262 168.641 63.9415 168.371 63.6224 167.721C63.3034 167.071 63.5725 166.286 64.2229 165.967Z" fill="url(#paint20_linear_280_2418)" fill-opacity="0.3"/>
<path d="M48.0227 156.352C48.8085 157.776 50.5986 158.294 52.0229 157.509C53.4472 156.723 53.9651 154.933 53.1793 153.508C52.3935 152.084 50.6034 151.566 49.1791 152.352C47.7549 153.138 47.2369 154.928 48.0227 156.352ZM43.1013 141.321C44.2758 140.674 45.7521 141.102 46.3995 142.274C47.047 143.446 46.6186 144.925 45.4465 145.572C44.2744 146.219 42.7958 145.791 42.1482 144.619C41.501 143.444 41.9292 141.968 43.1013 141.321ZM37.0211 130.292C37.9458 129.783 39.106 130.119 39.6149 131.042C40.1239 131.964 39.7878 133.126 38.8655 133.635C37.9431 134.144 36.7806 133.808 36.2716 132.886C35.7627 131.964 36.0988 130.801 37.0211 130.292ZM30.9432 119.263C31.6156 118.893 32.4622 119.137 32.835 119.809C33.2077 120.482 32.9615 121.328 32.2889 121.701C31.6162 122.074 30.7699 121.828 30.3971 121.155C30.0244 120.482 30.2706 119.636 30.9432 119.263ZM24.863 108.234C25.2856 108.002 25.8186 108.154 26.0505 108.577C26.2824 108.999 26.1305 109.532 25.7079 109.764C25.2853 109.996 24.7523 109.844 24.5204 109.422C24.2885 108.999 24.4404 108.466 24.863 108.234ZM55.2126 163.295C56.1133 162.798 57.2466 163.125 57.7433 164.026C58.24 164.926 57.9129 166.06 57.0122 166.556C56.1115 167.053 54.9783 166.726 54.4816 165.825C53.9848 164.925 54.3119 163.791 55.2126 163.295ZM61.2418 174.235C61.6212 174.025 62.0997 174.163 62.3096 174.543C62.5193 174.922 62.3806 175.401 62.001 175.613C61.6213 175.825 61.1427 175.684 60.9307 175.304C60.7186 174.925 60.8598 174.446 61.2394 174.234L61.2418 174.235ZM40.0538 149.849C41.4781 149.063 43.2706 149.581 44.054 151.005C44.8376 152.429 44.3218 154.222 42.8977 155.005C41.4735 155.789 39.6808 155.273 38.8974 153.849C38.1116 152.425 38.6297 150.632 40.0538 149.849ZM34.0023 138.868C35.1504 138.235 36.5905 138.653 37.2237 139.799C37.857 140.945 37.4382 142.387 36.2924 143.021C35.1467 143.654 33.7043 143.235 33.071 142.089C32.4378 140.944 32.8566 139.501 34.0023 138.868ZM27.9484 127.889C28.8178 127.411 29.9104 127.726 30.3887 128.595C30.8669 129.465 30.552 130.557 29.6827 131.036C28.8133 131.514 27.7207 131.199 27.2424 130.33C26.7642 129.46 27.0791 128.367 27.9484 127.889ZM21.8969 116.909C22.4878 116.583 23.2327 116.799 23.5584 117.389C23.8841 117.98 23.6684 118.725 23.0776 119.051C22.4867 119.377 21.7417 119.161 21.4161 118.57C21.0904 117.979 21.3061 117.234 21.8969 116.909ZM15.8454 105.93C16.1599 105.757 16.555 105.871 16.728 106.186C16.9009 106.501 16.7868 106.896 16.4721 107.069C16.1576 107.241 15.7625 107.127 15.5895 106.813C15.4166 106.498 15.5307 106.103 15.8454 105.93ZM46.148 160.908C47.1758 160.343 48.4671 160.716 49.0352 161.744C49.6033 162.772 49.2278 164.063 48.1997 164.631C47.1717 165.199 45.8805 164.824 45.3124 163.796C44.7444 162.768 45.1198 161.477 46.148 160.908ZM52.2425 171.962C52.8766 171.612 53.6735 171.842 54.0237 172.476C54.3738 173.111 54.1428 173.907 53.5087 174.258C52.8745 174.608 52.0777 174.377 51.7275 173.743C51.3773 173.109 51.6084 172.312 52.2425 171.962Z" fill="url(#paint21_linear_280_2418)" fill-opacity="0.3"/>
<path d="M35.8635 163.632C36.7168 165.017 38.5317 165.447 39.9171 164.594C41.3026 163.741 41.7325 161.925 40.8793 160.54C40.0261 159.155 38.2111 158.725 36.8257 159.578C35.4403 160.431 35.0104 162.246 35.8635 163.632ZM30.2157 148.859C31.3574 148.156 32.8529 148.509 33.5556 149.651C34.2583 150.792 33.9048 152.288 32.7632 152.991C31.6216 153.693 30.126 153.34 29.4233 152.198C28.7206 151.057 29.0741 149.561 30.2157 148.859ZM23.6081 138.139C24.5061 137.584 25.6821 137.864 26.2366 138.762C26.7911 139.66 26.5115 140.836 25.6136 141.391C24.7157 141.945 23.5397 141.665 22.9851 140.768C22.4306 139.87 22.7101 138.694 23.6081 138.139ZM16.9983 127.417C17.6525 127.013 18.5113 127.216 18.9131 127.871C19.3148 128.525 19.1138 129.383 18.4597 129.785C17.8057 130.187 16.9468 129.986 16.5451 129.332C16.1433 128.678 16.3443 127.819 16.9983 127.417ZM10.3907 116.698C10.801 116.444 11.3404 116.571 11.5939 116.984C11.8472 117.397 11.7204 117.934 11.3077 118.187C10.8951 118.44 10.358 118.314 10.1046 117.901C9.85118 117.489 9.97794 116.952 10.3907 116.698ZM43.3816 170.215C44.2578 169.675 45.4043 169.948 45.9443 170.824C46.4843 171.7 46.2116 172.847 45.3354 173.387C44.4593 173.927 43.3127 173.654 42.7728 172.778C42.2328 171.902 42.5055 170.755 43.3816 170.215ZM49.938 180.848C50.3074 180.619 50.7922 180.735 51.0212 181.104C51.25 181.474 51.1339 181.959 50.7646 182.188C50.3952 182.417 49.9104 182.3 49.6814 181.931C49.4526 181.561 49.5686 181.077 49.938 180.848ZM27.587 157.523C28.9724 156.67 30.7852 157.099 31.6406 158.485C32.4937 159.871 32.0641 161.683 30.6785 162.539C29.2929 163.394 27.4803 162.962 26.6249 161.576C25.7694 160.191 26.2014 158.378 27.587 157.523ZM21.0083 146.849C22.1234 146.163 23.5848 146.51 24.271 147.625C24.9573 148.74 24.6108 150.201 23.4957 150.888C22.3807 151.574 20.9192 151.227 20.233 150.112C19.5467 148.997 19.8932 147.536 21.0083 146.849ZM14.4293 136.178C15.2743 135.657 16.3823 135.92 16.9014 136.764C17.4207 137.609 17.16 138.717 16.3153 139.236C15.4704 139.758 14.3624 139.495 13.8432 138.65C13.3239 137.806 13.5846 136.698 14.4293 136.178ZM7.85042 125.507C8.42498 125.152 9.17942 125.332 9.53398 125.907C9.88854 126.481 9.70905 127.235 9.13448 127.59C8.56002 127.945 7.80548 127.765 7.45092 127.191C7.09646 126.616 7.27599 125.862 7.85042 125.507ZM1.27192 114.833C1.57593 114.646 1.977 114.74 2.16456 115.046C2.35203 115.353 2.25827 115.752 1.9518 115.939C1.64543 116.126 1.24631 116.033 1.05916 115.726C0.871695 115.42 0.965453 115.021 1.27192 114.833ZM34.2156 168.271C35.2149 167.655 36.5221 167.967 37.1385 168.964C37.755 169.961 37.4427 171.271 36.4457 171.887C35.4487 172.504 34.1391 172.192 33.5227 171.194C32.9062 170.198 33.2185 168.888 34.2156 168.271ZM40.8374 179.017C41.4529 178.638 42.2619 178.828 42.641 179.446C43.02 180.064 42.8297 180.871 42.2119 181.25C41.5941 181.629 40.7874 181.438 40.4084 180.821C40.0293 180.203 40.2196 179.396 40.8374 179.017Z" fill="url(#paint22_linear_280_2418)" fill-opacity="0.3"/>
<path d="M24.6215 171.104C25.5889 172.41 27.4336 172.685 28.7423 171.716C30.0508 170.747 30.3237 168.904 29.3542 167.596C28.3869 166.289 26.5421 166.014 25.2336 166.983C23.925 167.953 23.6521 169.796 24.6215 171.104ZM17.7359 156.868C18.813 156.07 20.3339 156.297 21.1312 157.374C21.9286 158.451 21.7023 159.972 20.6252 160.769C19.5482 161.566 18.0272 161.34 17.2298 160.263C16.4325 159.186 16.6588 157.665 17.7359 156.868ZM10.2383 146.75C11.0863 146.122 12.2813 146.299 12.9086 147.147C13.536 147.995 13.3589 149.19 12.5108 149.818C11.6628 150.445 10.4679 150.268 9.84058 149.42C9.21325 148.572 9.39045 147.377 10.2383 146.75ZM2.74086 136.631C3.35749 136.174 4.23077 136.305 4.68828 136.921C5.1458 137.538 5.01522 138.411 4.39859 138.868C3.78195 139.326 2.90871 139.195 2.4512 138.579C1.99368 137.962 2.12423 137.089 2.74086 136.631ZM-4.75672 126.513C-4.36925 126.226 -3.82184 126.307 -3.53433 126.695C-3.24682 127.082 -3.32832 127.629 -3.71579 127.917C-4.10326 128.204 -4.65067 128.123 -4.93818 127.735C-5.22569 127.348 -5.14419 126.801 -4.75672 126.513ZM32.6743 177.026C33.5005 176.413 34.6681 176.586 35.2785 177.414C35.8888 178.243 35.7161 179.408 34.8901 180.019C34.0641 180.629 32.8965 180.456 32.286 179.63C31.6755 178.804 31.8484 177.637 32.6743 177.026ZM40.1111 187.061C40.4595 186.803 40.9521 186.876 41.2125 187.225C41.4729 187.573 41.3977 188.066 41.0491 188.326C40.7004 188.587 40.208 188.512 39.9477 188.163C39.6873 187.814 39.7624 187.322 40.1111 187.061ZM15.8562 165.723C17.1624 164.755 19.0072 165.028 19.9769 166.335C20.9442 167.641 20.6712 169.486 19.3648 170.455C18.0588 171.422 16.2138 171.15 15.2442 169.843C14.2747 168.537 14.5499 166.692 15.8562 165.723ZM8.3922 155.651C9.44498 154.87 10.9295 155.091 11.7102 156.144C12.4908 157.197 12.2694 158.682 11.2167 159.462C10.1639 160.243 8.67938 160.021 7.89869 158.969C7.11813 157.916 7.33943 156.431 8.3922 155.651ZM0.928218 145.579C1.72522 144.987 2.85171 145.154 3.44105 145.954C4.03049 146.753 3.8654 147.877 3.06633 148.466C2.26933 149.058 1.14283 148.891 0.553488 148.092C-0.0359506 147.293 0.129149 146.168 0.928218 145.579ZM-6.53555 135.505C-5.99209 135.102 -5.22613 135.218 -4.82535 135.758C-4.42468 136.3 -4.53819 137.068 -5.07935 137.469C-5.62042 137.87 -6.38877 137.756 -6.78954 137.215C-7.19022 136.674 -7.07671 135.906 -6.53555 135.505ZM-13.9995 125.433C-13.7119 125.219 -13.3061 125.281 -13.0921 125.568C-12.8779 125.856 -12.9399 126.261 -13.2276 126.476C-13.515 126.69 -13.9211 126.628 -14.1349 126.34C-14.3491 126.053 -14.2872 125.647 -13.9995 125.433ZM23.3746 175.87C24.3177 175.171 25.6472 175.37 26.3459 176.313C27.0447 177.256 26.8462 178.585 25.9031 179.284C24.96 179.983 23.6306 179.784 22.9318 178.841C22.2331 177.898 22.4316 176.569 23.3746 175.87ZM30.889 186.01C31.4713 185.58 32.2922 185.702 32.7225 186.282C33.1527 186.862 33.0303 187.686 32.4503 188.116C31.8703 188.546 31.0471 188.423 30.6168 187.844C30.1867 187.263 30.309 186.44 30.889 186.01Z" fill="url(#paint23_linear_280_2418)" fill-opacity="0.3"/>
<path d="M12.4206 179.916C13.388 181.222 15.2327 181.498 16.5412 180.529C17.8499 179.559 18.1228 177.716 17.1533 176.408C16.186 175.102 14.3412 174.826 13.0326 175.796C11.7265 176.763 11.4512 178.608 12.4206 179.916ZM5.535 165.68C6.61207 164.882 8.13299 165.109 8.93032 166.186C9.72763 167.263 9.50134 168.784 8.42432 169.581C7.34729 170.378 5.82624 170.152 5.0289 169.075C4.23159 167.998 4.45788 166.477 5.535 165.68ZM-1.96258 155.562C-1.11455 154.934 0.0804099 155.111 0.707709 155.959C1.33504 156.807 1.15793 158.002 0.30994 158.63C-0.538088 159.257 -1.73301 159.08 -2.36034 158.232C-2.98768 157.384 -2.81047 156.189 -1.96258 155.562ZM-9.46 145.444C-8.84343 144.986 -7.97029 145.117 -7.51264 145.733C-7.055 146.35 -7.18577 147.223 -7.80234 147.681C-8.41891 148.138 -9.29205 148.007 -9.7497 147.391C-10.2073 146.774 -10.0766 145.901 -9.46 145.444ZM-16.9576 135.325C-16.5701 135.038 -16.0227 135.119 -15.7352 135.507C-15.4477 135.894 -15.5292 136.442 -15.9166 136.729C-16.3041 137.017 -16.8515 136.935 -17.139 136.548C-17.4265 136.16 -17.3451 135.613 -16.9576 135.325ZM20.4734 185.838C21.2996 185.225 22.4672 185.398 23.0775 186.227C23.6878 187.055 23.5152 188.22 22.6891 188.831C21.8632 189.441 20.6955 189.268 20.0851 188.442C19.4746 187.616 19.6474 186.449 20.4734 185.838ZM27.9101 195.874C28.2586 195.616 28.7512 195.688 29.0115 196.037C29.272 196.386 29.1968 196.878 28.8481 197.139C28.4995 197.399 28.0071 197.324 27.7468 196.975C27.4864 196.626 27.5615 196.134 27.9101 195.874ZM3.65527 174.535C4.96146 173.568 6.80633 173.841 7.77597 175.147C8.74322 176.453 8.4703 178.298 7.16392 179.268C5.85763 180.237 4.01286 179.962 3.04332 178.655C2.076 177.349 2.34899 175.504 3.65527 174.535ZM-3.81095 164.463C-2.75817 163.682 -1.27367 163.903 -0.493111 164.956C0.287575 166.009 0.0662703 167.493 -0.986597 168.274C-2.03937 169.055 -3.52378 168.833 -4.30447 167.781C-5.08512 166.728 -4.86382 165.244 -3.81095 164.463ZM-11.2749 154.391C-10.478 153.799 -9.35148 153.967 -8.76217 154.766C-8.17263 155.565 -8.3377 156.689 -9.13706 157.279C-9.93599 157.868 -11.0605 157.703 -11.6498 156.904C-12.2391 156.105 -12.0742 154.98 -11.2749 154.391ZM-18.7389 144.317C-18.1954 143.914 -17.4293 144.03 -17.0287 144.571C-16.6277 145.112 -16.7415 145.88 -17.2826 146.281C-17.8234 146.682 -18.5921 146.568 -18.9928 146.027C-19.3935 145.486 -19.2799 144.717 -18.7389 144.317ZM-26.2028 134.245C-25.9151 134.031 -25.5093 134.093 -25.2951 134.38C-25.0813 134.668 -25.1432 135.074 -25.4306 135.288C-25.7182 135.502 -26.124 135.44 -26.3383 135.152C-26.5525 134.865 -26.4905 134.459 -26.2028 134.245ZM11.1714 184.682C12.1145 183.983 13.4439 184.182 14.1427 185.125C14.8414 186.068 14.643 187.397 13.6999 188.096C12.7568 188.795 11.4273 188.597 10.7287 187.653C10.0299 186.71 10.2283 185.381 11.1714 184.682ZM18.6858 194.822C19.2681 194.392 20.089 194.514 20.5192 195.094C20.9494 195.675 20.827 196.498 20.2471 196.928C19.6671 197.358 18.8438 197.236 18.4137 196.655C17.9834 196.076 18.1057 195.252 18.6858 194.822Z" fill="url(#paint24_linear_280_2418)" fill-opacity="0.3"/>
<path d="M1.84324 188.648C2.9058 189.881 4.76519 190.019 5.99763 188.956C7.2301 187.893 7.36813 186.034 6.30557 184.802C5.24292 183.569 3.38363 183.431 2.15119 184.494C0.918717 185.556 0.780691 187.416 1.84324 188.648ZM-6.07336 174.956C-5.05747 174.081 -3.52599 174.195 -2.65024 175.209C-1.77452 176.222 -1.88879 177.756 -2.90242 178.632C-3.91607 179.507 -5.44989 179.393 -6.3256 178.38C-7.20125 177.366 -7.08699 175.832 -6.07336 174.956ZM-14.2956 165.419C-13.4962 164.731 -12.2901 164.819 -11.6017 165.618C-10.9132 166.418 -11.0011 167.624 -11.8005 168.312C-12.5999 169.001 -13.8062 168.913 -14.4947 168.113C-15.1831 167.314 -15.095 166.108 -14.2956 165.419ZM-22.5202 155.882C-21.9373 155.38 -21.059 155.444 -20.5575 156.025C-20.0557 156.606 -20.12 157.486 -20.7008 157.988C-21.2812 158.489 -22.1619 158.425 -22.6635 157.845C-23.1649 157.264 -23.1006 156.384 -22.5202 155.882ZM-30.7421 146.343C-30.3758 146.028 -29.8255 146.068 -29.5086 146.433C-29.1919 146.797 -29.2344 147.349 -29.5987 147.666C-29.9628 147.983 -30.5152 147.94 -30.8322 147.576C-31.1492 147.212 -31.1063 146.659 -30.7421 146.343ZM10.3118 193.959C11.0915 193.288 12.2678 193.374 12.9392 194.154C13.6107 194.933 13.5249 196.11 12.7451 196.781C11.9654 197.453 10.7892 197.367 10.1176 196.587C9.44617 195.807 9.53196 194.631 10.3118 193.959ZM18.466 203.418C18.7956 203.133 19.2907 203.172 19.5757 203.499C19.8607 203.826 19.8221 204.324 19.4948 204.609C19.1673 204.894 18.67 204.855 18.385 204.528C18.1 204.2 18.1386 203.703 18.466 203.418ZM-7.29542 183.929C-6.06295 182.866 -4.20369 183.004 -3.14101 184.236C-2.07846 185.469 -2.21648 187.328 -3.44895 188.391C-4.68139 189.454 -6.54078 189.316 -7.60334 188.083C-8.66589 186.851 -8.52786 184.991 -7.29542 183.929ZM-15.4815 174.433C-14.4903 173.579 -12.9931 173.688 -12.1364 174.68C-11.2798 175.671 -11.3914 177.168 -12.3829 178.025C-13.3743 178.882 -14.8715 178.77 -15.7281 177.778C-16.5847 176.787 -16.4732 175.29 -15.4815 174.433ZM-23.6701 164.938C-22.9173 164.29 -21.7823 164.375 -21.1365 165.125C-20.4903 165.875 -20.5734 167.013 -21.3238 167.658C-22.0739 168.305 -23.2113 168.221 -23.8571 167.471C-24.5032 166.721 -24.4201 165.584 -23.6701 164.938ZM-31.8559 155.442C-31.3444 155 -30.5718 155.059 -30.1317 155.568C-29.6919 156.077 -29.7482 156.852 -30.2578 157.293C-30.767 157.733 -31.5419 157.676 -31.982 157.167C-32.4217 156.657 -32.3654 155.882 -31.8559 155.442ZM-40.0421 145.947C-39.7714 145.713 -39.361 145.743 -39.1273 146.014C-38.8935 146.285 -38.9234 146.695 -39.1941 146.929C-39.4648 147.162 -39.8752 147.133 -40.1089 146.862C-40.3427 146.591 -40.3128 146.181 -40.0421 145.947ZM0.950365 193.491C1.83857 192.723 3.17968 192.823 3.94699 193.712C4.71431 194.6 4.61412 195.941 3.72589 196.708C2.83778 197.476 1.49657 197.375 0.729249 196.487C-0.0380657 195.599 0.0622268 194.258 0.950365 193.491ZM9.19172 203.05C9.74018 202.578 10.5679 202.639 11.0398 203.185C11.5116 203.731 11.451 204.561 10.9049 205.033C10.3587 205.505 9.52871 205.444 9.05686 204.898C8.58498 204.352 8.64559 203.522 9.19172 203.05Z" fill="url(#paint25_linear_280_2418)" fill-opacity="0.3"/>
<path d="M-9.67503 198.334C-8.61245 199.567 -6.75308 199.705 -5.52074 198.642C-4.28827 197.58 -4.15025 195.72 -5.2128 194.488C-6.27535 193.255 -8.13474 193.117 -9.36718 194.18C-10.5997 195.243 -10.7377 197.102 -9.67503 198.334ZM-17.5919 184.642C-16.5758 183.767 -15.0442 183.881 -14.1686 184.895C-13.2929 185.908 -13.4071 187.442 -14.4208 188.318C-15.4367 189.193 -16.9681 189.079 -17.8438 188.066C-18.7195 187.052 -18.6054 185.518 -17.5919 184.642ZM-25.814 175.105C-25.0146 174.417 -23.8084 174.505 -23.1199 175.304C-22.4314 176.104 -22.5196 177.31 -23.319 177.998C-24.1184 178.687 -25.3244 178.599 -26.0129 177.799C-26.7014 177 -26.6134 175.794 -25.814 175.105ZM-34.0384 165.568C-33.4556 165.067 -32.5772 165.131 -32.0758 165.711C-31.5742 166.292 -31.6385 167.172 -32.219 167.674C-32.7998 168.176 -33.6801 168.111 -34.1817 167.531C-34.6835 166.95 -34.6192 166.07 -34.0384 165.568ZM-42.2606 156.031C-41.8944 155.717 -41.3441 155.757 -41.0271 156.121C-40.7101 156.485 -40.7529 157.037 -41.1172 157.354C-41.4814 157.671 -42.0337 157.629 -42.3507 157.264C-42.6677 156.9 -42.6249 156.348 -42.2606 156.031ZM-1.20658 203.646C-0.42685 202.974 0.749386 203.06 1.42094 203.84C2.09236 204.619 2.00649 205.796 1.22675 206.467C0.447022 207.139 -0.729215 207.053 -1.40067 206.273C-2.07223 205.493 -1.98632 204.317 -1.20658 203.646ZM6.94761 213.104C7.27735 212.819 7.77237 212.858 8.05742 213.185C8.34235 213.513 8.30378 214.01 7.97638 214.295C7.64896 214.58 7.15159 214.541 6.86667 214.214C6.58162 213.886 6.6203 213.389 6.94761 213.104ZM-18.8139 193.615C-17.5814 192.552 -15.7219 192.69 -14.6594 193.923C-13.5968 195.155 -13.7348 197.014 -14.9673 198.077C-16.1997 199.139 -18.0591 199.001 -19.1217 197.769C-20.1844 196.537 -20.046 194.677 -18.8139 193.615ZM-26.9997 184.119C-26.0084 183.265 -24.5113 183.374 -23.6546 184.366C-22.798 185.357 -22.9099 186.854 -23.9011 187.711C-24.8928 188.567 -26.3899 188.456 -27.2463 187.465C-28.1029 186.473 -27.9913 184.976 -26.9997 184.119ZM-35.1882 174.624C-34.4355 173.976 -33.3008 174.061 -32.6546 174.811C-32.0089 175.561 -32.0919 176.698 -32.842 177.345C-33.5921 177.99 -34.7295 177.908 -35.3756 177.157C-36.0215 176.407 -35.9383 175.27 -35.1882 174.624ZM-43.3744 165.128C-42.8625 164.686 -42.09 164.745 -41.6503 165.254C-41.2101 165.764 -41.2668 166.539 -41.776 166.979C-42.2851 167.419 -43.0604 167.362 -43.5002 166.853C-43.9403 166.343 -43.8837 165.569 -43.3744 165.128ZM-51.5606 155.635C-51.2899 155.402 -50.8795 155.431 -50.6457 155.702C-50.412 155.973 -50.4419 156.383 -50.7126 156.617C-50.9833 156.851 -51.3937 156.821 -51.6275 156.55C-51.8612 156.28 -51.8313 155.869 -51.5606 155.635ZM-10.5681 203.179C-9.67999 202.412 -8.33882 202.512 -7.5715 203.4C-6.80419 204.288 -6.90439 205.629 -7.79259 206.397C-8.68069 207.164 -10.0219 207.064 -10.7892 206.176C-11.5565 205.287 -11.4563 203.946 -10.5681 203.179ZM-2.32674 212.738C-1.77829 212.266 -0.950577 212.327 -0.478688 212.873C-0.00683584 213.419 -0.0674616 214.249 -0.613595 214.721C-1.15982 215.193 -1.98985 215.133 -2.46173 214.586C-2.93359 214.04 -2.87297 213.21 -2.32674 212.738Z" fill="url(#paint26_linear_280_2418)" fill-opacity="0.3"/>
</g>
</g>
<defs>
<linearGradient id="paint0_linear_280_2418" x1="12.0048" y1="195.264" x2="579.944" y2="194.781" gradientUnits="userSpaceOnUse">
<stop stop-color="#BC9632"/>
<stop offset="0.262187" stop-color="#FFEDA9"/>
<stop offset="1" stop-color="#BC9632"/>
</linearGradient>
<linearGradient id="paint1_linear_280_2418" x1="12.0056" y1="195.264" x2="579.945" y2="194.781" gradientUnits="userSpaceOnUse">
<stop stop-color="#BC9632"/>
<stop offset="0.262187" stop-color="#FFEDA9"/>
<stop offset="1" stop-color="#BC9632"/>
</linearGradient>
<linearGradient id="paint2_linear_280_2418" x1="12.0041" y1="195.264" x2="579.943" y2="194.781" gradientUnits="userSpaceOnUse">
<stop stop-color="#BC9632"/>
<stop offset="0.262187" stop-color="#FFEDA9"/>
<stop offset="1" stop-color="#BC9632"/>
</linearGradient>
<linearGradient id="paint3_linear_280_2418" x1="12.0036" y1="195.264" x2="579.943" y2="194.781" gradientUnits="userSpaceOnUse">
<stop stop-color="#BC9632"/>
<stop offset="0.262187" stop-color="#FFEDA9"/>
<stop offset="1" stop-color="#BC9632"/>
</linearGradient>
<linearGradient id="paint4_linear_280_2418" x1="12.0044" y1="195.264" x2="579.944" y2="194.781" gradientUnits="userSpaceOnUse">
<stop stop-color="#BC9632"/>
<stop offset="0.262187" stop-color="#FFEDA9"/>
<stop offset="1" stop-color="#BC9632"/>
</linearGradient>
<linearGradient id="paint5_linear_280_2418" x1="12.005" y1="195.264" x2="579.944" y2="194.781" gradientUnits="userSpaceOnUse">
<stop stop-color="#BC9632"/>
<stop offset="0.262187" stop-color="#FFEDA9"/>
<stop offset="1" stop-color="#BC9632"/>
</linearGradient>
<linearGradient id="paint6_linear_280_2418" x1="12.0053" y1="195.264" x2="579.945" y2="194.781" gradientUnits="userSpaceOnUse">
<stop stop-color="#BC9632"/>
<stop offset="0.262187" stop-color="#FFEDA9"/>
<stop offset="1" stop-color="#BC9632"/>
</linearGradient>
<linearGradient id="paint7_linear_280_2418" x1="12.0043" y1="195.264" x2="579.944" y2="194.781" gradientUnits="userSpaceOnUse">
<stop stop-color="#BC9632"/>
<stop offset="0.262187" stop-color="#FFEDA9"/>
<stop offset="1" stop-color="#BC9632"/>
</linearGradient>
<linearGradient id="paint8_linear_280_2418" x1="12.0056" y1="195.264" x2="579.945" y2="194.781" gradientUnits="userSpaceOnUse">
<stop stop-color="#BC9632"/>
<stop offset="0.262187" stop-color="#FFEDA9"/>
<stop offset="1" stop-color="#BC9632"/>
</linearGradient>
<linearGradient id="paint9_linear_280_2418" x1="12.0049" y1="195.264" x2="579.944" y2="194.781" gradientUnits="userSpaceOnUse">
<stop stop-color="#BC9632"/>
<stop offset="0.262187" stop-color="#FFEDA9"/>
<stop offset="1" stop-color="#BC9632"/>
</linearGradient>
<linearGradient id="paint10_linear_280_2418" x1="12.0047" y1="195.264" x2="579.944" y2="194.781" gradientUnits="userSpaceOnUse">
<stop stop-color="#BC9632"/>
<stop offset="0.262187" stop-color="#FFEDA9"/>
<stop offset="1" stop-color="#BC9632"/>
</linearGradient>
<linearGradient id="paint11_linear_280_2418" x1="12.0039" y1="195.264" x2="579.943" y2="194.781" gradientUnits="userSpaceOnUse">
<stop stop-color="#BC9632"/>
<stop offset="0.262187" stop-color="#FFEDA9"/>
<stop offset="1" stop-color="#BC9632"/>
</linearGradient>
<linearGradient id="paint12_linear_280_2418" x1="12.0046" y1="195.264" x2="579.944" y2="194.781" gradientUnits="userSpaceOnUse">
<stop stop-color="#BC9632"/>
<stop offset="0.262187" stop-color="#FFEDA9"/>
<stop offset="1" stop-color="#BC9632"/>
</linearGradient>
<linearGradient id="paint13_linear_280_2418" x1="12.0053" y1="195.264" x2="579.944" y2="194.781" gradientUnits="userSpaceOnUse">
<stop stop-color="#BC9632"/>
<stop offset="0.262187" stop-color="#FFEDA9"/>
<stop offset="1" stop-color="#BC9632"/>
</linearGradient>
<linearGradient id="paint14_linear_280_2418" x1="12.0049" y1="195.264" x2="579.944" y2="194.781" gradientUnits="userSpaceOnUse">
<stop stop-color="#BC9632"/>
<stop offset="0.262187" stop-color="#FFEDA9"/>
<stop offset="1" stop-color="#BC9632"/>
</linearGradient>
<linearGradient id="paint15_linear_280_2418" x1="12.0044" y1="195.264" x2="579.944" y2="194.781" gradientUnits="userSpaceOnUse">
<stop stop-color="#BC9632"/>
<stop offset="0.262187" stop-color="#FFEDA9"/>
<stop offset="1" stop-color="#BC9632"/>
</linearGradient>
<linearGradient id="paint16_linear_280_2418" x1="12.0056" y1="195.264" x2="579.945" y2="194.781" gradientUnits="userSpaceOnUse">
<stop stop-color="#BC9632"/>
<stop offset="0.262187" stop-color="#FFEDA9"/>
<stop offset="1" stop-color="#BC9632"/>
</linearGradient>
<linearGradient id="paint17_linear_280_2418" x1="12.0047" y1="195.264" x2="579.944" y2="194.781" gradientUnits="userSpaceOnUse">
<stop stop-color="#BC9632"/>
<stop offset="0.262187" stop-color="#FFEDA9"/>
<stop offset="1" stop-color="#BC9632"/>
</linearGradient>
<linearGradient id="paint18_linear_280_2418" x1="12.0048" y1="195.264" x2="579.944" y2="194.781" gradientUnits="userSpaceOnUse">
<stop stop-color="#BC9632"/>
<stop offset="0.262187" stop-color="#FFEDA9"/>
<stop offset="1" stop-color="#BC9632"/>
</linearGradient>
<linearGradient id="paint19_linear_280_2418" x1="12.0048" y1="195.264" x2="579.944" y2="194.781" gradientUnits="userSpaceOnUse">
<stop stop-color="#BC9632"/>
<stop offset="0.262187" stop-color="#FFEDA9"/>
<stop offset="1" stop-color="#BC9632"/>
</linearGradient>
<linearGradient id="paint20_linear_280_2418" x1="12.004" y1="195.264" x2="579.943" y2="194.781" gradientUnits="userSpaceOnUse">
<stop stop-color="#BC9632"/>
<stop offset="0.262187" stop-color="#FFEDA9"/>
<stop offset="1" stop-color="#BC9632"/>
</linearGradient>
<linearGradient id="paint21_linear_280_2418" x1="12.0033" y1="195.264" x2="579.942" y2="194.781" gradientUnits="userSpaceOnUse">
<stop stop-color="#BC9632"/>
<stop offset="0.262187" stop-color="#FFEDA9"/>
<stop offset="1" stop-color="#BC9632"/>
</linearGradient>
<linearGradient id="paint22_linear_280_2418" x1="12.0042" y1="195.264" x2="579.943" y2="194.781" gradientUnits="userSpaceOnUse">
<stop stop-color="#BC9632"/>
<stop offset="0.262187" stop-color="#FFEDA9"/>
<stop offset="1" stop-color="#BC9632"/>
</linearGradient>
<linearGradient id="paint23_linear_280_2418" x1="12.0044" y1="195.264" x2="579.944" y2="194.781" gradientUnits="userSpaceOnUse">
<stop stop-color="#BC9632"/>
<stop offset="0.262187" stop-color="#FFEDA9"/>
<stop offset="1" stop-color="#BC9632"/>
</linearGradient>
<linearGradient id="paint24_linear_280_2418" x1="12.0041" y1="195.264" x2="579.943" y2="194.781" gradientUnits="userSpaceOnUse">
<stop stop-color="#BC9632"/>
<stop offset="0.262187" stop-color="#FFEDA9"/>
<stop offset="1" stop-color="#BC9632"/>
</linearGradient>
<linearGradient id="paint25_linear_280_2418" x1="12.0041" y1="195.264" x2="579.943" y2="194.781" gradientUnits="userSpaceOnUse">
<stop stop-color="#BC9632"/>
<stop offset="0.262187" stop-color="#FFEDA9"/>
<stop offset="1" stop-color="#BC9632"/>
</linearGradient>
<linearGradient id="paint26_linear_280_2418" x1="12.0037" y1="195.264" x2="579.943" y2="194.781" gradientUnits="userSpaceOnUse">
<stop stop-color="#BC9632"/>
<stop offset="0.262187" stop-color="#FFEDA9"/>
<stop offset="1" stop-color="#BC9632"/>
</linearGradient>
<clipPath id="clip0_280_2418">
<rect width="296" height="264" fill="white"/>
</clipPath>
</defs>
</svg>
