<svg width="296" height="264" viewBox="0 0 296 264" fill="none" xmlns="http://www.w3.org/2000/svg">
<g clip-path="url(#clip0_280_2476)">
<rect width="296" height="264" fill="#003216"/>
<g opacity="0.23">
<path d="M251.861 142.897C253.12 144.231 255.221 144.292 256.554 143.032C257.887 141.774 257.945 139.673 256.689 138.341C255.429 137.007 253.329 136.947 251.996 138.205C250.662 139.464 250.601 141.564 251.861 142.897ZM261.662 148.45C262.503 147.654 263.833 147.691 264.631 148.537C265.426 149.382 265.386 150.709 264.544 151.505C263.699 152.3 262.369 152.263 261.575 151.418C260.78 150.573 260.817 149.245 261.662 148.45ZM271.323 158.686C271.681 158.351 272.24 158.366 272.577 158.723C272.915 159.08 272.898 159.64 272.543 159.979C272.184 160.316 271.626 160.298 271.288 159.941C270.951 159.584 270.967 159.024 271.323 158.686ZM241.333 138.048C242.666 136.789 244.766 136.852 246.026 138.183C247.283 139.513 247.221 141.616 245.892 142.875C244.555 144.133 242.458 144.071 241.198 142.74C239.939 141.406 240 139.306 241.333 138.048ZM231.636 127.773C232.709 126.76 234.397 126.807 235.413 127.882C236.425 128.956 236.375 130.646 235.302 131.659C234.229 132.672 232.537 132.623 231.526 131.549C230.514 130.475 230.56 128.785 231.636 127.773ZM251.099 148.395C252.061 147.489 253.576 147.532 254.486 148.495C255.396 149.458 255.348 150.971 254.385 151.88C253.423 152.789 251.912 152.744 251.002 151.782C250.092 150.819 250.137 149.305 251.099 148.395ZM260.863 158.741C261.458 158.182 262.391 158.208 262.951 158.802C263.515 159.397 263.486 160.33 262.893 160.892C262.296 161.454 261.364 161.425 260.801 160.83C260.24 160.236 260.27 159.303 260.863 158.741Z" fill="url(#paint0_linear_280_2476)" fill-opacity="0.3"/>
<path d="M239.385 154.389C240.644 155.723 242.741 155.782 244.074 154.523C245.408 153.264 245.469 151.165 244.209 149.831C242.95 148.497 240.853 148.438 239.52 149.697C238.187 150.956 238.125 153.055 239.385 154.389ZM229.778 139.374C230.878 138.337 232.608 138.388 233.645 139.485C234.682 140.581 234.631 142.315 233.535 143.353C232.435 144.389 230.704 144.338 229.667 143.242C228.631 142.145 228.682 140.411 229.778 139.374ZM220.039 129.054C220.902 128.238 222.263 128.278 223.08 129.141C223.901 130.004 223.858 131.367 222.994 132.184C222.131 133.001 220.77 132.96 219.953 132.098C219.132 131.234 219.175 129.871 220.039 129.054ZM249.187 159.939C250.028 159.143 251.358 159.18 252.153 160.025C252.947 160.87 252.907 162.197 252.066 162.993C251.224 163.789 249.894 163.752 249.1 162.907C248.301 162.061 248.341 160.734 249.187 159.939ZM258.848 170.175C259.202 169.839 259.765 169.855 260.102 170.212C260.44 170.569 260.423 171.129 260.064 171.466C259.709 171.804 259.147 171.786 258.809 171.429C258.472 171.072 258.489 170.512 258.848 170.175ZM228.854 149.536C230.191 148.278 232.288 148.34 233.548 149.671C234.807 151.005 234.746 153.105 233.413 154.363C232.08 155.622 229.979 155.559 228.719 154.228C227.463 152.898 227.525 150.795 228.854 149.536ZM219.158 139.261C220.231 138.248 221.922 138.296 222.934 139.37C223.946 140.444 223.9 142.135 222.827 143.148C221.75 144.16 220.062 144.112 219.05 143.038C218.035 141.963 218.084 140.274 219.158 139.261ZM209.461 128.986C210.274 128.219 211.556 128.255 212.321 129.067C213.09 129.879 213.051 131.162 212.242 131.93C211.429 132.696 210.146 132.66 209.378 131.847C208.613 131.036 208.648 129.752 209.461 128.986ZM238.624 159.887C239.585 158.98 241.1 159.023 242.01 159.986C242.917 160.948 242.872 162.462 241.909 163.371C240.947 164.28 239.433 164.235 238.523 163.272C237.616 162.31 237.661 160.796 238.624 159.887ZM248.387 170.23C248.98 169.67 249.916 169.697 250.476 170.291C251.036 170.885 251.011 171.819 250.414 172.38C249.822 172.94 248.886 172.912 248.325 172.319C247.765 171.725 247.791 170.791 248.387 170.23Z" fill="url(#paint1_linear_280_2476)" fill-opacity="0.3"/>
<path d="M225.524 165.976C226.708 167.377 228.802 167.551 230.204 166.367C231.602 165.183 231.777 163.089 230.593 161.688C229.41 160.288 227.315 160.114 225.917 161.298C224.515 162.481 224.341 164.575 225.524 165.976ZM216.753 150.462C217.906 149.486 219.633 149.63 220.609 150.785C221.584 151.939 221.437 153.663 220.284 154.639C219.131 155.615 217.404 155.47 216.429 154.316C215.453 153.161 215.596 151.437 216.753 150.462ZM207.586 139.624C208.494 138.857 209.852 138.972 210.621 139.878C211.389 140.783 211.272 142.143 210.367 142.911C209.459 143.679 208.101 143.564 207.332 142.658C206.567 141.754 206.681 140.392 207.586 139.624ZM198.421 128.791C199.085 128.231 200.072 128.313 200.632 128.975C201.192 129.637 201.11 130.626 200.446 131.185C199.787 131.745 198.796 131.662 198.24 131.001C197.68 130.339 197.762 129.351 198.421 128.791ZM235.01 172.051C235.897 171.303 237.221 171.413 237.968 172.298C238.718 173.185 238.607 174.509 237.721 175.257C236.834 176.005 235.51 175.896 234.763 175.01C234.013 174.124 234.124 172.8 235.01 172.051ZM244.097 182.799C244.473 182.484 245.035 182.53 245.348 182.903C245.664 183.277 245.619 183.838 245.243 184.153C244.871 184.469 244.31 184.422 243.993 184.048C243.68 183.675 243.725 183.115 244.097 182.799ZM215.278 160.558C216.68 159.374 218.774 159.55 219.955 160.948C221.138 162.349 220.964 164.443 219.566 165.627C218.168 166.811 216.07 166.634 214.886 165.236C213.701 163.837 213.88 161.742 215.278 160.558ZM206.155 149.771C207.282 148.817 208.966 148.957 209.922 150.085C210.874 151.211 210.735 152.898 209.608 153.852C208.481 154.806 206.793 154.664 205.841 153.538C204.885 152.411 205.028 150.725 206.155 149.771ZM197.028 138.983C197.883 138.262 199.161 138.368 199.881 139.223C200.605 140.079 200.497 141.354 199.642 142.076C198.787 142.798 197.513 142.693 196.789 141.837C196.068 140.984 196.173 139.706 197.028 138.983ZM187.906 128.194C188.486 127.701 189.357 127.776 189.849 128.357C190.338 128.938 190.268 129.809 189.685 130.299C189.105 130.789 188.234 130.717 187.745 130.137C187.253 129.555 187.327 128.685 187.906 128.194ZM224.468 171.425C225.478 170.571 226.988 170.697 227.84 171.706C228.696 172.718 228.569 174.228 227.56 175.082C226.55 175.936 225.037 175.809 224.184 174.799C223.332 173.789 223.455 172.278 224.468 171.425ZM233.652 182.286C234.274 181.76 235.208 181.836 235.732 182.458C236.259 183.082 236.183 184.013 235.561 184.54C234.939 185.066 234.005 184.99 233.478 184.367C232.954 183.744 233.031 182.812 233.652 182.286Z" fill="url(#paint2_linear_280_2476)" fill-opacity="0.3"/>
<path d="M211.875 177.067C213.016 178.504 215.104 178.742 216.54 177.603C217.973 176.463 218.213 174.374 217.075 172.94C215.934 171.503 213.846 171.265 212.41 172.404C210.978 173.544 210.737 175.634 211.875 177.067ZM203.588 161.289C204.77 160.349 206.492 160.548 207.432 161.731C208.371 162.914 208.173 164.635 206.991 165.575C205.805 166.513 204.087 166.316 203.148 165.133C202.208 163.95 202.406 162.229 203.588 161.289ZM194.765 150.176C195.697 149.436 197.051 149.593 197.788 150.524C198.528 151.456 198.373 152.809 197.442 153.549C196.51 154.289 195.156 154.132 194.415 153.2C193.678 152.269 193.833 150.916 194.765 150.176ZM185.939 139.061C186.616 138.522 187.602 138.633 188.141 139.312C188.68 139.991 188.567 140.977 187.89 141.515C187.21 142.052 186.223 141.941 185.688 141.264C185.149 140.585 185.262 139.598 185.943 139.061L185.939 139.061ZM177.116 127.948C177.542 127.61 178.16 127.681 178.497 128.105C178.834 128.53 178.763 129.151 178.341 129.489C177.914 129.827 177.293 129.755 176.956 129.331C176.619 128.906 176.689 128.285 177.116 127.948ZM221.171 183.435C222.077 182.714 223.401 182.865 224.121 183.772C224.841 184.68 224.692 186.001 223.782 186.722C222.871 187.443 221.552 187.292 220.832 186.382C220.111 185.475 220.261 184.153 221.171 183.433L221.171 183.435ZM229.925 194.457C230.306 194.152 230.866 194.217 231.172 194.601C231.474 194.983 231.41 195.542 231.029 195.847C230.644 196.152 230.084 196.087 229.782 195.705C229.477 195.321 229.541 194.762 229.925 194.457ZM201.802 171.337C203.239 170.197 205.325 170.438 206.467 171.872C207.605 173.306 207.364 175.395 205.932 176.535C204.496 177.674 202.405 177.433 201.267 175.999C200.13 174.564 200.37 172.477 201.802 171.337ZM193.017 160.271C194.173 159.352 195.857 159.546 196.772 160.701C197.685 161.855 197.495 163.538 196.339 164.454C195.184 165.37 193.503 165.179 192.587 164.024C191.671 162.869 191.862 161.186 193.017 160.271ZM184.231 149.207C185.109 148.513 186.379 148.657 187.077 149.534C187.774 150.411 187.628 151.684 186.752 152.381C185.873 153.078 184.6 152.93 183.906 152.054C183.208 151.177 183.355 149.904 184.231 149.207ZM175.445 138.141C176.043 137.668 176.91 137.767 177.383 138.363C177.855 138.958 177.758 139.827 177.16 140.3C176.565 140.774 175.698 140.674 175.222 140.078C174.75 139.482 174.851 138.615 175.445 138.141ZM166.663 127.075C166.981 126.823 167.437 126.877 167.691 127.195C167.942 127.511 167.888 127.97 167.57 128.222C167.253 128.474 166.797 128.42 166.542 128.103C166.292 127.786 166.346 127.327 166.663 127.075ZM210.651 182.482C211.691 181.66 213.194 181.834 214.015 182.868C214.84 183.903 214.667 185.41 213.631 186.233C212.595 187.056 211.092 186.882 210.267 185.847C209.442 184.812 209.619 183.306 210.651 182.482ZM219.494 193.62C220.134 193.114 221.066 193.221 221.57 193.857C222.078 194.495 221.973 195.428 221.333 195.934C220.697 196.441 219.765 196.334 219.258 195.697C218.75 195.06 218.858 194.127 219.494 193.62Z" fill="url(#paint3_linear_280_2476)" fill-opacity="0.3"/>
<path d="M197.664 187.426C198.756 188.895 200.838 189.201 202.305 188.105C203.776 187.01 204.081 184.93 202.986 183.46C201.89 181.991 199.811 181.686 198.34 182.781C196.873 183.877 196.568 185.956 197.664 187.426ZM189.863 171.4C191.077 170.499 192.792 170.749 193.691 171.96C194.594 173.172 194.343 174.886 193.133 175.788C191.919 176.688 190.204 176.438 189.305 175.227C188.402 174.015 188.653 172.301 189.863 171.4ZM181.387 160.016C182.342 159.307 183.691 159.504 184.402 160.458C185.109 161.41 184.911 162.759 183.96 163.47C183.006 164.179 181.656 163.982 180.946 163.028C180.239 162.076 180.433 160.725 181.387 160.016ZM172.914 148.635C173.609 148.117 174.59 148.261 175.108 148.956C175.626 149.651 175.482 150.634 174.788 151.152C174.093 151.67 173.109 151.525 172.591 150.83C172.072 150.135 172.219 149.154 172.914 148.635ZM164.438 137.252C164.873 136.927 165.492 137.017 165.814 137.453C166.14 137.89 166.05 138.507 165.612 138.831C165.178 139.156 164.558 139.066 164.236 138.629C163.911 138.192 164 137.575 164.438 137.252ZM206.755 194.078C207.681 193.383 209 193.576 209.693 194.508C210.387 195.439 210.192 196.752 209.262 197.445C208.333 198.138 207.017 197.946 206.324 197.015C205.63 196.086 205.821 194.77 206.755 194.078ZM215.16 205.368C215.553 205.074 216.108 205.156 216.399 205.549C216.694 205.942 216.611 206.497 216.218 206.79C215.828 207.084 215.27 207.001 214.979 206.609C214.684 206.216 214.766 205.661 215.16 205.368ZM187.77 181.387C189.237 180.29 191.316 180.595 192.412 182.065C193.508 183.535 193.203 185.614 191.736 186.71C190.265 187.806 188.186 187.501 187.09 186.031C185.995 184.561 186.3 182.481 187.77 181.387ZM179.33 170.054C180.515 169.172 182.187 169.419 183.071 170.603C183.954 171.787 183.707 173.46 182.522 174.343C181.338 175.225 179.666 174.978 178.782 173.794C177.899 172.61 178.146 170.937 179.33 170.054ZM170.89 158.722C171.788 158.055 173.059 158.239 173.726 159.137C174.398 160.036 174.209 161.303 173.31 161.972C172.415 162.643 171.146 162.456 170.478 161.558C169.81 160.66 169.992 159.392 170.89 158.722ZM162.454 147.391C163.062 146.937 163.926 147.062 164.382 147.673C164.834 148.282 164.71 149.146 164.098 149.6C163.49 150.054 162.627 149.929 162.171 149.318C161.718 148.709 161.842 147.845 162.454 147.391ZM154.018 136.06C154.34 135.818 154.796 135.885 155.04 136.21C155.281 136.534 155.215 136.992 154.889 137.232C154.567 137.474 154.107 137.407 153.867 137.083C153.626 136.759 153.692 136.301 154.018 136.06ZM196.269 192.8C197.331 192.01 198.832 192.232 199.618 193.291C200.407 194.352 200.188 195.853 199.127 196.64C198.065 197.43 196.564 197.209 195.778 196.149C194.989 195.088 195.208 193.588 196.269 192.8ZM204.766 204.206C205.42 203.719 206.344 203.854 206.831 204.507C207.318 205.161 207.183 206.087 206.53 206.574C205.876 207.061 204.952 206.927 204.465 206.273C203.974 205.618 204.112 204.694 204.766 204.206Z" fill="url(#paint4_linear_280_2476)" fill-opacity="0.3"/>
<path d="M183.046 197.348C184.091 198.856 186.157 199.232 187.663 198.189C189.174 197.146 189.55 195.08 188.506 193.572C187.461 192.064 185.396 191.687 183.889 192.731C182.382 193.775 182.006 195.841 183.046 197.348ZM175.817 181.057C177.059 180.197 178.763 180.508 179.625 181.751C180.483 182.993 180.172 184.697 178.93 185.557C177.688 186.418 175.984 186.106 175.126 184.865C174.264 183.622 174.576 181.917 175.817 181.057ZM167.746 169.383C168.722 168.706 170.065 168.953 170.74 169.929C171.416 170.906 171.173 172.247 170.193 172.923C169.217 173.6 167.878 173.354 167.202 172.378C166.523 171.4 166.769 170.06 167.746 169.383ZM159.677 157.713C160.388 157.219 161.366 157.397 161.855 158.11C162.348 158.824 162.174 159.802 161.46 160.293C160.745 160.783 159.766 160.607 159.278 159.894C158.785 159.18 158.962 158.203 159.677 157.713ZM151.601 146.038C152.051 145.729 152.664 145.841 152.974 146.29C153.284 146.738 153.172 147.351 152.722 147.661C152.272 147.971 151.659 147.858 151.349 147.409C151.039 146.961 151.155 146.349 151.601 146.038ZM191.901 204.312C192.853 203.651 194.162 203.89 194.821 204.845C195.483 205.8 195.243 207.104 194.288 207.764C193.332 208.425 192.031 208.187 191.368 207.232C190.71 206.278 190.946 204.972 191.901 204.312ZM199.906 215.89C200.308 215.61 200.864 215.714 201.14 216.115C201.417 216.517 201.315 217.07 200.914 217.348C200.514 217.626 199.96 217.526 199.68 217.123C199.404 216.721 199.506 216.168 199.906 215.89ZM173.371 190.963C174.878 189.919 176.948 190.297 177.988 191.804C179.033 193.312 178.656 195.381 177.15 196.422C175.64 197.462 173.573 197.088 172.533 195.581C171.492 194.073 171.865 192.004 173.371 190.963ZM165.336 179.341C166.551 178.502 168.214 178.806 169.053 180.02C169.891 181.235 169.588 182.899 168.372 183.737C167.161 184.577 165.494 184.273 164.655 183.058C163.817 181.843 164.121 180.179 165.336 179.341ZM157.303 167.722C158.224 167.086 159.484 167.315 160.121 168.237C160.758 169.159 160.527 170.418 159.607 171.055C158.686 171.691 157.425 171.462 156.789 170.54C156.152 169.618 156.382 168.359 157.303 167.722ZM149.267 156.1C149.893 155.668 150.751 155.824 151.186 156.451C151.617 157.077 151.46 157.936 150.834 158.368C150.209 158.801 149.351 158.645 148.915 158.018C148.484 157.391 148.642 156.533 149.267 156.1ZM141.231 144.481C141.562 144.251 142.017 144.333 142.25 144.668C142.48 145.001 142.396 145.455 142.065 145.686C141.73 145.915 141.275 145.832 141.045 145.499C140.816 145.166 140.896 144.711 141.231 144.481ZM181.466 202.667C182.556 201.915 184.046 202.188 184.796 203.274C185.55 204.36 185.278 205.853 184.192 206.604C183.105 207.356 181.612 207.083 180.862 205.998C180.108 204.908 180.38 203.419 181.466 202.667ZM189.557 214.368C190.228 213.903 191.146 214.071 191.611 214.744C192.076 215.417 191.909 216.335 191.238 216.8C190.563 217.265 189.645 217.097 189.18 216.424C188.715 215.751 188.882 214.833 189.557 214.368Z" fill="url(#paint5_linear_280_2476)" fill-opacity="0.3"/>
<path d="M168.072 206.73C169.059 208.272 171.114 208.724 172.656 207.732C174.198 206.743 174.65 204.69 173.66 203.148C172.666 201.604 170.618 201.154 169.075 202.145C167.53 203.133 167.081 205.187 168.072 206.73ZM161.419 190.198C162.691 189.382 164.382 189.752 165.195 191.024C166.012 192.297 165.641 193.987 164.369 194.803C163.097 195.62 161.406 195.249 160.589 193.976C159.776 192.704 160.143 191.014 161.419 190.198ZM153.763 178.248C154.761 177.606 156.094 177.899 156.735 178.898C157.376 179.899 157.084 181.231 156.083 181.872C155.085 182.514 153.752 182.221 153.111 181.222C152.47 180.221 152.762 178.889 153.763 178.248ZM146.103 166.3C146.833 165.834 147.802 166.045 148.27 166.775C148.741 167.506 148.527 168.475 147.795 168.943C147.064 169.412 146.096 169.199 145.628 168.469C145.16 167.739 145.371 166.768 146.102 166.303L146.103 166.3ZM138.447 154.35C138.904 154.056 139.515 154.189 139.806 154.647C140.102 155.105 139.967 155.713 139.51 156.007C139.053 156.301 138.442 156.168 138.151 155.711C137.855 155.252 137.99 154.644 138.447 154.35ZM176.675 214.003C177.648 213.377 178.948 213.662 179.573 214.637C180.197 215.613 179.915 216.912 178.939 217.537C177.962 218.162 176.662 217.877 176.038 216.902C175.413 215.926 175.699 214.628 176.675 214.003ZM184.269 225.854C184.682 225.591 185.23 225.709 185.494 226.123C185.759 226.538 185.639 227.085 185.227 227.348C184.811 227.611 184.263 227.493 184.002 227.08C183.737 226.665 183.857 226.119 184.269 225.854ZM158.628 200.011C160.17 199.022 162.222 199.47 163.212 201.013C164.203 202.556 163.755 204.609 162.209 205.597C160.667 206.586 158.615 206.138 157.624 204.595C156.638 203.053 157.086 201 158.628 200.011ZM151.004 188.115C152.246 187.32 153.899 187.68 154.698 188.923C155.496 190.166 155.133 191.817 153.89 192.615C152.647 193.413 150.994 193.05 150.196 191.807C149.401 190.565 149.761 188.913 151.004 188.115ZM143.383 176.22C144.325 175.616 145.572 175.891 146.18 176.832C146.783 177.772 146.507 179.025 145.564 179.629C144.626 180.233 143.375 179.958 142.768 179.016C142.164 178.077 142.44 176.824 143.383 176.22ZM135.758 164.327C136.397 163.916 137.253 164.104 137.661 164.743C138.072 165.384 137.884 166.238 137.245 166.649C136.606 167.059 135.75 166.872 135.342 166.232C134.931 165.591 135.115 164.737 135.758 164.327ZM128.133 152.431C128.476 152.215 128.927 152.312 129.142 152.652C129.361 152.994 129.262 153.446 128.923 153.663C128.581 153.879 128.13 153.782 127.91 153.441C127.695 153.1 127.794 152.648 128.133 152.431ZM166.306 211.994C167.42 211.28 168.898 211.603 169.612 212.718C170.326 213.833 170.002 215.313 168.888 216.026C167.773 216.74 166.295 216.417 165.581 215.302C164.867 214.187 165.191 212.707 166.306 211.994ZM173.982 223.969C174.665 223.527 175.581 223.729 176.022 224.417C176.459 225.103 176.261 226.018 175.574 226.456C174.887 226.895 173.971 226.695 173.534 226.009C173.093 225.322 173.295 224.407 173.982 223.969Z" fill="url(#paint6_linear_280_2476)" fill-opacity="0.3"/>
<path d="M151.678 215.431C152.54 217.047 154.551 217.657 156.167 216.792C157.783 215.928 158.393 213.918 157.528 212.301C156.666 210.685 154.654 210.076 153.039 210.94C151.423 211.804 150.813 213.814 151.678 215.431ZM146.35 198.425C147.682 197.711 149.337 198.214 150.053 199.547C150.765 200.879 150.261 202.536 148.929 203.249C147.596 203.963 145.941 203.46 145.225 202.127C144.513 200.794 145.017 199.138 146.35 198.425ZM139.656 185.911C140.705 185.351 142.007 185.745 142.57 186.794C143.129 187.843 142.735 189.146 141.686 189.706C140.638 190.266 139.332 189.872 138.773 188.823C138.213 187.775 138.608 186.471 139.656 185.911ZM132.964 173.395C133.729 172.985 134.678 173.275 135.084 174.038C135.491 174.8 135.206 175.754 134.441 176.16C133.68 176.567 132.727 176.279 132.32 175.517C131.914 174.755 132.203 173.802 132.964 173.395ZM126.271 160.878C126.748 160.622 127.349 160.804 127.606 161.283C127.864 161.761 127.681 162.358 127.203 162.617C126.724 162.876 126.125 162.691 125.867 162.213C125.61 161.735 125.793 161.137 126.271 160.878ZM159.681 223.359C160.702 222.812 161.975 223.199 162.522 224.221C163.069 225.243 162.68 226.516 161.659 227.062C160.639 227.609 159.366 227.222 158.819 226.2C158.271 225.178 158.66 223.905 159.681 223.359ZM166.317 235.772C166.751 235.542 167.286 235.705 167.518 236.135C167.75 236.565 167.585 237.104 167.155 237.335C166.725 237.566 166.187 237.402 165.954 236.972C165.726 236.542 165.887 236.003 166.317 235.772ZM142.792 207.99C144.407 207.125 146.416 207.734 147.281 209.351C148.146 210.967 147.536 212.978 145.92 213.842C144.305 214.706 142.293 214.097 141.428 212.479C140.566 210.864 141.172 208.852 142.792 207.99ZM136.13 195.53C137.429 194.835 139.052 195.325 139.746 196.625C140.44 197.925 139.951 199.547 138.651 200.242C137.352 200.937 135.729 200.447 135.035 199.147C134.341 197.847 134.831 196.225 136.13 195.53ZM129.468 183.071C130.455 182.543 131.681 182.915 132.207 183.902C132.736 184.889 132.361 186.116 131.375 186.641C130.388 187.167 129.162 186.797 128.636 185.81C128.11 184.823 128.481 183.596 129.468 183.071ZM122.805 170.612C123.476 170.253 124.309 170.505 124.668 171.176C125.031 171.847 124.776 172.683 124.106 173.042C123.435 173.401 122.598 173.147 122.239 172.476C121.88 171.806 122.135 170.97 122.805 170.612ZM116.143 158.152C116.502 157.963 116.942 158.096 117.136 158.453C117.327 158.81 117.191 159.252 116.836 159.445C116.477 159.636 116.037 159.501 115.843 159.143C115.652 158.787 115.788 158.344 116.143 158.152ZM149.502 220.541C150.665 219.916 152.116 220.357 152.74 221.522C153.367 222.688 152.924 224.138 151.758 224.762C150.594 225.387 149.143 224.946 148.52 223.781C147.896 222.616 148.335 221.164 149.502 220.541ZM156.21 233.084C156.928 232.699 157.823 232.97 158.211 233.69C158.595 234.408 158.323 235.303 157.604 235.69C156.886 236.076 155.991 235.803 155.604 235.083C155.216 234.364 155.491 233.47 156.21 233.084Z" fill="url(#paint7_linear_280_2476)" fill-opacity="0.3"/>
<path d="M134.676 223.28C135.393 224.966 137.345 225.75 139.033 225.029C140.721 224.308 141.503 222.36 140.781 220.673C140.06 218.986 138.113 218.203 136.425 218.923C134.74 219.645 133.955 221.593 134.676 223.28ZM130.857 205.871C132.248 205.279 133.856 205.924 134.448 207.313C135.04 208.702 134.396 210.31 133.005 210.901C131.618 211.494 130.009 210.849 129.417 209.46C128.825 208.071 129.469 206.464 130.857 205.871ZM125.289 192.819C126.384 192.354 127.645 192.861 128.111 193.955C128.577 195.049 128.071 196.314 126.976 196.779C125.884 197.245 124.619 196.737 124.153 195.643C123.687 194.549 124.193 193.284 125.289 192.819ZM119.718 179.764C120.514 179.424 121.435 179.793 121.779 180.593C122.119 181.391 121.749 182.31 120.948 182.651C120.151 182.994 119.231 182.622 118.891 181.824C118.55 181.025 118.921 180.106 119.718 179.764ZM114.15 166.712C114.653 166.5 115.231 166.731 115.442 167.232C115.657 167.734 115.424 168.312 114.924 168.525C114.42 168.737 113.843 168.505 113.632 168.004C113.417 167.502 113.649 166.925 114.15 166.712ZM141.954 231.879C143.022 231.425 144.251 231.92 144.706 232.987C145.16 234.053 144.668 235.286 143.599 235.74C142.531 236.194 141.302 235.7 140.848 234.633C140.39 233.565 140.885 232.334 141.954 231.879ZM147.479 244.824C147.929 244.631 148.45 244.841 148.644 245.292C148.835 245.741 148.627 246.262 148.177 246.455C147.726 246.648 147.206 246.438 147.011 245.988C146.821 245.538 147.028 245.018 147.479 244.824ZM126.478 215.088C128.166 214.37 130.113 215.153 130.835 216.838C131.557 218.522 130.771 220.473 129.087 221.194C127.4 221.912 125.452 221.128 124.73 219.444C124.008 217.76 124.794 215.809 126.478 215.088ZM120.933 202.092C122.289 201.513 123.858 202.144 124.44 203.502C125.018 204.858 124.385 206.427 123.029 207.006C121.673 207.586 120.104 206.955 119.523 205.597C118.945 204.241 119.577 202.671 120.933 202.092ZM115.392 189.097C116.42 188.657 117.61 189.136 118.049 190.163C118.486 191.192 118.008 192.381 116.979 192.82C115.955 193.26 114.761 192.78 114.323 191.754C113.885 190.724 114.364 189.536 115.392 189.097ZM109.846 176.103C110.543 175.803 111.354 176.13 111.652 176.829C111.954 177.53 111.629 178.34 110.928 178.639C110.227 178.939 109.416 178.612 109.118 177.913C108.819 177.213 109.145 176.403 109.846 176.103ZM104.297 163.106C104.67 162.949 105.102 163.122 105.257 163.493C105.415 163.866 105.243 164.295 104.87 164.453C104.498 164.61 104.069 164.438 103.911 164.065C103.756 163.694 103.925 163.264 104.297 163.106ZM132.063 228.178C133.278 227.658 134.684 228.223 135.204 229.441C135.721 230.658 135.157 232.064 133.938 232.582C132.724 233.102 131.317 232.537 130.797 231.319C130.28 230.103 130.844 228.697 132.063 228.178ZM137.646 241.26C138.396 240.941 139.264 241.29 139.583 242.038C139.903 242.786 139.555 243.657 138.805 243.976C138.058 244.296 137.187 243.946 136.867 243.198C136.548 242.45 136.896 241.579 137.646 241.26Z" fill="url(#paint8_linear_280_2476)" fill-opacity="0.3"/>
<path d="M117.937 229.674C118.573 231.393 120.485 232.268 122.203 231.633C123.917 230.996 124.795 229.084 124.159 227.366C123.526 225.65 121.61 224.772 119.896 225.409C118.178 226.044 117.3 227.957 117.937 229.674ZM114.956 212.101C116.371 211.575 117.948 212.299 118.473 213.714C118.998 215.128 118.276 216.705 116.861 217.23C115.446 217.756 113.869 217.032 113.344 215.617C112.819 214.202 113.541 212.626 114.956 212.101ZM110.019 198.796C111.135 198.384 112.374 198.95 112.786 200.065C113.202 201.182 112.633 202.418 111.517 202.833C110.401 203.247 109.166 202.68 108.75 201.563C108.335 200.447 108.903 199.211 110.019 198.796ZM105.083 185.491C105.895 185.189 106.799 185.604 107.099 186.415C107.404 187.227 106.987 188.129 106.175 188.43C105.366 188.733 104.462 188.319 104.161 187.508C103.857 186.695 104.274 185.793 105.083 185.491ZM100.146 172.186C100.655 171.997 101.224 172.257 101.412 172.767C101.601 173.277 101.343 173.846 100.831 174.033C100.322 174.223 99.7527 173.963 99.5641 173.453C99.3754 172.943 99.6367 172.375 100.146 172.186ZM124.792 238.612C125.877 238.208 127.088 238.764 127.488 239.85C127.889 240.937 127.337 242.146 126.249 242.547C125.163 242.951 123.953 242.395 123.552 241.308C123.151 240.222 123.704 239.013 124.792 238.612ZM129.69 251.808C130.146 251.637 130.659 251.87 130.827 252.33C130.996 252.788 130.763 253.299 130.304 253.468C129.845 253.637 129.335 253.405 129.167 252.946C128.999 252.487 129.231 251.977 129.69 251.808ZM110.137 221.095C111.859 220.458 113.767 221.335 114.403 223.054C115.039 224.774 114.165 226.684 112.444 227.319C110.726 227.955 108.817 227.081 108.181 225.361C107.541 223.641 108.419 221.731 110.137 221.095ZM105.226 207.85C106.606 207.335 108.144 208.042 108.659 209.425C109.173 210.808 108.466 212.346 107.082 212.861C105.702 213.376 104.164 212.669 103.649 211.286C103.135 209.903 103.841 208.365 105.226 207.85ZM100.311 194.604C101.36 194.215 102.521 194.749 102.913 195.799C103.305 196.849 102.767 198.012 101.717 198.403C100.668 198.794 99.5067 198.258 99.1147 197.208C98.7227 196.158 99.2612 194.995 100.311 194.604ZM95.396 181.358C96.1065 181.092 96.9019 181.457 97.1685 182.171C97.4315 182.883 97.0667 183.677 96.3562 183.943C95.6422 184.207 94.8467 183.842 94.5838 183.13C94.3172 182.417 94.682 181.622 95.396 181.358ZM90.4814 168.112C90.8609 167.97 91.279 168.164 91.4195 168.543C91.5637 168.923 91.3668 169.342 90.9873 169.483C90.6078 169.624 90.1897 169.43 90.0492 169.052C89.9087 168.673 90.1018 168.253 90.4814 168.112ZM115.089 234.441C116.33 233.981 117.704 234.613 118.166 235.853C118.625 237.091 117.994 238.469 116.753 238.929C115.516 239.39 114.138 238.756 113.676 237.517C113.218 236.278 113.852 234.902 115.089 234.441ZM120.037 247.775C120.801 247.49 121.652 247.882 121.935 248.646C122.222 249.41 121.832 250.262 121.064 250.546C120.297 250.83 119.449 250.441 119.166 249.676C118.88 248.909 119.269 248.059 120.037 247.775Z" fill="url(#paint9_linear_280_2476)" fill-opacity="0.3"/>
<path d="M99.7534 235.076C100.214 236.85 102.028 237.91 103.805 237.448C105.578 236.985 106.637 235.171 106.176 233.397C105.712 231.622 103.898 230.563 102.125 231.026C100.351 231.489 99.2888 233.301 99.7534 235.076ZM98.5293 217.296C99.9925 216.915 101.489 217.788 101.869 219.249C102.252 220.712 101.377 222.206 99.917 222.588C98.4537 222.969 96.9611 222.097 96.5775 220.635C96.1975 219.173 97.0697 217.678 98.5293 217.296ZM94.9382 203.565C96.0876 203.264 97.2624 203.953 97.5649 205.103C97.8638 206.251 97.1746 207.427 96.0251 207.728C94.8757 208.028 93.7009 207.34 93.402 206.191C93.0995 205.041 93.7888 203.865 94.9382 203.565ZM91.3463 189.836C92.1819 189.617 93.0398 190.118 93.2574 190.955C93.475 191.792 92.9756 192.651 92.137 192.868C91.2982 193.085 90.4399 192.586 90.223 191.746C90.0061 190.907 90.5047 190.05 91.3434 189.833L91.3463 189.836ZM87.7547 176.107C88.2803 175.969 88.8207 176.284 88.9568 176.81C89.0965 177.338 88.7807 177.876 88.2551 178.014C87.7258 178.152 87.189 177.838 87.0493 177.31C86.9133 176.784 87.2254 176.245 87.7547 176.107ZM105.688 244.651C106.807 244.358 107.956 245.029 108.251 246.15C108.542 247.27 107.869 248.418 106.75 248.711C105.631 249.003 104.483 248.332 104.191 247.212C103.896 246.091 104.569 244.943 105.688 244.651ZM109.25 258.268C109.723 258.144 110.209 258.429 110.33 258.9C110.455 259.372 110.17 259.858 109.701 259.982C109.227 260.106 108.741 259.821 108.617 259.349C108.495 258.879 108.78 258.393 109.25 258.268ZM92.8425 225.767C94.6196 225.306 96.4331 226.365 96.8941 228.139C97.3587 229.914 96.2961 231.727 94.5227 232.19C92.7493 232.653 90.9358 231.593 90.4711 229.818C90.0101 228.045 91.0691 226.231 92.8425 225.767ZM89.268 212.1C90.6935 211.726 92.1555 212.581 92.5297 214.009C92.9039 215.436 92.0465 216.895 90.621 217.27C89.1919 217.643 87.7334 216.789 87.3593 215.361C86.9851 213.934 87.8389 212.474 89.268 212.1ZM85.6899 198.432C86.7742 198.15 87.8782 198.797 88.1617 199.877C88.4453 200.958 87.796 202.067 86.7156 202.349C85.6351 202.631 84.5273 201.984 84.2438 200.903C83.9639 199.823 84.6095 198.714 85.6899 198.432ZM82.1157 184.764C82.852 184.571 83.6044 185.013 83.7968 185.749C83.9891 186.485 83.5494 187.238 82.8131 187.431C82.0769 187.624 81.3243 187.182 81.132 186.446C80.9397 185.71 81.3794 184.957 82.1157 184.764ZM78.5383 171.093C78.9333 170.993 79.3285 171.224 79.4331 171.617C79.5341 172.008 79.2998 172.406 78.9084 172.508C78.517 172.609 78.1181 172.377 78.0172 171.985C77.9162 171.594 78.1468 171.195 78.5383 171.093ZM96.4461 239.536C97.725 239.201 99.0351 239.967 99.3703 241.247C99.7057 242.525 98.941 243.834 97.6585 244.168C96.3796 244.503 95.0731 243.738 94.7378 242.459C94.4026 241.18 95.1672 239.872 96.4461 239.536ZM100.044 253.297C100.836 253.09 101.643 253.565 101.851 254.354C102.059 255.143 101.583 255.95 100.795 256.158C100.003 256.364 99.1965 255.89 98.9885 255.1C98.7803 254.311 99.256 253.504 100.044 253.297Z" fill="url(#paint10_linear_280_2476)" fill-opacity="0.3"/>
<path d="M82.0904 238.58C82.4658 240.374 84.2195 241.528 86.0173 241.155C87.8116 240.782 88.9638 239.027 88.5892 237.23C88.2174 235.437 86.4638 234.283 84.6659 234.655C82.8719 235.028 81.7193 236.784 82.0904 238.58ZM81.7865 220.76C83.2673 220.453 84.7131 221.403 85.0201 222.882C85.3308 224.363 84.3778 225.81 82.9007 226.118C81.4199 226.425 79.9741 225.476 79.6634 223.995C79.3564 222.516 80.3058 221.068 81.7865 220.76ZM78.9032 206.865C80.0669 206.623 81.2042 207.37 81.4469 208.535C81.6861 209.697 80.9399 210.838 79.7769 211.078C78.6132 211.32 77.4723 210.571 77.2332 209.408C76.9941 208.246 77.7402 207.105 78.9032 206.865ZM76.0201 192.97C76.8704 192.793 77.6991 193.339 77.8741 194.186C78.0491 195.033 77.506 195.866 76.6564 196.04C75.8106 196.214 74.9774 195.67 74.8024 194.824C74.631 193.978 75.1741 193.145 76.0201 192.97ZM73.1376 179.072C73.671 178.96 74.1908 179.305 74.3013 179.837C74.4153 180.371 74.0692 180.89 73.5358 181.002C73.0061 181.115 72.4826 180.769 72.3721 180.237C72.2617 179.705 72.6042 179.184 73.1376 179.072ZM87.5282 248.448C88.6626 248.211 89.773 248.942 90.0089 250.076C90.2447 251.21 89.5155 252.321 88.3811 252.558C87.2469 252.794 86.1363 252.064 85.9005 250.93C85.661 249.795 86.394 248.685 87.5282 248.448ZM90.3861 262.229C90.8681 262.13 91.3351 262.439 91.4343 262.916C91.5371 263.395 91.2257 263.865 90.7473 263.965C90.2726 264.066 89.7983 263.755 89.6992 263.278C89.5999 262.801 89.9077 262.329 90.3861 262.229ZM75.674 228.931C77.4681 228.558 79.2255 229.713 79.5973 231.506C79.9691 233.299 78.8159 235.057 77.0218 235.43C75.2278 235.803 73.4703 234.649 73.0985 232.855C72.7231 231.061 73.8799 229.304 75.674 228.931ZM72.8005 215.096C74.2472 214.797 75.6594 215.726 75.9615 217.169C76.259 218.614 75.3319 220.027 73.8891 220.327C72.4424 220.626 71.0302 219.697 70.7283 218.254C70.4306 216.809 71.3577 215.396 72.8005 215.096ZM69.9346 201.262C71.0264 201.035 72.1011 201.739 72.3289 202.834C72.5529 203.928 71.8504 205.002 70.7549 205.229C69.6595 205.455 68.5886 204.751 68.3608 203.656C68.1331 202.561 68.8391 201.489 69.9346 201.262ZM67.0606 187.429C67.8086 187.276 68.5388 187.753 68.6923 188.5C68.8457 189.246 68.366 189.974 67.6215 190.128C66.8735 190.281 66.1469 189.805 65.9934 189.059C65.8399 188.312 66.3161 187.583 67.0606 187.429ZM64.1946 173.595C64.5885 173.512 64.9766 173.767 65.0604 174.163C65.1405 174.558 64.8859 174.944 64.492 175.027C64.0944 175.11 63.71 174.856 63.6261 174.46C63.5424 174.064 63.7969 173.678 64.1946 173.595ZM78.5615 242.865C79.8563 242.596 81.1227 243.429 81.3935 244.724C81.6607 246.019 80.8291 247.286 79.5342 247.555C78.2395 247.824 76.973 246.992 76.7022 245.696C76.435 244.401 77.2667 243.135 78.5615 242.865ZM81.4511 256.792C82.2505 256.627 83.0336 257.139 83.1992 257.938C83.3685 258.738 82.8531 259.518 82.0531 259.686C81.2566 259.854 80.4743 259.339 80.3087 258.541C80.1394 257.741 80.6547 256.961 81.4511 256.792Z" fill="url(#paint11_linear_280_2476)" fill-opacity="0.3"/>
<path d="M63.0539 240.417C63.2339 242.241 64.8544 243.575 66.6814 243.397C68.5046 243.218 69.8394 241.596 69.6601 239.769C69.4844 237.944 67.8596 236.611 66.0362 236.791C64.2093 236.969 62.8782 238.592 63.0539 240.417ZM64.6508 222.664C66.1588 222.518 67.496 223.617 67.641 225.121C67.7897 226.626 66.6906 227.964 65.1862 228.112C63.6819 228.259 62.341 227.158 62.1961 225.654C62.0474 224.15 63.1464 222.811 64.6508 222.664ZM63.2719 208.542C64.4537 208.425 65.5076 209.291 65.6218 210.474C65.7322 211.656 64.8691 212.71 63.6882 212.824C62.5036 212.937 61.4526 212.074 61.3385 210.891C61.2243 209.709 62.0874 208.654 63.2719 208.542ZM61.8895 194.418C62.7523 194.333 63.5199 194.963 63.6026 195.826C63.6818 196.688 63.0552 197.456 62.1932 197.539C61.3312 197.622 60.5628 196.994 60.4801 196.13C60.3972 195.267 61.0238 194.5 61.8895 194.418ZM60.5079 180.291C61.0517 180.238 61.5323 180.634 61.5844 181.176C61.6366 181.717 61.242 182.2 60.699 182.251C60.1597 182.303 59.6747 181.908 59.6262 181.368C59.5741 180.826 59.9686 180.343 60.5079 180.291ZM67.4072 250.807C68.5602 250.693 69.5854 251.537 69.7 252.691C69.8148 253.845 68.968 254.871 67.8151 254.985C66.6622 255.098 65.6333 254.254 65.5222 253.101C65.4075 251.946 66.2543 250.92 67.4072 250.807ZM68.7766 264.815C69.2631 264.767 69.6962 265.123 69.7448 265.61C69.7935 266.097 69.4374 266.531 68.9472 266.578C68.4607 266.625 68.0278 266.269 67.9792 265.782C67.9341 265.296 68.2901 264.863 68.7766 264.815ZM57.7004 230.134C59.5236 229.955 61.1515 231.291 61.3279 233.114C61.508 234.938 60.1725 236.562 58.3493 236.741C56.526 236.92 54.9018 235.586 54.7217 233.762C54.5417 231.938 55.8772 230.313 57.7004 230.134ZM56.323 216.073C57.7908 215.929 59.0999 217.003 59.2429 218.474C59.3859 219.945 58.3125 221.251 56.8415 221.392C55.3743 221.535 54.0647 220.462 53.9252 218.993C53.7823 217.522 54.8558 216.216 56.323 216.073ZM54.9494 202.013C56.0612 201.904 57.0557 202.718 57.1626 203.832C57.2732 204.947 56.4608 205.937 55.3453 206.045C54.2335 206.154 53.239 205.34 53.1321 204.226C53.0244 203.115 53.8375 202.122 54.9494 202.013ZM53.5764 187.95C54.333 187.875 55.0077 188.431 55.0828 189.188C55.158 189.944 54.6023 190.621 53.8459 190.695C53.0896 190.77 52.4109 190.213 52.3359 189.457C52.2643 188.702 52.82 188.025 53.5764 187.95ZM52.199 173.889C52.5995 173.851 52.9598 174.145 52.9986 174.545C53.0338 174.945 52.7431 175.306 52.3427 175.345C51.9424 175.383 51.5821 175.089 51.5431 174.689C51.5043 174.288 51.7986 173.928 52.199 173.889ZM59.09 244.3C60.4029 244.169 61.5746 245.133 61.7042 246.45C61.8301 247.765 60.8684 248.937 59.5526 249.064C58.2367 249.191 57.0643 248.23 56.9383 246.915C56.8124 245.599 57.7705 244.427 59.09 244.3ZM60.475 258.455C61.2842 258.376 62.0074 258.969 62.0899 259.781C62.1686 260.591 61.575 261.315 60.7614 261.395C59.9514 261.477 59.2289 260.881 59.1465 260.069C59.0677 259.259 59.6613 258.535 60.475 258.455Z" fill="url(#paint12_linear_280_2476)" fill-opacity="0.3"/>
<path d="M43.9109 240.292C43.8938 242.126 45.3607 243.627 47.1958 243.647C49.0273 243.666 50.5306 242.197 50.5477 240.364C50.5685 238.532 49.0978 237.029 47.2664 237.01C45.4349 236.991 43.9316 238.46 43.9109 240.292ZM47.4121 222.818C48.9229 222.835 50.1357 224.072 50.12 225.583C50.1079 227.094 48.8685 228.305 47.357 228.291C45.8456 228.276 44.6334 227.037 44.6492 225.526C44.6648 224.016 45.9043 222.805 47.4121 222.818ZM47.5617 208.627C48.7524 208.639 49.7031 209.612 49.6923 210.802C49.6815 211.991 48.7097 212.944 47.519 212.932C46.3319 212.921 45.3776 211.947 45.3883 210.757C45.4028 209.569 46.3746 208.616 47.5617 208.627ZM47.7148 194.438C48.5812 194.446 49.2733 195.156 49.2639 196.023C49.258 196.891 48.5465 197.584 47.6801 197.576C46.8137 197.567 46.1179 196.856 46.1273 195.989C46.1369 195.122 46.8447 194.428 47.7148 194.438ZM47.8613 180.244C48.407 180.25 48.8414 180.694 48.8367 181.24C48.8285 181.784 48.3847 182.22 47.8389 182.213C47.2932 182.207 46.8588 181.763 46.8672 181.218C46.8717 180.673 47.3155 180.237 47.8613 180.244ZM47.114 251.091C48.2769 251.104 49.2026 252.054 49.1931 253.212C49.1799 254.37 48.2306 255.301 47.0716 255.289C45.9126 255.277 44.983 254.326 44.9962 253.168C45.0057 252.01 45.9587 251.08 47.114 251.091ZM46.9677 265.165C47.4584 265.17 47.8497 265.573 47.8464 266.061C47.8429 266.55 47.4395 266.943 46.9526 266.939C46.4621 266.934 46.0706 266.532 46.074 266.043C46.0773 265.555 46.4809 265.161 46.9677 265.165ZM39.6992 229.496C41.5307 229.515 43.0014 231.017 42.9806 232.849C42.9634 234.683 41.4601 236.152 39.6286 236.133C37.7936 236.113 36.3266 234.611 36.3437 232.778C36.3645 230.946 37.8678 229.476 39.6992 229.496ZM39.8461 215.366C41.3248 215.384 42.5067 216.592 42.4937 218.067C42.477 219.541 41.2654 220.726 39.7934 220.712C38.3176 220.697 37.1328 219.486 37.1457 218.011C37.1633 216.535 38.374 215.353 39.8461 215.366ZM39.9966 201.239C41.1123 201.249 42.0119 202.168 41.9993 203.283C41.9867 204.399 41.0705 205.299 39.9549 205.288C38.8392 205.277 37.9395 204.359 37.9485 203.242C37.9612 202.126 38.881 201.227 39.9966 201.239ZM40.1427 187.112C40.9057 187.121 41.5166 187.745 41.5071 188.506C41.4977 189.266 40.8742 189.878 40.1148 189.869C39.3519 189.86 38.7411 189.236 38.7504 188.476C38.7598 187.715 39.3834 187.104 40.1427 187.112ZM40.2932 172.984C40.697 172.987 41.0219 173.32 41.0127 173.722C41.0074 174.124 40.6793 174.451 40.2765 174.445C39.8735 174.439 39.5477 174.109 39.5532 173.706C39.5586 173.304 39.8903 172.978 40.2932 172.984ZM39.5499 243.726C40.8712 243.739 41.9319 244.822 41.9167 246.145C41.9051 247.47 40.8223 248.528 39.4972 248.514C38.1721 248.5 37.1152 247.418 37.1268 246.094C37.142 244.771 38.2248 243.712 39.5499 243.726ZM39.3991 257.947C40.2142 257.955 40.8674 258.623 40.8606 259.441C40.8538 260.259 40.1861 260.912 39.3672 260.904C38.5482 260.896 37.8952 260.227 37.9057 259.41C37.9126 258.592 38.5802 257.939 39.3991 257.947Z" fill="url(#paint13_linear_280_2476)" fill-opacity="0.3"/>
<path d="M24.5456 237.801C24.2956 239.617 25.564 241.291 27.3812 241.544C29.1947 241.795 30.8722 240.526 31.1223 238.71C31.3761 236.894 30.1039 235.219 28.2904 234.968C26.4734 234.715 24.7994 235.986 24.5456 237.801ZM30.237 220.911C31.7304 221.118 32.7773 222.499 32.5675 223.995C32.3613 225.492 30.981 226.537 29.4839 226.329C27.9868 226.121 26.9437 224.741 27.1498 223.244C27.3597 221.748 28.7399 220.703 30.237 220.911ZM32.1799 206.853C33.3606 207.018 34.1823 208.104 34.0163 209.281C33.854 210.459 32.7668 211.281 31.5897 211.117C30.4127 210.953 29.591 209.867 29.7533 208.689C29.9156 207.511 31.0028 206.689 32.1799 206.853ZM34.1265 192.796C34.9872 192.916 35.5837 193.707 35.466 194.564C35.3447 195.42 34.5533 196.022 33.6965 195.902C32.8394 195.783 32.2392 194.991 32.3605 194.135C32.4782 193.278 33.2696 192.676 34.1265 192.796ZM36.0737 178.737C36.6145 178.812 36.9864 179.307 36.9156 179.848C36.8414 180.387 36.3443 180.762 35.8029 180.688C35.2615 180.615 34.8904 180.118 34.961 179.577C35.0354 179.037 35.5323 178.663 36.0737 178.737ZM26.3596 248.919C27.5064 249.078 28.3084 250.137 28.1506 251.287C27.9892 252.436 26.9319 253.237 25.7814 253.077C24.6344 252.919 23.8326 251.86 23.9903 250.71C24.1517 249.561 25.209 248.76 26.3596 248.919ZM24.431 262.863C24.9188 262.93 25.2568 263.378 25.1868 263.864C25.1168 264.35 24.6739 264.689 24.1868 264.62C23.6998 264.55 23.3609 264.105 23.431 263.619C23.501 263.133 23.9475 262.795 24.431 262.863ZM21.738 226.556C23.5514 226.808 24.8197 228.482 24.5698 230.298C24.3197 232.114 22.6428 233.381 20.8287 233.132C19.0115 232.88 17.7432 231.205 17.9932 229.389C18.2469 227.574 19.92 226.306 21.738 226.556ZM23.6741 212.56C25.1332 212.763 26.1543 214.11 25.9543 215.574C25.7511 217.034 24.4055 218.056 22.9419 217.856C21.4791 217.652 20.4579 216.305 20.658 214.841C20.8581 213.378 22.2103 212.36 23.6741 212.56ZM25.6095 198.567C26.7181 198.721 27.4875 199.743 27.3379 200.852C27.1884 201.961 26.1601 202.732 25.0543 202.582C23.9456 202.428 23.1726 201.405 23.3221 200.296C23.4753 199.188 24.5 198.416 25.6095 198.567ZM27.5457 184.571C28.3001 184.676 28.8297 185.372 28.7233 186.125C28.6205 186.879 27.9228 187.407 27.1722 187.303C26.4178 187.199 25.8882 186.503 25.9945 185.75C26.0973 184.996 26.795 184.468 27.5457 184.571ZM29.4818 170.576C29.8855 170.632 30.1643 171 30.1077 171.401C30.0549 171.803 29.6855 172.082 29.2854 172.027C28.8815 171.972 28.6028 171.603 28.6594 171.202C28.7123 170.8 29.0816 170.521 29.4818 170.576ZM19.7832 240.653C21.0938 240.835 22.0092 242.045 21.8315 243.355C21.65 244.663 20.4398 245.578 19.1284 245.399C17.8208 245.22 16.9061 244.008 17.0839 242.698C17.2616 241.389 18.4756 240.475 19.7832 240.653ZM17.8353 254.741C18.6432 254.853 19.209 255.6 19.098 256.409C18.9834 257.215 18.2384 257.782 17.4312 257.669C16.6239 257.555 16.0574 256.81 16.172 256.003C16.2831 255.194 17.0281 254.628 17.8353 254.741Z" fill="url(#paint14_linear_280_2476)" fill-opacity="0.3"/>
<path d="M5.29315 233.6C4.7967 235.365 5.82312 237.198 7.58676 237.696C9.35029 238.193 11.1854 237.166 11.6819 235.402C12.1782 233.638 11.1518 231.805 9.38828 231.307C7.62464 230.809 5.78961 231.836 5.29315 233.6ZM13.24 217.646C14.6925 218.056 15.5415 219.567 15.1339 221.021C14.7228 222.474 13.211 223.323 11.7583 222.913C10.3058 222.503 9.45678 220.992 9.86432 219.538C10.2756 218.084 11.7874 217.236 13.24 217.646ZM17.0914 203.986C18.2331 204.308 18.9007 205.497 18.5784 206.64C18.2561 207.783 17.0648 208.448 15.9232 208.127C14.7815 207.805 14.1139 206.615 14.4362 205.472C14.7585 204.329 15.9463 203.662 17.0914 203.986ZM20.9386 190.327C21.773 190.561 22.2594 191.428 22.026 192.261C21.7889 193.093 20.9245 193.581 20.0865 193.345C19.2521 193.11 18.7694 192.244 19.0035 191.409C19.2376 190.574 20.1049 190.089 20.9394 190.324L20.9386 190.327ZM24.7901 176.666C25.3135 176.813 25.615 177.357 25.4697 177.882C25.3208 178.406 24.7776 178.709 24.2542 178.562C23.7308 178.415 23.4257 177.871 23.5746 177.347C23.7199 176.821 24.2631 176.518 24.7901 176.666ZM5.56865 244.861C6.68446 245.176 7.3371 246.336 7.01948 247.45C6.7054 248.565 5.54644 249.216 4.43063 248.901C3.31493 248.585 2.66581 247.426 2.9799 246.311C3.29752 245.197 4.45648 244.546 5.56865 244.861ZM1.75109 258.408C2.21939 258.54 2.49696 259.031 2.36394 259.502C2.23091 259.973 1.73975 260.248 1.26781 260.115C0.799503 259.983 0.521819 259.492 0.654846 259.021C0.787872 258.55 1.27914 258.274 1.75109 258.408ZM4.04958 222.075C5.81311 222.572 6.83953 224.406 6.34308 226.17C5.84309 227.933 4.01159 228.961 2.24795 228.464C0.484418 227.966 -0.545639 226.131 -0.0455429 224.368C0.450804 222.604 2.28594 221.577 4.04958 222.075ZM7.88208 208.478C9.302 208.877 10.1298 210.354 9.72852 211.774C9.32726 213.193 7.85324 214.022 6.43333 213.622C5.01342 213.222 4.18567 211.746 4.58328 210.325C4.98454 208.905 6.45853 208.077 7.88208 208.478ZM11.7118 194.877C12.7909 195.183 13.4165 196.3 13.1139 197.377C12.8076 198.454 11.6873 199.081 10.6118 198.777C9.53636 198.472 8.90721 197.353 9.21349 196.277C9.51613 195.2 10.6363 194.573 11.7118 194.877ZM15.5444 181.28C16.2762 181.486 16.7028 182.248 16.4992 182.981C16.2955 183.715 15.5297 184.139 14.7972 183.935C14.0647 183.731 13.6386 182.967 13.8423 182.234C14.0496 181.501 14.8118 181.076 15.5444 181.28ZM19.3779 167.68C19.7696 167.789 19.9941 168.193 19.8854 168.582C19.7766 168.972 19.372 169.197 18.984 169.088C18.5922 168.978 18.3678 168.575 18.4765 168.185C18.5852 167.796 18.9897 167.571 19.3779 167.68ZM0.186492 235.774C1.4602 236.132 2.19858 237.456 1.84137 238.729C1.48404 240.002 0.159575 240.741 -1.11413 240.383C-2.38773 240.025 -3.12626 238.701 -2.76894 237.428C-2.41173 236.155 -1.08711 235.416 0.186492 235.774ZM-3.66961 249.463C-2.88274 249.684 -2.42827 250.499 -2.65174 251.285C-2.87532 252.071 -3.6869 252.529 -4.47311 252.306C-5.25932 252.082 -5.71825 251.269 -5.49467 250.483C-5.2711 249.696 -4.45582 249.239 -3.66961 249.463Z" fill="url(#paint15_linear_280_2476)" fill-opacity="0.3"/>
<path d="M-12.0339 228.231C-12.6321 229.964 -11.7178 231.854 -9.98472 232.453C-8.2516 233.053 -6.35843 232.137 -5.76012 230.403C-5.16192 228.67 -6.07619 226.78 -7.8093 226.181C-9.54242 225.581 -11.4356 226.497 -12.0339 228.231ZM-3.16727 212.769C-1.73998 213.264 -0.984561 214.823 -1.47531 216.25C-1.96981 217.676 -3.52938 218.432 -4.95678 217.938C-6.38417 217.444 -7.13959 215.885 -6.6452 214.459C-6.1507 213.033 -4.59102 212.276 -3.16727 212.769ZM1.47831 199.359C2.6001 199.747 3.19732 200.973 2.80896 202.098C2.42049 203.223 1.19527 203.817 0.0696303 203.428C-1.05591 203.039 -1.64935 201.814 -1.261 200.689C-0.87253 199.564 0.352776 198.97 1.47831 199.359ZM6.12327 185.951C6.93945 186.234 7.37402 187.128 7.08947 187.946C6.80846 188.765 5.91298 189.198 5.0968 188.916C4.27709 188.632 3.84252 187.738 4.12707 186.92C4.41162 186.102 5.30346 185.668 6.12327 185.951ZM10.7652 172.54C11.2794 172.718 11.5559 173.279 11.3743 173.792C11.1927 174.306 10.6347 174.58 10.1211 174.4C9.6077 174.219 9.33421 173.662 9.51581 173.148C9.69378 172.633 10.2518 172.36 10.7652 172.54ZM-12.4197 239.487C-11.3231 239.866 -10.7446 241.062 -11.1238 242.156C-11.503 243.25 -12.6967 243.831 -13.7933 243.452C-14.8864 243.074 -15.465 241.879 -15.0894 240.783C-14.7102 239.689 -13.5128 239.109 -12.4197 239.487ZM-17.0252 252.79C-16.5616 252.951 -16.3193 253.454 -16.4781 253.918C-16.6367 254.381 -17.1422 254.625 -17.6065 254.466C-18.071 254.308 -18.3124 253.802 -18.1537 253.338C-17.9951 252.875 -17.4895 252.631 -17.0252 252.79ZM-12.6031 216.653C-10.8698 217.252 -9.95194 219.143 -10.5502 220.876C-11.1486 222.609 -13.0417 223.526 -14.7748 222.926C-16.508 222.327 -17.4237 220.436 -16.8243 218.703C-16.2249 216.97 -14.3362 216.053 -12.6031 216.653ZM-7.97957 203.303C-6.58484 203.787 -5.84597 205.308 -6.33044 206.701C-6.81138 208.096 -8.33451 208.836 -9.72924 208.352C-11.1203 207.869 -11.8621 206.347 -11.3784 204.954C-10.8938 203.561 -9.3743 202.819 -7.97957 203.303ZM-3.35593 189.953C-2.29882 190.319 -1.73988 191.473 -2.10399 192.531C-2.46799 193.587 -3.62366 194.147 -4.68077 193.782C-5.73787 193.416 -6.2968 192.261 -5.93269 191.204C-5.56868 190.147 -4.41304 189.587 -3.35593 189.953ZM1.2677 176.603C1.99018 176.854 2.3707 177.637 2.11966 178.356C1.87227 179.076 1.08744 179.458 0.368607 179.208C-0.353867 178.958 -0.734298 178.174 -0.483265 177.455C-0.235982 176.735 0.548871 176.353 1.2677 176.603ZM5.8921 163.25C6.27696 163.383 6.47744 163.8 6.34688 164.183C6.21267 164.565 5.79542 164.766 5.41421 164.634C5.02935 164.502 4.82887 164.085 4.96308 163.703C5.09353 163.32 5.51078 163.119 5.8921 163.25ZM-17.2602 230.101C-16.0088 230.534 -15.3499 231.898 -15.7795 233.148C-16.2129 234.396 -17.5775 235.058 -18.8253 234.627C-20.0732 234.196 -20.7364 232.83 -20.305 231.581C-19.8734 230.332 -18.508 229.67 -17.2602 230.101ZM-21.9144 243.54C-21.145 243.807 -20.7385 244.649 -21.0049 245.42C-21.2712 246.19 -22.112 246.599 -22.885 246.332C-23.6544 246.065 -24.0624 245.222 -23.7957 244.452C-23.5289 243.682 -22.6875 243.273 -21.9144 243.54Z" fill="url(#paint16_linear_280_2476)" fill-opacity="0.3"/>
<path d="M-28.7547 221.16C-29.4549 222.854 -28.6484 224.794 -26.9565 225.494C-25.2643 226.194 -23.3222 225.388 -22.6221 223.696C-21.9219 222.004 -22.7257 220.062 -24.4202 219.362C-26.1148 218.661 -28.0542 219.468 -28.7547 221.16ZM-18.9945 206.247C-17.5977 206.825 -16.9352 208.424 -17.5125 209.82C-18.09 211.218 -19.689 211.88 -21.0862 211.303C-22.4831 210.725 -23.1455 209.126 -22.5682 207.729C-21.9909 206.332 -20.3917 205.669 -18.9945 206.247ZM-13.5715 193.132C-12.4724 193.587 -11.9512 194.845 -12.4054 195.942C-12.8596 197.042 -14.1187 197.563 -15.2156 197.109C-16.3124 196.654 -16.8362 195.395 -16.3821 194.298C-15.9279 193.202 -14.6684 192.678 -13.5715 193.132ZM-8.14895 180.017C-7.34968 180.348 -6.96696 181.265 -7.2983 182.067C-7.62964 182.869 -8.54564 183.248 -9.34757 182.917C-10.1496 182.586 -10.5296 181.669 -10.1982 180.868C-9.86698 180.066 -8.95088 179.686 -8.14895 180.017ZM-2.72323 166.903C-2.22168 167.111 -1.98068 167.687 -2.1884 168.188C-2.39659 168.69 -2.97268 168.931 -3.4746 168.723C-3.97615 168.515 -4.21751 167.939 -4.00942 167.437C-3.80123 166.935 -3.22515 166.694 -2.72323 166.903ZM-29.7993 232.376C-28.7276 232.818 -28.2199 234.047 -28.6615 235.116C-29.1034 236.186 -30.3331 236.696 -31.4019 236.254C-32.4712 235.813 -32.9816 234.583 -32.5401 233.514C-32.0977 232.442 -30.8685 231.934 -29.7993 232.376ZM-35.1782 245.385C-34.7269 245.571 -34.5102 246.091 -34.6962 246.542C-34.8826 246.994 -35.4025 247.21 -35.8539 247.024C-36.3052 246.838 -36.5219 246.318 -36.3356 245.867C-36.1491 245.415 -35.6295 245.198 -35.1782 245.385ZM-28.6409 209.569C-26.9464 210.27 -26.1426 212.212 -26.8427 213.904C-27.5429 215.596 -29.4854 216.402 -31.1772 215.702C-32.8691 215.002 -33.6755 213.059 -32.9754 211.367C-32.2752 209.676 -30.3331 208.869 -28.6409 209.569ZM-23.2431 196.515C-21.879 197.08 -21.232 198.641 -21.7939 200.006C-22.3559 201.37 -23.9202 202.017 -25.2847 201.455C-26.6489 200.893 -27.296 199.329 -26.7339 197.964C-26.172 196.6 -24.6077 195.953 -23.2431 196.515ZM-17.8427 183.458C-16.8088 183.884 -16.3189 185.071 -16.7447 186.105C-17.1709 187.139 -18.3577 187.629 -19.3915 187.203C-20.4257 186.776 -20.9157 185.59 -20.4895 184.556C-20.0633 183.522 -18.8769 183.032 -17.8427 183.458ZM-12.445 170.401C-11.7415 170.692 -11.4079 171.498 -11.6983 172.201C-11.9886 172.905 -12.7948 173.238 -13.4983 172.948C-14.2022 172.657 -14.5354 171.851 -14.245 171.148C-13.9546 170.444 -13.1485 170.111 -12.445 170.401ZM-7.04447 157.347C-6.67133 157.501 -6.4949 157.93 -6.64947 158.303C-6.80403 158.676 -7.23226 158.853 -7.60587 158.698C-7.97901 158.544 -8.15544 158.115 -8.00087 157.742C-7.84631 157.369 -7.41772 157.193 -7.04447 157.347ZM-34.0796 222.722C-32.8566 223.227 -32.2758 224.628 -32.7831 225.848C-33.2878 227.071 -34.6889 227.652 -35.9092 227.145C-37.1295 226.638 -37.7131 225.239 -37.2057 224.019C-36.6983 222.798 -35.2999 222.215 -34.0796 222.722ZM-39.5148 235.864C-38.7611 236.177 -38.4032 237.039 -38.7154 237.793C-39.0276 238.547 -39.8902 238.905 -40.6439 238.593C-41.398 238.281 -41.756 237.418 -41.4437 236.664C-41.1316 235.91 -40.2689 235.552 -39.5148 235.864Z" fill="url(#paint17_linear_280_2476)" fill-opacity="0.3"/>
</g>
</g>
<defs>
<linearGradient id="paint0_linear_280_2476" x1="-396.37" y1="145.29" x2="243.665" y2="144.745" gradientUnits="userSpaceOnUse">
<stop stop-color="#BC9632"/>
<stop offset="0.262187" stop-color="#FFEDA9"/>
<stop offset="1" stop-color="#BC9632"/>
</linearGradient>
<linearGradient id="paint1_linear_280_2476" x1="-396.37" y1="145.29" x2="243.665" y2="144.745" gradientUnits="userSpaceOnUse">
<stop stop-color="#BC9632"/>
<stop offset="0.262187" stop-color="#FFEDA9"/>
<stop offset="1" stop-color="#BC9632"/>
</linearGradient>
<linearGradient id="paint2_linear_280_2476" x1="-396.37" y1="145.29" x2="243.665" y2="144.745" gradientUnits="userSpaceOnUse">
<stop stop-color="#BC9632"/>
<stop offset="0.262187" stop-color="#FFEDA9"/>
<stop offset="1" stop-color="#BC9632"/>
</linearGradient>
<linearGradient id="paint3_linear_280_2476" x1="-396.369" y1="145.29" x2="243.665" y2="144.745" gradientUnits="userSpaceOnUse">
<stop stop-color="#BC9632"/>
<stop offset="0.262187" stop-color="#FFEDA9"/>
<stop offset="1" stop-color="#BC9632"/>
</linearGradient>
<linearGradient id="paint4_linear_280_2476" x1="-396.37" y1="145.29" x2="243.665" y2="144.745" gradientUnits="userSpaceOnUse">
<stop stop-color="#BC9632"/>
<stop offset="0.262187" stop-color="#FFEDA9"/>
<stop offset="1" stop-color="#BC9632"/>
</linearGradient>
<linearGradient id="paint5_linear_280_2476" x1="-396.371" y1="145.289" x2="243.664" y2="144.745" gradientUnits="userSpaceOnUse">
<stop stop-color="#BC9632"/>
<stop offset="0.262187" stop-color="#FFEDA9"/>
<stop offset="1" stop-color="#BC9632"/>
</linearGradient>
<linearGradient id="paint6_linear_280_2476" x1="-396.371" y1="145.289" x2="243.664" y2="144.745" gradientUnits="userSpaceOnUse">
<stop stop-color="#BC9632"/>
<stop offset="0.262187" stop-color="#FFEDA9"/>
<stop offset="1" stop-color="#BC9632"/>
</linearGradient>
<linearGradient id="paint7_linear_280_2476" x1="-396.371" y1="145.289" x2="243.664" y2="144.745" gradientUnits="userSpaceOnUse">
<stop stop-color="#BC9632"/>
<stop offset="0.262187" stop-color="#FFEDA9"/>
<stop offset="1" stop-color="#BC9632"/>
</linearGradient>
<linearGradient id="paint8_linear_280_2476" x1="-396.369" y1="145.29" x2="243.665" y2="144.745" gradientUnits="userSpaceOnUse">
<stop stop-color="#BC9632"/>
<stop offset="0.262187" stop-color="#FFEDA9"/>
<stop offset="1" stop-color="#BC9632"/>
</linearGradient>
<linearGradient id="paint9_linear_280_2476" x1="-396.37" y1="145.29" x2="243.665" y2="144.745" gradientUnits="userSpaceOnUse">
<stop stop-color="#BC9632"/>
<stop offset="0.262187" stop-color="#FFEDA9"/>
<stop offset="1" stop-color="#BC9632"/>
</linearGradient>
<linearGradient id="paint10_linear_280_2476" x1="-396.37" y1="145.29" x2="243.665" y2="144.745" gradientUnits="userSpaceOnUse">
<stop stop-color="#BC9632"/>
<stop offset="0.262187" stop-color="#FFEDA9"/>
<stop offset="1" stop-color="#BC9632"/>
</linearGradient>
<linearGradient id="paint11_linear_280_2476" x1="-396.37" y1="145.29" x2="243.665" y2="144.745" gradientUnits="userSpaceOnUse">
<stop stop-color="#BC9632"/>
<stop offset="0.262187" stop-color="#FFEDA9"/>
<stop offset="1" stop-color="#BC9632"/>
</linearGradient>
<linearGradient id="paint12_linear_280_2476" x1="-396.37" y1="145.29" x2="243.665" y2="144.745" gradientUnits="userSpaceOnUse">
<stop stop-color="#BC9632"/>
<stop offset="0.262187" stop-color="#FFEDA9"/>
<stop offset="1" stop-color="#BC9632"/>
</linearGradient>
<linearGradient id="paint13_linear_280_2476" x1="-396.369" y1="145.29" x2="243.666" y2="144.746" gradientUnits="userSpaceOnUse">
<stop stop-color="#BC9632"/>
<stop offset="0.262187" stop-color="#FFEDA9"/>
<stop offset="1" stop-color="#BC9632"/>
</linearGradient>
<linearGradient id="paint14_linear_280_2476" x1="-396.371" y1="145.289" x2="243.665" y2="144.745" gradientUnits="userSpaceOnUse">
<stop stop-color="#BC9632"/>
<stop offset="0.262187" stop-color="#FFEDA9"/>
<stop offset="1" stop-color="#BC9632"/>
</linearGradient>
<linearGradient id="paint15_linear_280_2476" x1="-396.37" y1="145.29" x2="243.665" y2="144.745" gradientUnits="userSpaceOnUse">
<stop stop-color="#BC9632"/>
<stop offset="0.262187" stop-color="#FFEDA9"/>
<stop offset="1" stop-color="#BC9632"/>
</linearGradient>
<linearGradient id="paint16_linear_280_2476" x1="-396.369" y1="145.29" x2="243.665" y2="144.746" gradientUnits="userSpaceOnUse">
<stop stop-color="#BC9632"/>
<stop offset="0.262187" stop-color="#FFEDA9"/>
<stop offset="1" stop-color="#BC9632"/>
</linearGradient>
<linearGradient id="paint17_linear_280_2476" x1="-396.369" y1="145.29" x2="243.666" y2="144.746" gradientUnits="userSpaceOnUse">
<stop stop-color="#BC9632"/>
<stop offset="0.262187" stop-color="#FFEDA9"/>
<stop offset="1" stop-color="#BC9632"/>
</linearGradient>
<clipPath id="clip0_280_2476">
<rect width="296" height="264" fill="white"/>
</clipPath>
</defs>
</svg>
